<?xml version="1.0" encoding="UTF-8" standalone="no"?>
<!-- Created with Inkscape (http://www.inkscape.org/) -->

<svg
   width="55.616085mm"
   height="83.843132mm"
   viewBox="0 0 55.616084 83.84313"
   version="1.1"
   id="svg5"
   sodipodi:docname="layout.svg"
   inkscape:version="1.1 (c68e22c387, 2021-05-23)"
   xmlns:inkscape="http://www.inkscape.org/namespaces/inkscape"
   xmlns:sodipodi="http://sodipodi.sourceforge.net/DTD/sodipodi-0.dtd"
   xmlns="http://www.w3.org/2000/svg"
   xmlns:svg="http://www.w3.org/2000/svg">
  <sodipodi:namedview
     id="namedview7"
     pagecolor="#ffffff"
     bordercolor="#666666"
     borderopacity="1.0"
     inkscape:pageshadow="2"
     inkscape:pageopacity="0.0"
     inkscape:pagecheckerboard="0"
     inkscape:document-units="mm"
     showgrid="true"
     inkscape:zoom="4"
     inkscape:cx="90.875001"
     inkscape:cy="54.625"
     inkscape:window-width="1920"
     inkscape:window-height="1057"
     inkscape:window-x="-8"
     inkscape:window-y="-8"
     inkscape:window-maximized="1"
     inkscape:current-layer="g845"
     fit-margin-top="0"
     fit-margin-left="0"
     fit-margin-right="0"
     fit-margin-bottom="0"
     inkscape:lockguides="true"
     inkscape:snap-page="true"
     inkscape:snap-grids="false">
    <inkscape:grid
       type="xygrid"
       id="grid881"
       originx="0.040716359"
       originy="-1.4006098" />
  </sodipodi:namedview>
  <defs
     id="defs2">
    <inkscape:path-effect
       effect="spiro"
       id="path-effect15213"
       is_visible="true"
       lpeversion="1" />
    <rect
       x="-36.736336"
       y="188.37466"
       width="233.32642"
       height="50.209309"
       id="rect7328" />
    <rect
       x="-106.73828"
       y="164.46498"
       width="160.98953"
       height="41.170383"
       id="rect2600" />
    <inkscape:path-effect
       effect="spiro"
       id="path-effect1130"
       is_visible="true"
       lpeversion="1" />
  </defs>
  <g
     inkscape:label="[fixed] BG"
     inkscape:groupmode="layer"
     id="g831"
     transform="translate(0.04071638,-1.4006098)"
     style="display:none">
    <rect
       x="0"
       y="0"
       width="40"
       height="60"
       style="fill:#ffffff;fill-opacity:1;stroke:none"
       id="rect829" />
  </g>
  <g
     inkscape:label="Edge.Cuts"
     inkscape:groupmode="layer"
     id="g833"
     transform="translate(0.0407164, -1.40061)"
     style="display:inline">
    <path
       id="rect905"
       style="color:#000000;display:inline;opacity:1;fill:none;stroke:#000000;stroke-width:0.05;stroke-miterlimit:4;stroke-dasharray:none;stroke-opacity:1;paint-order:stroke markers fill"
       d="M 32.7692 5.01839 L 32.729 6.24701 L 32.711 7.53735 L 32.7232 9.06021 L 32.7474 9.85771 L 32.7871 10.652 L 32.8451 11.4225 L 32.9242 12.149 L 33.0269 12.8109 L 33.156 13.3877 L 33.2312 13.6378 L 33.3141 13.859 L 33.4049 14.0487 L 33.504 14.2044 L 33.5604 14.2118 L 33.6143 14.1939 L 33.6661 14.1523 L 33.7158 14.0886 L 33.8105 13.9014 L 33.9007 13.6455 L 34.0755 12.9794 L 34.2574 12.1944 L 34.4631 11.3945 L 34.5803 11.0216 L 34.7098 10.6841 L 34.8537 10.395 L 35.0142 10.1672 L 35.1013 10.0805 L 35.1934 10.0139 L 35.2907 9.96924 L 35.3934 9.94805 L 35.4648 10.0552 L 35.6104 10.3415 L 36.044 11.2129 L 36.2918 11.6784 L 36.5336 12.0843 L 36.6459 12.2462 L 36.7492 12.3707 L 36.8409 12.4505 L 36.9186 12.4781 L 36.9888 12.4501 L 37.0599 12.3729 L 37.1314 12.2539 L 37.2033 12.1 L 37.3469 11.7169 L 37.4889 11.2809 L 37.6272 10.8496 L 37.7601 10.4803 L 37.8239 10.3369 L 37.8855 10.2306 L 37.9449 10.1685 L 38.0016 10.1579 L 38.1351 10.212 L 38.2594 10.2834 L 38.4925 10.4579 L 38.7244 10.6412 L 38.8473 10.7237 L 38.9787 10.7933 L 39.0458 10.8088 L 39.1106 10.7964 L 39.1733 10.7605 L 39.2345 10.7053 L 39.3529 10.5545 L 39.4684 10.3783 L 39.5833 10.2112 L 39.7002 10.0876 L 39.7602 10.0528 L 39.8215 10.0418 L 39.8846 10.0589 L 39.9497 10.1083 L 40.0792 10.2668 L 40.203 10.4674 L 40.3215 10.7002 L 40.4354 10.9553 L 40.8528 11.9997 L 40.9634 12.2208 L 41.0884 12.4021 L 41.225 12.5471 L 41.3701 12.6594 L 41.5207 12.7424 L 41.6739 12.7998 L 41.8267 12.8349 L 41.9761 12.8515 L 42.2526 12.8426 L 42.4797 12.8014 L 42.69 12.7346 L 42.7253 11.9509 L 42.7429 11.6029 L 42.7944 11.2649 L 42.8783 10.9387 L 42.9928 10.626 L 43.1361 10.3284 L 43.3066 10.0478 L 43.5026 9.78575 L 43.7222 9.54403 L 43.964 9.32435 L 44.226 9.1284 L 44.5066 8.95791 L 44.8042 8.81457 L 45.1169 8.70012 L 45.4431 8.61624 L 45.7811 8.56466 L 46.1291 8.54709 L 46.4771 8.56466 L 46.8151 8.61624 L 47.1413 8.70012 L 47.454 8.81457 L 47.7515 8.95791 L 48.0322 9.1284 L 48.2942 9.32435 L 48.5359 9.54403 L 48.7556 9.78575 L 48.9516 10.0478 L 49.122 10.3284 L 49.2654 10.626 L 49.3798 10.9387 L 49.4637 11.2649 L 49.5153 11.6029 L 49.5329 11.9509 L 49.5324 12.0374 L 49.542 12.1287 L 49.5672 12.2373 L 49.6267 12.3337 L 49.7327 12.4253 L 49.8685 12.5095 L 50.0173 12.584 L 50.2866 12.6937 L 50.4062 12.7346 L 50.4062 12.7346 L 55.5504 15.3067 L 55.4988 85.2187 L -0.0157164 85.2187 L -0.0157164 14.7851 L 4.06638 12.6211 L 5.38117 11.9885 L 8.45002 10.4841 L 10.2318 9.58928 L 11.9596 8.69774 L 13.4693 7.88319 L 14.091 7.52784 L 14.5966 7.21939 L 14.8061 7.15514 L 15.0056 7.11418 L 15.1956 7.09547 L 15.3767 7.09795 L 15.5495 7.12057 L 15.7146 7.16228 L 15.8725 7.22203 L 16.0238 7.29877 L 16.1691 7.39145 L 16.3089 7.49902 L 16.5743 7.75462 L 16.8245 8.05717 L 17.0642 8.39825 L 17.2979 8.76947 L 17.5301 9.16242 L 18.008 9.97988 L 18.2628 10.3876 L 18.5343 10.7834 L 18.8269 11.1589 L 19.1452 11.5057 L 19.547 12.1436 L 20.3696 13.4667 L 20.839 14.1874 L 21.2939 14.8421 L 21.6947 15.3518 L 21.8622 15.5275 L 22.0013 15.6373 L 22.0587 15.6578 L 22.1082 15.6469 L 22.1503 15.6066 L 22.1856 15.5387 L 22.2378 15.3277 L 22.2695 15.029 L 22.2883 14.2289 L 22.2772 13.2591 L 22.2717 12.2402 L 22.2819 11.75 L 22.3068 11.2929 L 22.3507 10.8837 L 22.418 10.5378 L 22.5131 10.27 L 22.5724 10.1702 L 22.6404 10.0956 L 22.8317 9.9526 L 23.0368 9.83438 L 23.2534 9.74018 L 23.479 9.66929 L 23.7114 9.62097 L 23.9483 9.59451 L 24.1872 9.5892 L 24.4258 9.6043 L 24.6617 9.63911 L 24.8927 9.69291 L 25.1164 9.76496 L 25.3304 9.85457 L 25.5323 9.96099 L 25.7199 10.0835 L 25.8908 10.2214 L 26.0426 10.374 L 26.2072 10.6005 L 26.312 10.8351 L 26.3647 11.0782 L 26.3732 11.3301 L 26.3453 11.5909 L 26.2887 11.8609 L 26.1206 12.4297 L 25.9311 13.0385 L 25.8478 13.3585 L 25.7826 13.6893 L 25.7431 14.0311 L 25.7372 14.3842 L 25.7727 14.7488 L 25.8573 15.1252 L 25.9525 15.3903 L 26.0616 15.5918 L 26.1822 15.7359 L 26.312 15.8288 L 26.4486 15.8767 L 26.5896 15.8857 L 26.7327 15.8621 L 26.8755 15.8121 L 27.0156 15.7417 L 27.1507 15.6573 L 27.3961 15.471 L 27.5927 15.3026 L 27.7217 15.2015 L 27.8787 15.0835 L 28.0239 14.9187 L 28.1576 14.7104 L 28.2804 14.4619 L 28.3926 14.1765 L 28.4947 13.8576 L 28.5872 13.5084 L 28.6705 13.1323 L 28.8114 12.3126 L 28.921 11.425 L 29.003 10.4961 L 29.0609 9.5523 L 29.0985 8.62019 L 29.1192 7.72629 L 29.125 6.15925 L 29.1072 5.06339 L 29.0948 4.65095 L 28.7305 4.30402 L 28.5602 4.28675 L 28.4016 4.23742 L 28.2581 4.15942 L 28.133 4.05615 L 28.0299 3.93101 L 27.952 3.78741 L 27.9029 3.62874 L 27.8858 3.45841 L 27.9339 3.25028 L 27.9549 3.09027 L 27.9484 2.96284 L 27.9139 2.85244 L 27.851 2.74354 L 27.7594 2.62058 L 27.4883 2.27035 L 27.5055 2.10015 L 27.5548 1.94162 L 27.6327 1.79817 L 27.7359 1.67317 L 27.8609 1.57003 L 28.0043 1.49212 L 28.1628 1.44285 L 28.333 1.42561 L 28.4195 1.43506 L 28.5034 1.46185 L 28.6621 1.55751 L 28.8057 1.6928 L 28.9309 1.8479 L 29.1122 2.13833 L 29.1787 2.27035 L 30.033 2.27035 L 30.0995 2.13833 L 30.2808 1.8479 L 30.4059 1.6928 L 30.5496 1.55751 L 30.7083 1.46185 L 30.7922 1.43506 L 30.8786 1.42561 L 30.965 1.43514 L 31.0488 1.46198 L 31.2074 1.55771 L 31.3509 1.69301 L 31.4759 1.84808 L 31.657 2.1384 L 31.7234 2.27035 L 32.5786 2.27035 L 32.645 2.1384 L 32.8261 1.84808 L 32.9511 1.69301 L 33.0946 1.55771 L 33.2531 1.46198 L 33.337 1.43514 L 33.4233 1.42561 L 33.5937 1.4427 L 33.7523 1.49187 L 33.8959 1.56972 L 34.0211 1.67286 L 34.1243 1.79789 L 34.2023 1.94141 L 34.2517 2.10003 L 34.2689 2.27035 L 34.1524 2.43236 L 34.0377 2.56767 L 33.9334 2.6877 L 33.8483 2.80388 L 33.791 2.92761 L 33.77 3.07034 L 33.7939 3.24346 L 33.8715 3.45841 L 33.8544 3.62874 L 33.8052 3.78741 L 33.7274 3.93101 L 33.6242 4.05615 L 33.4992 4.15942 L 33.3557 4.23742 L 33.1971 4.28675 L 33.0267 4.30402 L 32.7692 5.01839"
       sodipodi:nodetypes="ccssssscccscsccccccccssssssccccccccccccccc" />
    <text
       xml:space="preserve"
       transform="matrix(0.36743868,0,0,0.36743868,-0.17580964,3.0296098)"
       id="text2598"
       style="font-style:normal;font-weight:normal;font-size:40px;line-height:1.25;font-family:sans-serif;letter-spacing:0px;word-spacing:0px;white-space:pre;shape-inside:url(#rect2600);fill:#000000;fill-opacity:1;stroke:none"><tspan
         x="-106.73828"
         y="241.02539"
         id="tspan1156"><tspan
           dx="0 29.277344 29.921875 11.796875 25.527344 24.257812"
           style="fill:#ff0000"
           id="tspan1154">UNIKAT</tspan></tspan></text>
  </g>
  <g
     inkscape:label="B.Cu"
     inkscape:groupmode="layer"
     id="g835"
     transform="translate(0.04071638,-1.4006098)"
     style="display:inline" />
  <g
     inkscape:label="B.Mask"
     inkscape:groupmode="layer"
     id="g837"
     transform="translate(0.04071638,-1.4006098)"
     style="display:inline">
    <g
       id="g5580"
       style="fill:#000000"
       transform="matrix(-0.26458333,0,0,0.26458333,128.93093,-14.050697)" />
    <g
       id="g5582"
       style="fill:#000000"
       transform="matrix(-0.26458333,0,0,0.26458333,128.93093,-14.050697)" />
    <g
       id="g5584"
       style="fill:#000000"
       transform="matrix(-0.26458333,0,0,0.26458333,128.93093,-14.050697)" />
    <g
       id="g5586"
       style="fill:#000000"
       transform="matrix(-0.26458333,0,0,0.26458333,128.93093,-14.050697)" />
    <g
       id="g5588"
       style="fill:#000000"
       transform="matrix(-0.26458333,0,0,0.26458333,128.93093,-14.050697)" />
    <g
       id="g5590"
       style="fill:#000000"
       transform="matrix(-0.26458333,0,0,0.26458333,128.93093,-14.050697)" />
  </g>
  <g
     inkscape:label="B.SilkS"
     inkscape:groupmode="layer"
     id="g839"
     transform="translate(0.04071638,-1.4006098)"
     style="display:inline" />
  <g
     inkscape:label="F.Cu"
     inkscape:groupmode="layer"
     id="g841"
     transform="translate(0.04071638,-1.4006098)"
     style="display:inline" />
  <g
     inkscape:label="F.Mask"
     inkscape:groupmode="layer"
     id="g843"
     transform="translate(0.04071638,-1.4006098)"
     style="display:inline" />
  <g
     inkscape:label="F.SilkS"
     inkscape:groupmode="layer"
     id="g845"
     transform="translate(0.04071638,-1.4006098)"
     style="display:inline">
    <path
       id="rect19692"
       style="display:inline;fill:#ff0000;stroke-width:1.61348;paint-order:stroke markers fill"
       d="M 110.11719 5.46875 L 110.11719 8.2460938 L 116.56836 8.2246094 L 122.61523 8.2460938 L 122.61523 5.46875 L 121.22656 5.46875 L 121.22656 6.8574219 L 119.83789 6.8574219 L 119.83789 5.46875 L 118.44922 5.46875 L 118.44922 6.8574219 L 117.06055 6.8574219 L 117.06055 5.46875 L 115.67188 5.46875 L 115.67188 6.8574219 L 114.2832 6.8574219 L 114.2832 5.46875 L 112.89453 5.46875 L 112.89453 6.8574219 L 111.50586 6.8574219 L 111.50586 5.46875 L 110.11719 5.46875 z M 110.11719 9.6347656 L 111.50586 11.023438 L 121.22656 11.023438 L 122.61523 9.6347656 L 110.11719 9.6347656 z M 111.50586 12.412109 L 111.50586 34.630859 L 110.11719 56.851562 L 97.619141 62.279297 L 97.242188 62.699219 L 96.810547 63.064453 L 96.244141 63.384766 L 95.919922 63.496094 L 95.572266 63.554688 L 95.203125 63.548828 L 94.816406 63.462891 L 94.414062 63.287109 L 94 63.003906 L 93.576172 62.601562 L 93.148438 62.066406 L 92.923828 61.558594 L 92.710938 60.759766 L 92.328125 58.470703 L 92.025391 55.535156 L 91.824219 52.292969 L 91.75 49.076172 L 91.826172 46.224609 L 91.925781 45.041016 L 92.072266 44.076172 L 92.267578 43.369141 L 92.515625 42.964844 L 93.900391 41.833984 L 94.5625 41.207031 L 95.076172 40.523438 L 95.412109 39.757812 L 95.607422 38.919922 L 95.667969 38.046875 L 95.595703 37.169922 L 95.480469 36.708984 L 95.289062 36.263672 L 95.027344 35.84375 L 94.703125 35.455078 L 94.322266 35.103516 L 93.890625 34.796875 L 93.412109 34.541016 L 92.896484 34.34375 L 92.347656 34.208984 L 91.773438 34.148438 L 91.179688 34.164062 L 90.572266 34.265625 L 89.955078 34.457031 L 89.337891 34.748047 L 88.726562 35.144531 L 88.125 35.652344 L 87.732422 36.140625 L 87.408203 36.8125 L 87.207031 37.632812 L 87.189453 38.564453 L 87.265625 39.060547 L 87.410156 39.572266 L 87.628906 40.095703 L 87.929688 40.626953 L 88.318359 41.158203 L 88.804688 41.6875 L 89.392578 42.210938 L 90.091797 42.722656 L 90.271484 44.169922 L 90.357422 45.619141 L 90.339844 48.546875 L 90.216797 51.554688 L 90.171875 54.689453 L 90.150391 56.271484 L 90.017578 57.791016 L 89.757812 59.234375 L 89.355469 60.582031 L 88.791016 61.820312 L 88.443359 62.392578 L 88.048828 62.931641 L 87.605469 63.433594 L 87.111328 63.898438 L 86.564453 64.324219 L 85.962891 64.707031 L 85.634766 63.582031 L 85.453125 62.408203 L 85.328125 61.244141 L 85.167969 60.144531 L 84.882812 59.164062 L 84.666016 58.736328 L 84.384766 58.357422 L 84.027344 58.039062 L 83.580078 57.783203 L 83.037109 57.599609 L 82.382812 57.494141 L 81.818359 57.095703 L 81.541016 56.994141 L 81.269531 56.951172 L 80.738281 57.017578 L 80.232422 57.255859 L 79.755859 57.626953 L 79.310547 58.087891 L 78.541016 59.119141 L 77.958984 60.025391 L 77.603516 60.480469 L 77.554688 60.484375 L 77.523438 60.435547 L 77.513672 60.158203 L 77.722656 58.734375 L 75.929688 56.195312 L 74.185547 53.474609 L 72.486328 50.621094 L 70.818359 47.675781 L 67.542969 41.695312 L 65.917969 38.75 L 64.289062 35.892578 L 63.705078 35.216797 L 63.1875 34.466797 L 62.724609 33.660156 L 62.308594 32.8125 L 61.583984 31.064453 L 60.943359 29.351562 L 60.318359 27.810547 L 59.990234 27.144531 L 59.640625 26.572266 L 59.261719 26.109375 L 58.841797 25.769531 L 58.375 25.574219 L 57.851562 25.537109 L 57.423828 25.621094 L 56.955078 25.810547 L 56.445312 26.107422 L 55.888672 26.521484 L 49.541016 30.386719 L 42.167969 34.691406 L 34.345703 39.140625 L 26.650391 43.439453 L 13.951172 50.416016 L 8.6933594 53.263672 L 3.1855469 56.724609 L 3.1855469 76.166016 L 205.94141 76.166016 L 205.94141 55.335938 L 205.48633 54.470703 L 205.125 53.888672 L 204.79297 53.486328 L 204.43555 53.15625 L 203.40039 52.296875 L 202.60156 51.556641 L 201.53711 50.46875 L 183.70117 42.015625 L 183.90625 40.921875 L 183.97461 39.8125 L 183.92773 38.875 L 183.78906 37.964844 L 183.5625 37.085938 L 183.25391 36.244141 L 182.86719 35.441406 L 182.4082 34.685547 L 181.88086 33.980469 L 181.28906 33.328125 L 180.63672 32.738281 L 179.93164 32.208984 L 179.17578 31.75 L 178.375 31.365234 L 177.53125 31.056641 L 176.65234 30.830078 L 175.74219 30.691406 L 174.80469 30.644531 L 173.86719 30.691406 L 172.95703 30.830078 L 172.07812 31.056641 L 171.23633 31.365234 L 170.43359 31.75 L 169.67773 32.208984 L 168.97266 32.738281 L 168.32031 33.328125 L 167.72852 33.980469 L 167.20117 34.685547 L 166.74219 35.441406 L 166.35547 36.244141 L 166.04688 37.085938 L 165.82031 37.964844 L 165.68164 38.875 L 165.63477 39.8125 L 165.71875 41.064453 L 165.9668 42.265625 L 166.36523 43.404297 L 166.90625 44.466797 L 167.57422 45.445312 L 168.35938 46.328125 L 169.25195 47.103516 L 170.24023 47.759766 L 167.42773 46.986328 L 164.08984 46.111328 L 162.42383 45.728516 L 160.86719 45.429688 L 159.49609 45.255859 L 158.39453 45.242188 L 157.14648 45.386719 L 156.19336 45.576172 L 155.49609 45.794922 L 155.01758 46.033203 L 154.7168 46.271484 L 154.55859 46.498047 L 154.50195 46.699219 L 154.50781 46.859375 L 153.16797 42.835938 L 150.39062 37.28125 L 150.26367 38.130859 L 150.08789 39.005859 L 149.82031 40.009766 L 149.45117 41.021484 L 148.96875 41.914062 L 148.67969 42.275391 L 148.35938 42.560547 L 148.00391 42.751953 L 147.61328 42.835938 L 147.42188 42.505859 L 147.20312 41.974609 L 146.74609 40.611328 L 146.22461 38.798828 L 145.98047 38.035156 L 145.69336 37.421875 L 145.51367 37.15625 L 145.3125 36.957031 L 145.0918 36.851562 L 144.85156 36.867188 L 144.59375 37.033203 L 144.32031 37.378906 L 144.0332 37.931641 L 143.73242 38.720703 L 143.42188 39.771484 L 143.09961 41.117188 L 142.05859 45.613281 L 141.25781 48.767578 L 141.01758 50.011719 L 140.86523 51.060547 L 140.76367 52.667969 L 140.84375 53.773438 L 140.98633 54.550781 L 141.08203 55.183594 L 141.01367 55.847656 L 140.66992 56.724609 L 137.89258 56.724609 L 137.71484 56.416016 L 137.35156 55.578125 L 137.17969 55.001953 L 137.05273 54.341797 L 137.00586 53.615234 L 137.07031 52.837891 L 137.25 52.210938 L 137.50977 51.875 L 137.82031 51.761719 L 138.14648 51.796875 L 138.7207 52.019531 L 138.9043 52.0625 L 138.97656 51.962891 L 138.93555 51.21875 L 138.78125 50.320312 L 138.19922 48.183594 L 137.36133 45.769531 L 136.39062 43.300781 L 134.56055 39.080078 L 133.72656 37.28125 L 133.17773 39.720703 L 132.59375 41.849609 L 131.99219 43.699219 L 131.40039 45.298828 L 130.32812 47.863281 L 129.56055 49.779297 L 129.16602 51.4375 L 129.01758 52.361328 L 129.0293 52.605469 L 129.0957 52.734375 L 129.21484 52.767578 L 129.38672 52.730469 L 129.87109 52.533203 L 130.53516 52.318359 L 130.92969 52.261719 L 131.36328 52.267578 L 131.83203 52.359375 L 132.33594 52.558594 L 132.33594 55.335938 L 128.16992 53.947266 L 122.61523 54.074219 L 121.22656 34.630859 L 121.22656 12.412109 L 111.50586 12.412109 z M 114.99609 16.451172 L 117.77344 16.451172 L 117.77344 23.394531 L 114.99609 23.394531 L 114.99609 16.451172 z M 55.052734 28.113281 L 50.154297 31.751953 L 45.0625 35.318359 L 39.828125 38.828125 L 34.503906 42.304688 L 23.789062 49.234375 L 18.498047 52.726562 L 13.320312 56.263672 L 12.707031 56.214844 L 12.205078 56.037109 L 11.341797 55.515625 L 10.876953 55.28125 L 10.322266 55.136719 L 9.6269531 55.136719 L 8.7382812 55.335938 L 14.408203 51.820312 L 20.105469 48.353516 L 31.59375 41.535156 L 43.234375 34.808594 L 55.052734 28.113281 z M 57.900391 29.160156 L 57.933594 29.160156 L 58 29.189453 L 58.041016 29.271484 L 57.980469 29.626953 L 57.761719 29.488281 L 57.716797 29.341797 L 57.783203 29.220703 L 57.900391 29.160156 z M 57.25 29.328125 L 57.378906 29.429688 L 57.529297 29.71875 L 57.679688 30.216797 L 57.802734 30.943359 L 57.382812 30.291016 L 57.181641 29.773438 L 57.154297 29.4375 L 57.189453 29.351562 L 57.25 29.328125 z M 54.328125 29.691406 L 53.648438 31.994141 L 52.785156 34.542969 L 50.720703 40.128906 L 48.560547 45.935547 L 47.576172 48.759766 L 46.728516 51.445312 L 46.585938 52.275391 L 46.384766 53.039062 L 46.125 53.742188 L 45.808594 54.384766 L 45.443359 54.970703 L 45.027344 55.503906 L 44.566406 55.988281 L 44.0625 56.423828 L 42.941406 57.167969 L 41.685547 57.761719 L 40.320312 58.228516 L 38.869141 58.591797 L 37.359375 58.876953 L 35.8125 59.107422 L 32.707031 59.507812 L 31.199219 59.724609 L 29.75 59.986328 L 28.388672 60.316406 L 27.136719 60.738281 L 25.701172 60.806641 L 25.480469 60.507812 L 22.601562 59.550781 L 19.929688 58.578125 L 17.332031 57.714844 L 16.019531 57.365234 L 14.673828 57.089844 L 16.845703 55.271484 L 19.099609 53.482422 L 21.427734 51.71875 L 23.822266 49.976562 L 28.767578 46.544922 L 33.863281 43.167969 L 44.224609 36.470703 L 49.345703 33.103516 L 54.328125 29.691406 z M 56.859375 30.539062 L 56.955078 30.646484 L 57.070312 31.066406 L 57.34375 33.115234 L 57.222656 33.222656 L 57.115234 33.244141 L 57.021484 33.189453 L 56.941406 33.070312 L 56.820312 32.681641 L 56.748047 32.166016 L 56.732422 31.091797 L 56.779297 30.707031 L 56.859375 30.539062 z M 61.414062 31.978516 L 68.433594 44.392578 L 71.912109 50.621094 L 75.347656 56.875 L 74.349609 55.542969 L 73.376953 54.148438 L 71.5 51.208984 L 69.703125 48.107422 L 67.96875 44.894531 L 64.642578 38.347656 L 61.414062 31.978516 z M 174.80469 32.320312 L 175.57031 32.359375 L 176.31445 32.472656 L 177.0332 32.658203 L 177.7207 32.910156 L 178.375 33.224609 L 178.99414 33.599609 L 179.57031 34.03125 L 180.10156 34.515625 L 180.58594 35.046875 L 181.01758 35.623047 L 181.39258 36.242188 L 181.70703 36.896484 L 181.95898 37.583984 L 182.14453 38.302734 L 182.25781 39.046875 L 182.29688 39.8125 L 182.25781 40.578125 L 182.14453 41.322266 L 181.96094 42.041016 L 181.70898 42.728516 L 181.39258 43.384766 L 181.01758 44.001953 L 180.58594 44.580078 L 180.10352 45.111328 L 179.57031 45.59375 L 178.99414 46.025391 L 178.37695 46.402344 L 177.7207 46.716797 L 177.0332 46.96875 L 176.31445 47.154297 L 175.57031 47.267578 L 174.80469 47.306641 L 174.03906 47.267578 L 173.29492 47.154297 L 172.57617 46.96875 L 171.88867 46.716797 L 171.23438 46.402344 L 170.61523 46.025391 L 170.03906 45.59375 L 169.50586 45.111328 L 169.02344 44.580078 L 168.5918 44.001953 L 168.2168 43.384766 L 167.90234 42.728516 L 167.65039 42.041016 L 167.46484 41.322266 L 167.35156 40.578125 L 167.3125 39.8125 L 167.35156 39.046875 L 167.46484 38.302734 L 167.65039 37.583984 L 167.90234 36.896484 L 168.2168 36.242188 L 168.59375 35.623047 L 169.02344 35.046875 L 169.50781 34.515625 L 170.03906 34.03125 L 170.61719 33.599609 L 171.23438 33.224609 L 171.88867 32.910156 L 172.57617 32.658203 L 173.29492 32.472656 L 174.03906 32.359375 L 174.80469 32.320312 z M 60.792969 32.558594 L 60.976562 32.607422 L 61.236328 32.787109 L 61.896484 34.341797 L 62.638672 35.908203 L 64.306641 39.0625 L 66.125 42.226562 L 67.970703 45.382812 L 69.728516 48.505859 L 71.28125 51.580078 L 71.941406 53.091797 L 72.507812 54.582031 L 72.962891 56.050781 L 73.291016 57.492188 L 72.490234 57.8125 L 72.126953 57.380859 L 70.591797 54.609375 L 68.695312 51.009766 L 66.636719 46.947266 L 64.613281 42.789062 L 62.820312 38.904297 L 61.455078 35.660156 L 60.994141 34.392578 L 60.712891 33.421875 L 60.636719 32.794922 L 60.683594 32.626953 L 60.792969 32.558594 z M 55.955078 33.115234 L 55.488281 42.867188 L 55.035156 50.445312 L 54.794922 53.5625 L 54.556641 55.722656 L 54.558594 55.722656 L 54.523438 56.136719 L 54.429688 56.429688 L 54.287109 56.619141 L 54.099609 56.71875 L 53.873047 56.746094 L 53.617188 56.712891 L 53.037109 56.529297 L 52.410156 56.291016 L 51.785156 56.117188 L 51.490234 56.09375 L 51.214844 56.132812 L 50.966797 56.248047 L 50.75 56.455078 L 50.201172 56.277344 L 49.753906 56.041016 L 49.400391 55.746094 L 49.136719 55.396484 L 48.953125 54.994141 L 48.84375 54.542969 L 48.802734 54.046875 L 48.820312 53.503906 L 49.007812 52.300781 L 49.349609 50.953125 L 50.271484 47.914062 L 50.951172 45.820312 L 51.800781 43.460938 L 53.683594 38.611328 L 55.955078 33.115234 z M 59.244141 34.865234 L 62.216797 39.759766 L 63.939453 42.703125 L 65.693359 45.839844 L 67.384766 49.074219 L 68.917969 52.304688 L 69.595703 53.886719 L 70.197266 55.429688 L 70.712891 56.921875 L 71.128906 58.349609 L 70.572266 58.898438 L 69.113281 55.923828 L 67.527344 52.978516 L 64.259766 47.103516 L 62.712891 44.134766 L 61.316406 41.119141 L 60.695312 39.585938 L 60.136719 38.035156 L 59.650391 36.460938 L 59.244141 34.865234 z M 58.734375 40.058594 L 59.962891 42.470703 L 62.902344 48.011719 L 64.660156 51.162109 L 66.423828 54.144531 L 68.050781 56.636719 L 68.769531 57.603516 L 69.400391 58.326172 L 68.335938 58.539062 L 67.34375 58.619141 L 66.421875 58.572266 L 65.566406 58.408203 L 64.777344 58.134766 L 64.050781 57.761719 L 63.384766 57.294922 L 62.773438 56.744141 L 62.21875 56.119141 L 61.716797 55.425781 L 61.263672 54.673828 L 60.859375 53.871094 L 60.179688 52.148438 L 59.658203 50.324219 L 59.275391 48.462891 L 59.007812 46.634766 L 58.839844 44.904297 L 58.746094 43.337891 L 58.708984 40.96875 L 58.734375 40.058594 z M 57.34375 45.613281 L 57.755859 46.513672 L 58.703125 48.941406 L 59.240234 50.599609 L 59.751953 52.488281 L 60.181641 54.552734 L 60.474609 56.746094 L 60.447266 56.962891 L 60.347656 57.144531 L 60.183594 57.285156 L 59.955078 57.382812 L 59.667969 57.429688 L 59.328125 57.425781 L 58.5 57.242188 L 58.099609 57.041016 L 57.804688 56.769531 L 57.597656 56.457031 L 57.464844 56.134766 L 57.353516 55.576172 L 57.34375 55.335938 L 57.34375 45.613281 z M 181.80469 45.724609 L 194.99219 51.976562 L 192.79102 52.451172 L 190.74023 52.804688 L 188.91797 52.984375 L 188.11523 52.990234 L 187.39844 52.929688 L 184.91602 52.523438 L 182.84375 52.082031 L 181.0957 51.609375 L 179.58398 51.109375 L 176.91016 50.052734 L 174.11328 48.947266 L 174.80469 48.982422 L 175.80859 48.925781 L 176.79297 48.761719 L 177.74805 48.494141 L 178.66406 48.126953 L 179.53711 47.662109 L 180.35742 47.103516 L 181.11523 46.457031 L 181.80469 45.724609 z M 14.109375 60.65625 C 14.501021 60.66535 15.28513 60.820648 14.953125 61.328125 C 14.530207 61.8327 14.069885 62.371151 13.582031 62.947266 C 13.799291 62.911476 14.016038 62.875246 14.234375 62.84375 C 14.555914 62.79948 14.877057 62.734244 15.203125 62.714844 C 15.228025 62.714421 15.252464 62.713916 15.277344 62.714844 C 15.601796 62.715243 15.932039 62.946471 15.980469 63.279297 C 16.030269 63.576971 15.813355 63.860818 15.550781 63.976562 C 15.327156 64.054632 15.090589 64.087949 14.859375 64.136719 C 14.258297 64.242969 13.656903 64.333972 13.056641 64.445312 C 12.78867 64.495282 12.51979 64.546353 12.251953 64.599609 C 11.879826 65.102515 11.509165 65.602474 11.15625 66.123047 C 10.149391 67.717354 9.2690273 69.258436 8.9160156 71.138672 C 8.8869136 71.292461 8.8621684 71.610034 8.9746094 71.726562 C 9.1101054 71.727962 9.3264121 71.607246 9.4707031 71.544922 C 11.102926 70.701238 12.505515 69.624466 14.03125 68.607422 L 14.275391 67.964844 A 0.48738804 0.48738804 0 0 1 14.283203 67.949219 C 15.123345 65.940256 16.079104 63.895312 17.175781 62 A 0.48738804 0.48738804 0 0 1 17.236328 61.917969 C 17.337358 61.805188 17.460882 61.706051 17.605469 61.652344 C 17.750055 61.598637 17.910302 61.590908 18.076172 61.652344 C 18.242042 61.713776 18.395215 61.863425 18.453125 62.037109 C 18.511035 62.210794 18.480028 62.389495 18.410156 62.53125 A 0.48738804 0.48738804 0 0 1 18.394531 62.560547 C 17.896056 63.436008 16.678029 65.814865 16.058594 67.275391 C 17.129373 66.57865 18.403569 65.817199 19.412109 65.382812 C 19.861333 65.189049 20.498742 65.313042 20.763672 65.847656 C 20.865303 66.051637 20.867718 66.536887 20.777344 66.775391 C 20.298304 68.038365 19.740357 69.024682 19.205078 70.240234 C 19.003176 70.766023 18.605392 71.466032 18.673828 71.884766 C 18.728028 72.214718 20.912491 70.642517 21.251953 70.361328 C 21.379361 70.254972 22.226532 69.561883 22.376953 69.460938 C 22.700821 69.242745 22.934547 69.079513 23.226562 69.09375 C 23.801814 69.12285 24.366848 69.502642 24.042969 69.851562 C 22.532681 71.474325 20.919679 73.124002 18.929688 73.648438 C 18.050891 73.880147 16.797032 73.233616 16.726562 72.105469 C 16.667611 71.165685 16.964981 70.26456 17.34375 69.410156 C 17.510427 69.033413 17.948993 68.095956 18.154297 67.707031 C 17.0802 68.408126 16.066161 69.141169 15.044922 69.925781 C 14.966056 70.139053 14.882794 70.362854 14.777344 70.650391 C 14.353597 71.786229 14.159212 72.31559 13.855469 73.507812 C 13.752711 73.909036 13.342076 74.193186 12.976562 74.142578 C 12.793813 74.117274 12.612461 74.025563 12.488281 73.855469 C 12.364101 73.685379 12.323854 73.437389 12.378906 73.234375 C 12.501142 72.785493 12.7483 72.092888 12.955078 71.507812 C 12.066293 72.195295 11.157192 72.906724 10.162109 73.361328 C 9.4940399 73.666901 8.7623924 73.786525 8.2128906 73.601562 C 6.9844686 73.18757 6.6054687 72.338749 6.6054688 71.052734 L 6.6074219 71.052734 C 6.6670629 69.53296 7.5005759 68.124184 8.234375 66.847656 C 8.6114171 66.264679 9.0557676 65.716597 9.4941406 65.169922 C 9.4681446 65.175222 9.4420096 65.180237 9.4160156 65.185547 C 9.1856271 65.228417 8.9558615 65.279667 8.7226562 65.304688 C 8.5090487 65.293588 8.3156868 65.15311 8.2050781 64.974609 C 8.0600422 64.718089 8.1355401 64.37101 8.3671875 64.191406 C 8.5921953 64.021638 8.878685 63.972761 9.1445312 63.900391 C 9.7307435 63.762101 10.319965 63.632985 10.908203 63.503906 C 11.516143 62.826761 12.070649 62.209616 12.667969 61.636719 C 12.985071 61.333147 13.56665 60.759242 14.109375 60.65625 z M 125.1543 63.464844 L 128.4668 63.464844 L 128.4668 69.845703 C 128.4668 70.436235 128.589 70.857028 128.83398 71.107422 C 129.07899 71.358269 129.48822 71.484375 130.0625 71.484375 C 130.62258 71.484375 131.02326 71.361168 131.26367 71.115234 C 131.50409 70.869085 131.62305 70.445737 131.62305 69.845703 L 131.62305 63.464844 L 134.93555 63.464844 L 134.93555 70.107422 C 134.93555 71.40538 134.5188 72.396006 133.68555 73.080078 C 132.8523 73.764044 131.64497 74.105469 130.0625 74.105469 C 128.47053 74.105469 127.25429 73.762761 126.41406 73.076172 C 125.57371 72.390157 125.1543 71.400572 125.1543 70.107422 L 125.1543 63.464844 z M 136.86914 63.464844 L 140.01172 63.464844 L 142.9043 68.417969 C 142.9929 68.557532 143.08708 68.754005 143.1875 69.009766 C 143.28788 69.26519 143.39391 69.57343 143.50586 69.935547 C 143.47766 69.747444 143.45736 69.541036 143.44336 69.314453 C 143.42936 69.087995 143.42188 68.813082 143.42188 68.490234 L 143.42188 63.464844 L 146.58008 63.464844 L 146.58008 74.113281 L 143.42188 74.113281 L 140.53125 69.197266 C 140.44255 69.053012 140.34523 68.849383 140.24023 68.583984 C 140.13528 68.319058 140.02915 68.014073 139.92188 67.671875 C 139.95449 67.859869 139.97819 68.056906 139.99219 68.261719 C 140.00619 68.466422 140.01172 68.753472 140.01172 69.125 L 140.01172 74.113281 L 136.86914 74.113281 L 136.86914 63.464844 z M 148.59766 63.464844 L 151.97266 63.464844 L 151.97266 74.105469 L 148.59766 74.105469 L 148.59766 63.464844 z M 164.16016 63.464844 L 167.44336 63.464844 L 167.44336 66.953125 L 170.41211 63.464844 L 174.25586 63.464844 L 170.57422 67.345703 L 174.73242 73.994141 L 170.7832 73.994141 L 168.26172 69.777344 L 167.44336 70.640625 L 167.44336 73.994141 L 164.16016 73.994141 L 164.16016 63.464844 z M 185.48242 63.464844 L 188.83594 63.464844 L 192.46289 73.972656 L 189.17969 73.972656 L 188.79492 72.582031 L 185.50977 72.582031 L 185.11133 73.972656 L 181.85547 73.972656 L 185.48242 63.464844 z M 193.69336 63.464844 L 202.94336 63.464844 L 202.94336 66.267578 L 199.97461 66.267578 L 199.97461 74.105469 L 196.66211 74.105469 L 196.66211 66.267578 L 193.69336 66.267578 L 193.69336 63.464844 z M 24.322266 66.455078 C 24.418774 66.451188 24.513399 66.473389 24.601562 66.511719 C 25.038513 66.669378 25.221088 67.254959 24.941406 67.628906 C 24.664152 68.09442 23.890243 68.032568 23.669922 67.546875 C 23.406974 67.084919 23.807019 66.464478 24.322266 66.455078 z M 187.16211 66.738281 L 186.11133 70.376953 L 188.19141 70.376953 L 187.16211 66.738281 z M 176.58789 70.371094 C 176.62839 70.370294 176.66858 70.371247 176.70898 70.373047 C 177.17513 70.379885 177.6515 70.645416 177.82227 71.09375 C 177.87847 71.274451 177.97124 71.477319 177.89844 71.664062 C 177.77356 71.874471 177.49046 71.784908 177.29102 71.804688 C 177.13444 71.837742 176.97575 71.738852 176.96875 71.572266 C 176.94863 71.318628 176.64125 71.257756 176.43945 71.322266 C 176.28812 71.335502 176.23711 71.567621 176.39062 71.619141 C 176.79024 71.808012 177.25966 71.839402 177.625 72.105469 C 177.96356 72.326027 178.04841 72.760205 178.00781 73.136719 C 177.9804 73.598121 177.65737 74.021372 177.21094 74.152344 C 176.94033 74.228084 176.64944 74.246465 176.37109 74.210938 C 175.89662 74.136615 175.47774 73.778429 175.35938 73.308594 C 175.32618 73.12985 175.22722 72.897063 175.39258 72.759766 C 175.61454 72.700766 175.85205 72.743575 176.08008 72.734375 C 176.27007 72.749202 176.25091 72.959941 176.32031 73.087891 C 176.40972 73.277007 176.63532 73.282792 176.81445 73.263672 C 176.97203 73.273553 177.11482 73.114608 177.04102 72.962891 C 176.95323 72.847847 176.77898 72.848879 176.6543 72.792969 C 176.24079 72.662453 175.74129 72.568997 175.49414 72.171875 C 175.30246 71.812626 175.30911 71.358538 175.4668 70.988281 C 175.65715 70.561955 176.14454 70.367894 176.58789 70.371094 z M 158.58203 70.431641 C 158.9332 70.430513 159.28472 70.431383 159.63477 70.439453 C 159.84711 70.473777 159.80564 70.727703 159.80664 70.886719 C 159.79485 71.053026 159.86882 71.320707 159.65039 71.373047 C 159.22 71.400847 158.78272 71.378719 158.34961 71.386719 C 158.21161 71.387905 158.3155 71.62945 158.2832 71.736328 C 158.68967 71.741028 159.09687 71.727961 159.50195 71.744141 C 159.71429 71.778465 159.67283 72.03239 159.67383 72.191406 C 159.66204 72.357713 159.73601 72.625394 159.51758 72.677734 C 159.10929 72.705534 158.69421 72.681453 158.2832 72.689453 L 158.2832 73.173828 L 158.74609 73.173828 C 159.07848 73.185168 159.41525 73.151156 159.74414 73.191406 C 159.94457 73.287019 159.85175 73.548405 159.87305 73.726562 C 159.87128 73.890619 159.9192 74.154567 159.69531 74.185547 C 159.06377 74.199447 158.42782 74.187406 157.79492 74.191406 C 157.63086 74.189639 157.36694 74.237559 157.33594 74.013672 C 157.32194 73.021204 157.33408 72.025076 157.33008 71.03125 C 157.35508 70.842916 157.25964 70.602468 157.42578 70.462891 C 157.46034 70.453241 157.4947 70.443294 157.5293 70.433594 C 157.88004 70.435894 158.23086 70.432768 158.58203 70.431641 z M 161.30664 70.431641 C 161.57136 70.432158 161.83588 70.437517 162.09961 70.451172 C 162.45862 70.457339 162.79768 70.679045 162.93359 71.013672 C 163.12069 71.451084 163.1102 72.031942 162.75977 72.386719 C 162.78642 72.449214 162.86616 72.524519 162.89062 72.605469 C 163.02298 72.965209 162.95688 73.36129 163.01758 73.734375 C 163.07698 73.865218 163.16532 74.055603 163.00977 74.158203 C 162.80672 74.258303 162.56415 74.195684 162.3457 74.214844 C 162.14264 74.249483 162.04006 74.035628 162.03906 73.863281 C 161.99216 73.554933 162.02876 73.234229 161.94336 72.933594 C 161.74328 72.867464 161.51933 72.905952 161.31055 72.888672 C 161.30235 73.279959 161.32524 73.675616 161.29688 74.064453 C 161.23383 74.277239 160.96924 74.201044 160.80078 74.214844 C 160.63672 74.213077 160.3728 74.259043 160.3418 74.035156 C 160.3278 73.035324 160.33994 72.032439 160.33594 71.03125 C 160.36094 70.842916 160.26551 70.602468 160.43164 70.462891 C 160.45914 70.455221 160.48617 70.447153 160.51367 70.439453 C 160.77702 70.435448 161.04192 70.431123 161.30664 70.431641 z M 195.16211 70.480469 C 195.32617 70.473534 195.48722 70.482004 195.625 70.564453 C 195.6881 70.802777 195.71375 71.10065 195.62305 71.332031 C 195.41848 71.508071 195.08771 71.378559 194.83203 71.417969 L 194.83203 73.472656 C 194.7828 73.723929 194.97235 74.163457 194.63086 74.248047 C 194.4065 74.205795 194.07548 74.352248 193.93164 74.130859 C 193.86104 73.473581 193.91999 72.79335 193.90039 72.126953 C 193.83822 71.916979 194.03158 71.449569 193.79102 71.417969 C 193.55292 71.372136 193.20384 71.529701 193.04688 71.302734 C 193.01428 71.060746 192.95638 70.75982 193.08594 70.537109 L 193.0918 70.535156 L 193.13281 70.519531 C 193.63568 70.448311 194.16375 70.508241 194.67578 70.488281 C 194.83132 70.509201 194.99805 70.487403 195.16211 70.480469 z M 179.22461 70.5 C 179.7933 70.497349 180.36304 70.503 180.93164 70.5 C 181.12563 70.508919 181.14846 70.724802 181.13086 70.876953 C 181.10586 71.065287 181.2013 71.305736 181.03516 71.445312 C 180.79444 71.506472 180.53812 71.459899 180.29102 71.474609 L 180.29102 72.666016 C 180.28282 73.124001 180.3078 73.585485 180.2793 74.041016 C 180.21626 74.253802 179.9497 74.177606 179.78125 74.191406 C 179.61719 74.189639 179.35327 74.237559 179.32227 74.013672 C 179.30827 73.168894 179.32041 72.320744 179.31641 71.474609 L 178.67773 71.474609 C 178.48373 71.46569 178.45896 71.249807 178.47656 71.097656 C 178.50156 70.909323 178.40809 70.668875 178.57422 70.529297 C 178.60172 70.521627 178.62875 70.513559 178.65625 70.505859 C 178.84544 70.502409 179.03505 70.500884 179.22461 70.5 z M 153.28516 70.519531 C 153.30783 70.519568 153.32908 70.519817 153.34961 70.521484 C 153.53097 70.542992 153.78492 70.462069 153.90625 70.642578 C 154.01169 71.040539 154.09706 71.444915 154.19336 71.845703 C 154.26989 71.468661 154.34868 71.09176 154.42578 70.714844 C 154.46969 70.479867 154.74793 70.538254 154.92383 70.527344 C 155.08617 70.540686 155.3247 70.464124 155.4082 70.652344 C 155.51342 71.039041 155.57596 71.441247 155.66406 71.833984 C 155.7185 71.595018 155.77613 71.355796 155.83203 71.117188 C 155.89538 70.941413 155.87499 70.722115 156.00586 70.580078 C 156.18093 70.488438 156.39918 70.540281 156.59375 70.525391 C 156.74758 70.505093 156.9396 70.597627 156.9082 70.779297 C 156.65529 71.836805 156.38672 72.891407 156.12695 73.947266 C 156.10668 74.133862 155.9007 74.188082 155.74219 74.169922 C 155.56301 74.150064 155.29594 74.24393 155.21094 74.029297 C 155.10514 73.57826 155.02263 73.118717 154.92773 72.664062 C 154.84324 73.09026 154.76132 73.516616 154.66992 73.941406 C 154.6525 74.13056 154.44538 74.188942 154.28516 74.169922 C 154.1006 74.152514 153.82774 74.242943 153.74414 74.017578 C 153.47677 72.930137 153.20342 71.843328 152.9375 70.755859 C 152.93124 70.56516 153.12643 70.519273 153.28516 70.519531 z M 161.37305 71.390625 C 161.26671 71.403132 161.33773 71.597024 161.31445 71.693359 C 161.285 71.857441 161.31193 71.964902 161.5 71.914062 C 161.67139 71.895636 161.86801 71.951341 162.02539 71.869141 C 162.09019 71.753685 162.08291 71.592664 162.03711 71.470703 C 161.91197 71.343003 161.70839 71.422524 161.55078 71.398438 L 161.42969 71.396484 C 161.40644 71.39002 161.38824 71.388838 161.37305 71.390625 z "
       transform="matrix(0.26458333,0,0,0.26458333,-0.04071638,1.4006098)" />
  </g>
  <g
     inkscape:label="Dwgs.User"
     inkscape:groupmode="layer"
     id="g847"
     transform="translate(0.04071638,-1.4006098)"
     style="display:inline" />
  <g
     inkscape:label="Drill"
     inkscape:groupmode="layer"
     id="g849"
     transform="translate(0.0407164, -1.40061)"
     style="display:inline" />
</svg>
