<?xml version="1.0" encoding="UTF-8" standalone="no"?>
<!-- Created with Inkscape (http://www.inkscape.org/) -->

<svg
   width="55.616085mm"
   height="83.843132mm"
   viewBox="0 0 55.616084 83.84313"
   version="1.1"
   id="svg5"
   sodipodi:docname="layout.svg.2022_03_24_21_41_44.0.svg"
   inkscape:version="1.1 (c68e22c387, 2021-05-23)"
   xmlns:inkscape="http://www.inkscape.org/namespaces/inkscape"
   xmlns:sodipodi="http://sodipodi.sourceforge.net/DTD/sodipodi-0.dtd"
   xmlns:xlink="http://www.w3.org/1999/xlink"
   xmlns="http://www.w3.org/2000/svg"
   xmlns:svg="http://www.w3.org/2000/svg">
  <sodipodi:namedview
     id="namedview7"
     pagecolor="#ffffff"
     bordercolor="#666666"
     borderopacity="1.0"
     inkscape:pageshadow="2"
     inkscape:pageopacity="0.0"
     inkscape:pagecheckerboard="0"
     inkscape:document-units="mm"
     showgrid="true"
     inkscape:zoom="4"
     inkscape:cx="90.875001"
     inkscape:cy="54.625"
     inkscape:window-width="1920"
     inkscape:window-height="1057"
     inkscape:window-x="-8"
     inkscape:window-y="-8"
     inkscape:window-maximized="1"
     inkscape:current-layer="g845"
     fit-margin-top="0"
     fit-margin-left="0"
     fit-margin-right="0"
     fit-margin-bottom="0"
     inkscape:lockguides="true"
     inkscape:snap-page="true"
     inkscape:snap-grids="false">
    <inkscape:grid
       type="xygrid"
       id="grid881"
       originx="0.040716359"
       originy="-1.4006098" />
  </sodipodi:namedview>
  <defs
     id="defs2">
    <inkscape:path-effect
       effect="spiro"
       id="path-effect15213"
       is_visible="true"
       lpeversion="1" />
    <rect
       x="-36.736336"
       y="188.37466"
       width="233.32642"
       height="50.209309"
       id="rect7328" />
    <rect
       x="-106.73828"
       y="164.46498"
       width="160.98953"
       height="41.170383"
       id="rect2600" />
    <inkscape:path-effect
       effect="spiro"
       id="path-effect1130"
       is_visible="true"
       lpeversion="1" />
  </defs>
  <g
     inkscape:label="[fixed] BG"
     inkscape:groupmode="layer"
     id="g831"
     transform="translate(0.04071638,-1.4006098)"
     style="display:none">
    <rect
       x="0"
       y="0"
       width="40"
       height="60"
       style="fill:#ffffff;fill-opacity:1;stroke:none"
       id="rect829" />
  </g>
  <g
     inkscape:label="Edge.Cuts"
     inkscape:groupmode="layer"
     id="g833"
     transform="translate(0.0407164, -1.40061)"
     style="display:inline">
    <path
       id="rect905"
       style="color:#000000;display:inline;opacity:1;fill:none;stroke:#000000;stroke-width:0.05;stroke-miterlimit:4;stroke-dasharray:none;stroke-opacity:1;paint-order:stroke markers fill"
       d="M 32.7692 5.01839 L 32.729 6.24701 L 32.711 7.53735 L 32.7232 9.06021 L 32.7474 9.85771 L 32.7871 10.652 L 32.8451 11.4225 L 32.9242 12.149 L 33.0269 12.8109 L 33.156 13.3877 L 33.2312 13.6378 L 33.3141 13.859 L 33.4049 14.0487 L 33.504 14.2044 L 33.5604 14.2118 L 33.6143 14.1939 L 33.6661 14.1523 L 33.7158 14.0886 L 33.8105 13.9014 L 33.9007 13.6455 L 34.0755 12.9794 L 34.2574 12.1944 L 34.4631 11.3945 L 34.5803 11.0216 L 34.7098 10.6841 L 34.8537 10.395 L 35.0142 10.1672 L 35.1013 10.0805 L 35.1934 10.0139 L 35.2907 9.96924 L 35.3934 9.94805 L 35.4648 10.0552 L 35.6104 10.3415 L 36.044 11.2129 L 36.2918 11.6784 L 36.5336 12.0843 L 36.6459 12.2462 L 36.7492 12.3707 L 36.8409 12.4505 L 36.9186 12.4781 L 36.9888 12.4501 L 37.0599 12.3729 L 37.1314 12.2539 L 37.2033 12.1 L 37.3469 11.7169 L 37.4889 11.2809 L 37.6272 10.8496 L 37.7601 10.4803 L 37.8239 10.3369 L 37.8855 10.2306 L 37.9449 10.1685 L 38.0016 10.1579 L 38.1351 10.212 L 38.2594 10.2834 L 38.4925 10.4579 L 38.7244 10.6412 L 38.8473 10.7237 L 38.9787 10.7933 L 39.0458 10.8088 L 39.1106 10.7964 L 39.1733 10.7605 L 39.2345 10.7053 L 39.3529 10.5545 L 39.4684 10.3783 L 39.5833 10.2112 L 39.7002 10.0876 L 39.7602 10.0528 L 39.8215 10.0418 L 39.8846 10.0589 L 39.9497 10.1083 L 40.0792 10.2668 L 40.203 10.4674 L 40.3215 10.7002 L 40.4354 10.9553 L 40.8528 11.9997 L 40.9634 12.2208 L 41.0884 12.4021 L 41.225 12.5471 L 41.3701 12.6594 L 41.5207 12.7424 L 41.6739 12.7998 L 41.8267 12.8349 L 41.9761 12.8515 L 42.2526 12.8426 L 42.4797 12.8014 L 42.69 12.7346 L 42.7253 11.9509 L 42.7429 11.6029 L 42.7944 11.2649 L 42.8783 10.9387 L 42.9928 10.626 L 43.1361 10.3284 L 43.3066 10.0478 L 43.5026 9.78575 L 43.7222 9.54403 L 43.964 9.32435 L 44.226 9.1284 L 44.5066 8.95791 L 44.8042 8.81457 L 45.1169 8.70012 L 45.4431 8.61624 L 45.7811 8.56466 L 46.1291 8.54709 L 46.4771 8.56466 L 46.8151 8.61624 L 47.1413 8.70012 L 47.454 8.81457 L 47.7515 8.95791 L 48.0322 9.1284 L 48.2942 9.32435 L 48.5359 9.54403 L 48.7556 9.78575 L 48.9516 10.0478 L 49.122 10.3284 L 49.2654 10.626 L 49.3798 10.9387 L 49.4637 11.2649 L 49.5153 11.6029 L 49.5329 11.9509 L 49.5324 12.0374 L 49.542 12.1287 L 49.5672 12.2373 L 49.6267 12.3337 L 49.7327 12.4253 L 49.8685 12.5095 L 50.0173 12.584 L 50.2866 12.6937 L 50.4062 12.7346 L 50.4062 12.7346 L 55.5504 15.3067 L 55.4988 85.2187 L -0.0157164 85.2187 L -0.0157164 14.7851 L 4.06638 12.6211 L 5.38117 11.9885 L 8.45002 10.4841 L 10.2318 9.58928 L 11.9596 8.69774 L 13.4693 7.88319 L 14.091 7.52784 L 14.5966 7.21939 L 14.8061 7.15514 L 15.0056 7.11418 L 15.1956 7.09547 L 15.3767 7.09795 L 15.5495 7.12057 L 15.7146 7.16228 L 15.8725 7.22203 L 16.0238 7.29877 L 16.1691 7.39145 L 16.3089 7.49902 L 16.5743 7.75462 L 16.8245 8.05717 L 17.0642 8.39825 L 17.2979 8.76947 L 17.5301 9.16242 L 18.008 9.97988 L 18.2628 10.3876 L 18.5343 10.7834 L 18.8269 11.1589 L 19.1452 11.5057 L 19.547 12.1436 L 20.3696 13.4667 L 20.839 14.1874 L 21.2939 14.8421 L 21.6947 15.3518 L 21.8622 15.5275 L 22.0013 15.6373 L 22.0587 15.6578 L 22.1082 15.6469 L 22.1503 15.6066 L 22.1856 15.5387 L 22.2378 15.3277 L 22.2695 15.029 L 22.2883 14.2289 L 22.2772 13.2591 L 22.2717 12.2402 L 22.2819 11.75 L 22.3068 11.2929 L 22.3507 10.8837 L 22.418 10.5378 L 22.5131 10.27 L 22.5724 10.1702 L 22.6404 10.0956 L 22.8317 9.9526 L 23.0368 9.83438 L 23.2534 9.74018 L 23.479 9.66929 L 23.7114 9.62097 L 23.9483 9.59451 L 24.1872 9.5892 L 24.4258 9.6043 L 24.6617 9.63911 L 24.8927 9.69291 L 25.1164 9.76496 L 25.3304 9.85457 L 25.5323 9.96099 L 25.7199 10.0835 L 25.8908 10.2214 L 26.0426 10.374 L 26.2072 10.6005 L 26.312 10.8351 L 26.3647 11.0782 L 26.3732 11.3301 L 26.3453 11.5909 L 26.2887 11.8609 L 26.1206 12.4297 L 25.9311 13.0385 L 25.8478 13.3585 L 25.7826 13.6893 L 25.7431 14.0311 L 25.7372 14.3842 L 25.7727 14.7488 L 25.8573 15.1252 L 25.9525 15.3903 L 26.0616 15.5918 L 26.1822 15.7359 L 26.312 15.8288 L 26.4486 15.8767 L 26.5896 15.8857 L 26.7327 15.8621 L 26.8755 15.8121 L 27.0156 15.7417 L 27.1507 15.6573 L 27.3961 15.471 L 27.5927 15.3026 L 27.7217 15.2015 L 27.8787 15.0835 L 28.0239 14.9187 L 28.1576 14.7104 L 28.2804 14.4619 L 28.3926 14.1765 L 28.4947 13.8576 L 28.5872 13.5084 L 28.6705 13.1323 L 28.8114 12.3126 L 28.921 11.425 L 29.003 10.4961 L 29.0609 9.5523 L 29.0985 8.62019 L 29.1192 7.72629 L 29.125 6.15925 L 29.1072 5.06339 L 29.0948 4.65095 L 28.7305 4.30402 L 28.5602 4.28675 L 28.4016 4.23742 L 28.2581 4.15942 L 28.133 4.05615 L 28.0299 3.93101 L 27.952 3.78741 L 27.9029 3.62874 L 27.8858 3.45841 L 27.9339 3.25028 L 27.9549 3.09027 L 27.9484 2.96284 L 27.9139 2.85244 L 27.851 2.74354 L 27.7594 2.62058 L 27.4883 2.27035 L 27.5055 2.10015 L 27.5548 1.94162 L 27.6327 1.79817 L 27.7359 1.67317 L 27.8609 1.57003 L 28.0043 1.49212 L 28.1628 1.44285 L 28.333 1.42561 L 28.4195 1.43506 L 28.5034 1.46185 L 28.6621 1.55751 L 28.8057 1.6928 L 28.9309 1.8479 L 29.1122 2.13833 L 29.1787 2.27035 L 30.033 2.27035 L 30.0995 2.13833 L 30.2808 1.8479 L 30.4059 1.6928 L 30.5496 1.55751 L 30.7083 1.46185 L 30.7922 1.43506 L 30.8786 1.42561 L 30.965 1.43514 L 31.0488 1.46198 L 31.2074 1.55771 L 31.3509 1.69301 L 31.4759 1.84808 L 31.657 2.1384 L 31.7234 2.27035 L 32.5786 2.27035 L 32.645 2.1384 L 32.8261 1.84808 L 32.9511 1.69301 L 33.0946 1.55771 L 33.2531 1.46198 L 33.337 1.43514 L 33.4233 1.42561 L 33.5937 1.4427 L 33.7523 1.49187 L 33.8959 1.56972 L 34.0211 1.67286 L 34.1243 1.79789 L 34.2023 1.94141 L 34.2517 2.10003 L 34.2689 2.27035 L 34.1524 2.43236 L 34.0377 2.56767 L 33.9334 2.6877 L 33.8483 2.80388 L 33.791 2.92761 L 33.77 3.07034 L 33.7939 3.24346 L 33.8715 3.45841 L 33.8544 3.62874 L 33.8052 3.78741 L 33.7274 3.93101 L 33.6242 4.05615 L 33.4992 4.15942 L 33.3557 4.23742 L 33.1971 4.28675 L 33.0267 4.30402 L 32.7692 5.01839"
       sodipodi:nodetypes="ccssssscccscsccccccccssssssccccccccccccccc" />
    <text
       xml:space="preserve"
       transform="matrix(0.36743868,0,0,0.36743868,-0.17580964,3.0296098)"
       id="text2598"
       style="font-style:normal;font-weight:normal;font-size:40px;line-height:1.25;font-family:sans-serif;letter-spacing:0px;word-spacing:0px;white-space:pre;shape-inside:url(#rect2600);fill:#000000;fill-opacity:1;stroke:none"><tspan
         x="-106.73828"
         y="241.02539"
         id="tspan1122"><tspan
           dx="0 29.277344 29.921875 11.796875 25.527344 24.257812"
           style="fill:#ff0000"
           id="tspan1120">UNIKAT</tspan></tspan></text>
  </g>
  <g
     inkscape:label="B.Cu"
     inkscape:groupmode="layer"
     id="g835"
     transform="translate(0.04071638,-1.4006098)"
     style="display:inline" />
  <g
     inkscape:label="B.Mask"
     inkscape:groupmode="layer"
     id="g837"
     transform="translate(0.04071638,-1.4006098)"
     style="display:inline">
    <g
       id="g5580"
       style="fill:#000000"
       transform="matrix(-0.26458333,0,0,0.26458333,128.93093,-14.050697)" />
    <g
       id="g5582"
       style="fill:#000000"
       transform="matrix(-0.26458333,0,0,0.26458333,128.93093,-14.050697)" />
    <g
       id="g5584"
       style="fill:#000000"
       transform="matrix(-0.26458333,0,0,0.26458333,128.93093,-14.050697)" />
    <g
       id="g5586"
       style="fill:#000000"
       transform="matrix(-0.26458333,0,0,0.26458333,128.93093,-14.050697)" />
    <g
       id="g5588"
       style="fill:#000000"
       transform="matrix(-0.26458333,0,0,0.26458333,128.93093,-14.050697)" />
    <g
       id="g5590"
       style="fill:#000000"
       transform="matrix(-0.26458333,0,0,0.26458333,128.93093,-14.050697)" />
  </g>
  <g
     inkscape:label="B.SilkS"
     inkscape:groupmode="layer"
     id="g839"
     transform="translate(0.04071638,-1.4006098)"
     style="display:inline" />
  <g
     inkscape:label="F.Cu"
     inkscape:groupmode="layer"
     id="g841"
     transform="translate(0.04071638,-1.4006098)"
     style="display:inline" />
  <g
     inkscape:label="F.Mask"
     inkscape:groupmode="layer"
     id="g843"
     transform="translate(0.04071638,-1.4006098)"
     style="display:inline" />
  <g
     inkscape:label="F.SilkS"
     inkscape:groupmode="layer"
     id="g845"
     transform="translate(0.04071638,-1.4006098)"
     style="display:inline">
    <path
       id="rect19692"
       style="display:inline;fill:#ff0000;stroke-width:1.61348;paint-order:stroke markers fill"
       d="m 110.11719,5.46875 v 2.7773438 l 6.45117,-0.021484 6.04687,0.021484 V 5.46875 h -1.38867 v 1.3886719 h -1.38867 V 5.46875 h -1.38867 v 1.3886719 h -1.38867 V 5.46875 h -1.38867 V 6.8574219 H 114.2832 V 5.46875 h -1.38867 v 1.3886719 h -1.38867 V 5.46875 Z m 0,4.1660156 1.38867,1.3886724 h 9.7207 l 1.38867,-1.3886724 z m 1.38867,2.7773434 v 22.21875 l -1.38867,22.220703 -12.498049,5.427735 -0.376953,0.419922 -0.431641,0.365234 -0.566406,0.320313 -0.324219,0.111328 -0.347656,0.05859 -0.369141,-0.0059 -0.386719,-0.08594 L 94.414062,63.287109 94,63.003906 93.576172,62.601562 93.148438,62.066406 92.923828,61.558594 92.710938,60.759766 92.328125,58.470703 92.025391,55.535156 91.824219,52.292969 91.75,49.076172 l 0.07617,-2.851563 0.09961,-1.183593 0.146485,-0.964844 0.195312,-0.707031 0.248047,-0.404297 1.384766,-1.13086 0.662109,-0.626953 0.513672,-0.683593 0.335937,-0.765626 0.195313,-0.83789 0.06055,-0.873047 -0.07227,-0.876953 -0.115234,-0.460938 -0.191407,-0.445312 -0.261718,-0.419922 -0.324219,-0.388672 -0.380859,-0.351562 -0.431641,-0.306641 -0.478516,-0.255859 -0.515625,-0.197266 -0.548828,-0.134766 -0.574218,-0.06055 -0.59375,0.01562 -0.607422,0.101563 -0.617188,0.191406 -0.617187,0.291016 -0.611329,0.396484 -0.601562,0.507813 -0.392578,0.488281 -0.324219,0.671875 -0.201172,0.820312 -0.01758,0.931641 0.07617,0.496094 0.144531,0.511719 0.21875,0.523437 0.300782,0.53125 0.388671,0.53125 0.486329,0.529297 0.58789,0.523438 0.699219,0.511718 0.179687,1.447266 0.08594,1.449219 -0.01758,2.927734 -0.123047,3.007813 -0.04492,3.134765 -0.02148,1.582031 -0.132813,1.519532 -0.259766,1.443359 -0.402343,1.347656 -0.564453,1.238281 -0.347657,0.572266 -0.394531,0.539063 -0.443359,0.501953 -0.494141,0.464844 -0.546875,0.425781 -0.601562,0.382812 -0.328125,-1.125 -0.181641,-1.173828 -0.125,-1.164062 -0.160156,-1.09961 -0.285157,-0.980469 -0.216796,-0.427734 -0.28125,-0.378906 -0.357422,-0.31836 -0.447266,-0.255859 -0.542969,-0.183594 -0.654297,-0.105468 -0.564453,-0.398438 -0.277343,-0.101562 -0.271485,-0.04297 -0.53125,0.06641 -0.505859,0.238281 -0.476563,0.371094 -0.445312,0.460938 -0.769531,1.03125 -0.582032,0.90625 -0.355468,0.455078 -0.04883,0.0039 -0.03125,-0.04883 -0.0098,-0.277344 0.208984,-1.423828 -1.792968,-2.539063 -1.744141,-2.720703 -1.699219,-2.853515 -1.667969,-2.945313 -3.27539,-5.980469 -1.625,-2.945312 -1.628907,-2.857422 -0.583984,-0.675781 -0.517578,-0.75 -0.462891,-0.806641 -0.416015,-0.847656 -0.72461,-1.748047 -0.640625,-1.712891 -0.625,-1.541015 -0.328125,-0.666016 -0.349609,-0.572265 -0.378906,-0.462891 -0.419922,-0.339844 -0.466797,-0.195312 -0.523438,-0.03711 -0.427734,0.08398 -0.46875,0.189453 -0.509766,0.296875 -0.55664,0.414062 -6.347656,3.865235 -7.373047,4.304687 -7.822266,4.449219 -7.695312,4.298828 -12.699219,6.976563 -5.2578126,2.847656 -5.5078125,3.460937 V 76.166016 H 205.94141 V 55.335938 l -0.45508,-0.865235 -0.36133,-0.582031 -0.33203,-0.402344 -0.35742,-0.330078 -1.03516,-0.859375 -0.79883,-0.740234 -1.06445,-1.087891 -17.83594,-8.453125 0.20508,-1.09375 0.0684,-1.109375 -0.0469,-0.9375 -0.13867,-0.910156 -0.22656,-0.878906 -0.30859,-0.841797 -0.38672,-0.802735 -0.45899,-0.755859 -0.52734,-0.705078 -0.5918,-0.652344 -0.65234,-0.589844 -0.70508,-0.529297 -0.75586,-0.458984 -0.80078,-0.384766 -0.84375,-0.308593 -0.87891,-0.226563 -0.91015,-0.138672 -0.9375,-0.04687 -0.9375,0.04687 -0.91016,0.138672 -0.87891,0.226563 -0.84179,0.308593 -0.80274,0.384766 -0.75586,0.458984 -0.70507,0.529297 -0.65235,0.589844 -0.59179,0.652344 -0.52735,0.705078 -0.45898,0.755859 -0.38672,0.802735 -0.30859,0.841797 -0.22657,0.878906 -0.13867,0.910156 -0.0469,0.9375 0.084,1.251953 0.24805,1.201172 0.39843,1.138672 0.54102,1.0625 0.66797,0.978515 0.78516,0.882813 0.89257,0.775391 0.98828,0.65625 -2.8125,-0.773438 -3.33789,-0.875 -1.66601,-0.382812 -1.55664,-0.298828 -1.3711,-0.173829 -1.10156,-0.01367 -1.24805,0.144531 -0.95312,0.189453 -0.69727,0.21875 -0.47851,0.238281 -0.30078,0.238281 -0.15821,0.226563 -0.0566,0.201172 0.006,0.160156 -1.33984,-4.023437 -2.77735,-5.554688 -0.12695,0.849609 -0.17578,0.875 -0.26758,1.003907 -0.36914,1.011718 -0.48242,0.892578 -0.28906,0.361329 -0.32031,0.285156 -0.35547,0.191406 -0.39063,0.08398 -0.1914,-0.330079 -0.21876,-0.53125 -0.45703,-1.363281 -0.52148,-1.8125 -0.24414,-0.763672 -0.28711,-0.613281 -0.17969,-0.265625 -0.20117,-0.199219 -0.2207,-0.105469 -0.24024,0.01563 -0.25781,0.166015 -0.27344,0.345703 -0.28711,0.552735 -0.30078,0.789062 -0.31054,1.050781 -0.32227,1.345704 -1.04102,4.496093 -0.80078,3.154297 -0.24023,1.244141 -0.15235,1.048828 -0.10156,1.607422 0.0801,1.105469 0.14258,0.777343 0.0957,0.632813 -0.0684,0.664062 -0.34375,0.876953 h -2.77734 l -0.17774,-0.308593 -0.36328,-0.837891 -0.17187,-0.576172 -0.12696,-0.660156 -0.0469,-0.726563 0.0644,-0.777343 0.17969,-0.626953 0.25977,-0.335938 0.31054,-0.113281 0.32617,0.03516 0.57422,0.222656 0.1836,0.04297 0.0723,-0.09961 -0.041,-0.744141 -0.1543,-0.898438 -0.58203,-2.136718 -0.83789,-2.414063 -0.97071,-2.46875 -1.83007,-4.220703 -0.83399,-1.798828 -0.54883,2.439453 -0.58398,2.128906 -0.60156,1.84961 -0.5918,1.599609 -1.07227,2.564453 -0.76757,1.916016 -0.39453,1.658203 -0.14844,0.923828 0.0117,0.244141 0.0664,0.128906 0.11914,0.0332 0.17188,-0.03711 0.48437,-0.197266 0.66407,-0.214844 0.39453,-0.05664 0.43359,0.0059 0.46875,0.0918 0.50391,0.199219 v 2.777344 l -4.16602,-1.388672 -5.55469,0.126953 -1.38867,-19.44336 v -22.21875 z m 3.49023,4.039063 h 2.77735 v 6.943359 h -2.77735 z m -59.943356,11.662109 -4.898437,3.638672 -5.091797,3.566406 -5.234375,3.509766 -5.324219,3.476563 -10.714844,6.929687 -5.291015,3.492187 -5.177735,3.53711 -0.613281,-0.04883 -0.501953,-0.177735 -0.863281,-0.521484 -0.464844,-0.234375 -0.554687,-0.144531 H 9.6269531 l -0.8886719,0.199219 5.6699218,-3.515626 5.697266,-3.466796 11.488281,-6.81836 11.640625,-6.726562 z m 2.847657,1.046875 h 0.0332 l 0.06641,0.0293 0.04102,0.08203 -0.06055,0.355469 -0.21875,-0.138672 -0.04492,-0.146484 0.06641,-0.121094 z M 57.25,29.328125 l 0.128906,0.101563 0.150391,0.289062 0.150391,0.498047 0.123046,0.726562 -0.419922,-0.652343 -0.201171,-0.517578 -0.02734,-0.335938 0.03516,-0.08594 z m -2.921875,0.363281 -0.679687,2.302735 -0.863282,2.548828 -2.064453,5.585937 -2.160156,5.806641 -0.984375,2.824219 -0.847656,2.685546 -0.142578,0.830079 -0.201172,0.763671 -0.259766,0.703126 -0.316406,0.642578 -0.365235,0.585937 -0.416015,0.533203 -0.460938,0.484375 -0.503906,0.435547 -1.121094,0.744141 -1.255859,0.59375 -1.365235,0.466797 -1.451171,0.363281 -1.509766,0.285156 -1.546875,0.230469 -3.105469,0.40039 -1.507812,0.216797 -1.449219,0.261719 -1.361328,0.330078 -1.251953,0.421875 -1.435547,0.06836 -0.220703,-0.298829 -2.878907,-0.957031 -2.671874,-0.972656 -2.597657,-0.863281 -1.3125,-0.34961 -1.345703,-0.27539 2.171875,-1.81836 2.253906,-1.789062 2.328125,-1.763672 2.394532,-1.742188 4.945312,-3.43164 5.095703,-3.376953 10.361328,-6.697266 5.121094,-3.367187 z m 2.53125,0.847656 0.0957,0.107422 0.115234,0.419922 0.273438,2.048828 -0.121094,0.107422 -0.107422,0.02148 -0.09375,-0.05469 -0.08008,-0.119141 -0.121094,-0.388671 -0.07227,-0.515625 -0.01563,-1.074219 0.04687,-0.384766 z m 4.554687,1.439454 7.019532,12.414062 3.478515,6.228516 L 75.347656,56.875 74.349609,55.542969 73.376953,54.148438 71.5,51.208984 69.703125,48.107422 67.96875,44.894531 64.642578,38.347656 Z m 113.390628,0.341796 0.76562,0.03906 0.74414,0.113281 0.71875,0.185547 0.6875,0.251953 0.6543,0.314453 0.61914,0.375 0.57617,0.431641 0.53125,0.484375 0.48438,0.53125 0.43164,0.576172 0.375,0.619141 0.31445,0.654296 0.25195,0.6875 0.18555,0.71875 0.11328,0.744141 0.0391,0.765625 -0.0391,0.765625 -0.11328,0.744141 -0.18359,0.71875 -0.25196,0.6875 -0.3164,0.65625 -0.375,0.617187 -0.43164,0.578125 -0.48242,0.53125 -0.53321,0.482422 -0.57617,0.431641 -0.61719,0.376953 -0.65625,0.314453 -0.6875,0.251953 -0.71875,0.185547 -0.74414,0.113281 -0.76562,0.03906 -0.76563,-0.03906 -0.74414,-0.113281 -0.71875,-0.185547 -0.6875,-0.251953 -0.65429,-0.314453 -0.61915,-0.376953 -0.57617,-0.431641 -0.5332,-0.482422 -0.48242,-0.53125 -0.43164,-0.578125 -0.375,-0.617187 -0.31446,-0.65625 -0.25195,-0.6875 -0.18555,-0.71875 -0.11328,-0.744141 -0.0391,-0.765625 0.0391,-0.765625 0.11328,-0.744141 0.18555,-0.71875 0.25195,-0.6875 0.31446,-0.654296 0.37695,-0.619141 0.42969,-0.576172 0.48437,-0.53125 0.53125,-0.484375 0.57813,-0.431641 0.61719,-0.375 0.65429,-0.314453 0.6875,-0.251953 0.71875,-0.185547 0.74414,-0.113281 z m -114.011721,0.238282 0.183593,0.04883 0.259766,0.179687 0.660156,1.554688 0.742188,1.566406 1.667969,3.154297 1.818359,3.164062 1.845703,3.15625 1.757813,3.123047 1.552734,3.074219 0.660156,1.511719 0.566406,1.490234 0.455079,1.46875 0.328125,1.441407 -0.800782,0.320312 -0.363281,-0.431641 -1.535156,-2.771484 -1.896485,-3.599609 -2.058593,-4.0625 -2.023438,-4.158204 -1.792969,-3.884765 -1.365234,-3.244141 -0.460937,-1.267578 -0.28125,-0.970703 -0.07617,-0.626953 0.04687,-0.167969 z m -4.837891,0.55664 -0.466797,9.751954 -0.453125,7.578124 -0.240234,3.117188 -0.238281,2.160156 h 0.002 l -0.03516,0.414063 -0.09375,0.292969 -0.142579,0.189453 -0.1875,0.09961 -0.226562,0.02734 -0.255859,-0.0332 -0.580079,-0.183594 -0.626953,-0.238281 -0.625,-0.173828 -0.294922,-0.02344 -0.27539,0.03906 -0.248047,0.115235 -0.216797,0.207031 -0.548828,-0.177734 -0.447266,-0.236328 -0.353515,-0.294922 -0.263672,-0.34961 -0.183594,-0.402343 -0.109375,-0.451172 -0.04102,-0.496094 0.01758,-0.542969 0.1875,-1.203125 0.341797,-1.347656 0.921875,-3.039063 0.679688,-2.09375 0.849609,-2.359374 1.882813,-4.84961 z m 3.289063,1.75 2.972656,4.894532 1.722656,2.943359 1.753906,3.136719 1.691407,3.234375 1.533203,3.230469 0.677734,1.582031 0.601563,1.542969 0.515625,1.492187 0.416015,1.427734 -0.55664,0.548829 -1.458985,-2.97461 -1.585937,-2.945312 -3.267578,-5.875 -1.546875,-2.96875 -1.396485,-3.015625 -0.621094,-1.533203 -0.558593,-1.550782 -0.486328,-1.574218 z m -0.509766,5.19336 1.228516,2.412109 2.939453,5.541016 1.757812,3.15039 1.763672,2.982422 1.626953,2.492188 0.71875,0.966797 0.63086,0.722656 -1.064453,0.21289 -0.992188,0.08008 -0.921875,-0.04687 -0.855469,-0.164063 -0.789062,-0.273437 -0.726563,-0.373047 -0.666015,-0.466797 -0.611328,-0.550781 -0.554688,-0.625 -0.501953,-0.69336 -0.453125,-0.751953 -0.404297,-0.802734 -0.679687,-1.722656 -0.521485,-1.824219 -0.382812,-1.861328 -0.267579,-1.828125 -0.167968,-1.730469 -0.09375,-1.566406 -0.03711,-2.369141 z m -1.390625,5.554687 0.412109,0.900391 0.947266,2.427734 0.537109,1.658203 0.511719,1.888672 0.429688,2.064453 0.292968,2.19336 -0.02734,0.216797 -0.09961,0.18164 -0.164062,0.140625 -0.228516,0.09766 -0.287109,0.04688 -0.339844,-0.0039 L 58.5,57.242188 l -0.400391,-0.201172 -0.294921,-0.271485 -0.207032,-0.3125 -0.132812,-0.322265 -0.111328,-0.558594 -0.0098,-0.240234 z m 124.46094,0.111328 13.1875,6.251953 -2.20117,0.47461 -2.05079,0.353516 -1.82226,0.179687 -0.80274,0.0059 -0.71679,-0.06055 -2.48242,-0.40625 -2.07227,-0.441407 -1.74805,-0.472656 -1.51172,-0.5 -2.67382,-1.056641 -2.79688,-1.105468 0.69141,0.03516 1.0039,-0.05664 0.98438,-0.164062 0.95508,-0.267578 0.91601,-0.367188 0.87305,-0.464844 0.82031,-0.558593 0.75781,-0.646485 z M 14.109375,60.65625 c 0.391646,0.0091 1.175755,0.164398 0.84375,0.671875 -0.422918,0.504575 -0.88324,1.043026 -1.371094,1.619141 0.21726,-0.03579 0.434007,-0.07202 0.652344,-0.103516 0.321539,-0.04427 0.642682,-0.109506 0.96875,-0.128906 0.0249,-4.23e-4 0.04934,-9.28e-4 0.07422,0 0.324452,3.99e-4 0.654695,0.231627 0.703125,0.564453 0.0498,0.297674 -0.167114,0.581512 -0.429688,0.697265 -0.223625,0.07807 -0.460192,0.111387 -0.691406,0.160157 -0.601078,0.10625 -1.202472,0.197244 -1.802734,0.308593 -0.267971,0.04997 -0.536851,0.101041 -0.804688,0.154297 -0.372127,0.502906 -0.742788,1.002865 -1.095703,1.523438 -1.006859,1.594307 -1.8872227,3.135389 -2.2402344,5.015625 -0.029102,0.153789 -0.053847,0.471353 0.058594,0.58789 0.135496,0.0014 0.3518027,-0.119316 0.4960937,-0.18164 1.8849789,-0.974332 3.4350889,-2.270416 5.2597659,-3.41211 0.834761,-1.996096 1.787073,-4.02056 2.86914,-5.890624 0.239169,-0.266986 0.466549,-0.11548 0.373047,0.07422 -0.594897,1.044802 -2.113991,4.018837 -2.611328,5.400391 1.132207,-0.781909 2.828456,-1.807519 4.050781,-2.333985 0.449224,-0.193772 1.086633,-0.06977 1.351563,0.464844 0.101631,0.203981 0.104044,0.689231 0.01367,0.927735 -0.47904,1.262974 -1.036987,2.249291 -1.572266,3.464843 -0.201902,0.525789 -0.599686,1.225798 -0.53125,1.644532 0.0542,0.329952 2.238663,-1.242249 2.578125,-1.523438 0.127408,-0.106356 0.974579,-0.799436 1.125,-0.90039 0.323868,-0.218193 0.557585,-0.381425 0.849609,-0.367188 0.575252,0.0291 1.140286,0.408883 0.816407,0.757812 -1.510288,1.622763 -3.123281,3.27244 -5.113281,3.796876 -0.878797,0.231718 -2.132656,-0.414822 -2.203126,-1.542969 -0.05896,-0.939784 0.238419,-1.840909 0.617188,-2.695313 0.166677,-0.376743 0.605243,-1.3142 0.810547,-1.703125 -1.328704,0.867285 -2.56212,1.756496 -3.835938,2.771485 -0.424161,1.13695 -0.629888,1.704694 -0.9375,2.912109 -0.107074,0.418076 -0.623314,0.300933 -0.533203,-0.03125 0.159232,-0.584742 0.607273,-1.760651 0.810547,-2.386719 -1.107141,0.823238 -2.239888,1.814774 -3.496094,2.388672 -0.6680727,0.305573 -1.3997166,0.425197 -1.9492184,0.240234 -1.228422,-0.414001 -1.6074219,-1.262813 -1.6074218,-2.548828 h 0.00195 c 0.059641,-1.519774 0.893154,-2.92855 1.6269531,-4.205078 0.3770421,-0.582977 0.8213926,-1.131059 1.2597656,-1.677734 -0.025996,0.0053 -0.052131,0.01032 -0.078125,0.01563 -0.2303885,0.04287 -0.4601541,0.09412 -0.6933594,0.119141 -0.2136084,-0.0111 -0.4069694,-0.151578 -0.5175781,-0.330079 -0.1450359,-0.25652 -0.069538,-0.603599 0.1621094,-0.783203 0.2250078,-0.169768 0.5114966,-0.218645 0.7773437,-0.291015 0.5862123,-0.13829 1.1754338,-0.267406 1.7636718,-0.396485 0.60794,-0.677145 1.162446,-1.29429 1.759766,-1.867187 0.317102,-0.303572 0.898681,-0.877477 1.441406,-0.980469 z M 125.1543,63.464844 h 3.3125 v 6.380859 c 0,0.590532 0.1222,1.011325 0.36718,1.261719 0.24501,0.250847 0.65424,0.376953 1.22852,0.376953 0.56008,0 0.96076,-0.123207 1.20117,-0.369141 0.24042,-0.246149 0.35938,-0.669497 0.35938,-1.269531 v -6.380859 h 3.3125 v 6.642578 c 0,1.297958 -0.41675,2.288584 -1.25,2.972656 -0.83325,0.683966 -2.04058,1.025391 -3.62305,1.025391 -1.59197,0 -2.80821,-0.342708 -3.64844,-1.029297 -0.84035,-0.686015 -1.25976,-1.6756 -1.25976,-2.96875 z m 11.71484,0 h 3.14258 l 2.89258,4.953125 c 0.0886,0.139563 0.18278,0.336036 0.2832,0.591797 0.10038,0.255424 0.20641,0.563664 0.31836,0.925781 -0.0282,-0.188103 -0.0485,-0.394511 -0.0625,-0.621094 -0.014,-0.226458 -0.0215,-0.501371 -0.0215,-0.824219 v -5.02539 h 3.1582 v 10.648437 h -3.1582 l -2.89063,-4.916015 c -0.0887,-0.144254 -0.18602,-0.347883 -0.29102,-0.613282 -0.10495,-0.264926 -0.21099,-0.569911 -0.31835,-0.912109 0.0327,0.187994 0.0563,0.385031 0.0703,0.589844 0.014,0.204703 0.0195,0.491753 0.0195,0.863281 v 4.988281 h -3.14258 z m 11.72852,0 h 3.375 v 10.640625 h -3.375 z m 15.5625,0 h 3.2832 v 3.488281 l 2.96875,-3.488281 h 3.84375 l -3.68164,3.880859 4.1582,6.648438 h -3.94922 l -2.52148,-4.216797 -0.81836,0.863281 v 3.353516 h -3.2832 z m 21.32226,0 h 3.35352 l 3.62695,10.507812 h -3.2832 l -0.38477,-1.390625 h -3.28515 l -0.39844,1.390625 h -3.25586 z m 8.21094,0 h 9.25 v 2.802734 h -2.96875 v 7.837891 h -3.3125 v -7.837891 h -2.96875 z M 24.320312,66.636719 c 0.429758,-0.0062 0.831853,0.519853 0.392579,0.992187 -0.137575,0.116561 -0.251743,0.1728 -0.472657,0.132813 -0.383505,-0.07385 -0.523911,-0.363861 -0.445312,-0.732422 0.130006,-0.278223 0.33005,-0.389765 0.52539,-0.392578 z m 162.841798,0.101562 -1.05078,3.638672 h 2.08008 z m -10.61328,3.81836 c 0.0209,-6.74e-4 0.043,0 0.0644,0 0.35102,0 0.62326,0.09174 0.81836,0.27539 0.19521,0.18364 0.29675,0.444444 0.30469,0.783203 l -0.57227,-0.002 c -0.006,-0.157304 -0.0594,-0.280851 -0.1582,-0.36914 -0.0989,-0.08818 -0.23256,-0.132813 -0.4043,-0.132813 -0.16142,0 -0.28463,0.03414 -0.36914,0.101563 -0.0846,0.06746 -0.12695,0.166594 -0.12695,0.296875 0,0.183182 0.17667,0.317846 0.5293,0.40625 0.0846,0.02237 0.15114,0.04064 0.19921,0.05273 0.40598,0.113798 0.67246,0.240288 0.80274,0.382812 0.12971,0.142194 0.19531,0.35091 0.19531,0.625 0,0.335683 -0.10123,0.599116 -0.30469,0.78711 -0.20367,0.187994 -0.48784,0.28125 -0.85351,0.28125 -0.36156,0 -0.64535,-0.0981 -0.85156,-0.292969 -0.20606,-0.194744 -0.31767,-0.468843 -0.33204,-0.822265 h 0.58789 c 0.0195,0.173796 0.0821,0.306972 0.1875,0.398437 0.10522,0.09135 0.24695,0.136719 0.42383,0.136719 0.18363,0 0.32123,-0.03669 0.41602,-0.109375 0.0951,-0.07272 0.14258,-0.179488 0.14258,-0.320313 0,-0.112327 -0.0397,-0.198159 -0.11914,-0.259765 -0.0795,-0.06115 -0.29271,-0.136459 -0.64258,-0.226563 -0.37724,-0.09728 -0.63037,-0.219017 -0.75781,-0.363281 -0.12768,-0.145058 -0.19141,-0.356215 -0.19141,-0.634766 0,-0.317476 0.0946,-0.563906 0.28125,-0.736328 0.17463,-0.161433 0.41755,-0.24771 0.73047,-0.257812 z m -19.03125,0.06055 h 2.08984 v 0.58789 h -1.50586 v 0.71875 h 1.37696 v 0.578125 h -1.37696 v 0.869141 h 1.58203 v 0.623047 h -2.16601 z m 3.01758,0 h 1.25781 c 0.24181,-10e-7 0.42057,0.02037 0.53906,0.06055 0.11815,0.04018 0.21961,0.106949 0.30469,0.201172 0.0756,0.0867 0.13374,0.189539 0.17187,0.308594 0.0379,0.118976 0.0566,0.255246 0.0566,0.408203 0,0.20996 -0.0375,0.379485 -0.11328,0.509766 -0.0759,0.13062 -0.19335,0.227241 -0.35156,0.287109 0.13467,0.0387 0.23081,0.11266 0.29102,0.22461 0.0602,0.112084 0.0948,0.284608 0.10156,0.517578 l 0.0137,0.40625 v 0.0332 c 0.004,0.193171 0.0407,0.310365 0.11133,0.351562 v 0.103516 h -0.65039 c -0.0209,-0.05084 -0.0379,-0.107888 -0.0488,-0.171875 -0.0113,-0.06425 -0.0188,-0.149138 -0.0215,-0.253906 l -0.008,-0.361328 c -0.007,-0.212958 -0.0388,-0.35629 -0.0996,-0.429688 -0.0608,-0.07336 -0.17186,-0.109375 -0.33007,-0.109375 h -0.62891 v 1.326172 h -0.5957 z m 32.67968,0.0293 h 2.28711 v 0.609375 h -0.84961 v 2.802735 h -0.59179 v -2.802735 h -0.84571 z m -14.55078,0.0332 h 2.2793 v 0.59375 h -0.84766 v 2.728515 h -0.58789 v -2.728515 h -0.84375 z m -25.54492,0.03711 h 0.61524 L 154.125,72.375 c 0.008,0.03825 0.0188,0.09806 0.0332,0.177734 0.0141,0.08013 0.0283,0.169803 0.0449,0.267578 0.009,-0.083 0.0203,-0.162589 0.0313,-0.236328 0.011,-0.07385 0.0227,-0.143712 0.0371,-0.208984 l 0.34571,-1.658203 h 0.62304 l 0.3418,1.638672 c 0.0128,0.05896 0.0254,0.126892 0.0371,0.203125 0.0117,0.07616 0.0234,0.163943 0.0352,0.261718 0.0151,-0.09778 0.0309,-0.186633 0.0449,-0.265624 0.0139,-0.07922 0.0254,-0.147479 0.0371,-0.205079 l 0.38281,-1.632812 h 0.61719 l -0.8125,3.265625 h -0.53321 l -0.39453,-1.916016 c -0.014,-0.06951 -0.0273,-0.147597 -0.0391,-0.234375 -0.0117,-0.08621 -0.0209,-0.181193 -0.0273,-0.283203 -0.009,0.09162 -0.0195,0.179754 -0.0312,0.265625 -0.0114,0.08561 -0.0236,0.171361 -0.0391,0.253906 l -0.39063,1.914063 h -0.53711 z m 8.01172,0.490234 v 0.902344 h 0.70703 c 0.14502,0 0.25174,-0.03691 0.32227,-0.111328 0.0705,-0.07419 0.10742,-0.187 0.10742,-0.339844 0,-0.149631 -0.0374,-0.261998 -0.10938,-0.337891 -0.0719,-0.07544 -0.17778,-0.113281 -0.32031,-0.113281 z"
       transform="matrix(0.26458333,0,0,0.26458333,-0.04071638,1.4006098)"
       sodipodi:nodetypes="ccccccccccccccccccccccccccccccccccccccccccccccccccccccccccccccccccccccccccccccccccccccccccccccccccccccccccccccccccccccccccccccccccccccccccccccccccccccccccccccccccccccccccccccccccccccccccccccccccccccccccccccccccccccccccccccccccccccccccccccccccccccccccccccccccccccccccccccccccccccccccccccccccccccccccccccccccccccccccccccccccccccccccccccccccccccccccccccccccccccccccccccccccccccccccccccccccccccccccccccccccccccccccccccccccccccccccccccccccccccccccccccccccccccccccccccccccccccccccccccccccccccccccccccccccccccccccccccccccccccccccccccccccccccccccccccccccccccccccccccccccccccccccccccccccccccccccccccccccccccccccccccccccccccccccccccccccccccccccccccccccccccccccccccccccccccccccccccccccccccccccccccccscscsccscscsccccccsscccccccsscccccccccccccccccccccccccccccccccccccccscccsccccssccccssscccscssccsscscccscsccccccccccccccscccsccccccccccccsscccccccccccccccccccccccccccsccccsccccccccsccccccccscscsc" />
    <path
       style="opacity:0.999;fill:#000000;fill-opacity:1;stroke:none;stroke-width:0;stroke-miterlimit:4.01728;stroke-dasharray:none;stroke-dashoffset:0;stop-color:#000000"
       d="m 153.34873,70.522033 c -0.16421,-0.01334 -0.41768,0.01671 -0.41052,0.234652 0.26592,1.087469 0.53948,2.173908 0.80685,3.261349 0.0836,0.225365 0.35461,0.13438 0.53917,0.151788 0.16022,0.01902 0.36797,-0.03832 0.38539,-0.227474 0.0914,-0.42479 0.1737,-0.851476 0.25819,-1.277674 0.0949,0.454655 0.1783,0.913828 0.2841,1.364865 0.085,0.214633 0.35164,0.120382 0.53082,0.14024 0.15851,0.01816 0.36432,-0.03623 0.38459,-0.222826 0.25977,-1.055859 0.52864,-2.109541 0.78155,-3.167049 0.0314,-0.18167 -0.16131,-0.273853 -0.31514,-0.253555 -0.19457,0.01489 -0.41333,-0.03758 -0.5884,0.05406 -0.13087,0.142037 -0.11042,0.361064 -0.17377,0.536839 -0.0559,0.238614 -0.11264,0.477056 -0.16708,0.716022 -0.0881,-0.392737 -0.15042,-0.794812 -0.25564,-1.181509 -0.0835,-0.18822 -0.32192,-0.111726 -0.48426,-0.125068 -0.1759,0.01091 -0.45582,-0.04743 -0.49973,0.187547 -0.0771,0.376916 -0.15502,0.753684 -0.23155,1.130726 -0.0963,-0.400788 -0.18204,-0.805165 -0.28748,-1.203126 -0.12133,-0.180509 -0.37573,-0.0983 -0.55709,-0.119808 z"
       id="path2252"
       transform="matrix(0.26458333,0,0,0.26458333,-0.04071638,1.4006098)" />
    <path
       style="opacity:0.999;fill:#000000;fill-opacity:1;stroke:none;stroke-width:0;stroke-miterlimit:4.01728;stroke-dasharray:none;stroke-dashoffset:0;stop-color:#000000"
       d="m 157.42647,70.462302 c -0.16614,0.139577 -0.0713,0.38045 -0.0963,0.568784 0.004,0.993826 -0.008,1.989824 0.006,2.982292 0.031,0.223887 0.29516,0.176947 0.45922,0.178714 0.6329,-0.004 1.26799,0.008 1.89953,-0.0059 0.22389,-0.03098 0.17695,-0.295158 0.17872,-0.459215 -0.0213,-0.178162 0.0715,-0.4405 -0.12893,-0.536113 -0.32889,-0.04025 -0.66676,-0.0061 -0.99915,-0.01744 -0.1543,0 -0.30861,0 -0.46291,0 0,-0.161297 0,-0.322594 0,-0.483891 0.41101,-0.008 0.82639,0.01591 1.23468,-0.01189 0.21843,-0.05234 0.14564,-0.320109 0.15743,-0.486416 -0.001,-0.159016 0.0405,-0.412882 -0.17184,-0.447206 -0.40508,-0.01618 -0.8138,-0.0022 -1.22027,-0.0069 0.0323,-0.106878 -0.0717,-0.350123 0.0663,-0.351309 0.43311,-0.008 0.87058,0.01591 1.30097,-0.01189 0.21843,-0.05234 0.14564,-0.320109 0.15743,-0.486416 -0.001,-0.159016 0.0405,-0.412882 -0.17184,-0.447206 -0.70009,-0.01614 -1.4038,-0.0023 -2.10528,-0.0069 -0.0346,0.0097 -0.0691,0.01931 -0.10366,0.02896 z"
       id="path2291"
       transform="matrix(0.26458333,0,0,0.26458333,-0.04071638,1.4006098)" />
    <path
       style="opacity:0.999;fill:#000000;fill-opacity:1;stroke:none;stroke-width:0;stroke-miterlimit:4.01728;stroke-dasharray:none;stroke-dashoffset:0;stop-color:#000000"
       d="m 160.43167,70.462302 c -0.16613,0.139577 -0.0713,0.38045 -0.0963,0.568784 0.004,1.001189 -0.008,2.004557 0.006,3.004389 0.031,0.223887 0.29515,0.176947 0.45921,0.178714 0.16846,-0.0138 0.43414,0.0624 0.49719,-0.150386 0.0284,-0.388837 0.004,-0.784066 0.0122,-1.175353 0.20878,0.01728 0.43266,-0.02176 0.63274,0.04437 0.0854,0.300635 0.0502,0.622923 0.0971,0.931271 0.001,0.172347 0.10345,0.38474 0.30651,0.350101 0.21845,-0.01916 0.45976,0.04401 0.66281,-0.05609 0.15555,-0.1026 0.0684,-0.292425 0.009,-0.423268 -0.0607,-0.373085 0.005,-0.768809 -0.12736,-1.128549 -0.0245,-0.08095 -0.10417,-0.157353 -0.13082,-0.219848 0.35043,-0.354777 0.36142,-0.935111 0.17432,-1.372523 -0.13591,-0.334627 -0.47554,-0.557093 -0.83455,-0.56326 -0.52746,-0.02731 -1.0584,-0.01937 -1.58509,-0.01136 -0.0275,0.0077 -0.0549,0.01534 -0.0824,0.02301 z m 1.11953,0.935328 c 0.15761,0.02409 0.3616,-0.05377 0.48674,0.07393 0.0458,0.121961 0.0518,0.281213 -0.013,0.396669 -0.15738,0.0822 -0.35264,0.02676 -0.52403,0.04519 -0.18807,0.05084 -0.21588,-0.05666 -0.18643,-0.220742 0.0266,-0.110098 -0.0717,-0.346996 0.11431,-0.295277 0.0408,7.6e-5 0.0816,1.51e-4 0.1224,2.27e-4 z"
       id="path2330"
       transform="matrix(0.26458333,0,0,0.26458333,-0.04071638,1.4006098)" />
    <path
       style="opacity:0.999;fill:#000000;fill-opacity:1;stroke:none;stroke-width:0;stroke-miterlimit:4.01728;stroke-dasharray:none;stroke-dashoffset:0;stop-color:#000000"
       d="m 176.58805,70.371971 c -0.44335,-0.0032 -0.93065,0.190753 -1.121,0.617079 -0.15769,0.370257 -0.16448,0.824499 0.0272,1.183748 0.24715,0.397122 0.7457,0.489133 1.15921,0.619649 0.12468,0.05591 0.29945,0.05558 0.38724,0.170624 0.0738,0.151717 -0.0687,0.310565 -0.22628,0.300684 -0.17913,0.01912 -0.40488,0.01372 -0.49429,-0.175396 -0.0694,-0.12795 -0.051,-0.339931 -0.24099,-0.354758 -0.22803,0.0092 -0.46496,-0.0322 -0.68692,0.0268 -0.16536,0.137297 -0.0667,0.369842 -0.0335,0.548586 0.11839,0.469835 0.53712,0.827169 1.01159,0.901492 0.27835,0.03553 0.56981,0.01834 0.84042,-0.0574 0.44643,-0.130972 0.76942,-0.555711 0.79683,-1.017113 0.0406,-0.376514 -0.0449,-0.810452 -0.38346,-1.03101 -0.36534,-0.266067 -0.8341,-0.296661 -1.23372,-0.485532 -0.15354,-0.05152 -0.10313,-0.283046 0.0482,-0.296282 0.2018,-0.06451 0.51041,-0.0043 0.53053,0.249338 0.007,0.166586 0.16626,0.266186 0.32284,0.233129 0.19944,-0.01978 0.48064,0.06954 0.60552,-0.140869 0.0728,-0.186746 -0.0191,-0.390586 -0.0753,-0.571287 -0.17077,-0.448334 -0.64656,-0.71326 -1.11271,-0.720098 -0.0404,-0.0018 -0.0809,-0.0022 -0.1214,-0.0014 z"
       id="path2369"
       transform="matrix(0.26458333,0,0,0.26458333,-0.04071638,1.4006098)" />
    <path
       style="opacity:0.999;fill:#000000;fill-opacity:1;stroke:none;stroke-width:0;stroke-miterlimit:4.01728;stroke-dasharray:none;stroke-dashoffset:0;stop-color:#000000"
       d="m 178.57338,70.528593 c -0.16613,0.139578 -0.0713,0.380451 -0.0963,0.568784 -0.0176,0.152151 0.006,0.367854 0.2,0.376773 0.21323,0 0.42646,0 0.63969,0 0.004,0.846135 -0.008,1.69445 0.006,2.539228 0.031,0.223887 0.29516,0.176947 0.45922,0.178714 0.16845,-0.0138 0.43414,0.0624 0.49718,-0.150386 0.0285,-0.455531 0.004,-0.917451 0.0122,-1.375436 0,-0.397373 0,-0.794747 0,-1.19212 0.2471,-0.01471 0.50264,0.0322 0.74336,-0.02896 0.16614,-0.139578 0.0713,-0.380451 0.0963,-0.568785 0.0176,-0.152151 -0.006,-0.367853 -0.19999,-0.376772 -0.75813,0.004 -1.51842,-0.0079 -2.27519,0.0059 -0.0275,0.0077 -0.0549,0.01534 -0.0824,0.02301 z"
       id="path2408"
       transform="matrix(0.26458333,0,0,0.26458333,-0.04071638,1.4006098)" />
    <path
       style="opacity:0.999;fill:#000000;fill-opacity:1;stroke:none;stroke-width:0;stroke-miterlimit:4.01728;stroke-dasharray:none;stroke-dashoffset:0;stop-color:#000000"
       d="m 193.08676,70.536664 c -0.12956,0.222711 -0.0718,0.523172 -0.0392,0.76516 0.15697,0.226967 0.50579,0.07125 0.74389,0.117083 0.24056,0.0316 0.0472,0.497133 0.10937,0.707107 0.0196,0.666397 -0.04,1.34696 0.0306,2.004238 0.14384,0.221389 0.47534,0.07483 0.6997,0.117082 0.34149,-0.08459 0.15077,-0.523247 0.2,-0.77452 0,-0.684636 0,-1.369271 0,-2.053907 0.25568,-0.03941 0.58678,0.08935 0.79135,-0.08669 0.0907,-0.231381 0.0651,-0.529678 0.002,-0.768002 -0.27556,-0.164898 -0.63848,-0.03379 -0.94955,-0.07563 -0.51203,0.01996 -1.03846,-0.04059 -1.54133,0.03063 l -0.0414,0.01531 z"
       id="path2447"
       transform="matrix(0.26458333,0,0,0.26458333,-0.04071638,1.4006098)" />
    <path
       style="opacity:0.999;fill:#000000;fill-opacity:1;stroke:none;stroke-width:0;stroke-miterlimit:4.01728;stroke-dasharray:none;stroke-dashoffset:0;stop-color:#000000"
       d="m 24.321472,66.455628 c -0.515247,0.0094 -0.914742,0.629962 -0.651794,1.091918 0.220321,0.485693 0.994413,0.546084 1.271667,0.08057 0.279682,-0.373947 0.09723,-0.958064 -0.339721,-1.115723 -0.08817,-0.03833 -0.183644,-0.06065 -0.280152,-0.05676 z"
       id="path2486"
       transform="matrix(0.26458333,0,0,0.26458333,-0.04071638,1.4006098)" />
    <path
       style="display:inline;fill:#000000;stroke-width:0.4269;paint-order:stroke markers fill"
       sodipodi:type="inkscape:offset"
       inkscape:radius="0.12894188"
       inkscape:original="M 4.6152344 17.869141 C 4.3289375 18.363929 4.0782858 18.8996 3.8574219 19.427734 L 3.5722656 20.179688 C 3.5184827 20.345334 3.401505 20.655834 3.359375 20.810547 C 3.3355331 20.898467 3.47167 20.928975 3.5 20.818359 C 3.581389 20.498897 3.635821 20.349646 3.7480469 20.048828 C 3.8783724 19.693462 3.9137233 19.599419 4.0234375 19.316406 C 4.1550246 18.95087 4.5574439 18.16511 4.7148438 17.888672 C 4.7395828 17.838482 4.6785144 17.798501 4.6152344 17.869141 z "
       xlink:href="#path2549"
       id="path1098"
       inkscape:href="#path2549"
       d="m 4.6171875,17.712891 c -0.038255,0.01421 -0.070926,0.04047 -0.097656,0.07031 a 0.12895477,0.12895477 0 0 0 -0.015625,0.02148 c -0.2901624,0.501468 -0.5433374,1.04268 -0.765625,1.574218 a 0.12895477,0.12895477 0 0 0 -0.00195,0.0039 l -0.2851562,0.751954 a 0.12895477,0.12895477 0 0 0 -0.00195,0.0059 c -0.05144,0.158429 -0.168307,0.465823 -0.2148438,0.636719 -0.014566,0.05371 -0.00356,0.119059 0.029297,0.164062 0.032856,0.045 0.080552,0.06948 0.1289062,0.07617 0.096709,0.01339 0.205234,-0.06181 0.2324219,-0.167969 0.080366,-0.315444 0.1320242,-0.455335 0.2441406,-0.755859 0.1302622,-0.355193 0.165782,-0.447728 0.2753906,-0.730469 a 0.12895477,0.12895477 0 0 0 0,-0.0039 c 0.1231566,-0.342117 0.5294673,-1.138991 0.6816407,-1.40625 a 0.12895477,0.12895477 0 0 0 0.00391,-0.0078 c 0.018487,-0.03751 0.027041,-0.08491 0.011719,-0.130859 -0.015322,-0.04595 -0.055723,-0.08531 -0.099609,-0.101562 -0.043887,-0.01625 -0.086745,-0.01421 -0.125,0 z" />
    <path
       d="m 3.8567205,19.427413 c 0.2208639,-0.528134 0.4728298,-1.063773 0.7591267,-1.558561 0.06328,-0.07064 0.1234411,-0.03055 0.098702,0.01964 -0.1573998,0.276438 -0.5593268,1.063318 -0.6909139,1.428854 -0.1097142,0.283013 -0.1456267,0.375339 -0.2759522,0.730705 -0.1122259,0.300818 -0.1666579,0.451033 -0.2480469,0.770495 -0.02833,0.110616 -0.1649185,0.07962 -0.1410766,-0.0083 0.04213,-0.154713 0.1606743,-0.465839 0.2144572,-0.631486"
       style="display:inline;fill:#000000;stroke-width:0.4269;paint-order:stroke markers fill"
       id="path2549"
       sodipodi:nodetypes="cccccccc" />
  </g>
  <g
     inkscape:label="Dwgs.User"
     inkscape:groupmode="layer"
     id="g847"
     transform="translate(0.04071638,-1.4006098)"
     style="display:inline" />
  <g
     inkscape:label="Drill"
     inkscape:groupmode="layer"
     id="g849"
     transform="translate(0.0407164, -1.40061)"
     style="display:inline" />
</svg>
