%TF.GenerationSoftware,KiCad,Pcbnew,5.1.8-5.1.8*%
%TF.CreationDate,2022-01-13T22:28:20+01:00*%
%TF.ProjectId,usb_binary_clk,7573625f-6269-46e6-9172-795f636c6b2e,rev?*%
%TF.SameCoordinates,Original*%
%TF.FileFunction,Legend,Bot*%
%TF.FilePolarity,Positive*%
%FSLAX46Y46*%
G04 Gerber Fmt 4.6, Leading zero omitted, Abs format (unit mm)*
G04 Created by KiCad (PCBNEW 5.1.8-5.1.8) date 2022-01-13 22:28:20*
%MOMM*%
%LPD*%
G01*
G04 APERTURE LIST*
%ADD10C,0.100000*%
%ADD11C,0.200000*%
%ADD12C,0.150000*%
%ADD13C,0.254000*%
%ADD14C,0.010000*%
%ADD15C,2.000000*%
%ADD16C,1.800000*%
%ADD17R,1.800000X1.800000*%
%ADD18O,1.600000X1.600000*%
%ADD19C,1.600000*%
%ADD20R,0.400000X1.350000*%
%ADD21R,1.900000X1.900000*%
%ADD22R,1.350000X0.400000*%
%ADD23C,10.200000*%
%ADD24R,2.500000X5.100000*%
%ADD25C,1.000000*%
%ADD26R,1.600000X1.600000*%
G04 APERTURE END LIST*
D10*
X154970000Y-97854000D02*
X154970000Y-97854000D01*
X154970000Y-97954000D02*
X154970000Y-97954000D01*
D11*
X149770000Y-99039000D02*
X149770000Y-100354000D01*
X151670000Y-99039000D02*
X149770000Y-99039000D01*
X157570000Y-99039000D02*
X155670000Y-99039000D01*
X157570000Y-100354000D02*
X157570000Y-99039000D01*
X149770000Y-104669000D02*
X149770000Y-103354000D01*
X157570000Y-104669000D02*
X149770000Y-104669000D01*
X157570000Y-103354000D02*
X157570000Y-104669000D01*
D10*
X154970000Y-97854000D02*
G75*
G03*
X154970000Y-97954000I0J-50000D01*
G01*
X154970000Y-97954000D02*
G75*
G03*
X154970000Y-97854000I0J50000D01*
G01*
X133159000Y-97820000D02*
X133159000Y-97820000D01*
X133059000Y-97820000D02*
X133059000Y-97820000D01*
D11*
X131974000Y-92620000D02*
X130659000Y-92620000D01*
X131974000Y-94520000D02*
X131974000Y-92620000D01*
X131974000Y-100420000D02*
X131974000Y-98520000D01*
X130659000Y-100420000D02*
X131974000Y-100420000D01*
X126344000Y-92620000D02*
X127659000Y-92620000D01*
X126344000Y-100420000D02*
X126344000Y-92620000D01*
X127659000Y-100420000D02*
X126344000Y-100420000D01*
D10*
X133159000Y-97820000D02*
G75*
G03*
X133059000Y-97820000I-50000J0D01*
G01*
X133059000Y-97820000D02*
G75*
G03*
X133159000Y-97820000I50000J0D01*
G01*
D12*
X153368333Y-42632380D02*
X153368333Y-43346666D01*
X153415952Y-43489523D01*
X153511190Y-43584761D01*
X153654047Y-43632380D01*
X153749285Y-43632380D01*
X152987380Y-42632380D02*
X152368333Y-42632380D01*
X152701666Y-43013333D01*
X152558809Y-43013333D01*
X152463571Y-43060952D01*
X152415952Y-43108571D01*
X152368333Y-43203809D01*
X152368333Y-43441904D01*
X152415952Y-43537142D01*
X152463571Y-43584761D01*
X152558809Y-43632380D01*
X152844523Y-43632380D01*
X152939761Y-43584761D01*
X152987380Y-43537142D01*
D13*
X154093333Y-100565523D02*
X154093333Y-101472666D01*
X154153809Y-101654095D01*
X154274761Y-101775047D01*
X154456190Y-101835523D01*
X154577142Y-101835523D01*
X153549047Y-100686476D02*
X153488571Y-100626000D01*
X153367619Y-100565523D01*
X153065238Y-100565523D01*
X152944285Y-100626000D01*
X152883809Y-100686476D01*
X152823333Y-100807428D01*
X152823333Y-100928380D01*
X152883809Y-101109809D01*
X153609523Y-101835523D01*
X152823333Y-101835523D01*
X129056523Y-96096666D02*
X129963666Y-96096666D01*
X130145095Y-96036190D01*
X130266047Y-95915238D01*
X130326523Y-95733809D01*
X130326523Y-95612857D01*
X130326523Y-97366666D02*
X130326523Y-96640952D01*
X130326523Y-97003809D02*
X129056523Y-97003809D01*
X129237952Y-96882857D01*
X129358904Y-96761904D01*
X129419380Y-96640952D01*
D12*
X138580714Y-44513571D02*
X138437857Y-44561190D01*
X138390238Y-44608809D01*
X138342619Y-44704047D01*
X138342619Y-44846904D01*
X138390238Y-44942142D01*
X138437857Y-44989761D01*
X138533095Y-45037380D01*
X138914047Y-45037380D01*
X138914047Y-44037380D01*
X138580714Y-44037380D01*
X138485476Y-44085000D01*
X138437857Y-44132619D01*
X138390238Y-44227857D01*
X138390238Y-44323095D01*
X138437857Y-44418333D01*
X138485476Y-44465952D01*
X138580714Y-44513571D01*
X138914047Y-44513571D01*
X138056904Y-44037380D02*
X137485476Y-44037380D01*
X137771190Y-45037380D02*
X137771190Y-44037380D01*
X136628333Y-45037380D02*
X137199761Y-45037380D01*
X136914047Y-45037380D02*
X136914047Y-44037380D01*
X137009285Y-44180238D01*
X137104523Y-44275476D01*
X137199761Y-44323095D01*
%LPC*%
D14*
G36*
X171577000Y-52451000D02*
G01*
X175641000Y-52451000D01*
X175641000Y-48967572D01*
X175060428Y-48967572D01*
X175060428Y-51870429D01*
X172157571Y-51870429D01*
X172157571Y-48967572D01*
X175060428Y-48967572D01*
X175641000Y-48967572D01*
X175641000Y-48387000D01*
X171577000Y-48387000D01*
X171577000Y-52451000D01*
G37*
X171577000Y-52451000D02*
X175641000Y-52451000D01*
X175641000Y-48967572D01*
X175060428Y-48967572D01*
X175060428Y-51870429D01*
X172157571Y-51870429D01*
X172157571Y-48967572D01*
X175060428Y-48967572D01*
X175641000Y-48967572D01*
X175641000Y-48387000D01*
X171577000Y-48387000D01*
X171577000Y-52451000D01*
G36*
X164029571Y-47806429D02*
G01*
X163449000Y-47806429D01*
X163449000Y-48387000D01*
X164029571Y-48387000D01*
X164029571Y-49548143D01*
X165771285Y-49548143D01*
X165771285Y-48387000D01*
X166351857Y-48387000D01*
X166351857Y-49548143D01*
X166932428Y-49548143D01*
X166932428Y-50709286D01*
X167513000Y-50709286D01*
X167513000Y-51870429D01*
X168093571Y-51870429D01*
X168093571Y-52451000D01*
X169254714Y-52451000D01*
X169254714Y-51289857D01*
X169835285Y-51289857D01*
X169835285Y-50709286D01*
X170415857Y-50709286D01*
X170415857Y-51870429D01*
X169835285Y-51870429D01*
X169835285Y-52451000D01*
X170996428Y-52451000D01*
X170996428Y-49548143D01*
X170415857Y-49548143D01*
X170415857Y-50128715D01*
X169835285Y-50128715D01*
X169835285Y-49548143D01*
X168674143Y-49548143D01*
X168674143Y-50128715D01*
X169254714Y-50128715D01*
X169254714Y-50709286D01*
X168093571Y-50709286D01*
X168093571Y-50128715D01*
X167513000Y-50128715D01*
X167513000Y-49548143D01*
X168093571Y-49548143D01*
X168093571Y-48967572D01*
X169254714Y-48967572D01*
X169254714Y-48387000D01*
X168093571Y-48387000D01*
X168093571Y-48967572D01*
X167513000Y-48967572D01*
X167513000Y-49548143D01*
X166932428Y-49548143D01*
X166932428Y-48387000D01*
X168093571Y-48387000D01*
X168093571Y-47806429D01*
X167513000Y-47806429D01*
X167513000Y-47225857D01*
X166932428Y-47225857D01*
X166932428Y-47806429D01*
X166351857Y-47806429D01*
X166351857Y-47225857D01*
X165771285Y-47225857D01*
X165771285Y-48387000D01*
X164610143Y-48387000D01*
X164610143Y-47225857D01*
X165771285Y-47225857D01*
X165771285Y-46645286D01*
X164610143Y-46645286D01*
X164610143Y-46064715D01*
X164029571Y-46064715D01*
X164029571Y-47806429D01*
G37*
X164029571Y-47806429D02*
X163449000Y-47806429D01*
X163449000Y-48387000D01*
X164029571Y-48387000D01*
X164029571Y-49548143D01*
X165771285Y-49548143D01*
X165771285Y-48387000D01*
X166351857Y-48387000D01*
X166351857Y-49548143D01*
X166932428Y-49548143D01*
X166932428Y-50709286D01*
X167513000Y-50709286D01*
X167513000Y-51870429D01*
X168093571Y-51870429D01*
X168093571Y-52451000D01*
X169254714Y-52451000D01*
X169254714Y-51289857D01*
X169835285Y-51289857D01*
X169835285Y-50709286D01*
X170415857Y-50709286D01*
X170415857Y-51870429D01*
X169835285Y-51870429D01*
X169835285Y-52451000D01*
X170996428Y-52451000D01*
X170996428Y-49548143D01*
X170415857Y-49548143D01*
X170415857Y-50128715D01*
X169835285Y-50128715D01*
X169835285Y-49548143D01*
X168674143Y-49548143D01*
X168674143Y-50128715D01*
X169254714Y-50128715D01*
X169254714Y-50709286D01*
X168093571Y-50709286D01*
X168093571Y-50128715D01*
X167513000Y-50128715D01*
X167513000Y-49548143D01*
X168093571Y-49548143D01*
X168093571Y-48967572D01*
X169254714Y-48967572D01*
X169254714Y-48387000D01*
X168093571Y-48387000D01*
X168093571Y-48967572D01*
X167513000Y-48967572D01*
X167513000Y-49548143D01*
X166932428Y-49548143D01*
X166932428Y-48387000D01*
X168093571Y-48387000D01*
X168093571Y-47806429D01*
X167513000Y-47806429D01*
X167513000Y-47225857D01*
X166932428Y-47225857D01*
X166932428Y-47806429D01*
X166351857Y-47806429D01*
X166351857Y-47225857D01*
X165771285Y-47225857D01*
X165771285Y-48387000D01*
X164610143Y-48387000D01*
X164610143Y-47225857D01*
X165771285Y-47225857D01*
X165771285Y-46645286D01*
X164610143Y-46645286D01*
X164610143Y-46064715D01*
X164029571Y-46064715D01*
X164029571Y-47806429D01*
G36*
X166351857Y-52451000D02*
G01*
X167513000Y-52451000D01*
X167513000Y-51870429D01*
X166351857Y-51870429D01*
X166351857Y-52451000D01*
G37*
X166351857Y-52451000D02*
X167513000Y-52451000D01*
X167513000Y-51870429D01*
X166351857Y-51870429D01*
X166351857Y-52451000D01*
G36*
X169835285Y-44323000D02*
G01*
X169835285Y-45484143D01*
X169254714Y-45484143D01*
X168674143Y-45484143D01*
X168674143Y-46064715D01*
X167513000Y-46064715D01*
X167513000Y-45484143D01*
X168674143Y-45484143D01*
X169254714Y-45484143D01*
X169254714Y-44323000D01*
X169835285Y-44323000D01*
X169835285Y-43742429D01*
X169254714Y-43742429D01*
X169254714Y-44323000D01*
X168674143Y-44323000D01*
X168674143Y-43161857D01*
X168093571Y-43161857D01*
X168093571Y-44903572D01*
X167513000Y-44903572D01*
X167513000Y-45484143D01*
X166932428Y-45484143D01*
X166932428Y-44903572D01*
X166351857Y-44903572D01*
X166351857Y-45484143D01*
X165771285Y-45484143D01*
X165771285Y-44903572D01*
X165190714Y-44903572D01*
X165190714Y-46064715D01*
X167513000Y-46064715D01*
X167513000Y-47225857D01*
X168093571Y-47225857D01*
X168093571Y-47806429D01*
X168674143Y-47806429D01*
X168674143Y-47225857D01*
X169254714Y-47225857D01*
X169254714Y-48387000D01*
X169835285Y-48387000D01*
X169835285Y-48967572D01*
X170996428Y-48967572D01*
X170996428Y-47806429D01*
X170415857Y-47806429D01*
X170415857Y-48387000D01*
X169835285Y-48387000D01*
X169835285Y-47806429D01*
X170415857Y-47806429D01*
X170415857Y-47225857D01*
X169835285Y-47225857D01*
X169835285Y-46645286D01*
X169254714Y-46645286D01*
X169254714Y-46064715D01*
X169835285Y-46064715D01*
X169835285Y-45484143D01*
X170415857Y-45484143D01*
X170415857Y-46645286D01*
X170996428Y-46645286D01*
X170996428Y-47225857D01*
X171577000Y-47225857D01*
X171577000Y-47806429D01*
X172157571Y-47806429D01*
X172157571Y-47225857D01*
X172738143Y-47225857D01*
X172738143Y-47806429D01*
X173318714Y-47806429D01*
X173318714Y-47225857D01*
X172738143Y-47225857D01*
X172738143Y-46645286D01*
X173318714Y-46645286D01*
X173318714Y-47225857D01*
X173899285Y-47225857D01*
X173899285Y-47806429D01*
X174479857Y-47806429D01*
X174479857Y-46645286D01*
X175060428Y-46645286D01*
X175060428Y-45484143D01*
X174479857Y-45484143D01*
X174479857Y-46645286D01*
X173318714Y-46645286D01*
X173318714Y-46064715D01*
X173899285Y-46064715D01*
X173899285Y-45484143D01*
X174479857Y-45484143D01*
X175060428Y-45484143D01*
X175641000Y-45484143D01*
X175641000Y-44903572D01*
X172738143Y-44903572D01*
X172738143Y-46645286D01*
X172157571Y-46645286D01*
X172157571Y-47225857D01*
X171577000Y-47225857D01*
X171577000Y-46645286D01*
X172157571Y-46645286D01*
X172157571Y-46064715D01*
X171577000Y-46064715D01*
X171577000Y-45484143D01*
X172157571Y-45484143D01*
X172157571Y-44903572D01*
X170415857Y-44903572D01*
X170415857Y-44323000D01*
X169835285Y-44323000D01*
G37*
X169835285Y-44323000D02*
X169835285Y-45484143D01*
X169254714Y-45484143D01*
X168674143Y-45484143D01*
X168674143Y-46064715D01*
X167513000Y-46064715D01*
X167513000Y-45484143D01*
X168674143Y-45484143D01*
X169254714Y-45484143D01*
X169254714Y-44323000D01*
X169835285Y-44323000D01*
X169835285Y-43742429D01*
X169254714Y-43742429D01*
X169254714Y-44323000D01*
X168674143Y-44323000D01*
X168674143Y-43161857D01*
X168093571Y-43161857D01*
X168093571Y-44903572D01*
X167513000Y-44903572D01*
X167513000Y-45484143D01*
X166932428Y-45484143D01*
X166932428Y-44903572D01*
X166351857Y-44903572D01*
X166351857Y-45484143D01*
X165771285Y-45484143D01*
X165771285Y-44903572D01*
X165190714Y-44903572D01*
X165190714Y-46064715D01*
X167513000Y-46064715D01*
X167513000Y-47225857D01*
X168093571Y-47225857D01*
X168093571Y-47806429D01*
X168674143Y-47806429D01*
X168674143Y-47225857D01*
X169254714Y-47225857D01*
X169254714Y-48387000D01*
X169835285Y-48387000D01*
X169835285Y-48967572D01*
X170996428Y-48967572D01*
X170996428Y-47806429D01*
X170415857Y-47806429D01*
X170415857Y-48387000D01*
X169835285Y-48387000D01*
X169835285Y-47806429D01*
X170415857Y-47806429D01*
X170415857Y-47225857D01*
X169835285Y-47225857D01*
X169835285Y-46645286D01*
X169254714Y-46645286D01*
X169254714Y-46064715D01*
X169835285Y-46064715D01*
X169835285Y-45484143D01*
X170415857Y-45484143D01*
X170415857Y-46645286D01*
X170996428Y-46645286D01*
X170996428Y-47225857D01*
X171577000Y-47225857D01*
X171577000Y-47806429D01*
X172157571Y-47806429D01*
X172157571Y-47225857D01*
X172738143Y-47225857D01*
X172738143Y-47806429D01*
X173318714Y-47806429D01*
X173318714Y-47225857D01*
X172738143Y-47225857D01*
X172738143Y-46645286D01*
X173318714Y-46645286D01*
X173318714Y-47225857D01*
X173899285Y-47225857D01*
X173899285Y-47806429D01*
X174479857Y-47806429D01*
X174479857Y-46645286D01*
X175060428Y-46645286D01*
X175060428Y-45484143D01*
X174479857Y-45484143D01*
X174479857Y-46645286D01*
X173318714Y-46645286D01*
X173318714Y-46064715D01*
X173899285Y-46064715D01*
X173899285Y-45484143D01*
X174479857Y-45484143D01*
X175060428Y-45484143D01*
X175641000Y-45484143D01*
X175641000Y-44903572D01*
X172738143Y-44903572D01*
X172738143Y-46645286D01*
X172157571Y-46645286D01*
X172157571Y-47225857D01*
X171577000Y-47225857D01*
X171577000Y-46645286D01*
X172157571Y-46645286D01*
X172157571Y-46064715D01*
X171577000Y-46064715D01*
X171577000Y-45484143D01*
X172157571Y-45484143D01*
X172157571Y-44903572D01*
X170415857Y-44903572D01*
X170415857Y-44323000D01*
X169835285Y-44323000D01*
G36*
X164610143Y-45484143D02*
G01*
X164610143Y-44903572D01*
X164029571Y-44903572D01*
X164029571Y-45484143D01*
X164610143Y-45484143D01*
G37*
X164610143Y-45484143D02*
X164610143Y-44903572D01*
X164029571Y-44903572D01*
X164029571Y-45484143D01*
X164610143Y-45484143D01*
G36*
X164029571Y-45484143D02*
G01*
X163449000Y-45484143D01*
X163449000Y-46064715D01*
X164029571Y-46064715D01*
X164029571Y-45484143D01*
G37*
X164029571Y-45484143D02*
X163449000Y-45484143D01*
X163449000Y-46064715D01*
X164029571Y-46064715D01*
X164029571Y-45484143D01*
G36*
X170996428Y-44323000D02*
G01*
X170996428Y-43161857D01*
X170415857Y-43161857D01*
X170415857Y-44323000D01*
X170996428Y-44323000D01*
G37*
X170996428Y-44323000D02*
X170996428Y-43161857D01*
X170415857Y-43161857D01*
X170415857Y-44323000D01*
X170996428Y-44323000D01*
G36*
X164029571Y-51870429D02*
G01*
X164029571Y-52451000D01*
X164610143Y-52451000D01*
X164610143Y-51870429D01*
X164029571Y-51870429D01*
G37*
X164029571Y-51870429D02*
X164029571Y-52451000D01*
X164610143Y-52451000D01*
X164610143Y-51870429D01*
X164029571Y-51870429D01*
G36*
X166351857Y-50709286D02*
G01*
X166351857Y-50128715D01*
X165771285Y-50128715D01*
X165771285Y-50709286D01*
X166351857Y-50709286D01*
G37*
X166351857Y-50709286D02*
X166351857Y-50128715D01*
X165771285Y-50128715D01*
X165771285Y-50709286D01*
X166351857Y-50709286D01*
G36*
X165771285Y-51870429D02*
G01*
X165771285Y-50709286D01*
X165190714Y-50709286D01*
X165190714Y-51289857D01*
X164610143Y-51289857D01*
X164610143Y-51870429D01*
X165771285Y-51870429D01*
G37*
X165771285Y-51870429D02*
X165771285Y-50709286D01*
X165190714Y-50709286D01*
X165190714Y-51289857D01*
X164610143Y-51289857D01*
X164610143Y-51870429D01*
X165771285Y-51870429D01*
G36*
X164029571Y-50709286D02*
G01*
X164610143Y-50709286D01*
X164610143Y-50128715D01*
X164029571Y-50128715D01*
X164029571Y-50709286D01*
G37*
X164029571Y-50709286D02*
X164610143Y-50709286D01*
X164610143Y-50128715D01*
X164029571Y-50128715D01*
X164029571Y-50709286D01*
G36*
X171577000Y-44323000D02*
G01*
X175641000Y-44323000D01*
X175641000Y-40839572D01*
X175060428Y-40839572D01*
X175060428Y-43742429D01*
X172157571Y-43742429D01*
X172157571Y-40839572D01*
X175060428Y-40839572D01*
X175641000Y-40839572D01*
X175641000Y-40259000D01*
X171577000Y-40259000D01*
X171577000Y-44323000D01*
G37*
X171577000Y-44323000D02*
X175641000Y-44323000D01*
X175641000Y-40839572D01*
X175060428Y-40839572D01*
X175060428Y-43742429D01*
X172157571Y-43742429D01*
X172157571Y-40839572D01*
X175060428Y-40839572D01*
X175641000Y-40839572D01*
X175641000Y-40259000D01*
X171577000Y-40259000D01*
X171577000Y-44323000D01*
G36*
X163449000Y-44323000D02*
G01*
X167513000Y-44323000D01*
X167513000Y-40839572D01*
X166932428Y-40839572D01*
X166932428Y-43742429D01*
X164029571Y-43742429D01*
X164029571Y-40839572D01*
X166932428Y-40839572D01*
X167513000Y-40839572D01*
X167513000Y-40259000D01*
X163449000Y-40259000D01*
X163449000Y-44323000D01*
G37*
X163449000Y-44323000D02*
X167513000Y-44323000D01*
X167513000Y-40839572D01*
X166932428Y-40839572D01*
X166932428Y-43742429D01*
X164029571Y-43742429D01*
X164029571Y-40839572D01*
X166932428Y-40839572D01*
X167513000Y-40839572D01*
X167513000Y-40259000D01*
X163449000Y-40259000D01*
X163449000Y-44323000D01*
G36*
X168674143Y-42581286D02*
G01*
X170996428Y-42581286D01*
X170996428Y-42000715D01*
X168674143Y-42000715D01*
X168674143Y-42581286D01*
G37*
X168674143Y-42581286D02*
X170996428Y-42581286D01*
X170996428Y-42000715D01*
X168674143Y-42000715D01*
X168674143Y-42581286D01*
G36*
X169835285Y-41420143D02*
G01*
X170996428Y-41420143D01*
X170996428Y-40839572D01*
X169835285Y-40839572D01*
X169835285Y-41420143D01*
G37*
X169835285Y-41420143D02*
X170996428Y-41420143D01*
X170996428Y-40839572D01*
X169835285Y-40839572D01*
X169835285Y-41420143D01*
G36*
X168093571Y-41420143D02*
G01*
X169254714Y-41420143D01*
X169254714Y-40839572D01*
X168093571Y-40839572D01*
X168093571Y-41420143D01*
G37*
X168093571Y-41420143D02*
X169254714Y-41420143D01*
X169254714Y-40839572D01*
X168093571Y-40839572D01*
X168093571Y-41420143D01*
G36*
X172738143Y-51289857D02*
G01*
X174479857Y-51289857D01*
X174479857Y-49548143D01*
X172738143Y-49548143D01*
X172738143Y-51289857D01*
G37*
X172738143Y-51289857D02*
X174479857Y-51289857D01*
X174479857Y-49548143D01*
X172738143Y-49548143D01*
X172738143Y-51289857D01*
G36*
X172738143Y-43161857D02*
G01*
X174479857Y-43161857D01*
X174479857Y-41420143D01*
X172738143Y-41420143D01*
X172738143Y-43161857D01*
G37*
X172738143Y-43161857D02*
X174479857Y-43161857D01*
X174479857Y-41420143D01*
X172738143Y-41420143D01*
X172738143Y-43161857D01*
G36*
X164610143Y-43161857D02*
G01*
X166351857Y-43161857D01*
X166351857Y-41420143D01*
X164610143Y-41420143D01*
X164610143Y-43161857D01*
G37*
X164610143Y-43161857D02*
X166351857Y-43161857D01*
X166351857Y-41420143D01*
X164610143Y-41420143D01*
X164610143Y-43161857D01*
D15*
X172010000Y-59400000D03*
X172010000Y-54900000D03*
X178510000Y-59400000D03*
X178510000Y-54900000D03*
X172010000Y-70830000D03*
X172010000Y-66330000D03*
X178510000Y-70830000D03*
X178510000Y-66330000D03*
X172010000Y-82260000D03*
X172010000Y-77760000D03*
X178510000Y-82260000D03*
X178510000Y-77760000D03*
D16*
X166370000Y-87630000D03*
D17*
X163830000Y-87630000D03*
D18*
X132080000Y-91440000D03*
D19*
X132080000Y-101600000D03*
D15*
X153035000Y-45085000D03*
X153035000Y-47625000D03*
X158115000Y-47625000D03*
X158115000Y-45085000D03*
X155575000Y-45085000D03*
X155575000Y-47625000D03*
D18*
X148590000Y-99060000D03*
D19*
X158750000Y-99060000D03*
D18*
X179070000Y-62865000D03*
D19*
X171450000Y-62865000D03*
D18*
X179070000Y-74295000D03*
D19*
X171450000Y-74295000D03*
D18*
X137160000Y-80010000D03*
D19*
X129540000Y-80010000D03*
D18*
X179070000Y-85725000D03*
D19*
X171450000Y-85725000D03*
D18*
X137160000Y-72390000D03*
D19*
X129540000Y-72390000D03*
D18*
X137160000Y-87630000D03*
D19*
X129540000Y-87630000D03*
D18*
X137160000Y-64770000D03*
D19*
X129540000Y-64770000D03*
D18*
X137160000Y-57150000D03*
D19*
X129540000Y-57150000D03*
D20*
X154970000Y-99214000D03*
X152370000Y-99214000D03*
X154320000Y-99214000D03*
X153670000Y-99214000D03*
X153020000Y-99214000D03*
D21*
X157620000Y-101889000D03*
X154870000Y-101889000D03*
X152470000Y-101889000D03*
X149720000Y-101889000D03*
D22*
X131799000Y-97820000D03*
X131799000Y-95220000D03*
X131799000Y-97170000D03*
X131799000Y-96520000D03*
X131799000Y-95870000D03*
D21*
X129124000Y-100470000D03*
X129124000Y-97720000D03*
X129124000Y-95320000D03*
X129124000Y-92570000D03*
D23*
X137795000Y-45085000D03*
D24*
X130145000Y-45085000D03*
X145445000Y-45085000D03*
D16*
X143510000Y-72390000D03*
D17*
X140970000Y-72390000D03*
D16*
X166370000Y-80010000D03*
D17*
X163830000Y-80010000D03*
D16*
X158750000Y-80010000D03*
D17*
X156210000Y-80010000D03*
D16*
X151130000Y-80010000D03*
D17*
X148590000Y-80010000D03*
D16*
X143510000Y-80010000D03*
D17*
X140970000Y-80010000D03*
D16*
X166370000Y-72390000D03*
D17*
X163830000Y-72390000D03*
D16*
X158750000Y-72390000D03*
D17*
X156210000Y-72390000D03*
D16*
X151130000Y-72390000D03*
D17*
X148590000Y-72390000D03*
D16*
X166370000Y-64770000D03*
D17*
X163830000Y-64770000D03*
D16*
X158750000Y-64770000D03*
D17*
X156210000Y-64770000D03*
D16*
X151130000Y-64770000D03*
D17*
X148590000Y-64770000D03*
D16*
X143510000Y-64770000D03*
D17*
X140970000Y-64770000D03*
D16*
X166370000Y-57150000D03*
D17*
X163830000Y-57150000D03*
D16*
X158750000Y-57150000D03*
D17*
X156210000Y-57150000D03*
D16*
X151130000Y-57150000D03*
D17*
X148590000Y-57150000D03*
D16*
X143510000Y-57150000D03*
D17*
X140970000Y-57150000D03*
D25*
X147320000Y-88900000D03*
X147320000Y-86360000D03*
D19*
X162560000Y-100330000D03*
D18*
X177800000Y-92710000D03*
X165100000Y-100330000D03*
X175260000Y-92710000D03*
X167640000Y-100330000D03*
X172720000Y-92710000D03*
X170180000Y-100330000D03*
X170180000Y-92710000D03*
X172720000Y-100330000D03*
X167640000Y-92710000D03*
X175260000Y-100330000D03*
X165100000Y-92710000D03*
X177800000Y-100330000D03*
X162560000Y-92710000D03*
D26*
X144780000Y-92710000D03*
D18*
X137160000Y-100330000D03*
X142240000Y-92710000D03*
X139700000Y-100330000D03*
X139700000Y-92710000D03*
X142240000Y-100330000D03*
X137160000Y-92710000D03*
X144780000Y-100330000D03*
D19*
X151210000Y-95885000D03*
X156210000Y-95885000D03*
X144700000Y-86360000D03*
X139700000Y-86360000D03*
X139700000Y-89154000D03*
X144700000Y-89154000D03*
X151210000Y-92710000D03*
X156210000Y-92710000D03*
M02*
