%TF.GenerationSoftware,KiCad,Pcbnew,5.1.8-5.1.8*%
%TF.CreationDate,2022-01-13T22:28:20+01:00*%
%TF.ProjectId,usb_binary_clk,7573625f-6269-46e6-9172-795f636c6b2e,rev?*%
%TF.SameCoordinates,Original*%
%TF.FileFunction,Legend,Top*%
%TF.FilePolarity,Positive*%
%FSLAX46Y46*%
G04 Gerber Fmt 4.6, Leading zero omitted, Abs format (unit mm)*
G04 Created by KiCad (PCBNEW 5.1.8-5.1.8) date 2022-01-13 22:28:20*
%MOMM*%
%LPD*%
G01*
G04 APERTURE LIST*
%ADD10C,0.240000*%
%ADD11C,0.120000*%
%ADD12C,0.200000*%
%ADD13C,0.130000*%
%ADD14C,0.010000*%
%ADD15C,0.150000*%
%ADD16C,2.000000*%
%ADD17C,1.800000*%
%ADD18R,1.800000X1.800000*%
%ADD19O,1.600000X1.600000*%
%ADD20C,1.600000*%
%ADD21C,1.000000*%
%ADD22R,1.600000X1.600000*%
G04 APERTURE END LIST*
D10*
X179959000Y-57658000D02*
X180721000Y-57658000D01*
X179959000Y-57150000D02*
X180721000Y-57150000D01*
X179959000Y-56642000D02*
X180721000Y-56642000D01*
D11*
X179578000Y-57658000D02*
G75*
G03*
X179578000Y-57658000I-127000J0D01*
G01*
X179578000Y-56642000D02*
G75*
G03*
X179578000Y-56642000I-127000J0D01*
G01*
X179578000Y-57150000D02*
G75*
G03*
X179578000Y-57150000I-127000J0D01*
G01*
D10*
X179451000Y-80010000D02*
X180721000Y-80010000D01*
X179451000Y-68580000D02*
X180721000Y-68580000D01*
X180086000Y-69215000D02*
X180086000Y-67945000D01*
D11*
X167600000Y-87630000D02*
G75*
G03*
X167600000Y-87630000I-2500000J0D01*
G01*
X162540000Y-86085000D02*
X162540000Y-89175000D01*
X168090000Y-87629538D02*
G75*
G02*
X162540000Y-89174830I-2990000J-462D01*
G01*
X168090000Y-87630462D02*
G75*
G03*
X162540000Y-86085170I-2990000J462D01*
G01*
X166369999Y-88900000D02*
G75*
G02*
X163830001Y-88899999I-1269999J635000D01*
G01*
D12*
X171196000Y-89281000D02*
G75*
G03*
X171196000Y-89281000I-1016000J0D01*
G01*
D13*
X170180000Y-90297000D02*
X170180000Y-88265000D01*
X170180000Y-88773000D02*
G75*
G02*
X170180000Y-89789000I0J-508000D01*
G01*
X170180000Y-89027000D02*
G75*
G02*
X170180000Y-89535000I0J-254000D01*
G01*
X170180000Y-88519000D02*
G75*
G02*
X170180000Y-90043000I0J-762000D01*
G01*
X170180000Y-88265000D02*
G75*
G02*
X170180000Y-90297000I0J-1016000D01*
G01*
X170180000Y-89154000D02*
G75*
G02*
X170180000Y-89408000I0J-127000D01*
G01*
X170180000Y-88900000D02*
G75*
G02*
X170180000Y-89662000I0J-381000D01*
G01*
X170180000Y-88646000D02*
G75*
G02*
X170180000Y-89916000I0J-635000D01*
G01*
X170180000Y-88392000D02*
G75*
G02*
X170180000Y-90170000I0J-889000D01*
G01*
D12*
X170180000Y-87884000D02*
X170180000Y-87249000D01*
X169192172Y-88293172D02*
X168743159Y-87844159D01*
X168783000Y-89281000D02*
X168148000Y-89281000D01*
X169192172Y-90268828D02*
X168743159Y-90717841D01*
X170180000Y-90678000D02*
X170180000Y-91313000D01*
X171167828Y-90268828D02*
X171616841Y-90717841D01*
X171577000Y-89281000D02*
X172212000Y-89281000D01*
X171167828Y-88293172D02*
X171616841Y-87844159D01*
D11*
X132080000Y-92480000D02*
X132080000Y-93250000D01*
X132080000Y-100560000D02*
X132080000Y-99790000D01*
X130710000Y-93250000D02*
X130710000Y-99790000D01*
X133450000Y-93250000D02*
X130710000Y-93250000D01*
X133450000Y-99790000D02*
X133450000Y-93250000D01*
X130710000Y-99790000D02*
X133450000Y-99790000D01*
X149630000Y-99060000D02*
X150400000Y-99060000D01*
X157710000Y-99060000D02*
X156940000Y-99060000D01*
X150400000Y-100430000D02*
X156940000Y-100430000D01*
X150400000Y-97690000D02*
X150400000Y-100430000D01*
X156940000Y-97690000D02*
X150400000Y-97690000D01*
X156940000Y-100430000D02*
X156940000Y-97690000D01*
X178530000Y-64235000D02*
X178530000Y-63905000D01*
X171990000Y-64235000D02*
X178530000Y-64235000D01*
X171990000Y-63905000D02*
X171990000Y-64235000D01*
X178530000Y-61495000D02*
X178530000Y-61825000D01*
X171990000Y-61495000D02*
X178530000Y-61495000D01*
X171990000Y-61825000D02*
X171990000Y-61495000D01*
X178530000Y-75665000D02*
X178530000Y-75335000D01*
X171990000Y-75665000D02*
X178530000Y-75665000D01*
X171990000Y-75335000D02*
X171990000Y-75665000D01*
X178530000Y-72925000D02*
X178530000Y-73255000D01*
X171990000Y-72925000D02*
X178530000Y-72925000D01*
X171990000Y-73255000D02*
X171990000Y-72925000D01*
X136620000Y-81380000D02*
X136620000Y-81050000D01*
X130080000Y-81380000D02*
X136620000Y-81380000D01*
X130080000Y-81050000D02*
X130080000Y-81380000D01*
X136620000Y-78640000D02*
X136620000Y-78970000D01*
X130080000Y-78640000D02*
X136620000Y-78640000D01*
X130080000Y-78970000D02*
X130080000Y-78640000D01*
X178530000Y-87095000D02*
X178530000Y-86765000D01*
X171990000Y-87095000D02*
X178530000Y-87095000D01*
X171990000Y-86765000D02*
X171990000Y-87095000D01*
X178530000Y-84355000D02*
X178530000Y-84685000D01*
X171990000Y-84355000D02*
X178530000Y-84355000D01*
X171990000Y-84685000D02*
X171990000Y-84355000D01*
X136620000Y-73760000D02*
X136620000Y-73430000D01*
X130080000Y-73760000D02*
X136620000Y-73760000D01*
X130080000Y-73430000D02*
X130080000Y-73760000D01*
X136620000Y-71020000D02*
X136620000Y-71350000D01*
X130080000Y-71020000D02*
X136620000Y-71020000D01*
X130080000Y-71350000D02*
X130080000Y-71020000D01*
X136620000Y-89000000D02*
X136620000Y-88670000D01*
X130080000Y-89000000D02*
X136620000Y-89000000D01*
X130080000Y-88670000D02*
X130080000Y-89000000D01*
X136620000Y-86260000D02*
X136620000Y-86590000D01*
X130080000Y-86260000D02*
X136620000Y-86260000D01*
X130080000Y-86590000D02*
X130080000Y-86260000D01*
X136620000Y-66140000D02*
X136620000Y-65810000D01*
X130080000Y-66140000D02*
X136620000Y-66140000D01*
X130080000Y-65810000D02*
X130080000Y-66140000D01*
X136620000Y-63400000D02*
X136620000Y-63730000D01*
X130080000Y-63400000D02*
X136620000Y-63400000D01*
X130080000Y-63730000D02*
X130080000Y-63400000D01*
X136620000Y-58520000D02*
X136620000Y-58190000D01*
X130080000Y-58520000D02*
X136620000Y-58520000D01*
X130080000Y-58190000D02*
X130080000Y-58520000D01*
X136620000Y-55780000D02*
X136620000Y-56110000D01*
X130080000Y-55780000D02*
X136620000Y-55780000D01*
X130080000Y-56110000D02*
X130080000Y-55780000D01*
D14*
G36*
X175868470Y-44970702D02*
G01*
X175877170Y-44998460D01*
X175890196Y-45041765D01*
X175906856Y-45098201D01*
X175926461Y-45165348D01*
X175948321Y-45240791D01*
X175971746Y-45322110D01*
X175996044Y-45406889D01*
X176020527Y-45492710D01*
X176044503Y-45577154D01*
X176067284Y-45657804D01*
X176088178Y-45732243D01*
X176106495Y-45798053D01*
X176121545Y-45852815D01*
X176132639Y-45894113D01*
X176139085Y-45919529D01*
X176140462Y-45926620D01*
X176130268Y-45928726D01*
X176101657Y-45930622D01*
X176057380Y-45932231D01*
X176000188Y-45933474D01*
X175932829Y-45934276D01*
X175858618Y-45934557D01*
X175770875Y-45934355D01*
X175702399Y-45933687D01*
X175651294Y-45932464D01*
X175615663Y-45930594D01*
X175593609Y-45927987D01*
X175583236Y-45924552D01*
X175582000Y-45921328D01*
X175585857Y-45908738D01*
X175594950Y-45877874D01*
X175608679Y-45830805D01*
X175626445Y-45769604D01*
X175647647Y-45696342D01*
X175671683Y-45613089D01*
X175697956Y-45521917D01*
X175723104Y-45434495D01*
X175750814Y-45338493D01*
X175776865Y-45249013D01*
X175800658Y-45168053D01*
X175821597Y-45097610D01*
X175839084Y-45039683D01*
X175852521Y-44996268D01*
X175861310Y-44969364D01*
X175864785Y-44960910D01*
X175868470Y-44970702D01*
G37*
X175868470Y-44970702D02*
X175877170Y-44998460D01*
X175890196Y-45041765D01*
X175906856Y-45098201D01*
X175926461Y-45165348D01*
X175948321Y-45240791D01*
X175971746Y-45322110D01*
X175996044Y-45406889D01*
X176020527Y-45492710D01*
X176044503Y-45577154D01*
X176067284Y-45657804D01*
X176088178Y-45732243D01*
X176106495Y-45798053D01*
X176121545Y-45852815D01*
X176132639Y-45894113D01*
X176139085Y-45919529D01*
X176140462Y-45926620D01*
X176130268Y-45928726D01*
X176101657Y-45930622D01*
X176057380Y-45932231D01*
X176000188Y-45933474D01*
X175932829Y-45934276D01*
X175858618Y-45934557D01*
X175770875Y-45934355D01*
X175702399Y-45933687D01*
X175651294Y-45932464D01*
X175615663Y-45930594D01*
X175593609Y-45927987D01*
X175583236Y-45924552D01*
X175582000Y-45921328D01*
X175585857Y-45908738D01*
X175594950Y-45877874D01*
X175608679Y-45830805D01*
X175626445Y-45769604D01*
X175647647Y-45696342D01*
X175671683Y-45613089D01*
X175697956Y-45521917D01*
X175723104Y-45434495D01*
X175750814Y-45338493D01*
X175776865Y-45249013D01*
X175800658Y-45168053D01*
X175821597Y-45097610D01*
X175839084Y-45039683D01*
X175852521Y-44996268D01*
X175861310Y-44969364D01*
X175864785Y-44960910D01*
X175868470Y-44970702D01*
G36*
X169150437Y-46146403D02*
G01*
X169186408Y-46147546D01*
X169210243Y-46150563D01*
X169226456Y-46156366D01*
X169239563Y-46165863D01*
X169251273Y-46177160D01*
X169269619Y-46198494D01*
X169278898Y-46220497D01*
X169282026Y-46251726D01*
X169282209Y-46267932D01*
X169280664Y-46304962D01*
X169274085Y-46329488D01*
X169259557Y-46350067D01*
X169251273Y-46358705D01*
X169237323Y-46371946D01*
X169224002Y-46380740D01*
X169206794Y-46385996D01*
X169181185Y-46388625D01*
X169142658Y-46389536D01*
X169097815Y-46389641D01*
X168975292Y-46389641D01*
X168975292Y-46146224D01*
X169097815Y-46146224D01*
X169150437Y-46146403D01*
G37*
X169150437Y-46146403D02*
X169186408Y-46147546D01*
X169210243Y-46150563D01*
X169226456Y-46156366D01*
X169239563Y-46165863D01*
X169251273Y-46177160D01*
X169269619Y-46198494D01*
X169278898Y-46220497D01*
X169282026Y-46251726D01*
X169282209Y-46267932D01*
X169280664Y-46304962D01*
X169274085Y-46329488D01*
X169259557Y-46350067D01*
X169251273Y-46358705D01*
X169237323Y-46371946D01*
X169224002Y-46380740D01*
X169206794Y-46385996D01*
X169181185Y-46388625D01*
X169142658Y-46389536D01*
X169097815Y-46389641D01*
X168975292Y-46389641D01*
X168975292Y-46146224D01*
X169097815Y-46146224D01*
X169150437Y-46146403D01*
G36*
X155851959Y-29117641D02*
G01*
X156211792Y-29117641D01*
X156211792Y-28747224D01*
X156592792Y-28747224D01*
X156592792Y-29117641D01*
X156942042Y-29117641D01*
X156942042Y-28747224D01*
X157323042Y-28747224D01*
X157323042Y-29117641D01*
X157682876Y-29117641D01*
X157682876Y-28747224D01*
X158053292Y-28747224D01*
X158053292Y-29117641D01*
X158413126Y-29117641D01*
X158413126Y-28747224D01*
X158794126Y-28747224D01*
X158794125Y-29120286D01*
X158794125Y-29493349D01*
X155470958Y-29493349D01*
X155470959Y-29120286D01*
X155470959Y-28747224D01*
X155851959Y-28747224D01*
X155851959Y-29117641D01*
G37*
X155851959Y-29117641D02*
X156211792Y-29117641D01*
X156211792Y-28747224D01*
X156592792Y-28747224D01*
X156592792Y-29117641D01*
X156942042Y-29117641D01*
X156942042Y-28747224D01*
X157323042Y-28747224D01*
X157323042Y-29117641D01*
X157682876Y-29117641D01*
X157682876Y-28747224D01*
X158053292Y-28747224D01*
X158053292Y-29117641D01*
X158413126Y-29117641D01*
X158413126Y-28747224D01*
X158794126Y-28747224D01*
X158794125Y-29120286D01*
X158794125Y-29493349D01*
X155470958Y-29493349D01*
X155470959Y-29120286D01*
X155470959Y-28747224D01*
X155851959Y-28747224D01*
X155851959Y-29117641D01*
G36*
X157315927Y-29847941D02*
G01*
X157496014Y-29848088D01*
X157669137Y-29848327D01*
X157834166Y-29848651D01*
X157989972Y-29849057D01*
X158135425Y-29849537D01*
X158269394Y-29850087D01*
X158390750Y-29850701D01*
X158498362Y-29851374D01*
X158591101Y-29852100D01*
X158667837Y-29852873D01*
X158727440Y-29853689D01*
X158768780Y-29854542D01*
X158790726Y-29855426D01*
X158794126Y-29855941D01*
X158786941Y-29865348D01*
X158766752Y-29887507D01*
X158735603Y-29920285D01*
X158695538Y-29961550D01*
X158648601Y-30009170D01*
X158611453Y-30046441D01*
X158428780Y-30228891D01*
X155846447Y-30228891D01*
X155656167Y-30038391D01*
X155465888Y-29847891D01*
X157130007Y-29847891D01*
X157315927Y-29847941D01*
G37*
X157315927Y-29847941D02*
X157496014Y-29848088D01*
X157669137Y-29848327D01*
X157834166Y-29848651D01*
X157989972Y-29849057D01*
X158135425Y-29849537D01*
X158269394Y-29850087D01*
X158390750Y-29850701D01*
X158498362Y-29851374D01*
X158591101Y-29852100D01*
X158667837Y-29852873D01*
X158727440Y-29853689D01*
X158768780Y-29854542D01*
X158790726Y-29855426D01*
X158794126Y-29855941D01*
X158786941Y-29865348D01*
X158766752Y-29887507D01*
X158735603Y-29920285D01*
X158695538Y-29961550D01*
X158648601Y-30009170D01*
X158611453Y-30046441D01*
X158428780Y-30228891D01*
X155846447Y-30228891D01*
X155656167Y-30038391D01*
X155465888Y-29847891D01*
X157130007Y-29847891D01*
X157315927Y-29847941D01*
G36*
X158423980Y-33528245D02*
G01*
X158424250Y-36467766D01*
X158607713Y-39031867D01*
X158624285Y-39263107D01*
X158640509Y-39488799D01*
X158656319Y-39708032D01*
X158671647Y-39919897D01*
X158686427Y-40123483D01*
X158700590Y-40317880D01*
X158714070Y-40502178D01*
X158726798Y-40675468D01*
X158738708Y-40836838D01*
X158749732Y-40985379D01*
X158759803Y-41120180D01*
X158768854Y-41240333D01*
X158776816Y-41344925D01*
X158783624Y-41433048D01*
X158789208Y-41503792D01*
X158793503Y-41556245D01*
X158796440Y-41589499D01*
X158797952Y-41602642D01*
X158798024Y-41602817D01*
X158809488Y-41603724D01*
X158840386Y-41604118D01*
X158888989Y-41604023D01*
X158953573Y-41603461D01*
X159032409Y-41602457D01*
X159123771Y-41601034D01*
X159225933Y-41599217D01*
X159337167Y-41597028D01*
X159455747Y-41594492D01*
X159534766Y-41592696D01*
X160264660Y-41575728D01*
X160801922Y-41754892D01*
X160903977Y-41788877D01*
X160999985Y-41820753D01*
X161088072Y-41849905D01*
X161166365Y-41875719D01*
X161232992Y-41897578D01*
X161286077Y-41914867D01*
X161323749Y-41926971D01*
X161344133Y-41933273D01*
X161347238Y-41934057D01*
X161349142Y-41923880D01*
X161350886Y-41894972D01*
X161352414Y-41849769D01*
X161353672Y-41790706D01*
X161354605Y-41720219D01*
X161355159Y-41640743D01*
X161355292Y-41575896D01*
X161355292Y-41217735D01*
X161283855Y-41190060D01*
X161184433Y-41159281D01*
X161084121Y-41144388D01*
X160980501Y-41145578D01*
X160871156Y-41163049D01*
X160753669Y-41197001D01*
X160635626Y-41243261D01*
X160577060Y-41264568D01*
X160532871Y-41270955D01*
X160502116Y-41262109D01*
X160483853Y-41237716D01*
X160477140Y-41197463D01*
X160477068Y-41190578D01*
X160479979Y-41145698D01*
X160488082Y-41083166D01*
X160500883Y-41005721D01*
X160517891Y-40916100D01*
X160538611Y-40817040D01*
X160562550Y-40711279D01*
X160566198Y-40695807D01*
X160578081Y-40646795D01*
X160590093Y-40600173D01*
X160602886Y-40554183D01*
X160617112Y-40507070D01*
X160633425Y-40457077D01*
X160652478Y-40402446D01*
X160674922Y-40341423D01*
X160701411Y-40272249D01*
X160732597Y-40193169D01*
X160769134Y-40102425D01*
X160811673Y-39998262D01*
X160860868Y-39878923D01*
X160917371Y-39742650D01*
X160945696Y-39674516D01*
X160985032Y-39579338D01*
X161025217Y-39480980D01*
X161064689Y-39383346D01*
X161101887Y-39290337D01*
X161135247Y-39205855D01*
X161163208Y-39133804D01*
X161180860Y-39087141D01*
X161280057Y-38807488D01*
X161375915Y-38512289D01*
X161466812Y-38207094D01*
X161551126Y-37897455D01*
X161627237Y-37588920D01*
X161657769Y-37454678D01*
X161674441Y-37380727D01*
X161690035Y-37314180D01*
X161703889Y-37257650D01*
X161715344Y-37213752D01*
X161723737Y-37185102D01*
X161728408Y-37174315D01*
X161728609Y-37174304D01*
X161736552Y-37185109D01*
X161752028Y-37213873D01*
X161774359Y-37259048D01*
X161802866Y-37319082D01*
X161836872Y-37392427D01*
X161875697Y-37477533D01*
X161918663Y-37572850D01*
X161965093Y-37676830D01*
X162014307Y-37787922D01*
X162065627Y-37904577D01*
X162118375Y-38025245D01*
X162171873Y-38148377D01*
X162225441Y-38272423D01*
X162278402Y-38395834D01*
X162330077Y-38517060D01*
X162379788Y-38634552D01*
X162426857Y-38746759D01*
X162470604Y-38852133D01*
X162510353Y-38949124D01*
X162545423Y-39036182D01*
X162561407Y-39076557D01*
X162654541Y-39318358D01*
X162740017Y-39550217D01*
X162817560Y-39771203D01*
X162886896Y-39980385D01*
X162947751Y-40176831D01*
X162999848Y-40359610D01*
X163042915Y-40527790D01*
X163076675Y-40680439D01*
X163100856Y-40816627D01*
X163115181Y-40935421D01*
X163117127Y-40961315D01*
X163119672Y-41015259D01*
X163117506Y-41052764D01*
X163108148Y-41075120D01*
X163089121Y-41083622D01*
X163057944Y-41079561D01*
X163012139Y-41064229D01*
X162959857Y-41043303D01*
X162885765Y-41019334D01*
X162822270Y-41013186D01*
X162768280Y-41025034D01*
X162722700Y-41055054D01*
X162696112Y-41085714D01*
X162661096Y-41148633D01*
X162634817Y-41228109D01*
X162617021Y-41325161D01*
X162607485Y-41440103D01*
X162605818Y-41546696D01*
X162611501Y-41645548D01*
X162625419Y-41744646D01*
X162648459Y-41851976D01*
X162656892Y-41885467D01*
X162674796Y-41945970D01*
X162699050Y-42015778D01*
X162727325Y-42089152D01*
X162757290Y-42160355D01*
X162786619Y-42223650D01*
X162812980Y-42273298D01*
X162817098Y-42280129D01*
X162838856Y-42315333D01*
X163198752Y-42312549D01*
X163558649Y-42309766D01*
X163605369Y-42193550D01*
X163630115Y-42126845D01*
X163647518Y-42065622D01*
X163657807Y-42005589D01*
X163661212Y-41942454D01*
X163657964Y-41871921D01*
X163648291Y-41789700D01*
X163632422Y-41691497D01*
X163632272Y-41690641D01*
X163608883Y-41534614D01*
X163595028Y-41383593D01*
X163590349Y-41230327D01*
X163594485Y-41067565D01*
X163598229Y-41002714D01*
X163606562Y-40892876D01*
X163617233Y-40785490D01*
X163630732Y-40677858D01*
X163647549Y-40567286D01*
X163668177Y-40451077D01*
X163693106Y-40326537D01*
X163705698Y-40269101D01*
X172460994Y-40269101D01*
X172472349Y-40274628D01*
X172501676Y-40287008D01*
X172547174Y-40305542D01*
X172607041Y-40329532D01*
X172679476Y-40358280D01*
X172762676Y-40391087D01*
X172854840Y-40427256D01*
X172954167Y-40466088D01*
X173058854Y-40506884D01*
X173167100Y-40548947D01*
X173277104Y-40591578D01*
X173387063Y-40634079D01*
X173495177Y-40675752D01*
X173599643Y-40715898D01*
X173698659Y-40753820D01*
X173790425Y-40788818D01*
X173873138Y-40820195D01*
X173944997Y-40847252D01*
X174004200Y-40869291D01*
X174048945Y-40885614D01*
X174076459Y-40895203D01*
X174329403Y-40973345D01*
X174601410Y-41047121D01*
X174890750Y-41116128D01*
X175195691Y-41179961D01*
X175514505Y-41238216D01*
X175621626Y-41256011D01*
X175718848Y-41271774D01*
X175798192Y-41284530D01*
X175862682Y-41294608D01*
X175915342Y-41302337D01*
X175959196Y-41308045D01*
X175997268Y-41312061D01*
X176032582Y-41314715D01*
X176068163Y-41316335D01*
X176107033Y-41317249D01*
X176152217Y-41317787D01*
X176193126Y-41318151D01*
X176318284Y-41315840D01*
X176463181Y-41306835D01*
X176600584Y-41294041D01*
X176690555Y-41283706D01*
X176792926Y-41270510D01*
X176899318Y-41255625D01*
X177001353Y-41240220D01*
X177087417Y-41226032D01*
X177168462Y-41211528D01*
X177254842Y-41195391D01*
X177344224Y-41178118D01*
X177434273Y-41160206D01*
X177522659Y-41142154D01*
X177607046Y-41124458D01*
X177685103Y-41107617D01*
X177754496Y-41092126D01*
X177812892Y-41078485D01*
X177857959Y-41067190D01*
X177887363Y-41058739D01*
X177898770Y-41053629D01*
X177898686Y-41053051D01*
X177888446Y-41047759D01*
X177860038Y-41033863D01*
X177814424Y-41011820D01*
X177752565Y-40982088D01*
X177675421Y-40945125D01*
X177583953Y-40901390D01*
X177479122Y-40851340D01*
X177361888Y-40795433D01*
X177233214Y-40734129D01*
X177094059Y-40667883D01*
X176945384Y-40597156D01*
X176788150Y-40522404D01*
X176623319Y-40444087D01*
X176451851Y-40362661D01*
X176274706Y-40278585D01*
X176171482Y-40229614D01*
X174452167Y-39414067D01*
X174356917Y-39512918D01*
X174190554Y-39671032D01*
X174013549Y-39811501D01*
X173826883Y-39933893D01*
X173631536Y-40037778D01*
X173428490Y-40122724D01*
X173218724Y-40188302D01*
X173003220Y-40234079D01*
X172782957Y-40259625D01*
X172645639Y-40265101D01*
X172585629Y-40265875D01*
X172533850Y-40266741D01*
X172493633Y-40267629D01*
X172468310Y-40268464D01*
X172460994Y-40269101D01*
X163705698Y-40269101D01*
X163722828Y-40190969D01*
X163757832Y-40041677D01*
X163798611Y-39875967D01*
X163816059Y-39806807D01*
X163837920Y-39719671D01*
X163863640Y-39615482D01*
X163892357Y-39497819D01*
X163923211Y-39370263D01*
X163955339Y-39236395D01*
X163987882Y-39099795D01*
X164019978Y-38964042D01*
X164050766Y-38832718D01*
X164064217Y-38774932D01*
X164102187Y-38611496D01*
X164135776Y-38467164D01*
X164165358Y-38340416D01*
X164191307Y-38229731D01*
X164213997Y-38133588D01*
X164233802Y-38050467D01*
X164251095Y-37978846D01*
X164266251Y-37917205D01*
X164279644Y-37864022D01*
X164291648Y-37817777D01*
X164302636Y-37776949D01*
X164312983Y-37740017D01*
X164323062Y-37705461D01*
X164333248Y-37671759D01*
X164343914Y-37637390D01*
X164343966Y-37637224D01*
X164392713Y-37491550D01*
X164441112Y-37366932D01*
X164489268Y-37263265D01*
X164537283Y-37180443D01*
X164585260Y-37118361D01*
X164633302Y-37076914D01*
X164681512Y-37055995D01*
X164729993Y-37055500D01*
X164778847Y-37075322D01*
X164828178Y-37115357D01*
X164840445Y-37128343D01*
X164864752Y-37157875D01*
X164888133Y-37192285D01*
X164911232Y-37233255D01*
X164934694Y-37282468D01*
X164959162Y-37341606D01*
X164985281Y-37412352D01*
X165013693Y-37496389D01*
X165045044Y-37595400D01*
X165079977Y-37711066D01*
X165119137Y-37845071D01*
X165132414Y-37891224D01*
X165164366Y-37999551D01*
X165197818Y-38107353D01*
X165231690Y-38211495D01*
X165264903Y-38308844D01*
X165296379Y-38396267D01*
X165325039Y-38470630D01*
X165349803Y-38528799D01*
X165357684Y-38545429D01*
X165401034Y-38633426D01*
X165444559Y-38626160D01*
X165520146Y-38602940D01*
X165593743Y-38559190D01*
X165664985Y-38495487D01*
X165733508Y-38412406D01*
X165798946Y-38310523D01*
X165860935Y-38190412D01*
X165919111Y-38052648D01*
X165973107Y-37897809D01*
X166022561Y-37726468D01*
X166027867Y-37706016D01*
X166046542Y-37628840D01*
X166065957Y-37541095D01*
X166084152Y-37452110D01*
X166099166Y-37371215D01*
X166102935Y-37348828D01*
X166112781Y-37290573D01*
X166121934Y-37240368D01*
X166129720Y-37201612D01*
X166135464Y-37177706D01*
X166138101Y-37171557D01*
X166143699Y-37180795D01*
X166157988Y-37207549D01*
X166180239Y-37250383D01*
X166209723Y-37307858D01*
X166245709Y-37378538D01*
X166287469Y-37460983D01*
X166334273Y-37553757D01*
X166385391Y-37655421D01*
X166440094Y-37764539D01*
X166497653Y-37879672D01*
X166512661Y-37909745D01*
X166880951Y-38647932D01*
X167048199Y-39150641D01*
X167215447Y-39653349D01*
X167231561Y-39615401D01*
X167265650Y-39561283D01*
X167320108Y-39510848D01*
X167394428Y-39464299D01*
X167488101Y-39421836D01*
X167600619Y-39383659D01*
X167731475Y-39349971D01*
X167880158Y-39320972D01*
X168032860Y-39298531D01*
X168132143Y-39287658D01*
X168231826Y-39280449D01*
X168333281Y-39277110D01*
X168437884Y-39277849D01*
X168547008Y-39282872D01*
X168662027Y-39292387D01*
X168784314Y-39306600D01*
X168915244Y-39325719D01*
X169056191Y-39349950D01*
X169208528Y-39379501D01*
X169373629Y-39414579D01*
X169552868Y-39455390D01*
X169747618Y-39502143D01*
X169959255Y-39555043D01*
X170189151Y-39614298D01*
X170271751Y-39635937D01*
X170382918Y-39665255D01*
X170498779Y-39695970D01*
X170615444Y-39727040D01*
X170729021Y-39757424D01*
X170835621Y-39786080D01*
X170931353Y-39811965D01*
X171012326Y-39834038D01*
X171044224Y-39842811D01*
X171118342Y-39863146D01*
X171185518Y-39881327D01*
X171243138Y-39896666D01*
X171288587Y-39908476D01*
X171319252Y-39916070D01*
X171332517Y-39918760D01*
X171332840Y-39918704D01*
X171325733Y-39912141D01*
X171304181Y-39896501D01*
X171271552Y-39874145D01*
X171232408Y-39848218D01*
X171101261Y-39753683D01*
X170970129Y-39642222D01*
X170842905Y-39517717D01*
X170723480Y-39384051D01*
X170615745Y-39245107D01*
X170587488Y-39204737D01*
X170471212Y-39015899D01*
X170373370Y-38817723D01*
X170294233Y-38611741D01*
X170234069Y-38399483D01*
X170193150Y-38182480D01*
X170171745Y-37962262D01*
X170171582Y-37939862D01*
X170624965Y-37939862D01*
X170644385Y-38138489D01*
X170680158Y-38319849D01*
X170736937Y-38506123D01*
X170813187Y-38687171D01*
X170907434Y-38860763D01*
X171018208Y-39024668D01*
X171144037Y-39176653D01*
X171283448Y-39314487D01*
X171398876Y-39409385D01*
X171546349Y-39512325D01*
X171695235Y-39598619D01*
X171848792Y-39669533D01*
X172010274Y-39726333D01*
X172182940Y-39770284D01*
X172370044Y-39802652D01*
X172430751Y-39810444D01*
X172476480Y-39813845D01*
X172536889Y-39815476D01*
X172605570Y-39815412D01*
X172676117Y-39813729D01*
X172742121Y-39810500D01*
X172793647Y-39806196D01*
X172998091Y-39773603D01*
X173195146Y-39721535D01*
X173383775Y-39650657D01*
X173562946Y-39561630D01*
X173731623Y-39455118D01*
X173888772Y-39331784D01*
X174033359Y-39192291D01*
X174164350Y-39037302D01*
X174280710Y-38867480D01*
X174295080Y-38843724D01*
X174387837Y-38669834D01*
X174460679Y-38492278D01*
X174514089Y-38309279D01*
X174548549Y-38119055D01*
X174564540Y-37919828D01*
X174565872Y-37843599D01*
X174556187Y-37635766D01*
X174526604Y-37435079D01*
X174477257Y-37241868D01*
X174408284Y-37056462D01*
X174319818Y-36879191D01*
X174211997Y-36710383D01*
X174084956Y-36550368D01*
X173992100Y-36451194D01*
X173846310Y-36317222D01*
X173694076Y-36202176D01*
X173532335Y-36104088D01*
X173358025Y-36020988D01*
X173266834Y-35985047D01*
X173086982Y-35929372D01*
X172899577Y-35891759D01*
X172707611Y-35872198D01*
X172514078Y-35870676D01*
X172321969Y-35887183D01*
X172134277Y-35921708D01*
X171953995Y-35974238D01*
X171910480Y-35990165D01*
X171720221Y-36073757D01*
X171542007Y-36174271D01*
X171376683Y-36290860D01*
X171225092Y-36422678D01*
X171088077Y-36568880D01*
X170966483Y-36728619D01*
X170861152Y-36901050D01*
X170772927Y-37085327D01*
X170743059Y-37160974D01*
X170684437Y-37348420D01*
X170645124Y-37542362D01*
X170625255Y-37740331D01*
X170624965Y-37939862D01*
X170171582Y-37939862D01*
X170170125Y-37740360D01*
X170188560Y-37518305D01*
X170227319Y-37297628D01*
X170240802Y-37240496D01*
X170303762Y-37030927D01*
X170386551Y-36827540D01*
X170488389Y-36631702D01*
X170608493Y-36444779D01*
X170746082Y-36268138D01*
X170879885Y-36123400D01*
X171047771Y-35969669D01*
X171225458Y-35834550D01*
X171413260Y-35717884D01*
X171611492Y-35619511D01*
X171820468Y-35539271D01*
X172040505Y-35477006D01*
X172229667Y-35439206D01*
X172297980Y-35430707D01*
X172382336Y-35424535D01*
X172477741Y-35420687D01*
X172579202Y-35419157D01*
X172681724Y-35419943D01*
X172780312Y-35423041D01*
X172869973Y-35428445D01*
X172945713Y-35436153D01*
X172970501Y-35439800D01*
X173197372Y-35487222D01*
X173414084Y-35553208D01*
X173620777Y-35637829D01*
X173817591Y-35741157D01*
X174004667Y-35863266D01*
X174182147Y-36004225D01*
X174315193Y-36128490D01*
X174469218Y-36296661D01*
X174604421Y-36474437D01*
X174721078Y-36662296D01*
X174819465Y-36860716D01*
X174899858Y-37070178D01*
X174944393Y-37219182D01*
X174988290Y-37421927D01*
X175014499Y-37632168D01*
X175022868Y-37845548D01*
X175013245Y-38057709D01*
X174985479Y-38264294D01*
X174981579Y-38285098D01*
X174972596Y-38335012D01*
X174966204Y-38377132D01*
X174962955Y-38407275D01*
X174963398Y-38421261D01*
X174963644Y-38421590D01*
X174973719Y-38426640D01*
X175002106Y-38440352D01*
X175047983Y-38462335D01*
X175110529Y-38492201D01*
X175188923Y-38529558D01*
X175282343Y-38574017D01*
X175389967Y-38625187D01*
X175510974Y-38682680D01*
X175644542Y-38746104D01*
X175789850Y-38815071D01*
X175946077Y-38889189D01*
X176112400Y-38968069D01*
X176287998Y-39051321D01*
X176472050Y-39138555D01*
X176663734Y-39229380D01*
X176862229Y-39323408D01*
X177066713Y-39420248D01*
X177276365Y-39519509D01*
X177314959Y-39537779D01*
X179659167Y-40647478D01*
X179892001Y-40875802D01*
X179962126Y-40943544D01*
X180038815Y-41015860D01*
X180117671Y-41088722D01*
X180194298Y-41158104D01*
X180264299Y-41219979D01*
X180316720Y-41264846D01*
X180374822Y-41314244D01*
X180430711Y-41363108D01*
X180481197Y-41408546D01*
X180523089Y-41447666D01*
X180553197Y-41477575D01*
X180561973Y-41487169D01*
X180609538Y-41547684D01*
X180661165Y-41624347D01*
X180717697Y-41718487D01*
X180779104Y-41829796D01*
X180839209Y-41942493D01*
X180839209Y-47469141D01*
X127181709Y-47469141D01*
X127181910Y-46125057D01*
X128108672Y-46125057D01*
X128109325Y-46210390D01*
X128112848Y-46279533D01*
X128120084Y-46337367D01*
X128131873Y-46388771D01*
X128149058Y-46438625D01*
X128171618Y-46489990D01*
X128218547Y-46566186D01*
X128282619Y-46636045D01*
X128360127Y-46696886D01*
X128447367Y-46746029D01*
X128540631Y-46780793D01*
X128589292Y-46792118D01*
X128648883Y-46797229D01*
X128721054Y-46794170D01*
X128799138Y-46783580D01*
X128876468Y-46766099D01*
X128884571Y-46763803D01*
X128958194Y-46739292D01*
X129036389Y-46706790D01*
X129120357Y-46665533D01*
X129211302Y-46614753D01*
X129310427Y-46553685D01*
X129418934Y-46481561D01*
X129538026Y-46397616D01*
X129668905Y-46301084D01*
X129812774Y-46191197D01*
X129941569Y-46090364D01*
X129955977Y-46083736D01*
X129960255Y-46084909D01*
X129958302Y-46095887D01*
X129950094Y-46124077D01*
X129936515Y-46166762D01*
X129918447Y-46221225D01*
X129896771Y-46284750D01*
X129876178Y-46343818D01*
X129841118Y-46443944D01*
X129812786Y-46526078D01*
X129790597Y-46592091D01*
X129773967Y-46643854D01*
X129762311Y-46683238D01*
X129755046Y-46712116D01*
X129751586Y-46732357D01*
X129751188Y-46743978D01*
X129762066Y-46769002D01*
X129785955Y-46787044D01*
X129807226Y-46791807D01*
X129824817Y-46789281D01*
X129840295Y-46780150D01*
X129854831Y-46762086D01*
X129869599Y-46732757D01*
X129885770Y-46689837D01*
X129904516Y-46630994D01*
X129927011Y-46553900D01*
X129927073Y-46553682D01*
X129949373Y-46477584D01*
X129974558Y-46395359D01*
X130000354Y-46314193D01*
X130024492Y-46241269D01*
X130039126Y-46199141D01*
X130059675Y-46141467D01*
X130079028Y-46086852D01*
X130095437Y-46040257D01*
X130107149Y-46006641D01*
X130110126Y-45997943D01*
X130133097Y-45953349D01*
X130160954Y-45923860D01*
X130271135Y-45840156D01*
X130366543Y-45767816D01*
X130449221Y-45705346D01*
X130521212Y-45651253D01*
X130584559Y-45604044D01*
X130641303Y-45562227D01*
X130693488Y-45524308D01*
X130743156Y-45488795D01*
X130792350Y-45454193D01*
X130843111Y-45419011D01*
X130897484Y-45381754D01*
X130957509Y-45340931D01*
X130970380Y-45332202D01*
X131023594Y-45296714D01*
X131070598Y-45266493D01*
X131108726Y-45243161D01*
X131135313Y-45228339D01*
X131147690Y-45223648D01*
X131148219Y-45224047D01*
X131145081Y-45237056D01*
X131133993Y-45264616D01*
X131116771Y-45302499D01*
X131098311Y-45340359D01*
X131061037Y-45416371D01*
X131021896Y-45499245D01*
X130982804Y-45584664D01*
X130945679Y-45668312D01*
X130912438Y-45745870D01*
X130884997Y-45813024D01*
X130865832Y-45863860D01*
X130822987Y-46001416D01*
X130793900Y-46130331D01*
X130778673Y-46249209D01*
X130777405Y-46356655D01*
X130790197Y-46451276D01*
X130817148Y-46531676D01*
X130817759Y-46532973D01*
X130862849Y-46604909D01*
X130925028Y-46669428D01*
X131000762Y-46723879D01*
X131086517Y-46765612D01*
X131156841Y-46787337D01*
X131212926Y-46797353D01*
X131266239Y-46799161D01*
X131322630Y-46792199D01*
X131387945Y-46775902D01*
X131437094Y-46760326D01*
X131593383Y-46698214D01*
X131752431Y-46615839D01*
X131913260Y-46513772D01*
X132074891Y-46392586D01*
X132096018Y-46375369D01*
X132153301Y-46326779D01*
X132215754Y-46271218D01*
X132281565Y-46210536D01*
X132348920Y-46146580D01*
X132416003Y-46081199D01*
X132481001Y-46016240D01*
X132542100Y-45953553D01*
X132597485Y-45894984D01*
X132645343Y-45842383D01*
X132683858Y-45797597D01*
X132711218Y-45762475D01*
X132725608Y-45738866D01*
X132727376Y-45732168D01*
X132717574Y-45702619D01*
X132690935Y-45672677D01*
X132651610Y-45644703D01*
X132603748Y-45621056D01*
X132551500Y-45604096D01*
X132499016Y-45596183D01*
X132487695Y-45595891D01*
X132458261Y-45597738D01*
X132428335Y-45604106D01*
X132395884Y-45616229D01*
X132358876Y-45635343D01*
X132315277Y-45662685D01*
X132263054Y-45699491D01*
X132200175Y-45746995D01*
X132124606Y-45806434D01*
X132072051Y-45848565D01*
X131976252Y-45924121D01*
X131880348Y-45996717D01*
X131786015Y-46065290D01*
X131694930Y-46128778D01*
X131608770Y-46186119D01*
X131529212Y-46236251D01*
X131457935Y-46278112D01*
X131396613Y-46310639D01*
X131346926Y-46332771D01*
X131310549Y-46343444D01*
X131291644Y-46342831D01*
X131279864Y-46331435D01*
X131275582Y-46308596D01*
X131279069Y-46273573D01*
X131290597Y-46225621D01*
X131310437Y-46163998D01*
X131338862Y-46087959D01*
X131376144Y-45996762D01*
X131422553Y-45889662D01*
X131478362Y-45765916D01*
X131543843Y-45624782D01*
X131589541Y-45527959D01*
X131648449Y-45403237D01*
X131698494Y-45295706D01*
X131740291Y-45203634D01*
X131774456Y-45125284D01*
X131777859Y-45116964D01*
X132644118Y-45116964D01*
X132660668Y-45162406D01*
X132693138Y-45199246D01*
X132720140Y-45215490D01*
X132768163Y-45232206D01*
X132807929Y-45233100D01*
X132845400Y-45218026D01*
X132854381Y-45212245D01*
X132894831Y-45174010D01*
X132918147Y-45129071D01*
X132924670Y-45081466D01*
X132914737Y-45035234D01*
X132888689Y-44994412D01*
X132846865Y-44963041D01*
X132832904Y-44956712D01*
X132781068Y-44945889D01*
X132733034Y-44955445D01*
X132690718Y-44984676D01*
X132664062Y-45018797D01*
X132644810Y-45067550D01*
X132644118Y-45116964D01*
X131777859Y-45116964D01*
X131801602Y-45058924D01*
X131822346Y-45002819D01*
X131837302Y-44955235D01*
X131847085Y-44914438D01*
X131852310Y-44878693D01*
X131853591Y-44846266D01*
X131851545Y-44815423D01*
X131848910Y-44796547D01*
X131828147Y-44730279D01*
X131790774Y-44674596D01*
X131739556Y-44631567D01*
X131677260Y-44603263D01*
X131606655Y-44591752D01*
X131575929Y-44592368D01*
X131547561Y-44595954D01*
X131517176Y-44603523D01*
X131480890Y-44616514D01*
X131434818Y-44636361D01*
X131375076Y-44664504D01*
X131356285Y-44673619D01*
X131205291Y-44750364D01*
X131044468Y-44837894D01*
X130879693Y-44932805D01*
X130716842Y-45031690D01*
X130561791Y-45131144D01*
X130527774Y-45153793D01*
X130485739Y-45181224D01*
X130450177Y-45202988D01*
X130424622Y-45217025D01*
X130412610Y-45221275D01*
X130412305Y-45221098D01*
X130412676Y-45207645D01*
X130421893Y-45177063D01*
X130439152Y-45131067D01*
X130463654Y-45071368D01*
X130494596Y-44999679D01*
X130531178Y-44917714D01*
X130572596Y-44827184D01*
X130618050Y-44729803D01*
X130666739Y-44627284D01*
X130717860Y-44521338D01*
X130770612Y-44413680D01*
X130824194Y-44306021D01*
X130877803Y-44200074D01*
X130930639Y-44097553D01*
X130981900Y-44000169D01*
X130996302Y-43973236D01*
X131027115Y-43915095D01*
X131054150Y-43862675D01*
X131075884Y-43819045D01*
X131090796Y-43787274D01*
X131097363Y-43770428D01*
X131097542Y-43769175D01*
X131089290Y-43752079D01*
X131068728Y-43746413D01*
X131042149Y-43753511D01*
X131037022Y-43756361D01*
X131020138Y-43773466D01*
X130995460Y-43808257D01*
X130963815Y-43859086D01*
X130926030Y-43924307D01*
X130882930Y-44002273D01*
X130835342Y-44091338D01*
X130784092Y-44189854D01*
X130730006Y-44296175D01*
X130673911Y-44408654D01*
X130616633Y-44525644D01*
X130558998Y-44645499D01*
X130501832Y-44766572D01*
X130445962Y-44887216D01*
X130392214Y-45005784D01*
X130341414Y-45120630D01*
X130294388Y-45230107D01*
X130278191Y-45268729D01*
X130265571Y-45297922D01*
X130253594Y-45319938D01*
X130238601Y-45338459D01*
X130216934Y-45357169D01*
X130184937Y-45379752D01*
X130138950Y-45409889D01*
X130136306Y-45411604D01*
X130095137Y-45438713D01*
X130040661Y-45475209D01*
X129976918Y-45518351D01*
X129907948Y-45565398D01*
X129837791Y-45613607D01*
X129795848Y-45642617D01*
X129628840Y-45757701D01*
X129477739Y-45860225D01*
X129341776Y-45950663D01*
X129220182Y-46029492D01*
X129112188Y-46097187D01*
X129017025Y-46154222D01*
X128933924Y-46201075D01*
X128862116Y-46238219D01*
X128800831Y-46266131D01*
X128764489Y-46280181D01*
X128736859Y-46288799D01*
X128721404Y-46288842D01*
X128710759Y-46279879D01*
X128708512Y-46276901D01*
X128698190Y-46247767D01*
X128695885Y-46201612D01*
X128701052Y-46140773D01*
X128713148Y-46067589D01*
X128731627Y-45984397D01*
X128755946Y-45893534D01*
X128785561Y-45797338D01*
X128819927Y-45698147D01*
X128858500Y-45598298D01*
X128876570Y-45554981D01*
X128951410Y-45392599D01*
X129041400Y-45219704D01*
X129145007Y-45038817D01*
X129260699Y-44852454D01*
X129386945Y-44663134D01*
X129522211Y-44473376D01*
X129588611Y-44384563D01*
X129622614Y-44339735D01*
X129652117Y-44300774D01*
X129674725Y-44270845D01*
X129688046Y-44253114D01*
X129690418Y-44249894D01*
X129701862Y-44246243D01*
X129731718Y-44239606D01*
X129777512Y-44230453D01*
X129836772Y-44219256D01*
X129907027Y-44206484D01*
X129985804Y-44192609D01*
X130044959Y-44182445D01*
X130129261Y-44167781D01*
X130207651Y-44153518D01*
X130277485Y-44140187D01*
X130336117Y-44128317D01*
X130380902Y-44118438D01*
X130409193Y-44111079D01*
X130417563Y-44107849D01*
X130437475Y-44086100D01*
X130438997Y-44062222D01*
X130422300Y-44042129D01*
X130415557Y-44038506D01*
X130403435Y-44035485D01*
X130383505Y-44034739D01*
X130353544Y-44036499D01*
X130311329Y-44040998D01*
X130254637Y-44048469D01*
X130181246Y-44059141D01*
X130102282Y-44071181D01*
X130026939Y-44082656D01*
X129958667Y-44092725D01*
X129900189Y-44101014D01*
X129854227Y-44107146D01*
X129823501Y-44110747D01*
X129810733Y-44111443D01*
X129810566Y-44111358D01*
X129816196Y-44102615D01*
X129834087Y-44079570D01*
X129862761Y-44044024D01*
X129900737Y-43997777D01*
X129946538Y-43942629D01*
X129998685Y-43880379D01*
X130055697Y-43812829D01*
X130060341Y-43807348D01*
X130128402Y-43726852D01*
X130183789Y-43660687D01*
X130227630Y-43607138D01*
X130261058Y-43564493D01*
X130285203Y-43531036D01*
X130301195Y-43505055D01*
X130310166Y-43484835D01*
X130313245Y-43468662D01*
X130311563Y-43454823D01*
X130306252Y-43441603D01*
X130304215Y-43437680D01*
X130285523Y-43419592D01*
X130251490Y-43401024D01*
X130207757Y-43384280D01*
X130159967Y-43371663D01*
X130130999Y-43366949D01*
X130089671Y-43365132D01*
X130050250Y-43371055D01*
X130008113Y-43386326D01*
X129958637Y-43412556D01*
X129906917Y-43444960D01*
X129879902Y-43465503D01*
X129840457Y-43499445D01*
X129790632Y-43544751D01*
X129732482Y-43599385D01*
X129668057Y-43661310D01*
X129599410Y-43728491D01*
X129528593Y-43798890D01*
X129457658Y-43870471D01*
X129388658Y-43941199D01*
X129323643Y-44009037D01*
X129264668Y-44071949D01*
X129213783Y-44127898D01*
X129181959Y-44164305D01*
X129145330Y-44206110D01*
X129112536Y-44241488D01*
X129086403Y-44267538D01*
X129069761Y-44281363D01*
X129066328Y-44282825D01*
X129047884Y-44285824D01*
X129013855Y-44293241D01*
X128968127Y-44304071D01*
X128914587Y-44317306D01*
X128857121Y-44331940D01*
X128799615Y-44346966D01*
X128745954Y-44361379D01*
X128700027Y-44374171D01*
X128665718Y-44384336D01*
X128646914Y-44390867D01*
X128644855Y-44391985D01*
X128633358Y-44410997D01*
X128633695Y-44433171D01*
X128645534Y-44448262D01*
X128646696Y-44448755D01*
X128661925Y-44448727D01*
X128693800Y-44444792D01*
X128738289Y-44437569D01*
X128791361Y-44427683D01*
X128818122Y-44422293D01*
X128872684Y-44411286D01*
X128919387Y-44402328D01*
X128954565Y-44396087D01*
X128974553Y-44393228D01*
X128977710Y-44393281D01*
X128972451Y-44402131D01*
X128955871Y-44424775D01*
X128929994Y-44458572D01*
X128896838Y-44500882D01*
X128859702Y-44547475D01*
X128750752Y-44686569D01*
X128654698Y-44817149D01*
X128568238Y-44944326D01*
X128488071Y-45073215D01*
X128410896Y-45208928D01*
X128333412Y-45356578D01*
X128319475Y-45384224D01*
X128250167Y-45530928D01*
X128194401Y-45668306D01*
X128150190Y-45801413D01*
X128136552Y-45849891D01*
X128126008Y-45891794D01*
X128118536Y-45929606D01*
X128113597Y-45968655D01*
X128110651Y-46014270D01*
X128109158Y-46071778D01*
X128108672Y-46125057D01*
X127181910Y-46125057D01*
X127182096Y-44889453D01*
X127182468Y-42407437D01*
X130255061Y-42407437D01*
X130266536Y-42411118D01*
X130295161Y-42418202D01*
X130337351Y-42427860D01*
X130389517Y-42439261D01*
X130427349Y-42447272D01*
X130500477Y-42463127D01*
X130581669Y-42481638D01*
X130661865Y-42500690D01*
X130732005Y-42518165D01*
X130743001Y-42521016D01*
X130810260Y-42539659D01*
X130895139Y-42564938D01*
X130995416Y-42596115D01*
X131108870Y-42632451D01*
X131233279Y-42673209D01*
X131366423Y-42717650D01*
X131506080Y-42765036D01*
X131650029Y-42814628D01*
X131796050Y-42865688D01*
X131941920Y-42917478D01*
X132018292Y-42944928D01*
X132125013Y-42983183D01*
X132240433Y-43024079D01*
X132359668Y-43065916D01*
X132477830Y-43106993D01*
X132590033Y-43145612D01*
X132691392Y-43180071D01*
X132765124Y-43204740D01*
X132855126Y-43234600D01*
X132927238Y-43258764D01*
X132983672Y-43278155D01*
X133026643Y-43293699D01*
X133058365Y-43306318D01*
X133081052Y-43316938D01*
X133096917Y-43326481D01*
X133108175Y-43335873D01*
X133117038Y-43346036D01*
X133123016Y-43354121D01*
X133145203Y-43380353D01*
X133163971Y-43390322D01*
X133175226Y-43389927D01*
X133193634Y-43387872D01*
X133228832Y-43385347D01*
X133276456Y-43382618D01*
X133332142Y-43379948D01*
X133358959Y-43378824D01*
X133420817Y-43376132D01*
X133468271Y-43372983D01*
X133507431Y-43368233D01*
X133544406Y-43360741D01*
X133585307Y-43349363D01*
X133636241Y-43332957D01*
X133676459Y-43319449D01*
X133808081Y-43278280D01*
X133956280Y-43237750D01*
X134116471Y-43198978D01*
X134284071Y-43163085D01*
X134426001Y-43136199D01*
X134489501Y-43124950D01*
X134546923Y-43114946D01*
X134600685Y-43105836D01*
X134653209Y-43097268D01*
X134706915Y-43088891D01*
X134764224Y-43080352D01*
X134827556Y-43071302D01*
X134899330Y-43061387D01*
X134981969Y-43050257D01*
X135077892Y-43037560D01*
X135189519Y-43022944D01*
X135319271Y-43006059D01*
X135345586Y-43002641D01*
X135531595Y-42978285D01*
X135698550Y-42955951D01*
X135848435Y-42935306D01*
X135983232Y-42916019D01*
X136104923Y-42897759D01*
X136215493Y-42880194D01*
X136316922Y-42862993D01*
X136411193Y-42845824D01*
X136500290Y-42828357D01*
X136586194Y-42810259D01*
X136670888Y-42791199D01*
X136756355Y-42770846D01*
X136806719Y-42758405D01*
X137030473Y-42697278D01*
X137235921Y-42630070D01*
X137425282Y-42555856D01*
X137600780Y-42473713D01*
X137764634Y-42382717D01*
X137867486Y-42317357D01*
X138027104Y-42200020D01*
X138168913Y-42073131D01*
X138293507Y-41935757D01*
X138401478Y-41786961D01*
X138493417Y-41625807D01*
X138511311Y-41585001D01*
X139267876Y-41585001D01*
X139275320Y-41712625D01*
X139297970Y-41825736D01*
X139336298Y-41925019D01*
X139390777Y-42011160D01*
X139461880Y-42084845D01*
X139550079Y-42146759D01*
X139655849Y-42197587D01*
X139702363Y-42214690D01*
X139771725Y-42238301D01*
X139809843Y-42203369D01*
X139841544Y-42178321D01*
X139875834Y-42160259D01*
X139914715Y-42149380D01*
X139960190Y-42145881D01*
X140014260Y-42149957D01*
X140078928Y-42161803D01*
X140156196Y-42181617D01*
X140248065Y-42209593D01*
X140356538Y-42245929D01*
X140400209Y-42261153D01*
X140476944Y-42286867D01*
X140537701Y-42303951D01*
X140585664Y-42312769D01*
X140624015Y-42313684D01*
X140655939Y-42307061D01*
X140684116Y-42293569D01*
X140714703Y-42264936D01*
X140741232Y-42221843D01*
X140760181Y-42170990D01*
X140766859Y-42136126D01*
X140781229Y-42006786D01*
X140794631Y-41882722D01*
X140807199Y-41762211D01*
X140819069Y-41643531D01*
X140830375Y-41524959D01*
X140841251Y-41404773D01*
X140851833Y-41281250D01*
X140855044Y-41241628D01*
X141522704Y-41241628D01*
X141522834Y-41384420D01*
X141523150Y-41510721D01*
X141523702Y-41621698D01*
X141524538Y-41718520D01*
X141525710Y-41802357D01*
X141527265Y-41874376D01*
X141529255Y-41935747D01*
X141531729Y-41987637D01*
X141534736Y-42031217D01*
X141538327Y-42067654D01*
X141542550Y-42098117D01*
X141547456Y-42123775D01*
X141553095Y-42145796D01*
X141559515Y-42165349D01*
X141566767Y-42183604D01*
X141574900Y-42201727D01*
X141583964Y-42220889D01*
X141587824Y-42229027D01*
X141630996Y-42301429D01*
X141686843Y-42360980D01*
X141757210Y-42409004D01*
X141843947Y-42446825D01*
X141924292Y-42470127D01*
X142020153Y-42487869D01*
X142106936Y-42493093D01*
X142182122Y-42485880D01*
X142243188Y-42466310D01*
X142255701Y-42459644D01*
X142302186Y-42423462D01*
X142329035Y-42380421D01*
X142337042Y-42333073D01*
X142335654Y-42313051D01*
X142331747Y-42275284D01*
X142325702Y-42222995D01*
X142317906Y-42159406D01*
X142308740Y-42087738D01*
X142299768Y-42019970D01*
X142251372Y-41710341D01*
X142188467Y-41391021D01*
X142112130Y-41066643D01*
X142023435Y-40741840D01*
X141940655Y-40473557D01*
X141915930Y-40399989D01*
X141885631Y-40313756D01*
X141851004Y-40218100D01*
X141813295Y-40116266D01*
X141773752Y-40011496D01*
X141733620Y-39907034D01*
X141694147Y-39806122D01*
X141656580Y-39712005D01*
X141622165Y-39627925D01*
X141592148Y-39557127D01*
X141567777Y-39502852D01*
X141566379Y-39499891D01*
X141523736Y-39409932D01*
X141522931Y-40702613D01*
X141522802Y-40901893D01*
X141522710Y-41081175D01*
X141522704Y-41241628D01*
X140855044Y-41241628D01*
X140862255Y-41152667D01*
X140872651Y-41017302D01*
X140883157Y-40873433D01*
X140893906Y-40719338D01*
X140905034Y-40553292D01*
X140916675Y-40373575D01*
X140928964Y-40178464D01*
X140942035Y-39966235D01*
X140956024Y-39735168D01*
X140960932Y-39653349D01*
X140967664Y-39539247D01*
X140974919Y-39413232D01*
X140982631Y-39276582D01*
X140990737Y-39130573D01*
X140999172Y-38976484D01*
X141007873Y-38815592D01*
X141016774Y-38649174D01*
X141025812Y-38478509D01*
X141034923Y-38304874D01*
X141041072Y-38186647D01*
X141884828Y-38186647D01*
X141885299Y-38269570D01*
X141886482Y-38362067D01*
X141888327Y-38461244D01*
X141890781Y-38564210D01*
X141893794Y-38668070D01*
X141897315Y-38769931D01*
X141901291Y-38866900D01*
X141904221Y-38928391D01*
X141924923Y-39241452D01*
X141954728Y-39548093D01*
X141993308Y-39846966D01*
X142040338Y-40136725D01*
X142095489Y-40416022D01*
X142158437Y-40683509D01*
X142228853Y-40937841D01*
X142306412Y-41177669D01*
X142390785Y-41401646D01*
X142481647Y-41608426D01*
X142578672Y-41796660D01*
X142615253Y-41859974D01*
X142731938Y-42038973D01*
X142857680Y-42200050D01*
X142992025Y-42342890D01*
X143134520Y-42467180D01*
X143284709Y-42572605D01*
X143442139Y-42658853D01*
X143606356Y-42725608D01*
X143776905Y-42772558D01*
X143953332Y-42799387D01*
X143977459Y-42801442D01*
X144046491Y-42806474D01*
X144101005Y-42809434D01*
X144147549Y-42810319D01*
X144192672Y-42809132D01*
X144242919Y-42805870D01*
X144294959Y-42801429D01*
X144355943Y-42794663D01*
X144427901Y-42784737D01*
X144501142Y-42773077D01*
X144556696Y-42762958D01*
X144696726Y-42735459D01*
X144624674Y-42654904D01*
X144558206Y-42576347D01*
X144483021Y-42479744D01*
X144399726Y-42366052D01*
X144308925Y-42236230D01*
X144211224Y-42091234D01*
X144107229Y-41932022D01*
X143997545Y-41759551D01*
X143882777Y-41574780D01*
X143763530Y-41378665D01*
X143640411Y-41172164D01*
X143514024Y-40956235D01*
X143384976Y-40731835D01*
X143253871Y-40499922D01*
X143191875Y-40388891D01*
X143138520Y-40292328D01*
X143076673Y-40179309D01*
X143007579Y-40052172D01*
X142932485Y-39913254D01*
X142852633Y-39764894D01*
X142769270Y-39609430D01*
X142683640Y-39449199D01*
X142596988Y-39286540D01*
X142510559Y-39123791D01*
X142425598Y-38963290D01*
X142343350Y-38807375D01*
X142265059Y-38658383D01*
X142191971Y-38518654D01*
X142125331Y-38390525D01*
X142066382Y-38276334D01*
X142048990Y-38242421D01*
X141895588Y-37942743D01*
X141888202Y-38024254D01*
X141886228Y-38061096D01*
X141885120Y-38116191D01*
X141884828Y-38186647D01*
X141041072Y-38186647D01*
X141044042Y-38129546D01*
X141053105Y-37953803D01*
X141062047Y-37778923D01*
X141070805Y-37606183D01*
X141079315Y-37436861D01*
X141087511Y-37272234D01*
X141095330Y-37113580D01*
X141102708Y-36962177D01*
X141109579Y-36819302D01*
X141115881Y-36686233D01*
X141120228Y-36592676D01*
X142044563Y-36592676D01*
X142045737Y-36604003D01*
X142052034Y-36632751D01*
X142062664Y-36676013D01*
X142076839Y-36730885D01*
X142093770Y-36794461D01*
X142112667Y-36863838D01*
X142132742Y-36936110D01*
X142153206Y-37008371D01*
X142173269Y-37077718D01*
X142192143Y-37141246D01*
X142204587Y-37181863D01*
X142259159Y-37351847D01*
X142316041Y-37518259D01*
X142376492Y-37684275D01*
X142441769Y-37853067D01*
X142513128Y-38027811D01*
X142591825Y-38211681D01*
X142679119Y-38407849D01*
X142759997Y-38584432D01*
X142818210Y-38708797D01*
X142878285Y-38834399D01*
X142941002Y-38962727D01*
X143007142Y-39095274D01*
X143077485Y-39233527D01*
X143152812Y-39378979D01*
X143233903Y-39533119D01*
X143321540Y-39697437D01*
X143416501Y-39873424D01*
X143519568Y-40062570D01*
X143631522Y-40266365D01*
X143753142Y-40486299D01*
X143804819Y-40579391D01*
X143922060Y-40790612D01*
X144029554Y-40984788D01*
X144128026Y-41163270D01*
X144218199Y-41327410D01*
X144300796Y-41478557D01*
X144376542Y-41618063D01*
X144446161Y-41747278D01*
X144510375Y-41867554D01*
X144569908Y-41980241D01*
X144625486Y-42086691D01*
X144677830Y-42188253D01*
X144727665Y-42286280D01*
X144775714Y-42382122D01*
X144822702Y-42477129D01*
X144835629Y-42503482D01*
X145018579Y-42877116D01*
X145156008Y-42739687D01*
X145104755Y-42561768D01*
X145061528Y-42418711D01*
X145010448Y-42261734D01*
X144953226Y-42095800D01*
X144891573Y-41925870D01*
X144827203Y-41756907D01*
X144826122Y-41754141D01*
X144729493Y-41515337D01*
X144620328Y-41261009D01*
X144499186Y-40992259D01*
X144366628Y-40710191D01*
X144223215Y-40415908D01*
X144069507Y-40110512D01*
X143906064Y-39795108D01*
X143733448Y-39470797D01*
X143552218Y-39138683D01*
X143362935Y-38799870D01*
X143166160Y-38455460D01*
X143038057Y-38235182D01*
X143000349Y-38171071D01*
X142955949Y-38096076D01*
X142905761Y-38011696D01*
X142850692Y-37919430D01*
X142791650Y-37820778D01*
X142729541Y-37717237D01*
X142665270Y-37610307D01*
X142599746Y-37501485D01*
X142533873Y-37392272D01*
X142468560Y-37284166D01*
X142404711Y-37178664D01*
X142343235Y-37077268D01*
X142285037Y-36981474D01*
X142231024Y-36892782D01*
X142182103Y-36812690D01*
X142139180Y-36742698D01*
X142103161Y-36684303D01*
X142074954Y-36639006D01*
X142055464Y-36608304D01*
X142045598Y-36593696D01*
X142044563Y-36592676D01*
X141120228Y-36592676D01*
X141121549Y-36564247D01*
X141126518Y-36454622D01*
X141130724Y-36358635D01*
X141134104Y-36277565D01*
X141136592Y-36212689D01*
X141138125Y-36165284D01*
X141138638Y-36136628D01*
X141138207Y-36127944D01*
X141133226Y-36136374D01*
X141120985Y-36162982D01*
X141102084Y-36206293D01*
X141077125Y-36264830D01*
X141046710Y-36337121D01*
X141011440Y-36421688D01*
X140971917Y-36517059D01*
X140928741Y-36621757D01*
X140882515Y-36734308D01*
X140833839Y-36853236D01*
X140783316Y-36977068D01*
X140731546Y-37104327D01*
X140679131Y-37233539D01*
X140626673Y-37363229D01*
X140574773Y-37491922D01*
X140524032Y-37618143D01*
X140475052Y-37740417D01*
X140428434Y-37857269D01*
X140384780Y-37967224D01*
X140344691Y-38068808D01*
X140308769Y-38160545D01*
X140296207Y-38192849D01*
X140216727Y-38398344D01*
X140144413Y-38586833D01*
X140078371Y-38760885D01*
X140017706Y-38923065D01*
X139961523Y-39075941D01*
X139908928Y-39222079D01*
X139859026Y-39364045D01*
X139810921Y-39504407D01*
X139763721Y-39645731D01*
X139716529Y-39790584D01*
X139668450Y-39941533D01*
X139618592Y-40101144D01*
X139566057Y-40271984D01*
X139528864Y-40394182D01*
X139475573Y-40572219D01*
X139429308Y-40732097D01*
X139389704Y-40875492D01*
X139356392Y-41004079D01*
X139329007Y-41119532D01*
X139307180Y-41223527D01*
X139290545Y-41317738D01*
X139278734Y-41403840D01*
X139271382Y-41483508D01*
X139268119Y-41558418D01*
X139267876Y-41585001D01*
X138511311Y-41585001D01*
X138569919Y-41451359D01*
X138631574Y-41262683D01*
X138678977Y-41058840D01*
X138685029Y-41026147D01*
X138698748Y-40961542D01*
X138720016Y-40878195D01*
X138748527Y-40777015D01*
X138783973Y-40658915D01*
X138826049Y-40524805D01*
X138874448Y-40375598D01*
X138928863Y-40212204D01*
X138988988Y-40035536D01*
X139054515Y-39846503D01*
X139125139Y-39646019D01*
X139200552Y-39434994D01*
X139280449Y-39214339D01*
X139364522Y-38984967D01*
X139442351Y-38774932D01*
X139546611Y-38494860D01*
X139643740Y-38233714D01*
X139734058Y-37990605D01*
X139817882Y-37764645D01*
X139895529Y-37554946D01*
X139967317Y-37360620D01*
X140033563Y-37180779D01*
X140094586Y-37014535D01*
X140150704Y-36861000D01*
X140202233Y-36719286D01*
X140249491Y-36588506D01*
X140292797Y-36467770D01*
X140332467Y-36356191D01*
X140368820Y-36252881D01*
X140402174Y-36156952D01*
X140432845Y-36067516D01*
X140461152Y-35983684D01*
X140487412Y-35904569D01*
X140511943Y-35829283D01*
X140535062Y-35756938D01*
X140557088Y-35686646D01*
X140560970Y-35674016D01*
X141368990Y-35674016D01*
X141370296Y-35773150D01*
X141374180Y-35854439D01*
X141381091Y-35921097D01*
X141391475Y-35976335D01*
X141405782Y-36023369D01*
X141423197Y-36062953D01*
X141443454Y-36085192D01*
X141469565Y-36092425D01*
X141494208Y-36083231D01*
X141499617Y-36077799D01*
X141502932Y-36067002D01*
X141503584Y-36044415D01*
X141501423Y-36008125D01*
X141496301Y-35956217D01*
X141494979Y-35945061D01*
X142397485Y-35945061D01*
X142403458Y-36037253D01*
X142409504Y-36093354D01*
X142421109Y-36157469D01*
X142438672Y-36230759D01*
X142462594Y-36314389D01*
X142493273Y-36409521D01*
X142531111Y-36517319D01*
X142576507Y-36638945D01*
X142629860Y-36775563D01*
X142691571Y-36928337D01*
X142762040Y-37098428D01*
X142796201Y-37179713D01*
X142894272Y-37408552D01*
X143002515Y-37654362D01*
X143120338Y-37915888D01*
X143247147Y-38191878D01*
X143382350Y-38481077D01*
X143525353Y-38782233D01*
X143675563Y-39094091D01*
X143832387Y-39415398D01*
X143995232Y-39744900D01*
X144163504Y-40081343D01*
X144251931Y-40256599D01*
X144342575Y-40435068D01*
X144433825Y-40613473D01*
X144525076Y-40790691D01*
X144615725Y-40965597D01*
X144705165Y-41137068D01*
X144792793Y-41303980D01*
X144878003Y-41465208D01*
X144960192Y-41619630D01*
X145038754Y-41766120D01*
X145113085Y-41903555D01*
X145182581Y-42030810D01*
X145246636Y-42146763D01*
X145304646Y-42250289D01*
X145356007Y-42340265D01*
X145400113Y-42415565D01*
X145436361Y-42475067D01*
X145464145Y-42517646D01*
X145479232Y-42538001D01*
X145527917Y-42596902D01*
X145617876Y-42560905D01*
X145658748Y-42543971D01*
X145692305Y-42528994D01*
X145713503Y-42518274D01*
X145717733Y-42515387D01*
X145719498Y-42501215D01*
X145715920Y-42469430D01*
X145707632Y-42422726D01*
X145695267Y-42363797D01*
X145679456Y-42295337D01*
X145669937Y-42256849D01*
X146210542Y-42256849D01*
X146215834Y-42262141D01*
X146221126Y-42256849D01*
X146215834Y-42251557D01*
X146210542Y-42256849D01*
X145669937Y-42256849D01*
X145660832Y-42220039D01*
X145640028Y-42140598D01*
X145617676Y-42059705D01*
X145594407Y-41980056D01*
X145584220Y-41946672D01*
X145537291Y-41801463D01*
X145485261Y-41652968D01*
X145427643Y-41500203D01*
X145363950Y-41342183D01*
X145293695Y-41177926D01*
X145216392Y-41006445D01*
X145131553Y-40826758D01*
X145038692Y-40637879D01*
X144937323Y-40438825D01*
X144826957Y-40228612D01*
X144707109Y-40006255D01*
X144577291Y-39770769D01*
X144437016Y-39521171D01*
X144285799Y-39256477D01*
X144123151Y-38975702D01*
X144067802Y-38880915D01*
X143914107Y-38617400D01*
X143771200Y-38370692D01*
X143638515Y-38139733D01*
X143515488Y-37923467D01*
X143401552Y-37720836D01*
X143296143Y-37530783D01*
X143198694Y-37352250D01*
X143108641Y-37184180D01*
X143025418Y-37025516D01*
X142948459Y-36875201D01*
X142877200Y-36732177D01*
X142811075Y-36595388D01*
X142749518Y-36463775D01*
X142691964Y-36336281D01*
X142637847Y-36211850D01*
X142627794Y-36188201D01*
X142611649Y-36150266D01*
X142799788Y-36150266D01*
X142801987Y-36156830D01*
X142812829Y-36180206D01*
X142831309Y-36218361D01*
X142856428Y-36269263D01*
X142887182Y-36330882D01*
X142922570Y-36401185D01*
X142959004Y-36473057D01*
X143009935Y-36573244D01*
X143069265Y-36690011D01*
X143135826Y-36821057D01*
X143208449Y-36964080D01*
X143285967Y-37116779D01*
X143367212Y-37276853D01*
X143451017Y-37441999D01*
X143536213Y-37609917D01*
X143621634Y-37778305D01*
X143706110Y-37944861D01*
X143788476Y-38107284D01*
X143867562Y-38263273D01*
X143942201Y-38410526D01*
X144011225Y-38546741D01*
X144057125Y-38637349D01*
X144271468Y-39054910D01*
X144483742Y-39457190D01*
X144693607Y-39843613D01*
X144900727Y-40213605D01*
X145104761Y-40566593D01*
X145305374Y-40902002D01*
X145502225Y-41219257D01*
X145694976Y-41517786D01*
X145883290Y-41797013D01*
X146066828Y-42056365D01*
X146091468Y-42090161D01*
X146127396Y-42138862D01*
X146159046Y-42181017D01*
X146184316Y-42213888D01*
X146201109Y-42234739D01*
X146207193Y-42240974D01*
X146205543Y-42232827D01*
X146195431Y-42212012D01*
X146186510Y-42195995D01*
X146177302Y-42179613D01*
X146158765Y-42146217D01*
X146131751Y-42097350D01*
X146097108Y-42034556D01*
X146055688Y-41959378D01*
X146008341Y-41873360D01*
X145955916Y-41778047D01*
X145899264Y-41674982D01*
X145839234Y-41565710D01*
X145776678Y-41451773D01*
X145771277Y-41441932D01*
X145696292Y-41305503D01*
X145613142Y-41154553D01*
X145524010Y-40993027D01*
X145431080Y-40824870D01*
X145336534Y-40654026D01*
X145242556Y-40484439D01*
X145151328Y-40320055D01*
X145065034Y-40164816D01*
X144985856Y-40022669D01*
X144974661Y-40002599D01*
X144922295Y-39908848D01*
X144863201Y-39803248D01*
X144797952Y-39686812D01*
X144727122Y-39560556D01*
X144651284Y-39425497D01*
X144571011Y-39282648D01*
X144486876Y-39133027D01*
X144399453Y-38977648D01*
X144309315Y-38817526D01*
X144217036Y-38653677D01*
X144123188Y-38487117D01*
X144028344Y-38318861D01*
X143933079Y-38149924D01*
X143837966Y-37981322D01*
X143743577Y-37814071D01*
X143650486Y-37649185D01*
X143559266Y-37487680D01*
X143470490Y-37330572D01*
X143384733Y-37178875D01*
X143302566Y-37033607D01*
X143224564Y-36895781D01*
X143151299Y-36766413D01*
X143083346Y-36646520D01*
X143021276Y-36537115D01*
X142965664Y-36439215D01*
X142917083Y-36353836D01*
X142876105Y-36281992D01*
X142843305Y-36224699D01*
X142819255Y-36182972D01*
X142804530Y-36157827D01*
X142799788Y-36150266D01*
X142611649Y-36150266D01*
X142602640Y-36129099D01*
X142781542Y-36129099D01*
X142786834Y-36134391D01*
X142792126Y-36129099D01*
X142786834Y-36123807D01*
X142781542Y-36129099D01*
X142602640Y-36129099D01*
X142598577Y-36119555D01*
X142593499Y-36107932D01*
X142770959Y-36107932D01*
X142776251Y-36113224D01*
X142781542Y-36107932D01*
X142776251Y-36102641D01*
X142770959Y-36107932D01*
X142593499Y-36107932D01*
X142584250Y-36086766D01*
X142760376Y-36086766D01*
X142765667Y-36092057D01*
X142770959Y-36086766D01*
X142765667Y-36081474D01*
X142760376Y-36086766D01*
X142584250Y-36086766D01*
X142575904Y-36067668D01*
X142558201Y-36029755D01*
X142543892Y-36003028D01*
X142531401Y-35984701D01*
X142519154Y-35971986D01*
X142505574Y-35962096D01*
X142497028Y-35956888D01*
X142459777Y-35939493D01*
X142430175Y-35937063D01*
X142425386Y-35938058D01*
X142397485Y-35945061D01*
X141494979Y-35945061D01*
X141488070Y-35886779D01*
X141479648Y-35821153D01*
X141463988Y-35706409D01*
X141449733Y-35611887D01*
X141436708Y-35536700D01*
X141424737Y-35479963D01*
X141413646Y-35440790D01*
X141403261Y-35418295D01*
X141399268Y-35413770D01*
X141389865Y-35410199D01*
X141382479Y-35417983D01*
X141376916Y-35438786D01*
X141372981Y-35474273D01*
X141370481Y-35526108D01*
X141369223Y-35595957D01*
X141368990Y-35674016D01*
X140560970Y-35674016D01*
X140578339Y-35617518D01*
X140599130Y-35548667D01*
X140612126Y-35505070D01*
X140635182Y-35427080D01*
X140656056Y-35355918D01*
X140674042Y-35294036D01*
X140688435Y-35243880D01*
X140698528Y-35207902D01*
X140703617Y-35188549D01*
X140704069Y-35185876D01*
X140695215Y-35191357D01*
X140670323Y-35207874D01*
X140630796Y-35234469D01*
X140578040Y-35270188D01*
X140513458Y-35314075D01*
X140438455Y-35365176D01*
X140354436Y-35422534D01*
X140262804Y-35485194D01*
X140164966Y-35552201D01*
X140093376Y-35601292D01*
X139960086Y-35692500D01*
X139824116Y-35785054D01*
X139684544Y-35879563D01*
X139540447Y-35976634D01*
X139390902Y-36076873D01*
X139234988Y-36180889D01*
X139071781Y-36289289D01*
X138900361Y-36402680D01*
X138719803Y-36521669D01*
X138529186Y-36646863D01*
X138327588Y-36778871D01*
X138114086Y-36918299D01*
X137887758Y-37065755D01*
X137647681Y-37221846D01*
X137392934Y-37387180D01*
X137122593Y-37562363D01*
X136835737Y-37748004D01*
X136696126Y-37838278D01*
X136331442Y-38074340D01*
X135984044Y-38299873D01*
X135653162Y-38515399D01*
X135338029Y-38721440D01*
X135037877Y-38918519D01*
X134751940Y-39107158D01*
X134479449Y-39287882D01*
X134219637Y-39461211D01*
X133971736Y-39627668D01*
X133734979Y-39787777D01*
X133508598Y-39942060D01*
X133291825Y-40091039D01*
X133083894Y-40235237D01*
X132884036Y-40375177D01*
X132691483Y-40511381D01*
X132505469Y-40644372D01*
X132325225Y-40774673D01*
X132149985Y-40902806D01*
X131978979Y-41029294D01*
X131811442Y-41154660D01*
X131684917Y-41250301D01*
X131596896Y-41317526D01*
X131502957Y-41390002D01*
X131404400Y-41466677D01*
X131302523Y-41546498D01*
X131198626Y-41628415D01*
X131094009Y-41711376D01*
X130989971Y-41794329D01*
X130887811Y-41876223D01*
X130788829Y-41956005D01*
X130694325Y-42032626D01*
X130605597Y-42105033D01*
X130523945Y-42172173D01*
X130450668Y-42232997D01*
X130387066Y-42286452D01*
X130334439Y-42331487D01*
X130294085Y-42367050D01*
X130267305Y-42392090D01*
X130255397Y-42405554D01*
X130255061Y-42407437D01*
X127182468Y-42407437D01*
X127182483Y-42309766D01*
X127797753Y-41924035D01*
X128712398Y-41924035D01*
X128717613Y-41925617D01*
X128739337Y-41922834D01*
X128773505Y-41916288D01*
X128791773Y-41912294D01*
X128867906Y-41899536D01*
X128950841Y-41893120D01*
X129033340Y-41893124D01*
X129108165Y-41899629D01*
X129153057Y-41908337D01*
X129216829Y-41929496D01*
X129291937Y-41963080D01*
X129379824Y-42009793D01*
X129467709Y-42061600D01*
X129549119Y-42108479D01*
X129620589Y-42142571D01*
X129687482Y-42165710D01*
X129755165Y-42179727D01*
X129829001Y-42186458D01*
X129833740Y-42186670D01*
X129842789Y-42185092D01*
X129857112Y-42179299D01*
X129877828Y-42168562D01*
X129906059Y-42152156D01*
X129942924Y-42129352D01*
X129989544Y-42099425D01*
X130047040Y-42061646D01*
X130116531Y-42015290D01*
X130199139Y-41959629D01*
X130295984Y-41893936D01*
X130408186Y-41817484D01*
X130511073Y-41747188D01*
X130659273Y-41646039D01*
X130807708Y-41545143D01*
X130957424Y-41443811D01*
X131109468Y-41341354D01*
X131264883Y-41237082D01*
X131424717Y-41130306D01*
X131590014Y-41020337D01*
X131761820Y-40906485D01*
X131941180Y-40788061D01*
X132129140Y-40664376D01*
X132326746Y-40534741D01*
X132535042Y-40398466D01*
X132755076Y-40254861D01*
X132987891Y-40103239D01*
X133234534Y-39942909D01*
X133496051Y-39773181D01*
X133773486Y-39593368D01*
X134023834Y-39431284D01*
X134345908Y-39222792D01*
X134650956Y-39025186D01*
X134939776Y-38837937D01*
X135213166Y-38660517D01*
X135471924Y-38492396D01*
X135716849Y-38333046D01*
X135948739Y-38181938D01*
X136168393Y-38038542D01*
X136376609Y-37902332D01*
X136574185Y-37772776D01*
X136761919Y-37649347D01*
X136940611Y-37531516D01*
X137111057Y-37418754D01*
X137274058Y-37310532D01*
X137430410Y-37206321D01*
X137580913Y-37105593D01*
X137726364Y-37007818D01*
X137867562Y-36912468D01*
X138005306Y-36819013D01*
X138140393Y-36726926D01*
X138273622Y-36635677D01*
X138405792Y-36544738D01*
X138537701Y-36453579D01*
X138670147Y-36361672D01*
X138803928Y-36268488D01*
X138902751Y-36199450D01*
X138985299Y-36141470D01*
X139077098Y-36076554D01*
X139176801Y-36005681D01*
X139283062Y-35929830D01*
X139394536Y-35849980D01*
X139509876Y-35767109D01*
X139627736Y-35682197D01*
X139746770Y-35596221D01*
X139865633Y-35510162D01*
X139982978Y-35424998D01*
X140097460Y-35341708D01*
X140207731Y-35261271D01*
X140312448Y-35184665D01*
X140410262Y-35112869D01*
X140411754Y-35111769D01*
X141474675Y-35111769D01*
X141478983Y-35151146D01*
X141491508Y-35200430D01*
X141510898Y-35255508D01*
X141535806Y-35312265D01*
X141564881Y-35366588D01*
X141579535Y-35390007D01*
X141600480Y-35421164D01*
X141616302Y-35443712D01*
X141624024Y-35453427D01*
X141624309Y-35453507D01*
X141623365Y-35443068D01*
X141619376Y-35417010D01*
X141613151Y-35380524D01*
X141611701Y-35372391D01*
X141593855Y-35288079D01*
X141572803Y-35214099D01*
X141549602Y-35153310D01*
X141525308Y-35108574D01*
X141507692Y-35088309D01*
X141629487Y-35088309D01*
X141643526Y-35111817D01*
X141646480Y-35114241D01*
X141667089Y-35126947D01*
X141678882Y-35123980D01*
X141685035Y-35112233D01*
X141689822Y-35089415D01*
X141691459Y-35064608D01*
X141687543Y-35041274D01*
X141674085Y-35033766D01*
X141672409Y-35033724D01*
X141646216Y-35042157D01*
X141631146Y-35062720D01*
X141629487Y-35088309D01*
X141507692Y-35088309D01*
X141506217Y-35086613D01*
X141491052Y-35077508D01*
X141481216Y-35084414D01*
X141479933Y-35086413D01*
X141474675Y-35111769D01*
X140411754Y-35111769D01*
X140499828Y-35046863D01*
X140579801Y-34987625D01*
X140648835Y-34936134D01*
X140705582Y-34893369D01*
X140748698Y-34860308D01*
X140776836Y-34837932D01*
X140786584Y-34829457D01*
X140784516Y-34828292D01*
X140768042Y-34836042D01*
X140749542Y-34846106D01*
X140715870Y-34865111D01*
X140673956Y-34888792D01*
X140623075Y-34917558D01*
X140562506Y-34951819D01*
X140491524Y-34991984D01*
X140409407Y-35038463D01*
X140315431Y-35091665D01*
X140208873Y-35151999D01*
X140089011Y-35219876D01*
X139955120Y-35295704D01*
X139806478Y-35379894D01*
X139642361Y-35472854D01*
X139462046Y-35574994D01*
X139264811Y-35686723D01*
X139049931Y-35808452D01*
X139035042Y-35816887D01*
X138460093Y-36143363D01*
X137882999Y-36472567D01*
X137305005Y-36803763D01*
X136727355Y-37136218D01*
X136151296Y-37469199D01*
X135578072Y-37801971D01*
X135008928Y-38133801D01*
X134445109Y-38463956D01*
X133887861Y-38791701D01*
X133338429Y-39116303D01*
X132798057Y-39437027D01*
X132267991Y-39753142D01*
X131749476Y-40063912D01*
X131243758Y-40368603D01*
X130752080Y-40666484D01*
X130275689Y-40956818D01*
X129815829Y-41238873D01*
X129435959Y-41473370D01*
X129324040Y-41542707D01*
X129217278Y-41608913D01*
X129117047Y-41671130D01*
X129024723Y-41728501D01*
X128941684Y-41780169D01*
X128869304Y-41825277D01*
X128808959Y-41862967D01*
X128762027Y-41892384D01*
X128729881Y-41912669D01*
X128713900Y-41922966D01*
X128712398Y-41924035D01*
X127797753Y-41924035D01*
X127912382Y-41852171D01*
X128046388Y-41768203D01*
X128164846Y-41694135D01*
X128270116Y-41628585D01*
X128364561Y-41570173D01*
X128450541Y-41517517D01*
X128530417Y-41469234D01*
X128606550Y-41423944D01*
X128681303Y-41380265D01*
X128757035Y-41336816D01*
X128836108Y-41292214D01*
X128920884Y-41245079D01*
X129013722Y-41194028D01*
X129116986Y-41137681D01*
X129233034Y-41074655D01*
X129343391Y-41014855D01*
X129494479Y-40932896D01*
X129662504Y-40841516D01*
X129845898Y-40741575D01*
X130043097Y-40633936D01*
X130252535Y-40519459D01*
X130472646Y-40399006D01*
X130701866Y-40273438D01*
X130938629Y-40143616D01*
X131181368Y-40010402D01*
X131428519Y-39874657D01*
X131678517Y-39737243D01*
X131929795Y-39599020D01*
X132180788Y-39460849D01*
X132429931Y-39323593D01*
X132675659Y-39188113D01*
X132916405Y-39055269D01*
X133150604Y-38925924D01*
X133376690Y-38800938D01*
X133593099Y-38681173D01*
X133798265Y-38567490D01*
X133990622Y-38460750D01*
X134168604Y-38361815D01*
X134330647Y-38271546D01*
X134404834Y-38230136D01*
X134803439Y-38007038D01*
X135204162Y-37781908D01*
X135604858Y-37555967D01*
X136003384Y-37330437D01*
X136397597Y-37106539D01*
X136785351Y-36885496D01*
X137164503Y-36668528D01*
X137532910Y-36456858D01*
X137888427Y-36251706D01*
X138228910Y-36054294D01*
X138465670Y-35916396D01*
X138600233Y-35837669D01*
X138741711Y-35754539D01*
X138888918Y-35667723D01*
X139040667Y-35577936D01*
X139195770Y-35485895D01*
X139353041Y-35392315D01*
X139511292Y-35297913D01*
X139669337Y-35203404D01*
X139825990Y-35109505D01*
X139980062Y-35016931D01*
X140130368Y-34926398D01*
X140275720Y-34838623D01*
X140414932Y-34754321D01*
X140546816Y-34674208D01*
X140670186Y-34599000D01*
X140783855Y-34529414D01*
X140886635Y-34466164D01*
X140977341Y-34409968D01*
X141054784Y-34361541D01*
X141117779Y-34321599D01*
X141165138Y-34290858D01*
X141195675Y-34270034D01*
X141199334Y-34267364D01*
X141315916Y-34187902D01*
X141425614Y-34127960D01*
X141529256Y-34087346D01*
X141627668Y-34065867D01*
X141721679Y-34063330D01*
X141812115Y-34079544D01*
X141886230Y-34107658D01*
X141933749Y-34136473D01*
X141987301Y-34179347D01*
X142042415Y-34231963D01*
X142094617Y-34290006D01*
X142139435Y-34349158D01*
X142144770Y-34357138D01*
X142181958Y-34417323D01*
X142220720Y-34487352D01*
X142261651Y-34568577D01*
X142305351Y-34662355D01*
X142352416Y-34770037D01*
X142403444Y-34892980D01*
X142459032Y-35032537D01*
X142519778Y-35190063D01*
X142564619Y-35308891D01*
X142598813Y-35398768D01*
X142636495Y-35495340D01*
X142676355Y-35595438D01*
X142717080Y-35695893D01*
X142757359Y-35793535D01*
X142795881Y-35885195D01*
X142831334Y-35967705D01*
X142862407Y-36037895D01*
X142887788Y-36092597D01*
X142895302Y-36107932D01*
X142974709Y-36258066D01*
X143058278Y-36399906D01*
X143143794Y-36530014D01*
X143229044Y-36644952D01*
X143282364Y-36708875D01*
X143298402Y-36728195D01*
X143316761Y-36752487D01*
X143337825Y-36782427D01*
X143361979Y-36818693D01*
X143389608Y-36861962D01*
X143421096Y-36912912D01*
X143456828Y-36972218D01*
X143497188Y-37040560D01*
X143542562Y-37118614D01*
X143593333Y-37207057D01*
X143649887Y-37306567D01*
X143712608Y-37417820D01*
X143781881Y-37541495D01*
X143858091Y-37678268D01*
X143941621Y-37828816D01*
X144032858Y-37993818D01*
X144132185Y-38173950D01*
X144239986Y-38369889D01*
X144356648Y-38582313D01*
X144482554Y-38811898D01*
X144618089Y-39059324D01*
X144639112Y-39097724D01*
X144803777Y-39397691D01*
X144959606Y-39679815D01*
X145107243Y-39945177D01*
X145247336Y-40194856D01*
X145380531Y-40429933D01*
X145507473Y-40651489D01*
X145628809Y-40860605D01*
X145745184Y-41058359D01*
X145857246Y-41245834D01*
X145965638Y-41424110D01*
X146071009Y-41594266D01*
X146174004Y-41757384D01*
X146275268Y-41914544D01*
X146375449Y-42066827D01*
X146475191Y-42215312D01*
X146575142Y-42361081D01*
X146675946Y-42505214D01*
X146679894Y-42510803D01*
X146916175Y-42845196D01*
X146886027Y-43043147D01*
X146876765Y-43107903D01*
X146869325Y-43167708D01*
X146864123Y-43218537D01*
X146861571Y-43256364D01*
X146861994Y-43276674D01*
X146868110Y-43312249D01*
X146919805Y-43244924D01*
X146947048Y-43207817D01*
X146980727Y-43159551D01*
X147016140Y-43106965D01*
X147042501Y-43066474D01*
X147079979Y-43009499D01*
X147123720Y-42945734D01*
X147171105Y-42878742D01*
X147219518Y-42812087D01*
X147266339Y-42749333D01*
X147308953Y-42694044D01*
X147344740Y-42649783D01*
X147368000Y-42623322D01*
X147418943Y-42573999D01*
X147477739Y-42524362D01*
X147538757Y-42478668D01*
X147596365Y-42441173D01*
X147638213Y-42419033D01*
X147729156Y-42386425D01*
X147814805Y-42373562D01*
X147897626Y-42380667D01*
X147980087Y-42407963D01*
X148064656Y-42455673D01*
X148067917Y-42457874D01*
X148113163Y-42487166D01*
X148149255Y-42506261D01*
X148183453Y-42518327D01*
X148223019Y-42526531D01*
X148226667Y-42527121D01*
X148356930Y-42556577D01*
X148473410Y-42601105D01*
X148575447Y-42660391D01*
X148660817Y-42732533D01*
X148706652Y-42784807D01*
X148747568Y-42844457D01*
X148784055Y-42913115D01*
X148816603Y-42992409D01*
X148845700Y-43083970D01*
X148871836Y-43189427D01*
X148895500Y-43310412D01*
X148917182Y-43448553D01*
X148937370Y-43605480D01*
X148946125Y-43682907D01*
X148962874Y-43824364D01*
X148980583Y-43948501D01*
X148999931Y-44059164D01*
X149021596Y-44160197D01*
X149046257Y-44255447D01*
X149048625Y-44263790D01*
X149092880Y-44418648D01*
X149167774Y-44370706D01*
X149286811Y-44286772D01*
X149405464Y-44188685D01*
X149518129Y-44081631D01*
X149619205Y-43970795D01*
X149673516Y-43902557D01*
X149776567Y-43749308D01*
X149869577Y-43578832D01*
X149951829Y-43392908D01*
X150022608Y-43193312D01*
X150081197Y-42981821D01*
X150121160Y-42792482D01*
X150133931Y-42719781D01*
X150145108Y-42649850D01*
X150154828Y-42580576D01*
X150163231Y-42509851D01*
X150170454Y-42435565D01*
X150176635Y-42355608D01*
X150181912Y-42267870D01*
X150186423Y-42170240D01*
X150190307Y-42060610D01*
X150193700Y-41936869D01*
X150196742Y-41796908D01*
X150199571Y-41638615D01*
X150200520Y-41579516D01*
X150202781Y-41448026D01*
X150205519Y-41309794D01*
X150208638Y-41168593D01*
X150212040Y-41028196D01*
X150215628Y-40892376D01*
X150219306Y-40764905D01*
X150222975Y-40649557D01*
X150226539Y-40550105D01*
X150227902Y-40515891D01*
X150232166Y-40397097D01*
X150235582Y-40269649D01*
X150238166Y-40135901D01*
X150239932Y-39998205D01*
X150240896Y-39858913D01*
X150241072Y-39720378D01*
X150240475Y-39584953D01*
X150239121Y-39454991D01*
X150237024Y-39332844D01*
X150234199Y-39220865D01*
X150230662Y-39121407D01*
X150226426Y-39036823D01*
X150221508Y-38969464D01*
X150217836Y-38935118D01*
X150209885Y-38873143D01*
X150201411Y-38806825D01*
X150193630Y-38745691D01*
X150189471Y-38712868D01*
X150177258Y-38616182D01*
X150096786Y-38557974D01*
X149949299Y-38441975D01*
X149817827Y-38319266D01*
X149703666Y-38191296D01*
X149608113Y-38059511D01*
X149535384Y-37931346D01*
X149481421Y-37810149D01*
X149443254Y-37696634D01*
X149419773Y-37585747D01*
X149409867Y-37472434D01*
X149411460Y-37367349D01*
X149428068Y-37216839D01*
X149460470Y-37080014D01*
X149509045Y-36956053D01*
X149574173Y-36844137D01*
X149656232Y-36743446D01*
X149732923Y-36671595D01*
X149869495Y-36567911D01*
X150008360Y-36484242D01*
X150151875Y-36419437D01*
X150302395Y-36372344D01*
X150380376Y-36355203D01*
X150448767Y-36346305D01*
X150530472Y-36342187D01*
X150618262Y-36342677D01*
X150704909Y-36347603D01*
X150783181Y-36356791D01*
X150830167Y-36365919D01*
X150981804Y-36411912D01*
X151121273Y-36473339D01*
X151247517Y-36549380D01*
X151359479Y-36639214D01*
X151456105Y-36742021D01*
X151536335Y-36856980D01*
X151586134Y-36952946D01*
X151609310Y-37009998D01*
X151626863Y-37067113D01*
X151639450Y-37128458D01*
X151647729Y-37198202D01*
X151652357Y-37280510D01*
X151653991Y-37379550D01*
X151654002Y-37383224D01*
X151653921Y-37455544D01*
X151652951Y-37511828D01*
X151650626Y-37557200D01*
X151646479Y-37596788D01*
X151640044Y-37635716D01*
X151630854Y-37679111D01*
X151624627Y-37706016D01*
X151600215Y-37798509D01*
X151571562Y-37883476D01*
X151537147Y-37962939D01*
X151495447Y-38038925D01*
X151444940Y-38113457D01*
X151384101Y-38188562D01*
X151311410Y-38266263D01*
X151225344Y-38348587D01*
X151124379Y-38437557D01*
X151006994Y-38535199D01*
X150991985Y-38547391D01*
X150925299Y-38602366D01*
X150873238Y-38648175D01*
X150833300Y-38688088D01*
X150802981Y-38725375D01*
X150779781Y-38763309D01*
X150761196Y-38805159D01*
X150744724Y-38854198D01*
X150736971Y-38880766D01*
X150716817Y-38961673D01*
X150699043Y-39054218D01*
X150683518Y-39159746D01*
X150670112Y-39279602D01*
X150658695Y-39415132D01*
X150649138Y-39567683D01*
X150641309Y-39738599D01*
X150635081Y-39929227D01*
X150634843Y-39938035D01*
X150631006Y-40160486D01*
X150630895Y-40396150D01*
X150634336Y-40642205D01*
X150641151Y-40895828D01*
X150651167Y-41154196D01*
X150664207Y-41414487D01*
X150680096Y-41673878D01*
X150698658Y-41929547D01*
X150719719Y-42178670D01*
X150743103Y-42418426D01*
X150768634Y-42645991D01*
X150796137Y-42858543D01*
X150825437Y-43053259D01*
X150830243Y-43082349D01*
X150852947Y-43213896D01*
X150874080Y-43326625D01*
X150894345Y-43422761D01*
X150914448Y-43504529D01*
X150935094Y-43574154D01*
X150956985Y-43633863D01*
X150980827Y-43685880D01*
X151007323Y-43732431D01*
X151037179Y-43775741D01*
X151058193Y-43802564D01*
X151151488Y-43905400D01*
X151246684Y-43987883D01*
X151343473Y-44049831D01*
X151441549Y-44091064D01*
X151540604Y-44111402D01*
X151586876Y-44113692D01*
X151660609Y-44110473D01*
X151698933Y-44103641D01*
X159460876Y-44103641D01*
X159460876Y-44991519D01*
X159461012Y-45152992D01*
X159461414Y-45304136D01*
X159462067Y-45443704D01*
X159462956Y-45570443D01*
X159464070Y-45683105D01*
X159465393Y-45780439D01*
X159466911Y-45861196D01*
X159468612Y-45924126D01*
X159470482Y-45967978D01*
X159471824Y-45986087D01*
X159496001Y-46135504D01*
X159536512Y-46271489D01*
X159593400Y-46394124D01*
X159666707Y-46503493D01*
X159756479Y-46599678D01*
X159820162Y-46652532D01*
X159930159Y-46725336D01*
X160050779Y-46785448D01*
X160184059Y-46833604D01*
X160332039Y-46870539D01*
X160496756Y-46896990D01*
X160498042Y-46897148D01*
X160547035Y-46901104D01*
X160612248Y-46903384D01*
X160688918Y-46904099D01*
X160772283Y-46903360D01*
X160857579Y-46901277D01*
X160940045Y-46897961D01*
X161014917Y-46893522D01*
X161077433Y-46888072D01*
X161117167Y-46882750D01*
X161271890Y-46849771D01*
X161409529Y-46806697D01*
X161532080Y-46752604D01*
X161641538Y-46686564D01*
X161739899Y-46607650D01*
X161768739Y-46580141D01*
X161851365Y-46487238D01*
X161917569Y-46387799D01*
X161968643Y-46279020D01*
X162005880Y-46158100D01*
X162030571Y-46022237D01*
X162032255Y-46008918D01*
X162034282Y-45981203D01*
X162036130Y-45933309D01*
X162037789Y-45866225D01*
X162039248Y-45780938D01*
X162040496Y-45678437D01*
X162041522Y-45559708D01*
X162042315Y-45425740D01*
X162042864Y-45277521D01*
X162043159Y-45116038D01*
X162043209Y-45011439D01*
X162043209Y-44103641D01*
X162561792Y-44103641D01*
X162561792Y-46908224D01*
X163388917Y-46908224D01*
X163383412Y-46106536D01*
X163382448Y-45976734D01*
X163381380Y-45852061D01*
X163380232Y-45734293D01*
X163379028Y-45625204D01*
X163377792Y-45526567D01*
X163376548Y-45440158D01*
X163375320Y-45367750D01*
X163374131Y-45311118D01*
X163373005Y-45272036D01*
X163371967Y-45252279D01*
X163371929Y-45251932D01*
X163370685Y-45234446D01*
X163372805Y-45230367D01*
X163379035Y-45241184D01*
X163390122Y-45268385D01*
X163406811Y-45313460D01*
X163417034Y-45341891D01*
X163438934Y-45400838D01*
X163462180Y-45459560D01*
X163484183Y-45511740D01*
X163502356Y-45551062D01*
X163504434Y-45555156D01*
X163515866Y-45576074D01*
X163537054Y-45613560D01*
X163567027Y-45665935D01*
X163604811Y-45731522D01*
X163649435Y-45808641D01*
X163699926Y-45895614D01*
X163755312Y-45990762D01*
X163814621Y-46092409D01*
X163876881Y-46198874D01*
X163916459Y-46266433D01*
X164292167Y-46907319D01*
X164707563Y-46907771D01*
X165122959Y-46908224D01*
X165122959Y-44103641D01*
X165662709Y-44103641D01*
X165662709Y-46908224D01*
X166551709Y-46908224D01*
X166551709Y-46887057D01*
X168827126Y-46887057D01*
X168975292Y-46887057D01*
X168975292Y-46535934D01*
X169091441Y-46539517D01*
X169150429Y-46541935D01*
X169193033Y-46547041D01*
X169222164Y-46557914D01*
X169240738Y-46577633D01*
X169251668Y-46609279D01*
X169257867Y-46655931D01*
X169262210Y-46720031D01*
X169265774Y-46771848D01*
X169269782Y-46817086D01*
X169273745Y-46850904D01*
X169277176Y-46868464D01*
X169277204Y-46868536D01*
X169284552Y-46878281D01*
X169300155Y-46883958D01*
X169328604Y-46886548D01*
X169363848Y-46887057D01*
X169404073Y-46886600D01*
X169426976Y-46884559D01*
X169436395Y-46879936D01*
X169436167Y-46871728D01*
X169434845Y-46868536D01*
X169430788Y-46851082D01*
X169426000Y-46817412D01*
X169421088Y-46772437D01*
X169416809Y-46723016D01*
X169410135Y-46648871D01*
X169402302Y-46592757D01*
X169392385Y-46551541D01*
X169379456Y-46522086D01*
X169362591Y-46501260D01*
X169348018Y-46490182D01*
X169326269Y-46474681D01*
X169314848Y-46463324D01*
X169314367Y-46461941D01*
X169322212Y-46452372D01*
X169342174Y-46437515D01*
X169348355Y-46433568D01*
X169388117Y-46398431D01*
X169414013Y-46349920D01*
X169427095Y-46285986D01*
X169427698Y-46279182D01*
X169425819Y-46203281D01*
X169408417Y-46135866D01*
X169376941Y-46079496D01*
X169332840Y-46036730D01*
X169277560Y-46010128D01*
X169275020Y-46009404D01*
X169251742Y-46005851D01*
X169211439Y-46002754D01*
X169158253Y-46000305D01*
X169096325Y-45998695D01*
X169030855Y-45998116D01*
X168827126Y-45998057D01*
X168827126Y-46887057D01*
X166551709Y-46887057D01*
X166551709Y-46030017D01*
X166869209Y-46030017D01*
X166871676Y-46041981D01*
X166878635Y-46071791D01*
X166889420Y-46116765D01*
X166903368Y-46174219D01*
X166919813Y-46241472D01*
X166938092Y-46315840D01*
X166957538Y-46394640D01*
X166977488Y-46475191D01*
X166997278Y-46554808D01*
X167016241Y-46630809D01*
X167033715Y-46700512D01*
X167049033Y-46761234D01*
X167061532Y-46810292D01*
X167070547Y-46845003D01*
X167075413Y-46862684D01*
X167075762Y-46863753D01*
X167086674Y-46871792D01*
X167113695Y-46874952D01*
X167146551Y-46874337D01*
X167212500Y-46871182D01*
X167269640Y-46574849D01*
X167284638Y-46497145D01*
X167298555Y-46425184D01*
X167310823Y-46361893D01*
X167320875Y-46310195D01*
X167328142Y-46273015D01*
X167332057Y-46253279D01*
X167332309Y-46252057D01*
X167336378Y-46246927D01*
X167341992Y-46262607D01*
X167349061Y-46298807D01*
X167351753Y-46315557D01*
X167358197Y-46353456D01*
X167368164Y-46407376D01*
X167380746Y-46472638D01*
X167395039Y-46544566D01*
X167410136Y-46618481D01*
X167413772Y-46635961D01*
X167427704Y-46702921D01*
X167440052Y-46762683D01*
X167450198Y-46812221D01*
X167457524Y-46848510D01*
X167461412Y-46868522D01*
X167461876Y-46871441D01*
X167471514Y-46874047D01*
X167496654Y-46875866D01*
X167528126Y-46876474D01*
X167594377Y-46876474D01*
X167808427Y-46019224D01*
X167657281Y-46019224D01*
X167602061Y-46259995D01*
X167585901Y-46330918D01*
X167571013Y-46397128D01*
X167558175Y-46455099D01*
X167548164Y-46501303D01*
X167541758Y-46532212D01*
X167540130Y-46540946D01*
X167535179Y-46565662D01*
X167531108Y-46577767D01*
X167530322Y-46577988D01*
X167527486Y-46567203D01*
X167521062Y-46538390D01*
X167511628Y-46494275D01*
X167499759Y-46437583D01*
X167486031Y-46371040D01*
X167471020Y-46297371D01*
X167470952Y-46297036D01*
X167414679Y-46019224D01*
X167337937Y-46019224D01*
X167298018Y-46019757D01*
X167274395Y-46022295D01*
X167262209Y-46028241D01*
X167256599Y-46039000D01*
X167255551Y-46043036D01*
X167246368Y-46083485D01*
X167234893Y-46136614D01*
X167221943Y-46198348D01*
X167208338Y-46264615D01*
X167194898Y-46331340D01*
X167182440Y-46394451D01*
X167171785Y-46449873D01*
X167163751Y-46493532D01*
X167159157Y-46521356D01*
X167158733Y-46524578D01*
X167153672Y-46555579D01*
X167147827Y-46575748D01*
X167144282Y-46580141D01*
X167138588Y-46570662D01*
X167132565Y-46546437D01*
X167129557Y-46527661D01*
X167125023Y-46501570D01*
X167116364Y-46458877D01*
X167104438Y-46403551D01*
X167090108Y-46339561D01*
X167074234Y-46270876D01*
X167069986Y-46252849D01*
X167054525Y-46187262D01*
X167040861Y-46128818D01*
X167029702Y-46080586D01*
X167021756Y-46045632D01*
X167017730Y-46027024D01*
X167017376Y-46024870D01*
X167007686Y-46022087D01*
X166982187Y-46020070D01*
X166946233Y-46019228D01*
X166943292Y-46019224D01*
X166904366Y-46020660D01*
X166878263Y-46024556D01*
X166869209Y-46030017D01*
X166551709Y-46030017D01*
X166551709Y-45998057D01*
X168022792Y-45998057D01*
X168022792Y-46876474D01*
X168594292Y-46876474D01*
X168594292Y-46728307D01*
X168170959Y-46728307D01*
X168170959Y-46484891D01*
X168530792Y-46484891D01*
X168530792Y-46347307D01*
X168170959Y-46347307D01*
X168170959Y-46146224D01*
X168573126Y-46146224D01*
X168573126Y-45998057D01*
X168022792Y-45998057D01*
X166551709Y-45998057D01*
X166551709Y-44103641D01*
X169779626Y-44103641D01*
X169779626Y-46876474D01*
X170647459Y-46876474D01*
X170647459Y-45985163D01*
X170750646Y-45876573D01*
X170788318Y-45837724D01*
X170821220Y-45805285D01*
X170846482Y-45781973D01*
X170861236Y-45770504D01*
X170863403Y-45769793D01*
X170870387Y-45778965D01*
X170887206Y-45804770D01*
X170912897Y-45845637D01*
X170946499Y-45899994D01*
X170987050Y-45966268D01*
X171033588Y-46042887D01*
X171085151Y-46128279D01*
X171140778Y-46220872D01*
X171199507Y-46319093D01*
X171202070Y-46323390D01*
X171531167Y-46875176D01*
X172563187Y-46876474D01*
X172511933Y-46794453D01*
X172498582Y-46773103D01*
X172474922Y-46735285D01*
X172441874Y-46682470D01*
X172409899Y-46631375D01*
X172785292Y-46631375D01*
X172790690Y-46667477D01*
X172804619Y-46711859D01*
X172823680Y-46755317D01*
X172842382Y-46785989D01*
X172890473Y-46832361D01*
X172952156Y-46866130D01*
X173023386Y-46886394D01*
X173100114Y-46892251D01*
X173178295Y-46882797D01*
X173221190Y-46870483D01*
X173281434Y-46841470D01*
X173327515Y-46800225D01*
X173354106Y-46762011D01*
X173368429Y-46735326D01*
X173377141Y-46710599D01*
X173381594Y-46681100D01*
X173383141Y-46640100D01*
X173383251Y-46617074D01*
X173382316Y-46567103D01*
X173378864Y-46532443D01*
X173371927Y-46507294D01*
X173361583Y-46487493D01*
X173335542Y-46454350D01*
X173301222Y-46426556D01*
X173254865Y-46401855D01*
X173192715Y-46377995D01*
X173162864Y-46368267D01*
X173094738Y-46346350D01*
X173043898Y-46328562D01*
X173007201Y-46313503D01*
X172981501Y-46299771D01*
X172963654Y-46285964D01*
X172953857Y-46275134D01*
X172935631Y-46238532D01*
X172935848Y-46202476D01*
X172951883Y-46169585D01*
X172981113Y-46142473D01*
X173020916Y-46123759D01*
X173068667Y-46116057D01*
X173109977Y-46119422D01*
X173145727Y-46133196D01*
X173179502Y-46157835D01*
X173205690Y-46187937D01*
X173218679Y-46218103D01*
X173219209Y-46224541D01*
X173220156Y-46238825D01*
X173226053Y-46247046D01*
X173241479Y-46250877D01*
X173271015Y-46251993D01*
X173294470Y-46252057D01*
X173369731Y-46252057D01*
X173362425Y-46212370D01*
X173339649Y-46135524D01*
X173302561Y-46074255D01*
X173251304Y-46028676D01*
X173207375Y-46008641D01*
X173621376Y-46008641D01*
X173621376Y-46156807D01*
X173843626Y-46156807D01*
X173843626Y-46887057D01*
X173991792Y-46887057D01*
X173991792Y-46876714D01*
X174468377Y-46876714D01*
X174892877Y-46873948D01*
X175317378Y-46871182D01*
X175370535Y-46688505D01*
X175423692Y-46505827D01*
X175863568Y-46508588D01*
X176303445Y-46511349D01*
X176352804Y-46689069D01*
X176369141Y-46747185D01*
X176383773Y-46797910D01*
X176395689Y-46837845D01*
X176403879Y-46863590D01*
X176407127Y-46871753D01*
X176418447Y-46872771D01*
X176448656Y-46873582D01*
X176495479Y-46874176D01*
X176556637Y-46874541D01*
X176629856Y-46874665D01*
X176712858Y-46874536D01*
X176803367Y-46874143D01*
X176835021Y-46873949D01*
X177257952Y-46871182D01*
X176960674Y-46008641D01*
X177473709Y-46008641D01*
X177473709Y-46156807D01*
X177695959Y-46156807D01*
X177695959Y-46897641D01*
X177844126Y-46897641D01*
X177844126Y-46156807D01*
X178066376Y-46156807D01*
X178066376Y-46008641D01*
X177473709Y-46008641D01*
X176960674Y-46008641D01*
X176781101Y-45487618D01*
X176304251Y-44104055D01*
X175425791Y-44103641D01*
X177600709Y-44103641D01*
X177600709Y-44833891D01*
X178383876Y-44833891D01*
X178383876Y-46908224D01*
X179251709Y-46908224D01*
X179251709Y-44833891D01*
X180034876Y-44833891D01*
X180034876Y-44103641D01*
X177600709Y-44103641D01*
X175425791Y-44103641D01*
X175008545Y-45312786D01*
X174954099Y-45470562D01*
X174900695Y-45625307D01*
X174848839Y-45775553D01*
X174799038Y-45919833D01*
X174751800Y-46056677D01*
X174707632Y-46184618D01*
X174667039Y-46302187D01*
X174630531Y-46407916D01*
X174598612Y-46500336D01*
X174571791Y-46577980D01*
X174550574Y-46639378D01*
X174535468Y-46683063D01*
X174529839Y-46699323D01*
X174468377Y-46876714D01*
X173991792Y-46876714D01*
X173991792Y-46156807D01*
X174214042Y-46156807D01*
X174214042Y-46008641D01*
X173621376Y-46008641D01*
X173207375Y-46008641D01*
X173186020Y-45998902D01*
X173106851Y-45985046D01*
X173076524Y-45983980D01*
X172997151Y-45990649D01*
X172928342Y-46010584D01*
X172873604Y-46042705D01*
X172866574Y-46048732D01*
X172836342Y-46088183D01*
X172813756Y-46141640D01*
X172800209Y-46202886D01*
X172797094Y-46265707D01*
X172805314Y-46322113D01*
X172820170Y-46362462D01*
X172842535Y-46396198D01*
X172875044Y-46425132D01*
X172920333Y-46451075D01*
X172981035Y-46475836D01*
X173059785Y-46501226D01*
X173070595Y-46504407D01*
X173118934Y-46519645D01*
X173162127Y-46535291D01*
X173194521Y-46549188D01*
X173207831Y-46556786D01*
X173235124Y-46588774D01*
X173246133Y-46627740D01*
X173241640Y-46668139D01*
X173222425Y-46704426D01*
X173189269Y-46731055D01*
X173182888Y-46733980D01*
X173131202Y-46746820D01*
X173073224Y-46747844D01*
X173019993Y-46737035D01*
X173012726Y-46734236D01*
X172982060Y-46713866D01*
X172955008Y-46683300D01*
X172937294Y-46650039D01*
X172933498Y-46630411D01*
X172930632Y-46620582D01*
X172919173Y-46614947D01*
X172894757Y-46612417D01*
X172859376Y-46611891D01*
X172820239Y-46612544D01*
X172797808Y-46615283D01*
X172787640Y-46621275D01*
X172785292Y-46631375D01*
X172409899Y-46631375D01*
X172400359Y-46616132D01*
X172351300Y-46537744D01*
X172295619Y-46448777D01*
X172234236Y-46350704D01*
X172168073Y-46244998D01*
X172098053Y-46133132D01*
X172025096Y-46016579D01*
X171971273Y-45930594D01*
X171898019Y-45813508D01*
X171827964Y-45701415D01*
X171761926Y-45595631D01*
X171700724Y-45497474D01*
X171645176Y-45408259D01*
X171596100Y-45329304D01*
X171554316Y-45261926D01*
X171520642Y-45207441D01*
X171495897Y-45167166D01*
X171480899Y-45142418D01*
X171476442Y-45134618D01*
X171482575Y-45124331D01*
X171502595Y-45099754D01*
X171535662Y-45061806D01*
X171580939Y-45011404D01*
X171637587Y-44949463D01*
X171704768Y-44876903D01*
X171781643Y-44794640D01*
X171867375Y-44703590D01*
X171954101Y-44612061D01*
X172437186Y-44103641D01*
X171936552Y-44104082D01*
X171435917Y-44104524D01*
X170652751Y-45027560D01*
X170649993Y-44565600D01*
X170647236Y-44103641D01*
X169779626Y-44103641D01*
X166551709Y-44103641D01*
X165662709Y-44103641D01*
X165122959Y-44103641D01*
X164297459Y-44103641D01*
X164297459Y-44848644D01*
X164297625Y-44994155D01*
X164298110Y-45130612D01*
X164298894Y-45256485D01*
X164299957Y-45370243D01*
X164301280Y-45470354D01*
X164302841Y-45555287D01*
X164304622Y-45623511D01*
X164306603Y-45673494D01*
X164308562Y-45701846D01*
X164312753Y-45747310D01*
X164315271Y-45784333D01*
X164315853Y-45808266D01*
X164314949Y-45814761D01*
X164309913Y-45807415D01*
X164300001Y-45783861D01*
X164286779Y-45748053D01*
X164275664Y-45715621D01*
X164257138Y-45661748D01*
X164236986Y-45605974D01*
X164218516Y-45557366D01*
X164211858Y-45540788D01*
X164201791Y-45520150D01*
X164181907Y-45482881D01*
X164153125Y-45430595D01*
X164116359Y-45364906D01*
X164072527Y-45287427D01*
X164022545Y-45199771D01*
X163967329Y-45103552D01*
X163907796Y-45000383D01*
X163844862Y-44891879D01*
X163783577Y-44786725D01*
X163384532Y-44103641D01*
X162561792Y-44103641D01*
X162043209Y-44103641D01*
X161176145Y-44103641D01*
X161172916Y-45027036D01*
X161172321Y-45189301D01*
X161171725Y-45331772D01*
X161171097Y-45455826D01*
X161170407Y-45562837D01*
X161169624Y-45654179D01*
X161168719Y-45731226D01*
X161167662Y-45795352D01*
X161166422Y-45847933D01*
X161164969Y-45890342D01*
X161163273Y-45923955D01*
X161161304Y-45950144D01*
X161159031Y-45970286D01*
X161156425Y-45985753D01*
X161153455Y-45997921D01*
X161151469Y-46004263D01*
X161121424Y-46071981D01*
X161080905Y-46125922D01*
X161028291Y-46166954D01*
X160961963Y-46195949D01*
X160880300Y-46213776D01*
X160781684Y-46221305D01*
X160746751Y-46221683D01*
X160642076Y-46215400D01*
X160554131Y-46196668D01*
X160482099Y-46164882D01*
X160425162Y-46119432D01*
X160382505Y-46059712D01*
X160353310Y-45985112D01*
X160339707Y-45918682D01*
X160337815Y-45894580D01*
X160336065Y-45850544D01*
X160334473Y-45787805D01*
X160333052Y-45707595D01*
X160331817Y-45611147D01*
X160330782Y-45499691D01*
X160329960Y-45374461D01*
X160329366Y-45236687D01*
X160329014Y-45087602D01*
X160328918Y-44974120D01*
X160328709Y-44103641D01*
X159460876Y-44103641D01*
X151698933Y-44103641D01*
X151723588Y-44099246D01*
X151785442Y-44077701D01*
X151835584Y-44054048D01*
X151900751Y-44018880D01*
X151955089Y-43984227D01*
X152005228Y-43945154D01*
X152057800Y-43896719D01*
X152089584Y-43864883D01*
X152174251Y-43778374D01*
X152491751Y-43640463D01*
X152808131Y-43503040D01*
X153105315Y-43373960D01*
X153383523Y-43253127D01*
X153642970Y-43140448D01*
X153883875Y-43035827D01*
X154106455Y-42939171D01*
X154310927Y-42850385D01*
X154497510Y-42769374D01*
X154666421Y-42696044D01*
X154817876Y-42630302D01*
X154952095Y-42572051D01*
X155069294Y-42521198D01*
X155169691Y-42477649D01*
X155253503Y-42441308D01*
X155320948Y-42412082D01*
X155372244Y-42389876D01*
X155407609Y-42374596D01*
X155427258Y-42366147D01*
X155430895Y-42364605D01*
X155462978Y-42344650D01*
X155475174Y-42323692D01*
X155476242Y-42311175D01*
X155478561Y-42278393D01*
X155482077Y-42226206D01*
X155486734Y-42155475D01*
X155492478Y-42067060D01*
X155499255Y-41961823D01*
X155507011Y-41840625D01*
X155515691Y-41704325D01*
X155525241Y-41553785D01*
X155535606Y-41389866D01*
X155546731Y-41213428D01*
X155558564Y-41025333D01*
X155571048Y-40826441D01*
X155584130Y-40617612D01*
X155597756Y-40399708D01*
X155611870Y-40173589D01*
X155626419Y-39940116D01*
X155641348Y-39700150D01*
X155656602Y-39454552D01*
X155661012Y-39383474D01*
X155841882Y-36467766D01*
X155841469Y-31668224D01*
X156772709Y-31668224D01*
X156772709Y-33488557D01*
X157502959Y-33488557D01*
X157502959Y-31668224D01*
X156772709Y-31668224D01*
X155841469Y-31668224D01*
X155841376Y-30588724D01*
X158423709Y-30588724D01*
X158423980Y-33528245D01*
G37*
X158423980Y-33528245D02*
X158424250Y-36467766D01*
X158607713Y-39031867D01*
X158624285Y-39263107D01*
X158640509Y-39488799D01*
X158656319Y-39708032D01*
X158671647Y-39919897D01*
X158686427Y-40123483D01*
X158700590Y-40317880D01*
X158714070Y-40502178D01*
X158726798Y-40675468D01*
X158738708Y-40836838D01*
X158749732Y-40985379D01*
X158759803Y-41120180D01*
X158768854Y-41240333D01*
X158776816Y-41344925D01*
X158783624Y-41433048D01*
X158789208Y-41503792D01*
X158793503Y-41556245D01*
X158796440Y-41589499D01*
X158797952Y-41602642D01*
X158798024Y-41602817D01*
X158809488Y-41603724D01*
X158840386Y-41604118D01*
X158888989Y-41604023D01*
X158953573Y-41603461D01*
X159032409Y-41602457D01*
X159123771Y-41601034D01*
X159225933Y-41599217D01*
X159337167Y-41597028D01*
X159455747Y-41594492D01*
X159534766Y-41592696D01*
X160264660Y-41575728D01*
X160801922Y-41754892D01*
X160903977Y-41788877D01*
X160999985Y-41820753D01*
X161088072Y-41849905D01*
X161166365Y-41875719D01*
X161232992Y-41897578D01*
X161286077Y-41914867D01*
X161323749Y-41926971D01*
X161344133Y-41933273D01*
X161347238Y-41934057D01*
X161349142Y-41923880D01*
X161350886Y-41894972D01*
X161352414Y-41849769D01*
X161353672Y-41790706D01*
X161354605Y-41720219D01*
X161355159Y-41640743D01*
X161355292Y-41575896D01*
X161355292Y-41217735D01*
X161283855Y-41190060D01*
X161184433Y-41159281D01*
X161084121Y-41144388D01*
X160980501Y-41145578D01*
X160871156Y-41163049D01*
X160753669Y-41197001D01*
X160635626Y-41243261D01*
X160577060Y-41264568D01*
X160532871Y-41270955D01*
X160502116Y-41262109D01*
X160483853Y-41237716D01*
X160477140Y-41197463D01*
X160477068Y-41190578D01*
X160479979Y-41145698D01*
X160488082Y-41083166D01*
X160500883Y-41005721D01*
X160517891Y-40916100D01*
X160538611Y-40817040D01*
X160562550Y-40711279D01*
X160566198Y-40695807D01*
X160578081Y-40646795D01*
X160590093Y-40600173D01*
X160602886Y-40554183D01*
X160617112Y-40507070D01*
X160633425Y-40457077D01*
X160652478Y-40402446D01*
X160674922Y-40341423D01*
X160701411Y-40272249D01*
X160732597Y-40193169D01*
X160769134Y-40102425D01*
X160811673Y-39998262D01*
X160860868Y-39878923D01*
X160917371Y-39742650D01*
X160945696Y-39674516D01*
X160985032Y-39579338D01*
X161025217Y-39480980D01*
X161064689Y-39383346D01*
X161101887Y-39290337D01*
X161135247Y-39205855D01*
X161163208Y-39133804D01*
X161180860Y-39087141D01*
X161280057Y-38807488D01*
X161375915Y-38512289D01*
X161466812Y-38207094D01*
X161551126Y-37897455D01*
X161627237Y-37588920D01*
X161657769Y-37454678D01*
X161674441Y-37380727D01*
X161690035Y-37314180D01*
X161703889Y-37257650D01*
X161715344Y-37213752D01*
X161723737Y-37185102D01*
X161728408Y-37174315D01*
X161728609Y-37174304D01*
X161736552Y-37185109D01*
X161752028Y-37213873D01*
X161774359Y-37259048D01*
X161802866Y-37319082D01*
X161836872Y-37392427D01*
X161875697Y-37477533D01*
X161918663Y-37572850D01*
X161965093Y-37676830D01*
X162014307Y-37787922D01*
X162065627Y-37904577D01*
X162118375Y-38025245D01*
X162171873Y-38148377D01*
X162225441Y-38272423D01*
X162278402Y-38395834D01*
X162330077Y-38517060D01*
X162379788Y-38634552D01*
X162426857Y-38746759D01*
X162470604Y-38852133D01*
X162510353Y-38949124D01*
X162545423Y-39036182D01*
X162561407Y-39076557D01*
X162654541Y-39318358D01*
X162740017Y-39550217D01*
X162817560Y-39771203D01*
X162886896Y-39980385D01*
X162947751Y-40176831D01*
X162999848Y-40359610D01*
X163042915Y-40527790D01*
X163076675Y-40680439D01*
X163100856Y-40816627D01*
X163115181Y-40935421D01*
X163117127Y-40961315D01*
X163119672Y-41015259D01*
X163117506Y-41052764D01*
X163108148Y-41075120D01*
X163089121Y-41083622D01*
X163057944Y-41079561D01*
X163012139Y-41064229D01*
X162959857Y-41043303D01*
X162885765Y-41019334D01*
X162822270Y-41013186D01*
X162768280Y-41025034D01*
X162722700Y-41055054D01*
X162696112Y-41085714D01*
X162661096Y-41148633D01*
X162634817Y-41228109D01*
X162617021Y-41325161D01*
X162607485Y-41440103D01*
X162605818Y-41546696D01*
X162611501Y-41645548D01*
X162625419Y-41744646D01*
X162648459Y-41851976D01*
X162656892Y-41885467D01*
X162674796Y-41945970D01*
X162699050Y-42015778D01*
X162727325Y-42089152D01*
X162757290Y-42160355D01*
X162786619Y-42223650D01*
X162812980Y-42273298D01*
X162817098Y-42280129D01*
X162838856Y-42315333D01*
X163198752Y-42312549D01*
X163558649Y-42309766D01*
X163605369Y-42193550D01*
X163630115Y-42126845D01*
X163647518Y-42065622D01*
X163657807Y-42005589D01*
X163661212Y-41942454D01*
X163657964Y-41871921D01*
X163648291Y-41789700D01*
X163632422Y-41691497D01*
X163632272Y-41690641D01*
X163608883Y-41534614D01*
X163595028Y-41383593D01*
X163590349Y-41230327D01*
X163594485Y-41067565D01*
X163598229Y-41002714D01*
X163606562Y-40892876D01*
X163617233Y-40785490D01*
X163630732Y-40677858D01*
X163647549Y-40567286D01*
X163668177Y-40451077D01*
X163693106Y-40326537D01*
X163705698Y-40269101D01*
X172460994Y-40269101D01*
X172472349Y-40274628D01*
X172501676Y-40287008D01*
X172547174Y-40305542D01*
X172607041Y-40329532D01*
X172679476Y-40358280D01*
X172762676Y-40391087D01*
X172854840Y-40427256D01*
X172954167Y-40466088D01*
X173058854Y-40506884D01*
X173167100Y-40548947D01*
X173277104Y-40591578D01*
X173387063Y-40634079D01*
X173495177Y-40675752D01*
X173599643Y-40715898D01*
X173698659Y-40753820D01*
X173790425Y-40788818D01*
X173873138Y-40820195D01*
X173944997Y-40847252D01*
X174004200Y-40869291D01*
X174048945Y-40885614D01*
X174076459Y-40895203D01*
X174329403Y-40973345D01*
X174601410Y-41047121D01*
X174890750Y-41116128D01*
X175195691Y-41179961D01*
X175514505Y-41238216D01*
X175621626Y-41256011D01*
X175718848Y-41271774D01*
X175798192Y-41284530D01*
X175862682Y-41294608D01*
X175915342Y-41302337D01*
X175959196Y-41308045D01*
X175997268Y-41312061D01*
X176032582Y-41314715D01*
X176068163Y-41316335D01*
X176107033Y-41317249D01*
X176152217Y-41317787D01*
X176193126Y-41318151D01*
X176318284Y-41315840D01*
X176463181Y-41306835D01*
X176600584Y-41294041D01*
X176690555Y-41283706D01*
X176792926Y-41270510D01*
X176899318Y-41255625D01*
X177001353Y-41240220D01*
X177087417Y-41226032D01*
X177168462Y-41211528D01*
X177254842Y-41195391D01*
X177344224Y-41178118D01*
X177434273Y-41160206D01*
X177522659Y-41142154D01*
X177607046Y-41124458D01*
X177685103Y-41107617D01*
X177754496Y-41092126D01*
X177812892Y-41078485D01*
X177857959Y-41067190D01*
X177887363Y-41058739D01*
X177898770Y-41053629D01*
X177898686Y-41053051D01*
X177888446Y-41047759D01*
X177860038Y-41033863D01*
X177814424Y-41011820D01*
X177752565Y-40982088D01*
X177675421Y-40945125D01*
X177583953Y-40901390D01*
X177479122Y-40851340D01*
X177361888Y-40795433D01*
X177233214Y-40734129D01*
X177094059Y-40667883D01*
X176945384Y-40597156D01*
X176788150Y-40522404D01*
X176623319Y-40444087D01*
X176451851Y-40362661D01*
X176274706Y-40278585D01*
X176171482Y-40229614D01*
X174452167Y-39414067D01*
X174356917Y-39512918D01*
X174190554Y-39671032D01*
X174013549Y-39811501D01*
X173826883Y-39933893D01*
X173631536Y-40037778D01*
X173428490Y-40122724D01*
X173218724Y-40188302D01*
X173003220Y-40234079D01*
X172782957Y-40259625D01*
X172645639Y-40265101D01*
X172585629Y-40265875D01*
X172533850Y-40266741D01*
X172493633Y-40267629D01*
X172468310Y-40268464D01*
X172460994Y-40269101D01*
X163705698Y-40269101D01*
X163722828Y-40190969D01*
X163757832Y-40041677D01*
X163798611Y-39875967D01*
X163816059Y-39806807D01*
X163837920Y-39719671D01*
X163863640Y-39615482D01*
X163892357Y-39497819D01*
X163923211Y-39370263D01*
X163955339Y-39236395D01*
X163987882Y-39099795D01*
X164019978Y-38964042D01*
X164050766Y-38832718D01*
X164064217Y-38774932D01*
X164102187Y-38611496D01*
X164135776Y-38467164D01*
X164165358Y-38340416D01*
X164191307Y-38229731D01*
X164213997Y-38133588D01*
X164233802Y-38050467D01*
X164251095Y-37978846D01*
X164266251Y-37917205D01*
X164279644Y-37864022D01*
X164291648Y-37817777D01*
X164302636Y-37776949D01*
X164312983Y-37740017D01*
X164323062Y-37705461D01*
X164333248Y-37671759D01*
X164343914Y-37637390D01*
X164343966Y-37637224D01*
X164392713Y-37491550D01*
X164441112Y-37366932D01*
X164489268Y-37263265D01*
X164537283Y-37180443D01*
X164585260Y-37118361D01*
X164633302Y-37076914D01*
X164681512Y-37055995D01*
X164729993Y-37055500D01*
X164778847Y-37075322D01*
X164828178Y-37115357D01*
X164840445Y-37128343D01*
X164864752Y-37157875D01*
X164888133Y-37192285D01*
X164911232Y-37233255D01*
X164934694Y-37282468D01*
X164959162Y-37341606D01*
X164985281Y-37412352D01*
X165013693Y-37496389D01*
X165045044Y-37595400D01*
X165079977Y-37711066D01*
X165119137Y-37845071D01*
X165132414Y-37891224D01*
X165164366Y-37999551D01*
X165197818Y-38107353D01*
X165231690Y-38211495D01*
X165264903Y-38308844D01*
X165296379Y-38396267D01*
X165325039Y-38470630D01*
X165349803Y-38528799D01*
X165357684Y-38545429D01*
X165401034Y-38633426D01*
X165444559Y-38626160D01*
X165520146Y-38602940D01*
X165593743Y-38559190D01*
X165664985Y-38495487D01*
X165733508Y-38412406D01*
X165798946Y-38310523D01*
X165860935Y-38190412D01*
X165919111Y-38052648D01*
X165973107Y-37897809D01*
X166022561Y-37726468D01*
X166027867Y-37706016D01*
X166046542Y-37628840D01*
X166065957Y-37541095D01*
X166084152Y-37452110D01*
X166099166Y-37371215D01*
X166102935Y-37348828D01*
X166112781Y-37290573D01*
X166121934Y-37240368D01*
X166129720Y-37201612D01*
X166135464Y-37177706D01*
X166138101Y-37171557D01*
X166143699Y-37180795D01*
X166157988Y-37207549D01*
X166180239Y-37250383D01*
X166209723Y-37307858D01*
X166245709Y-37378538D01*
X166287469Y-37460983D01*
X166334273Y-37553757D01*
X166385391Y-37655421D01*
X166440094Y-37764539D01*
X166497653Y-37879672D01*
X166512661Y-37909745D01*
X166880951Y-38647932D01*
X167048199Y-39150641D01*
X167215447Y-39653349D01*
X167231561Y-39615401D01*
X167265650Y-39561283D01*
X167320108Y-39510848D01*
X167394428Y-39464299D01*
X167488101Y-39421836D01*
X167600619Y-39383659D01*
X167731475Y-39349971D01*
X167880158Y-39320972D01*
X168032860Y-39298531D01*
X168132143Y-39287658D01*
X168231826Y-39280449D01*
X168333281Y-39277110D01*
X168437884Y-39277849D01*
X168547008Y-39282872D01*
X168662027Y-39292387D01*
X168784314Y-39306600D01*
X168915244Y-39325719D01*
X169056191Y-39349950D01*
X169208528Y-39379501D01*
X169373629Y-39414579D01*
X169552868Y-39455390D01*
X169747618Y-39502143D01*
X169959255Y-39555043D01*
X170189151Y-39614298D01*
X170271751Y-39635937D01*
X170382918Y-39665255D01*
X170498779Y-39695970D01*
X170615444Y-39727040D01*
X170729021Y-39757424D01*
X170835621Y-39786080D01*
X170931353Y-39811965D01*
X171012326Y-39834038D01*
X171044224Y-39842811D01*
X171118342Y-39863146D01*
X171185518Y-39881327D01*
X171243138Y-39896666D01*
X171288587Y-39908476D01*
X171319252Y-39916070D01*
X171332517Y-39918760D01*
X171332840Y-39918704D01*
X171325733Y-39912141D01*
X171304181Y-39896501D01*
X171271552Y-39874145D01*
X171232408Y-39848218D01*
X171101261Y-39753683D01*
X170970129Y-39642222D01*
X170842905Y-39517717D01*
X170723480Y-39384051D01*
X170615745Y-39245107D01*
X170587488Y-39204737D01*
X170471212Y-39015899D01*
X170373370Y-38817723D01*
X170294233Y-38611741D01*
X170234069Y-38399483D01*
X170193150Y-38182480D01*
X170171745Y-37962262D01*
X170171582Y-37939862D01*
X170624965Y-37939862D01*
X170644385Y-38138489D01*
X170680158Y-38319849D01*
X170736937Y-38506123D01*
X170813187Y-38687171D01*
X170907434Y-38860763D01*
X171018208Y-39024668D01*
X171144037Y-39176653D01*
X171283448Y-39314487D01*
X171398876Y-39409385D01*
X171546349Y-39512325D01*
X171695235Y-39598619D01*
X171848792Y-39669533D01*
X172010274Y-39726333D01*
X172182940Y-39770284D01*
X172370044Y-39802652D01*
X172430751Y-39810444D01*
X172476480Y-39813845D01*
X172536889Y-39815476D01*
X172605570Y-39815412D01*
X172676117Y-39813729D01*
X172742121Y-39810500D01*
X172793647Y-39806196D01*
X172998091Y-39773603D01*
X173195146Y-39721535D01*
X173383775Y-39650657D01*
X173562946Y-39561630D01*
X173731623Y-39455118D01*
X173888772Y-39331784D01*
X174033359Y-39192291D01*
X174164350Y-39037302D01*
X174280710Y-38867480D01*
X174295080Y-38843724D01*
X174387837Y-38669834D01*
X174460679Y-38492278D01*
X174514089Y-38309279D01*
X174548549Y-38119055D01*
X174564540Y-37919828D01*
X174565872Y-37843599D01*
X174556187Y-37635766D01*
X174526604Y-37435079D01*
X174477257Y-37241868D01*
X174408284Y-37056462D01*
X174319818Y-36879191D01*
X174211997Y-36710383D01*
X174084956Y-36550368D01*
X173992100Y-36451194D01*
X173846310Y-36317222D01*
X173694076Y-36202176D01*
X173532335Y-36104088D01*
X173358025Y-36020988D01*
X173266834Y-35985047D01*
X173086982Y-35929372D01*
X172899577Y-35891759D01*
X172707611Y-35872198D01*
X172514078Y-35870676D01*
X172321969Y-35887183D01*
X172134277Y-35921708D01*
X171953995Y-35974238D01*
X171910480Y-35990165D01*
X171720221Y-36073757D01*
X171542007Y-36174271D01*
X171376683Y-36290860D01*
X171225092Y-36422678D01*
X171088077Y-36568880D01*
X170966483Y-36728619D01*
X170861152Y-36901050D01*
X170772927Y-37085327D01*
X170743059Y-37160974D01*
X170684437Y-37348420D01*
X170645124Y-37542362D01*
X170625255Y-37740331D01*
X170624965Y-37939862D01*
X170171582Y-37939862D01*
X170170125Y-37740360D01*
X170188560Y-37518305D01*
X170227319Y-37297628D01*
X170240802Y-37240496D01*
X170303762Y-37030927D01*
X170386551Y-36827540D01*
X170488389Y-36631702D01*
X170608493Y-36444779D01*
X170746082Y-36268138D01*
X170879885Y-36123400D01*
X171047771Y-35969669D01*
X171225458Y-35834550D01*
X171413260Y-35717884D01*
X171611492Y-35619511D01*
X171820468Y-35539271D01*
X172040505Y-35477006D01*
X172229667Y-35439206D01*
X172297980Y-35430707D01*
X172382336Y-35424535D01*
X172477741Y-35420687D01*
X172579202Y-35419157D01*
X172681724Y-35419943D01*
X172780312Y-35423041D01*
X172869973Y-35428445D01*
X172945713Y-35436153D01*
X172970501Y-35439800D01*
X173197372Y-35487222D01*
X173414084Y-35553208D01*
X173620777Y-35637829D01*
X173817591Y-35741157D01*
X174004667Y-35863266D01*
X174182147Y-36004225D01*
X174315193Y-36128490D01*
X174469218Y-36296661D01*
X174604421Y-36474437D01*
X174721078Y-36662296D01*
X174819465Y-36860716D01*
X174899858Y-37070178D01*
X174944393Y-37219182D01*
X174988290Y-37421927D01*
X175014499Y-37632168D01*
X175022868Y-37845548D01*
X175013245Y-38057709D01*
X174985479Y-38264294D01*
X174981579Y-38285098D01*
X174972596Y-38335012D01*
X174966204Y-38377132D01*
X174962955Y-38407275D01*
X174963398Y-38421261D01*
X174963644Y-38421590D01*
X174973719Y-38426640D01*
X175002106Y-38440352D01*
X175047983Y-38462335D01*
X175110529Y-38492201D01*
X175188923Y-38529558D01*
X175282343Y-38574017D01*
X175389967Y-38625187D01*
X175510974Y-38682680D01*
X175644542Y-38746104D01*
X175789850Y-38815071D01*
X175946077Y-38889189D01*
X176112400Y-38968069D01*
X176287998Y-39051321D01*
X176472050Y-39138555D01*
X176663734Y-39229380D01*
X176862229Y-39323408D01*
X177066713Y-39420248D01*
X177276365Y-39519509D01*
X177314959Y-39537779D01*
X179659167Y-40647478D01*
X179892001Y-40875802D01*
X179962126Y-40943544D01*
X180038815Y-41015860D01*
X180117671Y-41088722D01*
X180194298Y-41158104D01*
X180264299Y-41219979D01*
X180316720Y-41264846D01*
X180374822Y-41314244D01*
X180430711Y-41363108D01*
X180481197Y-41408546D01*
X180523089Y-41447666D01*
X180553197Y-41477575D01*
X180561973Y-41487169D01*
X180609538Y-41547684D01*
X180661165Y-41624347D01*
X180717697Y-41718487D01*
X180779104Y-41829796D01*
X180839209Y-41942493D01*
X180839209Y-47469141D01*
X127181709Y-47469141D01*
X127181910Y-46125057D01*
X128108672Y-46125057D01*
X128109325Y-46210390D01*
X128112848Y-46279533D01*
X128120084Y-46337367D01*
X128131873Y-46388771D01*
X128149058Y-46438625D01*
X128171618Y-46489990D01*
X128218547Y-46566186D01*
X128282619Y-46636045D01*
X128360127Y-46696886D01*
X128447367Y-46746029D01*
X128540631Y-46780793D01*
X128589292Y-46792118D01*
X128648883Y-46797229D01*
X128721054Y-46794170D01*
X128799138Y-46783580D01*
X128876468Y-46766099D01*
X128884571Y-46763803D01*
X128958194Y-46739292D01*
X129036389Y-46706790D01*
X129120357Y-46665533D01*
X129211302Y-46614753D01*
X129310427Y-46553685D01*
X129418934Y-46481561D01*
X129538026Y-46397616D01*
X129668905Y-46301084D01*
X129812774Y-46191197D01*
X129941569Y-46090364D01*
X129955977Y-46083736D01*
X129960255Y-46084909D01*
X129958302Y-46095887D01*
X129950094Y-46124077D01*
X129936515Y-46166762D01*
X129918447Y-46221225D01*
X129896771Y-46284750D01*
X129876178Y-46343818D01*
X129841118Y-46443944D01*
X129812786Y-46526078D01*
X129790597Y-46592091D01*
X129773967Y-46643854D01*
X129762311Y-46683238D01*
X129755046Y-46712116D01*
X129751586Y-46732357D01*
X129751188Y-46743978D01*
X129762066Y-46769002D01*
X129785955Y-46787044D01*
X129807226Y-46791807D01*
X129824817Y-46789281D01*
X129840295Y-46780150D01*
X129854831Y-46762086D01*
X129869599Y-46732757D01*
X129885770Y-46689837D01*
X129904516Y-46630994D01*
X129927011Y-46553900D01*
X129927073Y-46553682D01*
X129949373Y-46477584D01*
X129974558Y-46395359D01*
X130000354Y-46314193D01*
X130024492Y-46241269D01*
X130039126Y-46199141D01*
X130059675Y-46141467D01*
X130079028Y-46086852D01*
X130095437Y-46040257D01*
X130107149Y-46006641D01*
X130110126Y-45997943D01*
X130133097Y-45953349D01*
X130160954Y-45923860D01*
X130271135Y-45840156D01*
X130366543Y-45767816D01*
X130449221Y-45705346D01*
X130521212Y-45651253D01*
X130584559Y-45604044D01*
X130641303Y-45562227D01*
X130693488Y-45524308D01*
X130743156Y-45488795D01*
X130792350Y-45454193D01*
X130843111Y-45419011D01*
X130897484Y-45381754D01*
X130957509Y-45340931D01*
X130970380Y-45332202D01*
X131023594Y-45296714D01*
X131070598Y-45266493D01*
X131108726Y-45243161D01*
X131135313Y-45228339D01*
X131147690Y-45223648D01*
X131148219Y-45224047D01*
X131145081Y-45237056D01*
X131133993Y-45264616D01*
X131116771Y-45302499D01*
X131098311Y-45340359D01*
X131061037Y-45416371D01*
X131021896Y-45499245D01*
X130982804Y-45584664D01*
X130945679Y-45668312D01*
X130912438Y-45745870D01*
X130884997Y-45813024D01*
X130865832Y-45863860D01*
X130822987Y-46001416D01*
X130793900Y-46130331D01*
X130778673Y-46249209D01*
X130777405Y-46356655D01*
X130790197Y-46451276D01*
X130817148Y-46531676D01*
X130817759Y-46532973D01*
X130862849Y-46604909D01*
X130925028Y-46669428D01*
X131000762Y-46723879D01*
X131086517Y-46765612D01*
X131156841Y-46787337D01*
X131212926Y-46797353D01*
X131266239Y-46799161D01*
X131322630Y-46792199D01*
X131387945Y-46775902D01*
X131437094Y-46760326D01*
X131593383Y-46698214D01*
X131752431Y-46615839D01*
X131913260Y-46513772D01*
X132074891Y-46392586D01*
X132096018Y-46375369D01*
X132153301Y-46326779D01*
X132215754Y-46271218D01*
X132281565Y-46210536D01*
X132348920Y-46146580D01*
X132416003Y-46081199D01*
X132481001Y-46016240D01*
X132542100Y-45953553D01*
X132597485Y-45894984D01*
X132645343Y-45842383D01*
X132683858Y-45797597D01*
X132711218Y-45762475D01*
X132725608Y-45738866D01*
X132727376Y-45732168D01*
X132717574Y-45702619D01*
X132690935Y-45672677D01*
X132651610Y-45644703D01*
X132603748Y-45621056D01*
X132551500Y-45604096D01*
X132499016Y-45596183D01*
X132487695Y-45595891D01*
X132458261Y-45597738D01*
X132428335Y-45604106D01*
X132395884Y-45616229D01*
X132358876Y-45635343D01*
X132315277Y-45662685D01*
X132263054Y-45699491D01*
X132200175Y-45746995D01*
X132124606Y-45806434D01*
X132072051Y-45848565D01*
X131976252Y-45924121D01*
X131880348Y-45996717D01*
X131786015Y-46065290D01*
X131694930Y-46128778D01*
X131608770Y-46186119D01*
X131529212Y-46236251D01*
X131457935Y-46278112D01*
X131396613Y-46310639D01*
X131346926Y-46332771D01*
X131310549Y-46343444D01*
X131291644Y-46342831D01*
X131279864Y-46331435D01*
X131275582Y-46308596D01*
X131279069Y-46273573D01*
X131290597Y-46225621D01*
X131310437Y-46163998D01*
X131338862Y-46087959D01*
X131376144Y-45996762D01*
X131422553Y-45889662D01*
X131478362Y-45765916D01*
X131543843Y-45624782D01*
X131589541Y-45527959D01*
X131648449Y-45403237D01*
X131698494Y-45295706D01*
X131740291Y-45203634D01*
X131774456Y-45125284D01*
X131777859Y-45116964D01*
X132644118Y-45116964D01*
X132660668Y-45162406D01*
X132693138Y-45199246D01*
X132720140Y-45215490D01*
X132768163Y-45232206D01*
X132807929Y-45233100D01*
X132845400Y-45218026D01*
X132854381Y-45212245D01*
X132894831Y-45174010D01*
X132918147Y-45129071D01*
X132924670Y-45081466D01*
X132914737Y-45035234D01*
X132888689Y-44994412D01*
X132846865Y-44963041D01*
X132832904Y-44956712D01*
X132781068Y-44945889D01*
X132733034Y-44955445D01*
X132690718Y-44984676D01*
X132664062Y-45018797D01*
X132644810Y-45067550D01*
X132644118Y-45116964D01*
X131777859Y-45116964D01*
X131801602Y-45058924D01*
X131822346Y-45002819D01*
X131837302Y-44955235D01*
X131847085Y-44914438D01*
X131852310Y-44878693D01*
X131853591Y-44846266D01*
X131851545Y-44815423D01*
X131848910Y-44796547D01*
X131828147Y-44730279D01*
X131790774Y-44674596D01*
X131739556Y-44631567D01*
X131677260Y-44603263D01*
X131606655Y-44591752D01*
X131575929Y-44592368D01*
X131547561Y-44595954D01*
X131517176Y-44603523D01*
X131480890Y-44616514D01*
X131434818Y-44636361D01*
X131375076Y-44664504D01*
X131356285Y-44673619D01*
X131205291Y-44750364D01*
X131044468Y-44837894D01*
X130879693Y-44932805D01*
X130716842Y-45031690D01*
X130561791Y-45131144D01*
X130527774Y-45153793D01*
X130485739Y-45181224D01*
X130450177Y-45202988D01*
X130424622Y-45217025D01*
X130412610Y-45221275D01*
X130412305Y-45221098D01*
X130412676Y-45207645D01*
X130421893Y-45177063D01*
X130439152Y-45131067D01*
X130463654Y-45071368D01*
X130494596Y-44999679D01*
X130531178Y-44917714D01*
X130572596Y-44827184D01*
X130618050Y-44729803D01*
X130666739Y-44627284D01*
X130717860Y-44521338D01*
X130770612Y-44413680D01*
X130824194Y-44306021D01*
X130877803Y-44200074D01*
X130930639Y-44097553D01*
X130981900Y-44000169D01*
X130996302Y-43973236D01*
X131027115Y-43915095D01*
X131054150Y-43862675D01*
X131075884Y-43819045D01*
X131090796Y-43787274D01*
X131097363Y-43770428D01*
X131097542Y-43769175D01*
X131089290Y-43752079D01*
X131068728Y-43746413D01*
X131042149Y-43753511D01*
X131037022Y-43756361D01*
X131020138Y-43773466D01*
X130995460Y-43808257D01*
X130963815Y-43859086D01*
X130926030Y-43924307D01*
X130882930Y-44002273D01*
X130835342Y-44091338D01*
X130784092Y-44189854D01*
X130730006Y-44296175D01*
X130673911Y-44408654D01*
X130616633Y-44525644D01*
X130558998Y-44645499D01*
X130501832Y-44766572D01*
X130445962Y-44887216D01*
X130392214Y-45005784D01*
X130341414Y-45120630D01*
X130294388Y-45230107D01*
X130278191Y-45268729D01*
X130265571Y-45297922D01*
X130253594Y-45319938D01*
X130238601Y-45338459D01*
X130216934Y-45357169D01*
X130184937Y-45379752D01*
X130138950Y-45409889D01*
X130136306Y-45411604D01*
X130095137Y-45438713D01*
X130040661Y-45475209D01*
X129976918Y-45518351D01*
X129907948Y-45565398D01*
X129837791Y-45613607D01*
X129795848Y-45642617D01*
X129628840Y-45757701D01*
X129477739Y-45860225D01*
X129341776Y-45950663D01*
X129220182Y-46029492D01*
X129112188Y-46097187D01*
X129017025Y-46154222D01*
X128933924Y-46201075D01*
X128862116Y-46238219D01*
X128800831Y-46266131D01*
X128764489Y-46280181D01*
X128736859Y-46288799D01*
X128721404Y-46288842D01*
X128710759Y-46279879D01*
X128708512Y-46276901D01*
X128698190Y-46247767D01*
X128695885Y-46201612D01*
X128701052Y-46140773D01*
X128713148Y-46067589D01*
X128731627Y-45984397D01*
X128755946Y-45893534D01*
X128785561Y-45797338D01*
X128819927Y-45698147D01*
X128858500Y-45598298D01*
X128876570Y-45554981D01*
X128951410Y-45392599D01*
X129041400Y-45219704D01*
X129145007Y-45038817D01*
X129260699Y-44852454D01*
X129386945Y-44663134D01*
X129522211Y-44473376D01*
X129588611Y-44384563D01*
X129622614Y-44339735D01*
X129652117Y-44300774D01*
X129674725Y-44270845D01*
X129688046Y-44253114D01*
X129690418Y-44249894D01*
X129701862Y-44246243D01*
X129731718Y-44239606D01*
X129777512Y-44230453D01*
X129836772Y-44219256D01*
X129907027Y-44206484D01*
X129985804Y-44192609D01*
X130044959Y-44182445D01*
X130129261Y-44167781D01*
X130207651Y-44153518D01*
X130277485Y-44140187D01*
X130336117Y-44128317D01*
X130380902Y-44118438D01*
X130409193Y-44111079D01*
X130417563Y-44107849D01*
X130437475Y-44086100D01*
X130438997Y-44062222D01*
X130422300Y-44042129D01*
X130415557Y-44038506D01*
X130403435Y-44035485D01*
X130383505Y-44034739D01*
X130353544Y-44036499D01*
X130311329Y-44040998D01*
X130254637Y-44048469D01*
X130181246Y-44059141D01*
X130102282Y-44071181D01*
X130026939Y-44082656D01*
X129958667Y-44092725D01*
X129900189Y-44101014D01*
X129854227Y-44107146D01*
X129823501Y-44110747D01*
X129810733Y-44111443D01*
X129810566Y-44111358D01*
X129816196Y-44102615D01*
X129834087Y-44079570D01*
X129862761Y-44044024D01*
X129900737Y-43997777D01*
X129946538Y-43942629D01*
X129998685Y-43880379D01*
X130055697Y-43812829D01*
X130060341Y-43807348D01*
X130128402Y-43726852D01*
X130183789Y-43660687D01*
X130227630Y-43607138D01*
X130261058Y-43564493D01*
X130285203Y-43531036D01*
X130301195Y-43505055D01*
X130310166Y-43484835D01*
X130313245Y-43468662D01*
X130311563Y-43454823D01*
X130306252Y-43441603D01*
X130304215Y-43437680D01*
X130285523Y-43419592D01*
X130251490Y-43401024D01*
X130207757Y-43384280D01*
X130159967Y-43371663D01*
X130130999Y-43366949D01*
X130089671Y-43365132D01*
X130050250Y-43371055D01*
X130008113Y-43386326D01*
X129958637Y-43412556D01*
X129906917Y-43444960D01*
X129879902Y-43465503D01*
X129840457Y-43499445D01*
X129790632Y-43544751D01*
X129732482Y-43599385D01*
X129668057Y-43661310D01*
X129599410Y-43728491D01*
X129528593Y-43798890D01*
X129457658Y-43870471D01*
X129388658Y-43941199D01*
X129323643Y-44009037D01*
X129264668Y-44071949D01*
X129213783Y-44127898D01*
X129181959Y-44164305D01*
X129145330Y-44206110D01*
X129112536Y-44241488D01*
X129086403Y-44267538D01*
X129069761Y-44281363D01*
X129066328Y-44282825D01*
X129047884Y-44285824D01*
X129013855Y-44293241D01*
X128968127Y-44304071D01*
X128914587Y-44317306D01*
X128857121Y-44331940D01*
X128799615Y-44346966D01*
X128745954Y-44361379D01*
X128700027Y-44374171D01*
X128665718Y-44384336D01*
X128646914Y-44390867D01*
X128644855Y-44391985D01*
X128633358Y-44410997D01*
X128633695Y-44433171D01*
X128645534Y-44448262D01*
X128646696Y-44448755D01*
X128661925Y-44448727D01*
X128693800Y-44444792D01*
X128738289Y-44437569D01*
X128791361Y-44427683D01*
X128818122Y-44422293D01*
X128872684Y-44411286D01*
X128919387Y-44402328D01*
X128954565Y-44396087D01*
X128974553Y-44393228D01*
X128977710Y-44393281D01*
X128972451Y-44402131D01*
X128955871Y-44424775D01*
X128929994Y-44458572D01*
X128896838Y-44500882D01*
X128859702Y-44547475D01*
X128750752Y-44686569D01*
X128654698Y-44817149D01*
X128568238Y-44944326D01*
X128488071Y-45073215D01*
X128410896Y-45208928D01*
X128333412Y-45356578D01*
X128319475Y-45384224D01*
X128250167Y-45530928D01*
X128194401Y-45668306D01*
X128150190Y-45801413D01*
X128136552Y-45849891D01*
X128126008Y-45891794D01*
X128118536Y-45929606D01*
X128113597Y-45968655D01*
X128110651Y-46014270D01*
X128109158Y-46071778D01*
X128108672Y-46125057D01*
X127181910Y-46125057D01*
X127182096Y-44889453D01*
X127182468Y-42407437D01*
X130255061Y-42407437D01*
X130266536Y-42411118D01*
X130295161Y-42418202D01*
X130337351Y-42427860D01*
X130389517Y-42439261D01*
X130427349Y-42447272D01*
X130500477Y-42463127D01*
X130581669Y-42481638D01*
X130661865Y-42500690D01*
X130732005Y-42518165D01*
X130743001Y-42521016D01*
X130810260Y-42539659D01*
X130895139Y-42564938D01*
X130995416Y-42596115D01*
X131108870Y-42632451D01*
X131233279Y-42673209D01*
X131366423Y-42717650D01*
X131506080Y-42765036D01*
X131650029Y-42814628D01*
X131796050Y-42865688D01*
X131941920Y-42917478D01*
X132018292Y-42944928D01*
X132125013Y-42983183D01*
X132240433Y-43024079D01*
X132359668Y-43065916D01*
X132477830Y-43106993D01*
X132590033Y-43145612D01*
X132691392Y-43180071D01*
X132765124Y-43204740D01*
X132855126Y-43234600D01*
X132927238Y-43258764D01*
X132983672Y-43278155D01*
X133026643Y-43293699D01*
X133058365Y-43306318D01*
X133081052Y-43316938D01*
X133096917Y-43326481D01*
X133108175Y-43335873D01*
X133117038Y-43346036D01*
X133123016Y-43354121D01*
X133145203Y-43380353D01*
X133163971Y-43390322D01*
X133175226Y-43389927D01*
X133193634Y-43387872D01*
X133228832Y-43385347D01*
X133276456Y-43382618D01*
X133332142Y-43379948D01*
X133358959Y-43378824D01*
X133420817Y-43376132D01*
X133468271Y-43372983D01*
X133507431Y-43368233D01*
X133544406Y-43360741D01*
X133585307Y-43349363D01*
X133636241Y-43332957D01*
X133676459Y-43319449D01*
X133808081Y-43278280D01*
X133956280Y-43237750D01*
X134116471Y-43198978D01*
X134284071Y-43163085D01*
X134426001Y-43136199D01*
X134489501Y-43124950D01*
X134546923Y-43114946D01*
X134600685Y-43105836D01*
X134653209Y-43097268D01*
X134706915Y-43088891D01*
X134764224Y-43080352D01*
X134827556Y-43071302D01*
X134899330Y-43061387D01*
X134981969Y-43050257D01*
X135077892Y-43037560D01*
X135189519Y-43022944D01*
X135319271Y-43006059D01*
X135345586Y-43002641D01*
X135531595Y-42978285D01*
X135698550Y-42955951D01*
X135848435Y-42935306D01*
X135983232Y-42916019D01*
X136104923Y-42897759D01*
X136215493Y-42880194D01*
X136316922Y-42862993D01*
X136411193Y-42845824D01*
X136500290Y-42828357D01*
X136586194Y-42810259D01*
X136670888Y-42791199D01*
X136756355Y-42770846D01*
X136806719Y-42758405D01*
X137030473Y-42697278D01*
X137235921Y-42630070D01*
X137425282Y-42555856D01*
X137600780Y-42473713D01*
X137764634Y-42382717D01*
X137867486Y-42317357D01*
X138027104Y-42200020D01*
X138168913Y-42073131D01*
X138293507Y-41935757D01*
X138401478Y-41786961D01*
X138493417Y-41625807D01*
X138511311Y-41585001D01*
X139267876Y-41585001D01*
X139275320Y-41712625D01*
X139297970Y-41825736D01*
X139336298Y-41925019D01*
X139390777Y-42011160D01*
X139461880Y-42084845D01*
X139550079Y-42146759D01*
X139655849Y-42197587D01*
X139702363Y-42214690D01*
X139771725Y-42238301D01*
X139809843Y-42203369D01*
X139841544Y-42178321D01*
X139875834Y-42160259D01*
X139914715Y-42149380D01*
X139960190Y-42145881D01*
X140014260Y-42149957D01*
X140078928Y-42161803D01*
X140156196Y-42181617D01*
X140248065Y-42209593D01*
X140356538Y-42245929D01*
X140400209Y-42261153D01*
X140476944Y-42286867D01*
X140537701Y-42303951D01*
X140585664Y-42312769D01*
X140624015Y-42313684D01*
X140655939Y-42307061D01*
X140684116Y-42293569D01*
X140714703Y-42264936D01*
X140741232Y-42221843D01*
X140760181Y-42170990D01*
X140766859Y-42136126D01*
X140781229Y-42006786D01*
X140794631Y-41882722D01*
X140807199Y-41762211D01*
X140819069Y-41643531D01*
X140830375Y-41524959D01*
X140841251Y-41404773D01*
X140851833Y-41281250D01*
X140855044Y-41241628D01*
X141522704Y-41241628D01*
X141522834Y-41384420D01*
X141523150Y-41510721D01*
X141523702Y-41621698D01*
X141524538Y-41718520D01*
X141525710Y-41802357D01*
X141527265Y-41874376D01*
X141529255Y-41935747D01*
X141531729Y-41987637D01*
X141534736Y-42031217D01*
X141538327Y-42067654D01*
X141542550Y-42098117D01*
X141547456Y-42123775D01*
X141553095Y-42145796D01*
X141559515Y-42165349D01*
X141566767Y-42183604D01*
X141574900Y-42201727D01*
X141583964Y-42220889D01*
X141587824Y-42229027D01*
X141630996Y-42301429D01*
X141686843Y-42360980D01*
X141757210Y-42409004D01*
X141843947Y-42446825D01*
X141924292Y-42470127D01*
X142020153Y-42487869D01*
X142106936Y-42493093D01*
X142182122Y-42485880D01*
X142243188Y-42466310D01*
X142255701Y-42459644D01*
X142302186Y-42423462D01*
X142329035Y-42380421D01*
X142337042Y-42333073D01*
X142335654Y-42313051D01*
X142331747Y-42275284D01*
X142325702Y-42222995D01*
X142317906Y-42159406D01*
X142308740Y-42087738D01*
X142299768Y-42019970D01*
X142251372Y-41710341D01*
X142188467Y-41391021D01*
X142112130Y-41066643D01*
X142023435Y-40741840D01*
X141940655Y-40473557D01*
X141915930Y-40399989D01*
X141885631Y-40313756D01*
X141851004Y-40218100D01*
X141813295Y-40116266D01*
X141773752Y-40011496D01*
X141733620Y-39907034D01*
X141694147Y-39806122D01*
X141656580Y-39712005D01*
X141622165Y-39627925D01*
X141592148Y-39557127D01*
X141567777Y-39502852D01*
X141566379Y-39499891D01*
X141523736Y-39409932D01*
X141522931Y-40702613D01*
X141522802Y-40901893D01*
X141522710Y-41081175D01*
X141522704Y-41241628D01*
X140855044Y-41241628D01*
X140862255Y-41152667D01*
X140872651Y-41017302D01*
X140883157Y-40873433D01*
X140893906Y-40719338D01*
X140905034Y-40553292D01*
X140916675Y-40373575D01*
X140928964Y-40178464D01*
X140942035Y-39966235D01*
X140956024Y-39735168D01*
X140960932Y-39653349D01*
X140967664Y-39539247D01*
X140974919Y-39413232D01*
X140982631Y-39276582D01*
X140990737Y-39130573D01*
X140999172Y-38976484D01*
X141007873Y-38815592D01*
X141016774Y-38649174D01*
X141025812Y-38478509D01*
X141034923Y-38304874D01*
X141041072Y-38186647D01*
X141884828Y-38186647D01*
X141885299Y-38269570D01*
X141886482Y-38362067D01*
X141888327Y-38461244D01*
X141890781Y-38564210D01*
X141893794Y-38668070D01*
X141897315Y-38769931D01*
X141901291Y-38866900D01*
X141904221Y-38928391D01*
X141924923Y-39241452D01*
X141954728Y-39548093D01*
X141993308Y-39846966D01*
X142040338Y-40136725D01*
X142095489Y-40416022D01*
X142158437Y-40683509D01*
X142228853Y-40937841D01*
X142306412Y-41177669D01*
X142390785Y-41401646D01*
X142481647Y-41608426D01*
X142578672Y-41796660D01*
X142615253Y-41859974D01*
X142731938Y-42038973D01*
X142857680Y-42200050D01*
X142992025Y-42342890D01*
X143134520Y-42467180D01*
X143284709Y-42572605D01*
X143442139Y-42658853D01*
X143606356Y-42725608D01*
X143776905Y-42772558D01*
X143953332Y-42799387D01*
X143977459Y-42801442D01*
X144046491Y-42806474D01*
X144101005Y-42809434D01*
X144147549Y-42810319D01*
X144192672Y-42809132D01*
X144242919Y-42805870D01*
X144294959Y-42801429D01*
X144355943Y-42794663D01*
X144427901Y-42784737D01*
X144501142Y-42773077D01*
X144556696Y-42762958D01*
X144696726Y-42735459D01*
X144624674Y-42654904D01*
X144558206Y-42576347D01*
X144483021Y-42479744D01*
X144399726Y-42366052D01*
X144308925Y-42236230D01*
X144211224Y-42091234D01*
X144107229Y-41932022D01*
X143997545Y-41759551D01*
X143882777Y-41574780D01*
X143763530Y-41378665D01*
X143640411Y-41172164D01*
X143514024Y-40956235D01*
X143384976Y-40731835D01*
X143253871Y-40499922D01*
X143191875Y-40388891D01*
X143138520Y-40292328D01*
X143076673Y-40179309D01*
X143007579Y-40052172D01*
X142932485Y-39913254D01*
X142852633Y-39764894D01*
X142769270Y-39609430D01*
X142683640Y-39449199D01*
X142596988Y-39286540D01*
X142510559Y-39123791D01*
X142425598Y-38963290D01*
X142343350Y-38807375D01*
X142265059Y-38658383D01*
X142191971Y-38518654D01*
X142125331Y-38390525D01*
X142066382Y-38276334D01*
X142048990Y-38242421D01*
X141895588Y-37942743D01*
X141888202Y-38024254D01*
X141886228Y-38061096D01*
X141885120Y-38116191D01*
X141884828Y-38186647D01*
X141041072Y-38186647D01*
X141044042Y-38129546D01*
X141053105Y-37953803D01*
X141062047Y-37778923D01*
X141070805Y-37606183D01*
X141079315Y-37436861D01*
X141087511Y-37272234D01*
X141095330Y-37113580D01*
X141102708Y-36962177D01*
X141109579Y-36819302D01*
X141115881Y-36686233D01*
X141120228Y-36592676D01*
X142044563Y-36592676D01*
X142045737Y-36604003D01*
X142052034Y-36632751D01*
X142062664Y-36676013D01*
X142076839Y-36730885D01*
X142093770Y-36794461D01*
X142112667Y-36863838D01*
X142132742Y-36936110D01*
X142153206Y-37008371D01*
X142173269Y-37077718D01*
X142192143Y-37141246D01*
X142204587Y-37181863D01*
X142259159Y-37351847D01*
X142316041Y-37518259D01*
X142376492Y-37684275D01*
X142441769Y-37853067D01*
X142513128Y-38027811D01*
X142591825Y-38211681D01*
X142679119Y-38407849D01*
X142759997Y-38584432D01*
X142818210Y-38708797D01*
X142878285Y-38834399D01*
X142941002Y-38962727D01*
X143007142Y-39095274D01*
X143077485Y-39233527D01*
X143152812Y-39378979D01*
X143233903Y-39533119D01*
X143321540Y-39697437D01*
X143416501Y-39873424D01*
X143519568Y-40062570D01*
X143631522Y-40266365D01*
X143753142Y-40486299D01*
X143804819Y-40579391D01*
X143922060Y-40790612D01*
X144029554Y-40984788D01*
X144128026Y-41163270D01*
X144218199Y-41327410D01*
X144300796Y-41478557D01*
X144376542Y-41618063D01*
X144446161Y-41747278D01*
X144510375Y-41867554D01*
X144569908Y-41980241D01*
X144625486Y-42086691D01*
X144677830Y-42188253D01*
X144727665Y-42286280D01*
X144775714Y-42382122D01*
X144822702Y-42477129D01*
X144835629Y-42503482D01*
X145018579Y-42877116D01*
X145156008Y-42739687D01*
X145104755Y-42561768D01*
X145061528Y-42418711D01*
X145010448Y-42261734D01*
X144953226Y-42095800D01*
X144891573Y-41925870D01*
X144827203Y-41756907D01*
X144826122Y-41754141D01*
X144729493Y-41515337D01*
X144620328Y-41261009D01*
X144499186Y-40992259D01*
X144366628Y-40710191D01*
X144223215Y-40415908D01*
X144069507Y-40110512D01*
X143906064Y-39795108D01*
X143733448Y-39470797D01*
X143552218Y-39138683D01*
X143362935Y-38799870D01*
X143166160Y-38455460D01*
X143038057Y-38235182D01*
X143000349Y-38171071D01*
X142955949Y-38096076D01*
X142905761Y-38011696D01*
X142850692Y-37919430D01*
X142791650Y-37820778D01*
X142729541Y-37717237D01*
X142665270Y-37610307D01*
X142599746Y-37501485D01*
X142533873Y-37392272D01*
X142468560Y-37284166D01*
X142404711Y-37178664D01*
X142343235Y-37077268D01*
X142285037Y-36981474D01*
X142231024Y-36892782D01*
X142182103Y-36812690D01*
X142139180Y-36742698D01*
X142103161Y-36684303D01*
X142074954Y-36639006D01*
X142055464Y-36608304D01*
X142045598Y-36593696D01*
X142044563Y-36592676D01*
X141120228Y-36592676D01*
X141121549Y-36564247D01*
X141126518Y-36454622D01*
X141130724Y-36358635D01*
X141134104Y-36277565D01*
X141136592Y-36212689D01*
X141138125Y-36165284D01*
X141138638Y-36136628D01*
X141138207Y-36127944D01*
X141133226Y-36136374D01*
X141120985Y-36162982D01*
X141102084Y-36206293D01*
X141077125Y-36264830D01*
X141046710Y-36337121D01*
X141011440Y-36421688D01*
X140971917Y-36517059D01*
X140928741Y-36621757D01*
X140882515Y-36734308D01*
X140833839Y-36853236D01*
X140783316Y-36977068D01*
X140731546Y-37104327D01*
X140679131Y-37233539D01*
X140626673Y-37363229D01*
X140574773Y-37491922D01*
X140524032Y-37618143D01*
X140475052Y-37740417D01*
X140428434Y-37857269D01*
X140384780Y-37967224D01*
X140344691Y-38068808D01*
X140308769Y-38160545D01*
X140296207Y-38192849D01*
X140216727Y-38398344D01*
X140144413Y-38586833D01*
X140078371Y-38760885D01*
X140017706Y-38923065D01*
X139961523Y-39075941D01*
X139908928Y-39222079D01*
X139859026Y-39364045D01*
X139810921Y-39504407D01*
X139763721Y-39645731D01*
X139716529Y-39790584D01*
X139668450Y-39941533D01*
X139618592Y-40101144D01*
X139566057Y-40271984D01*
X139528864Y-40394182D01*
X139475573Y-40572219D01*
X139429308Y-40732097D01*
X139389704Y-40875492D01*
X139356392Y-41004079D01*
X139329007Y-41119532D01*
X139307180Y-41223527D01*
X139290545Y-41317738D01*
X139278734Y-41403840D01*
X139271382Y-41483508D01*
X139268119Y-41558418D01*
X139267876Y-41585001D01*
X138511311Y-41585001D01*
X138569919Y-41451359D01*
X138631574Y-41262683D01*
X138678977Y-41058840D01*
X138685029Y-41026147D01*
X138698748Y-40961542D01*
X138720016Y-40878195D01*
X138748527Y-40777015D01*
X138783973Y-40658915D01*
X138826049Y-40524805D01*
X138874448Y-40375598D01*
X138928863Y-40212204D01*
X138988988Y-40035536D01*
X139054515Y-39846503D01*
X139125139Y-39646019D01*
X139200552Y-39434994D01*
X139280449Y-39214339D01*
X139364522Y-38984967D01*
X139442351Y-38774932D01*
X139546611Y-38494860D01*
X139643740Y-38233714D01*
X139734058Y-37990605D01*
X139817882Y-37764645D01*
X139895529Y-37554946D01*
X139967317Y-37360620D01*
X140033563Y-37180779D01*
X140094586Y-37014535D01*
X140150704Y-36861000D01*
X140202233Y-36719286D01*
X140249491Y-36588506D01*
X140292797Y-36467770D01*
X140332467Y-36356191D01*
X140368820Y-36252881D01*
X140402174Y-36156952D01*
X140432845Y-36067516D01*
X140461152Y-35983684D01*
X140487412Y-35904569D01*
X140511943Y-35829283D01*
X140535062Y-35756938D01*
X140557088Y-35686646D01*
X140560970Y-35674016D01*
X141368990Y-35674016D01*
X141370296Y-35773150D01*
X141374180Y-35854439D01*
X141381091Y-35921097D01*
X141391475Y-35976335D01*
X141405782Y-36023369D01*
X141423197Y-36062953D01*
X141443454Y-36085192D01*
X141469565Y-36092425D01*
X141494208Y-36083231D01*
X141499617Y-36077799D01*
X141502932Y-36067002D01*
X141503584Y-36044415D01*
X141501423Y-36008125D01*
X141496301Y-35956217D01*
X141494979Y-35945061D01*
X142397485Y-35945061D01*
X142403458Y-36037253D01*
X142409504Y-36093354D01*
X142421109Y-36157469D01*
X142438672Y-36230759D01*
X142462594Y-36314389D01*
X142493273Y-36409521D01*
X142531111Y-36517319D01*
X142576507Y-36638945D01*
X142629860Y-36775563D01*
X142691571Y-36928337D01*
X142762040Y-37098428D01*
X142796201Y-37179713D01*
X142894272Y-37408552D01*
X143002515Y-37654362D01*
X143120338Y-37915888D01*
X143247147Y-38191878D01*
X143382350Y-38481077D01*
X143525353Y-38782233D01*
X143675563Y-39094091D01*
X143832387Y-39415398D01*
X143995232Y-39744900D01*
X144163504Y-40081343D01*
X144251931Y-40256599D01*
X144342575Y-40435068D01*
X144433825Y-40613473D01*
X144525076Y-40790691D01*
X144615725Y-40965597D01*
X144705165Y-41137068D01*
X144792793Y-41303980D01*
X144878003Y-41465208D01*
X144960192Y-41619630D01*
X145038754Y-41766120D01*
X145113085Y-41903555D01*
X145182581Y-42030810D01*
X145246636Y-42146763D01*
X145304646Y-42250289D01*
X145356007Y-42340265D01*
X145400113Y-42415565D01*
X145436361Y-42475067D01*
X145464145Y-42517646D01*
X145479232Y-42538001D01*
X145527917Y-42596902D01*
X145617876Y-42560905D01*
X145658748Y-42543971D01*
X145692305Y-42528994D01*
X145713503Y-42518274D01*
X145717733Y-42515387D01*
X145719498Y-42501215D01*
X145715920Y-42469430D01*
X145707632Y-42422726D01*
X145695267Y-42363797D01*
X145679456Y-42295337D01*
X145669937Y-42256849D01*
X146210542Y-42256849D01*
X146215834Y-42262141D01*
X146221126Y-42256849D01*
X146215834Y-42251557D01*
X146210542Y-42256849D01*
X145669937Y-42256849D01*
X145660832Y-42220039D01*
X145640028Y-42140598D01*
X145617676Y-42059705D01*
X145594407Y-41980056D01*
X145584220Y-41946672D01*
X145537291Y-41801463D01*
X145485261Y-41652968D01*
X145427643Y-41500203D01*
X145363950Y-41342183D01*
X145293695Y-41177926D01*
X145216392Y-41006445D01*
X145131553Y-40826758D01*
X145038692Y-40637879D01*
X144937323Y-40438825D01*
X144826957Y-40228612D01*
X144707109Y-40006255D01*
X144577291Y-39770769D01*
X144437016Y-39521171D01*
X144285799Y-39256477D01*
X144123151Y-38975702D01*
X144067802Y-38880915D01*
X143914107Y-38617400D01*
X143771200Y-38370692D01*
X143638515Y-38139733D01*
X143515488Y-37923467D01*
X143401552Y-37720836D01*
X143296143Y-37530783D01*
X143198694Y-37352250D01*
X143108641Y-37184180D01*
X143025418Y-37025516D01*
X142948459Y-36875201D01*
X142877200Y-36732177D01*
X142811075Y-36595388D01*
X142749518Y-36463775D01*
X142691964Y-36336281D01*
X142637847Y-36211850D01*
X142627794Y-36188201D01*
X142611649Y-36150266D01*
X142799788Y-36150266D01*
X142801987Y-36156830D01*
X142812829Y-36180206D01*
X142831309Y-36218361D01*
X142856428Y-36269263D01*
X142887182Y-36330882D01*
X142922570Y-36401185D01*
X142959004Y-36473057D01*
X143009935Y-36573244D01*
X143069265Y-36690011D01*
X143135826Y-36821057D01*
X143208449Y-36964080D01*
X143285967Y-37116779D01*
X143367212Y-37276853D01*
X143451017Y-37441999D01*
X143536213Y-37609917D01*
X143621634Y-37778305D01*
X143706110Y-37944861D01*
X143788476Y-38107284D01*
X143867562Y-38263273D01*
X143942201Y-38410526D01*
X144011225Y-38546741D01*
X144057125Y-38637349D01*
X144271468Y-39054910D01*
X144483742Y-39457190D01*
X144693607Y-39843613D01*
X144900727Y-40213605D01*
X145104761Y-40566593D01*
X145305374Y-40902002D01*
X145502225Y-41219257D01*
X145694976Y-41517786D01*
X145883290Y-41797013D01*
X146066828Y-42056365D01*
X146091468Y-42090161D01*
X146127396Y-42138862D01*
X146159046Y-42181017D01*
X146184316Y-42213888D01*
X146201109Y-42234739D01*
X146207193Y-42240974D01*
X146205543Y-42232827D01*
X146195431Y-42212012D01*
X146186510Y-42195995D01*
X146177302Y-42179613D01*
X146158765Y-42146217D01*
X146131751Y-42097350D01*
X146097108Y-42034556D01*
X146055688Y-41959378D01*
X146008341Y-41873360D01*
X145955916Y-41778047D01*
X145899264Y-41674982D01*
X145839234Y-41565710D01*
X145776678Y-41451773D01*
X145771277Y-41441932D01*
X145696292Y-41305503D01*
X145613142Y-41154553D01*
X145524010Y-40993027D01*
X145431080Y-40824870D01*
X145336534Y-40654026D01*
X145242556Y-40484439D01*
X145151328Y-40320055D01*
X145065034Y-40164816D01*
X144985856Y-40022669D01*
X144974661Y-40002599D01*
X144922295Y-39908848D01*
X144863201Y-39803248D01*
X144797952Y-39686812D01*
X144727122Y-39560556D01*
X144651284Y-39425497D01*
X144571011Y-39282648D01*
X144486876Y-39133027D01*
X144399453Y-38977648D01*
X144309315Y-38817526D01*
X144217036Y-38653677D01*
X144123188Y-38487117D01*
X144028344Y-38318861D01*
X143933079Y-38149924D01*
X143837966Y-37981322D01*
X143743577Y-37814071D01*
X143650486Y-37649185D01*
X143559266Y-37487680D01*
X143470490Y-37330572D01*
X143384733Y-37178875D01*
X143302566Y-37033607D01*
X143224564Y-36895781D01*
X143151299Y-36766413D01*
X143083346Y-36646520D01*
X143021276Y-36537115D01*
X142965664Y-36439215D01*
X142917083Y-36353836D01*
X142876105Y-36281992D01*
X142843305Y-36224699D01*
X142819255Y-36182972D01*
X142804530Y-36157827D01*
X142799788Y-36150266D01*
X142611649Y-36150266D01*
X142602640Y-36129099D01*
X142781542Y-36129099D01*
X142786834Y-36134391D01*
X142792126Y-36129099D01*
X142786834Y-36123807D01*
X142781542Y-36129099D01*
X142602640Y-36129099D01*
X142598577Y-36119555D01*
X142593499Y-36107932D01*
X142770959Y-36107932D01*
X142776251Y-36113224D01*
X142781542Y-36107932D01*
X142776251Y-36102641D01*
X142770959Y-36107932D01*
X142593499Y-36107932D01*
X142584250Y-36086766D01*
X142760376Y-36086766D01*
X142765667Y-36092057D01*
X142770959Y-36086766D01*
X142765667Y-36081474D01*
X142760376Y-36086766D01*
X142584250Y-36086766D01*
X142575904Y-36067668D01*
X142558201Y-36029755D01*
X142543892Y-36003028D01*
X142531401Y-35984701D01*
X142519154Y-35971986D01*
X142505574Y-35962096D01*
X142497028Y-35956888D01*
X142459777Y-35939493D01*
X142430175Y-35937063D01*
X142425386Y-35938058D01*
X142397485Y-35945061D01*
X141494979Y-35945061D01*
X141488070Y-35886779D01*
X141479648Y-35821153D01*
X141463988Y-35706409D01*
X141449733Y-35611887D01*
X141436708Y-35536700D01*
X141424737Y-35479963D01*
X141413646Y-35440790D01*
X141403261Y-35418295D01*
X141399268Y-35413770D01*
X141389865Y-35410199D01*
X141382479Y-35417983D01*
X141376916Y-35438786D01*
X141372981Y-35474273D01*
X141370481Y-35526108D01*
X141369223Y-35595957D01*
X141368990Y-35674016D01*
X140560970Y-35674016D01*
X140578339Y-35617518D01*
X140599130Y-35548667D01*
X140612126Y-35505070D01*
X140635182Y-35427080D01*
X140656056Y-35355918D01*
X140674042Y-35294036D01*
X140688435Y-35243880D01*
X140698528Y-35207902D01*
X140703617Y-35188549D01*
X140704069Y-35185876D01*
X140695215Y-35191357D01*
X140670323Y-35207874D01*
X140630796Y-35234469D01*
X140578040Y-35270188D01*
X140513458Y-35314075D01*
X140438455Y-35365176D01*
X140354436Y-35422534D01*
X140262804Y-35485194D01*
X140164966Y-35552201D01*
X140093376Y-35601292D01*
X139960086Y-35692500D01*
X139824116Y-35785054D01*
X139684544Y-35879563D01*
X139540447Y-35976634D01*
X139390902Y-36076873D01*
X139234988Y-36180889D01*
X139071781Y-36289289D01*
X138900361Y-36402680D01*
X138719803Y-36521669D01*
X138529186Y-36646863D01*
X138327588Y-36778871D01*
X138114086Y-36918299D01*
X137887758Y-37065755D01*
X137647681Y-37221846D01*
X137392934Y-37387180D01*
X137122593Y-37562363D01*
X136835737Y-37748004D01*
X136696126Y-37838278D01*
X136331442Y-38074340D01*
X135984044Y-38299873D01*
X135653162Y-38515399D01*
X135338029Y-38721440D01*
X135037877Y-38918519D01*
X134751940Y-39107158D01*
X134479449Y-39287882D01*
X134219637Y-39461211D01*
X133971736Y-39627668D01*
X133734979Y-39787777D01*
X133508598Y-39942060D01*
X133291825Y-40091039D01*
X133083894Y-40235237D01*
X132884036Y-40375177D01*
X132691483Y-40511381D01*
X132505469Y-40644372D01*
X132325225Y-40774673D01*
X132149985Y-40902806D01*
X131978979Y-41029294D01*
X131811442Y-41154660D01*
X131684917Y-41250301D01*
X131596896Y-41317526D01*
X131502957Y-41390002D01*
X131404400Y-41466677D01*
X131302523Y-41546498D01*
X131198626Y-41628415D01*
X131094009Y-41711376D01*
X130989971Y-41794329D01*
X130887811Y-41876223D01*
X130788829Y-41956005D01*
X130694325Y-42032626D01*
X130605597Y-42105033D01*
X130523945Y-42172173D01*
X130450668Y-42232997D01*
X130387066Y-42286452D01*
X130334439Y-42331487D01*
X130294085Y-42367050D01*
X130267305Y-42392090D01*
X130255397Y-42405554D01*
X130255061Y-42407437D01*
X127182468Y-42407437D01*
X127182483Y-42309766D01*
X127797753Y-41924035D01*
X128712398Y-41924035D01*
X128717613Y-41925617D01*
X128739337Y-41922834D01*
X128773505Y-41916288D01*
X128791773Y-41912294D01*
X128867906Y-41899536D01*
X128950841Y-41893120D01*
X129033340Y-41893124D01*
X129108165Y-41899629D01*
X129153057Y-41908337D01*
X129216829Y-41929496D01*
X129291937Y-41963080D01*
X129379824Y-42009793D01*
X129467709Y-42061600D01*
X129549119Y-42108479D01*
X129620589Y-42142571D01*
X129687482Y-42165710D01*
X129755165Y-42179727D01*
X129829001Y-42186458D01*
X129833740Y-42186670D01*
X129842789Y-42185092D01*
X129857112Y-42179299D01*
X129877828Y-42168562D01*
X129906059Y-42152156D01*
X129942924Y-42129352D01*
X129989544Y-42099425D01*
X130047040Y-42061646D01*
X130116531Y-42015290D01*
X130199139Y-41959629D01*
X130295984Y-41893936D01*
X130408186Y-41817484D01*
X130511073Y-41747188D01*
X130659273Y-41646039D01*
X130807708Y-41545143D01*
X130957424Y-41443811D01*
X131109468Y-41341354D01*
X131264883Y-41237082D01*
X131424717Y-41130306D01*
X131590014Y-41020337D01*
X131761820Y-40906485D01*
X131941180Y-40788061D01*
X132129140Y-40664376D01*
X132326746Y-40534741D01*
X132535042Y-40398466D01*
X132755076Y-40254861D01*
X132987891Y-40103239D01*
X133234534Y-39942909D01*
X133496051Y-39773181D01*
X133773486Y-39593368D01*
X134023834Y-39431284D01*
X134345908Y-39222792D01*
X134650956Y-39025186D01*
X134939776Y-38837937D01*
X135213166Y-38660517D01*
X135471924Y-38492396D01*
X135716849Y-38333046D01*
X135948739Y-38181938D01*
X136168393Y-38038542D01*
X136376609Y-37902332D01*
X136574185Y-37772776D01*
X136761919Y-37649347D01*
X136940611Y-37531516D01*
X137111057Y-37418754D01*
X137274058Y-37310532D01*
X137430410Y-37206321D01*
X137580913Y-37105593D01*
X137726364Y-37007818D01*
X137867562Y-36912468D01*
X138005306Y-36819013D01*
X138140393Y-36726926D01*
X138273622Y-36635677D01*
X138405792Y-36544738D01*
X138537701Y-36453579D01*
X138670147Y-36361672D01*
X138803928Y-36268488D01*
X138902751Y-36199450D01*
X138985299Y-36141470D01*
X139077098Y-36076554D01*
X139176801Y-36005681D01*
X139283062Y-35929830D01*
X139394536Y-35849980D01*
X139509876Y-35767109D01*
X139627736Y-35682197D01*
X139746770Y-35596221D01*
X139865633Y-35510162D01*
X139982978Y-35424998D01*
X140097460Y-35341708D01*
X140207731Y-35261271D01*
X140312448Y-35184665D01*
X140410262Y-35112869D01*
X140411754Y-35111769D01*
X141474675Y-35111769D01*
X141478983Y-35151146D01*
X141491508Y-35200430D01*
X141510898Y-35255508D01*
X141535806Y-35312265D01*
X141564881Y-35366588D01*
X141579535Y-35390007D01*
X141600480Y-35421164D01*
X141616302Y-35443712D01*
X141624024Y-35453427D01*
X141624309Y-35453507D01*
X141623365Y-35443068D01*
X141619376Y-35417010D01*
X141613151Y-35380524D01*
X141611701Y-35372391D01*
X141593855Y-35288079D01*
X141572803Y-35214099D01*
X141549602Y-35153310D01*
X141525308Y-35108574D01*
X141507692Y-35088309D01*
X141629487Y-35088309D01*
X141643526Y-35111817D01*
X141646480Y-35114241D01*
X141667089Y-35126947D01*
X141678882Y-35123980D01*
X141685035Y-35112233D01*
X141689822Y-35089415D01*
X141691459Y-35064608D01*
X141687543Y-35041274D01*
X141674085Y-35033766D01*
X141672409Y-35033724D01*
X141646216Y-35042157D01*
X141631146Y-35062720D01*
X141629487Y-35088309D01*
X141507692Y-35088309D01*
X141506217Y-35086613D01*
X141491052Y-35077508D01*
X141481216Y-35084414D01*
X141479933Y-35086413D01*
X141474675Y-35111769D01*
X140411754Y-35111769D01*
X140499828Y-35046863D01*
X140579801Y-34987625D01*
X140648835Y-34936134D01*
X140705582Y-34893369D01*
X140748698Y-34860308D01*
X140776836Y-34837932D01*
X140786584Y-34829457D01*
X140784516Y-34828292D01*
X140768042Y-34836042D01*
X140749542Y-34846106D01*
X140715870Y-34865111D01*
X140673956Y-34888792D01*
X140623075Y-34917558D01*
X140562506Y-34951819D01*
X140491524Y-34991984D01*
X140409407Y-35038463D01*
X140315431Y-35091665D01*
X140208873Y-35151999D01*
X140089011Y-35219876D01*
X139955120Y-35295704D01*
X139806478Y-35379894D01*
X139642361Y-35472854D01*
X139462046Y-35574994D01*
X139264811Y-35686723D01*
X139049931Y-35808452D01*
X139035042Y-35816887D01*
X138460093Y-36143363D01*
X137882999Y-36472567D01*
X137305005Y-36803763D01*
X136727355Y-37136218D01*
X136151296Y-37469199D01*
X135578072Y-37801971D01*
X135008928Y-38133801D01*
X134445109Y-38463956D01*
X133887861Y-38791701D01*
X133338429Y-39116303D01*
X132798057Y-39437027D01*
X132267991Y-39753142D01*
X131749476Y-40063912D01*
X131243758Y-40368603D01*
X130752080Y-40666484D01*
X130275689Y-40956818D01*
X129815829Y-41238873D01*
X129435959Y-41473370D01*
X129324040Y-41542707D01*
X129217278Y-41608913D01*
X129117047Y-41671130D01*
X129024723Y-41728501D01*
X128941684Y-41780169D01*
X128869304Y-41825277D01*
X128808959Y-41862967D01*
X128762027Y-41892384D01*
X128729881Y-41912669D01*
X128713900Y-41922966D01*
X128712398Y-41924035D01*
X127797753Y-41924035D01*
X127912382Y-41852171D01*
X128046388Y-41768203D01*
X128164846Y-41694135D01*
X128270116Y-41628585D01*
X128364561Y-41570173D01*
X128450541Y-41517517D01*
X128530417Y-41469234D01*
X128606550Y-41423944D01*
X128681303Y-41380265D01*
X128757035Y-41336816D01*
X128836108Y-41292214D01*
X128920884Y-41245079D01*
X129013722Y-41194028D01*
X129116986Y-41137681D01*
X129233034Y-41074655D01*
X129343391Y-41014855D01*
X129494479Y-40932896D01*
X129662504Y-40841516D01*
X129845898Y-40741575D01*
X130043097Y-40633936D01*
X130252535Y-40519459D01*
X130472646Y-40399006D01*
X130701866Y-40273438D01*
X130938629Y-40143616D01*
X131181368Y-40010402D01*
X131428519Y-39874657D01*
X131678517Y-39737243D01*
X131929795Y-39599020D01*
X132180788Y-39460849D01*
X132429931Y-39323593D01*
X132675659Y-39188113D01*
X132916405Y-39055269D01*
X133150604Y-38925924D01*
X133376690Y-38800938D01*
X133593099Y-38681173D01*
X133798265Y-38567490D01*
X133990622Y-38460750D01*
X134168604Y-38361815D01*
X134330647Y-38271546D01*
X134404834Y-38230136D01*
X134803439Y-38007038D01*
X135204162Y-37781908D01*
X135604858Y-37555967D01*
X136003384Y-37330437D01*
X136397597Y-37106539D01*
X136785351Y-36885496D01*
X137164503Y-36668528D01*
X137532910Y-36456858D01*
X137888427Y-36251706D01*
X138228910Y-36054294D01*
X138465670Y-35916396D01*
X138600233Y-35837669D01*
X138741711Y-35754539D01*
X138888918Y-35667723D01*
X139040667Y-35577936D01*
X139195770Y-35485895D01*
X139353041Y-35392315D01*
X139511292Y-35297913D01*
X139669337Y-35203404D01*
X139825990Y-35109505D01*
X139980062Y-35016931D01*
X140130368Y-34926398D01*
X140275720Y-34838623D01*
X140414932Y-34754321D01*
X140546816Y-34674208D01*
X140670186Y-34599000D01*
X140783855Y-34529414D01*
X140886635Y-34466164D01*
X140977341Y-34409968D01*
X141054784Y-34361541D01*
X141117779Y-34321599D01*
X141165138Y-34290858D01*
X141195675Y-34270034D01*
X141199334Y-34267364D01*
X141315916Y-34187902D01*
X141425614Y-34127960D01*
X141529256Y-34087346D01*
X141627668Y-34065867D01*
X141721679Y-34063330D01*
X141812115Y-34079544D01*
X141886230Y-34107658D01*
X141933749Y-34136473D01*
X141987301Y-34179347D01*
X142042415Y-34231963D01*
X142094617Y-34290006D01*
X142139435Y-34349158D01*
X142144770Y-34357138D01*
X142181958Y-34417323D01*
X142220720Y-34487352D01*
X142261651Y-34568577D01*
X142305351Y-34662355D01*
X142352416Y-34770037D01*
X142403444Y-34892980D01*
X142459032Y-35032537D01*
X142519778Y-35190063D01*
X142564619Y-35308891D01*
X142598813Y-35398768D01*
X142636495Y-35495340D01*
X142676355Y-35595438D01*
X142717080Y-35695893D01*
X142757359Y-35793535D01*
X142795881Y-35885195D01*
X142831334Y-35967705D01*
X142862407Y-36037895D01*
X142887788Y-36092597D01*
X142895302Y-36107932D01*
X142974709Y-36258066D01*
X143058278Y-36399906D01*
X143143794Y-36530014D01*
X143229044Y-36644952D01*
X143282364Y-36708875D01*
X143298402Y-36728195D01*
X143316761Y-36752487D01*
X143337825Y-36782427D01*
X143361979Y-36818693D01*
X143389608Y-36861962D01*
X143421096Y-36912912D01*
X143456828Y-36972218D01*
X143497188Y-37040560D01*
X143542562Y-37118614D01*
X143593333Y-37207057D01*
X143649887Y-37306567D01*
X143712608Y-37417820D01*
X143781881Y-37541495D01*
X143858091Y-37678268D01*
X143941621Y-37828816D01*
X144032858Y-37993818D01*
X144132185Y-38173950D01*
X144239986Y-38369889D01*
X144356648Y-38582313D01*
X144482554Y-38811898D01*
X144618089Y-39059324D01*
X144639112Y-39097724D01*
X144803777Y-39397691D01*
X144959606Y-39679815D01*
X145107243Y-39945177D01*
X145247336Y-40194856D01*
X145380531Y-40429933D01*
X145507473Y-40651489D01*
X145628809Y-40860605D01*
X145745184Y-41058359D01*
X145857246Y-41245834D01*
X145965638Y-41424110D01*
X146071009Y-41594266D01*
X146174004Y-41757384D01*
X146275268Y-41914544D01*
X146375449Y-42066827D01*
X146475191Y-42215312D01*
X146575142Y-42361081D01*
X146675946Y-42505214D01*
X146679894Y-42510803D01*
X146916175Y-42845196D01*
X146886027Y-43043147D01*
X146876765Y-43107903D01*
X146869325Y-43167708D01*
X146864123Y-43218537D01*
X146861571Y-43256364D01*
X146861994Y-43276674D01*
X146868110Y-43312249D01*
X146919805Y-43244924D01*
X146947048Y-43207817D01*
X146980727Y-43159551D01*
X147016140Y-43106965D01*
X147042501Y-43066474D01*
X147079979Y-43009499D01*
X147123720Y-42945734D01*
X147171105Y-42878742D01*
X147219518Y-42812087D01*
X147266339Y-42749333D01*
X147308953Y-42694044D01*
X147344740Y-42649783D01*
X147368000Y-42623322D01*
X147418943Y-42573999D01*
X147477739Y-42524362D01*
X147538757Y-42478668D01*
X147596365Y-42441173D01*
X147638213Y-42419033D01*
X147729156Y-42386425D01*
X147814805Y-42373562D01*
X147897626Y-42380667D01*
X147980087Y-42407963D01*
X148064656Y-42455673D01*
X148067917Y-42457874D01*
X148113163Y-42487166D01*
X148149255Y-42506261D01*
X148183453Y-42518327D01*
X148223019Y-42526531D01*
X148226667Y-42527121D01*
X148356930Y-42556577D01*
X148473410Y-42601105D01*
X148575447Y-42660391D01*
X148660817Y-42732533D01*
X148706652Y-42784807D01*
X148747568Y-42844457D01*
X148784055Y-42913115D01*
X148816603Y-42992409D01*
X148845700Y-43083970D01*
X148871836Y-43189427D01*
X148895500Y-43310412D01*
X148917182Y-43448553D01*
X148937370Y-43605480D01*
X148946125Y-43682907D01*
X148962874Y-43824364D01*
X148980583Y-43948501D01*
X148999931Y-44059164D01*
X149021596Y-44160197D01*
X149046257Y-44255447D01*
X149048625Y-44263790D01*
X149092880Y-44418648D01*
X149167774Y-44370706D01*
X149286811Y-44286772D01*
X149405464Y-44188685D01*
X149518129Y-44081631D01*
X149619205Y-43970795D01*
X149673516Y-43902557D01*
X149776567Y-43749308D01*
X149869577Y-43578832D01*
X149951829Y-43392908D01*
X150022608Y-43193312D01*
X150081197Y-42981821D01*
X150121160Y-42792482D01*
X150133931Y-42719781D01*
X150145108Y-42649850D01*
X150154828Y-42580576D01*
X150163231Y-42509851D01*
X150170454Y-42435565D01*
X150176635Y-42355608D01*
X150181912Y-42267870D01*
X150186423Y-42170240D01*
X150190307Y-42060610D01*
X150193700Y-41936869D01*
X150196742Y-41796908D01*
X150199571Y-41638615D01*
X150200520Y-41579516D01*
X150202781Y-41448026D01*
X150205519Y-41309794D01*
X150208638Y-41168593D01*
X150212040Y-41028196D01*
X150215628Y-40892376D01*
X150219306Y-40764905D01*
X150222975Y-40649557D01*
X150226539Y-40550105D01*
X150227902Y-40515891D01*
X150232166Y-40397097D01*
X150235582Y-40269649D01*
X150238166Y-40135901D01*
X150239932Y-39998205D01*
X150240896Y-39858913D01*
X150241072Y-39720378D01*
X150240475Y-39584953D01*
X150239121Y-39454991D01*
X150237024Y-39332844D01*
X150234199Y-39220865D01*
X150230662Y-39121407D01*
X150226426Y-39036823D01*
X150221508Y-38969464D01*
X150217836Y-38935118D01*
X150209885Y-38873143D01*
X150201411Y-38806825D01*
X150193630Y-38745691D01*
X150189471Y-38712868D01*
X150177258Y-38616182D01*
X150096786Y-38557974D01*
X149949299Y-38441975D01*
X149817827Y-38319266D01*
X149703666Y-38191296D01*
X149608113Y-38059511D01*
X149535384Y-37931346D01*
X149481421Y-37810149D01*
X149443254Y-37696634D01*
X149419773Y-37585747D01*
X149409867Y-37472434D01*
X149411460Y-37367349D01*
X149428068Y-37216839D01*
X149460470Y-37080014D01*
X149509045Y-36956053D01*
X149574173Y-36844137D01*
X149656232Y-36743446D01*
X149732923Y-36671595D01*
X149869495Y-36567911D01*
X150008360Y-36484242D01*
X150151875Y-36419437D01*
X150302395Y-36372344D01*
X150380376Y-36355203D01*
X150448767Y-36346305D01*
X150530472Y-36342187D01*
X150618262Y-36342677D01*
X150704909Y-36347603D01*
X150783181Y-36356791D01*
X150830167Y-36365919D01*
X150981804Y-36411912D01*
X151121273Y-36473339D01*
X151247517Y-36549380D01*
X151359479Y-36639214D01*
X151456105Y-36742021D01*
X151536335Y-36856980D01*
X151586134Y-36952946D01*
X151609310Y-37009998D01*
X151626863Y-37067113D01*
X151639450Y-37128458D01*
X151647729Y-37198202D01*
X151652357Y-37280510D01*
X151653991Y-37379550D01*
X151654002Y-37383224D01*
X151653921Y-37455544D01*
X151652951Y-37511828D01*
X151650626Y-37557200D01*
X151646479Y-37596788D01*
X151640044Y-37635716D01*
X151630854Y-37679111D01*
X151624627Y-37706016D01*
X151600215Y-37798509D01*
X151571562Y-37883476D01*
X151537147Y-37962939D01*
X151495447Y-38038925D01*
X151444940Y-38113457D01*
X151384101Y-38188562D01*
X151311410Y-38266263D01*
X151225344Y-38348587D01*
X151124379Y-38437557D01*
X151006994Y-38535199D01*
X150991985Y-38547391D01*
X150925299Y-38602366D01*
X150873238Y-38648175D01*
X150833300Y-38688088D01*
X150802981Y-38725375D01*
X150779781Y-38763309D01*
X150761196Y-38805159D01*
X150744724Y-38854198D01*
X150736971Y-38880766D01*
X150716817Y-38961673D01*
X150699043Y-39054218D01*
X150683518Y-39159746D01*
X150670112Y-39279602D01*
X150658695Y-39415132D01*
X150649138Y-39567683D01*
X150641309Y-39738599D01*
X150635081Y-39929227D01*
X150634843Y-39938035D01*
X150631006Y-40160486D01*
X150630895Y-40396150D01*
X150634336Y-40642205D01*
X150641151Y-40895828D01*
X150651167Y-41154196D01*
X150664207Y-41414487D01*
X150680096Y-41673878D01*
X150698658Y-41929547D01*
X150719719Y-42178670D01*
X150743103Y-42418426D01*
X150768634Y-42645991D01*
X150796137Y-42858543D01*
X150825437Y-43053259D01*
X150830243Y-43082349D01*
X150852947Y-43213896D01*
X150874080Y-43326625D01*
X150894345Y-43422761D01*
X150914448Y-43504529D01*
X150935094Y-43574154D01*
X150956985Y-43633863D01*
X150980827Y-43685880D01*
X151007323Y-43732431D01*
X151037179Y-43775741D01*
X151058193Y-43802564D01*
X151151488Y-43905400D01*
X151246684Y-43987883D01*
X151343473Y-44049831D01*
X151441549Y-44091064D01*
X151540604Y-44111402D01*
X151586876Y-44113692D01*
X151660609Y-44110473D01*
X151698933Y-44103641D01*
X159460876Y-44103641D01*
X159460876Y-44991519D01*
X159461012Y-45152992D01*
X159461414Y-45304136D01*
X159462067Y-45443704D01*
X159462956Y-45570443D01*
X159464070Y-45683105D01*
X159465393Y-45780439D01*
X159466911Y-45861196D01*
X159468612Y-45924126D01*
X159470482Y-45967978D01*
X159471824Y-45986087D01*
X159496001Y-46135504D01*
X159536512Y-46271489D01*
X159593400Y-46394124D01*
X159666707Y-46503493D01*
X159756479Y-46599678D01*
X159820162Y-46652532D01*
X159930159Y-46725336D01*
X160050779Y-46785448D01*
X160184059Y-46833604D01*
X160332039Y-46870539D01*
X160496756Y-46896990D01*
X160498042Y-46897148D01*
X160547035Y-46901104D01*
X160612248Y-46903384D01*
X160688918Y-46904099D01*
X160772283Y-46903360D01*
X160857579Y-46901277D01*
X160940045Y-46897961D01*
X161014917Y-46893522D01*
X161077433Y-46888072D01*
X161117167Y-46882750D01*
X161271890Y-46849771D01*
X161409529Y-46806697D01*
X161532080Y-46752604D01*
X161641538Y-46686564D01*
X161739899Y-46607650D01*
X161768739Y-46580141D01*
X161851365Y-46487238D01*
X161917569Y-46387799D01*
X161968643Y-46279020D01*
X162005880Y-46158100D01*
X162030571Y-46022237D01*
X162032255Y-46008918D01*
X162034282Y-45981203D01*
X162036130Y-45933309D01*
X162037789Y-45866225D01*
X162039248Y-45780938D01*
X162040496Y-45678437D01*
X162041522Y-45559708D01*
X162042315Y-45425740D01*
X162042864Y-45277521D01*
X162043159Y-45116038D01*
X162043209Y-45011439D01*
X162043209Y-44103641D01*
X162561792Y-44103641D01*
X162561792Y-46908224D01*
X163388917Y-46908224D01*
X163383412Y-46106536D01*
X163382448Y-45976734D01*
X163381380Y-45852061D01*
X163380232Y-45734293D01*
X163379028Y-45625204D01*
X163377792Y-45526567D01*
X163376548Y-45440158D01*
X163375320Y-45367750D01*
X163374131Y-45311118D01*
X163373005Y-45272036D01*
X163371967Y-45252279D01*
X163371929Y-45251932D01*
X163370685Y-45234446D01*
X163372805Y-45230367D01*
X163379035Y-45241184D01*
X163390122Y-45268385D01*
X163406811Y-45313460D01*
X163417034Y-45341891D01*
X163438934Y-45400838D01*
X163462180Y-45459560D01*
X163484183Y-45511740D01*
X163502356Y-45551062D01*
X163504434Y-45555156D01*
X163515866Y-45576074D01*
X163537054Y-45613560D01*
X163567027Y-45665935D01*
X163604811Y-45731522D01*
X163649435Y-45808641D01*
X163699926Y-45895614D01*
X163755312Y-45990762D01*
X163814621Y-46092409D01*
X163876881Y-46198874D01*
X163916459Y-46266433D01*
X164292167Y-46907319D01*
X164707563Y-46907771D01*
X165122959Y-46908224D01*
X165122959Y-44103641D01*
X165662709Y-44103641D01*
X165662709Y-46908224D01*
X166551709Y-46908224D01*
X166551709Y-46887057D01*
X168827126Y-46887057D01*
X168975292Y-46887057D01*
X168975292Y-46535934D01*
X169091441Y-46539517D01*
X169150429Y-46541935D01*
X169193033Y-46547041D01*
X169222164Y-46557914D01*
X169240738Y-46577633D01*
X169251668Y-46609279D01*
X169257867Y-46655931D01*
X169262210Y-46720031D01*
X169265774Y-46771848D01*
X169269782Y-46817086D01*
X169273745Y-46850904D01*
X169277176Y-46868464D01*
X169277204Y-46868536D01*
X169284552Y-46878281D01*
X169300155Y-46883958D01*
X169328604Y-46886548D01*
X169363848Y-46887057D01*
X169404073Y-46886600D01*
X169426976Y-46884559D01*
X169436395Y-46879936D01*
X169436167Y-46871728D01*
X169434845Y-46868536D01*
X169430788Y-46851082D01*
X169426000Y-46817412D01*
X169421088Y-46772437D01*
X169416809Y-46723016D01*
X169410135Y-46648871D01*
X169402302Y-46592757D01*
X169392385Y-46551541D01*
X169379456Y-46522086D01*
X169362591Y-46501260D01*
X169348018Y-46490182D01*
X169326269Y-46474681D01*
X169314848Y-46463324D01*
X169314367Y-46461941D01*
X169322212Y-46452372D01*
X169342174Y-46437515D01*
X169348355Y-46433568D01*
X169388117Y-46398431D01*
X169414013Y-46349920D01*
X169427095Y-46285986D01*
X169427698Y-46279182D01*
X169425819Y-46203281D01*
X169408417Y-46135866D01*
X169376941Y-46079496D01*
X169332840Y-46036730D01*
X169277560Y-46010128D01*
X169275020Y-46009404D01*
X169251742Y-46005851D01*
X169211439Y-46002754D01*
X169158253Y-46000305D01*
X169096325Y-45998695D01*
X169030855Y-45998116D01*
X168827126Y-45998057D01*
X168827126Y-46887057D01*
X166551709Y-46887057D01*
X166551709Y-46030017D01*
X166869209Y-46030017D01*
X166871676Y-46041981D01*
X166878635Y-46071791D01*
X166889420Y-46116765D01*
X166903368Y-46174219D01*
X166919813Y-46241472D01*
X166938092Y-46315840D01*
X166957538Y-46394640D01*
X166977488Y-46475191D01*
X166997278Y-46554808D01*
X167016241Y-46630809D01*
X167033715Y-46700512D01*
X167049033Y-46761234D01*
X167061532Y-46810292D01*
X167070547Y-46845003D01*
X167075413Y-46862684D01*
X167075762Y-46863753D01*
X167086674Y-46871792D01*
X167113695Y-46874952D01*
X167146551Y-46874337D01*
X167212500Y-46871182D01*
X167269640Y-46574849D01*
X167284638Y-46497145D01*
X167298555Y-46425184D01*
X167310823Y-46361893D01*
X167320875Y-46310195D01*
X167328142Y-46273015D01*
X167332057Y-46253279D01*
X167332309Y-46252057D01*
X167336378Y-46246927D01*
X167341992Y-46262607D01*
X167349061Y-46298807D01*
X167351753Y-46315557D01*
X167358197Y-46353456D01*
X167368164Y-46407376D01*
X167380746Y-46472638D01*
X167395039Y-46544566D01*
X167410136Y-46618481D01*
X167413772Y-46635961D01*
X167427704Y-46702921D01*
X167440052Y-46762683D01*
X167450198Y-46812221D01*
X167457524Y-46848510D01*
X167461412Y-46868522D01*
X167461876Y-46871441D01*
X167471514Y-46874047D01*
X167496654Y-46875866D01*
X167528126Y-46876474D01*
X167594377Y-46876474D01*
X167808427Y-46019224D01*
X167657281Y-46019224D01*
X167602061Y-46259995D01*
X167585901Y-46330918D01*
X167571013Y-46397128D01*
X167558175Y-46455099D01*
X167548164Y-46501303D01*
X167541758Y-46532212D01*
X167540130Y-46540946D01*
X167535179Y-46565662D01*
X167531108Y-46577767D01*
X167530322Y-46577988D01*
X167527486Y-46567203D01*
X167521062Y-46538390D01*
X167511628Y-46494275D01*
X167499759Y-46437583D01*
X167486031Y-46371040D01*
X167471020Y-46297371D01*
X167470952Y-46297036D01*
X167414679Y-46019224D01*
X167337937Y-46019224D01*
X167298018Y-46019757D01*
X167274395Y-46022295D01*
X167262209Y-46028241D01*
X167256599Y-46039000D01*
X167255551Y-46043036D01*
X167246368Y-46083485D01*
X167234893Y-46136614D01*
X167221943Y-46198348D01*
X167208338Y-46264615D01*
X167194898Y-46331340D01*
X167182440Y-46394451D01*
X167171785Y-46449873D01*
X167163751Y-46493532D01*
X167159157Y-46521356D01*
X167158733Y-46524578D01*
X167153672Y-46555579D01*
X167147827Y-46575748D01*
X167144282Y-46580141D01*
X167138588Y-46570662D01*
X167132565Y-46546437D01*
X167129557Y-46527661D01*
X167125023Y-46501570D01*
X167116364Y-46458877D01*
X167104438Y-46403551D01*
X167090108Y-46339561D01*
X167074234Y-46270876D01*
X167069986Y-46252849D01*
X167054525Y-46187262D01*
X167040861Y-46128818D01*
X167029702Y-46080586D01*
X167021756Y-46045632D01*
X167017730Y-46027024D01*
X167017376Y-46024870D01*
X167007686Y-46022087D01*
X166982187Y-46020070D01*
X166946233Y-46019228D01*
X166943292Y-46019224D01*
X166904366Y-46020660D01*
X166878263Y-46024556D01*
X166869209Y-46030017D01*
X166551709Y-46030017D01*
X166551709Y-45998057D01*
X168022792Y-45998057D01*
X168022792Y-46876474D01*
X168594292Y-46876474D01*
X168594292Y-46728307D01*
X168170959Y-46728307D01*
X168170959Y-46484891D01*
X168530792Y-46484891D01*
X168530792Y-46347307D01*
X168170959Y-46347307D01*
X168170959Y-46146224D01*
X168573126Y-46146224D01*
X168573126Y-45998057D01*
X168022792Y-45998057D01*
X166551709Y-45998057D01*
X166551709Y-44103641D01*
X169779626Y-44103641D01*
X169779626Y-46876474D01*
X170647459Y-46876474D01*
X170647459Y-45985163D01*
X170750646Y-45876573D01*
X170788318Y-45837724D01*
X170821220Y-45805285D01*
X170846482Y-45781973D01*
X170861236Y-45770504D01*
X170863403Y-45769793D01*
X170870387Y-45778965D01*
X170887206Y-45804770D01*
X170912897Y-45845637D01*
X170946499Y-45899994D01*
X170987050Y-45966268D01*
X171033588Y-46042887D01*
X171085151Y-46128279D01*
X171140778Y-46220872D01*
X171199507Y-46319093D01*
X171202070Y-46323390D01*
X171531167Y-46875176D01*
X172563187Y-46876474D01*
X172511933Y-46794453D01*
X172498582Y-46773103D01*
X172474922Y-46735285D01*
X172441874Y-46682470D01*
X172409899Y-46631375D01*
X172785292Y-46631375D01*
X172790690Y-46667477D01*
X172804619Y-46711859D01*
X172823680Y-46755317D01*
X172842382Y-46785989D01*
X172890473Y-46832361D01*
X172952156Y-46866130D01*
X173023386Y-46886394D01*
X173100114Y-46892251D01*
X173178295Y-46882797D01*
X173221190Y-46870483D01*
X173281434Y-46841470D01*
X173327515Y-46800225D01*
X173354106Y-46762011D01*
X173368429Y-46735326D01*
X173377141Y-46710599D01*
X173381594Y-46681100D01*
X173383141Y-46640100D01*
X173383251Y-46617074D01*
X173382316Y-46567103D01*
X173378864Y-46532443D01*
X173371927Y-46507294D01*
X173361583Y-46487493D01*
X173335542Y-46454350D01*
X173301222Y-46426556D01*
X173254865Y-46401855D01*
X173192715Y-46377995D01*
X173162864Y-46368267D01*
X173094738Y-46346350D01*
X173043898Y-46328562D01*
X173007201Y-46313503D01*
X172981501Y-46299771D01*
X172963654Y-46285964D01*
X172953857Y-46275134D01*
X172935631Y-46238532D01*
X172935848Y-46202476D01*
X172951883Y-46169585D01*
X172981113Y-46142473D01*
X173020916Y-46123759D01*
X173068667Y-46116057D01*
X173109977Y-46119422D01*
X173145727Y-46133196D01*
X173179502Y-46157835D01*
X173205690Y-46187937D01*
X173218679Y-46218103D01*
X173219209Y-46224541D01*
X173220156Y-46238825D01*
X173226053Y-46247046D01*
X173241479Y-46250877D01*
X173271015Y-46251993D01*
X173294470Y-46252057D01*
X173369731Y-46252057D01*
X173362425Y-46212370D01*
X173339649Y-46135524D01*
X173302561Y-46074255D01*
X173251304Y-46028676D01*
X173207375Y-46008641D01*
X173621376Y-46008641D01*
X173621376Y-46156807D01*
X173843626Y-46156807D01*
X173843626Y-46887057D01*
X173991792Y-46887057D01*
X173991792Y-46876714D01*
X174468377Y-46876714D01*
X174892877Y-46873948D01*
X175317378Y-46871182D01*
X175370535Y-46688505D01*
X175423692Y-46505827D01*
X175863568Y-46508588D01*
X176303445Y-46511349D01*
X176352804Y-46689069D01*
X176369141Y-46747185D01*
X176383773Y-46797910D01*
X176395689Y-46837845D01*
X176403879Y-46863590D01*
X176407127Y-46871753D01*
X176418447Y-46872771D01*
X176448656Y-46873582D01*
X176495479Y-46874176D01*
X176556637Y-46874541D01*
X176629856Y-46874665D01*
X176712858Y-46874536D01*
X176803367Y-46874143D01*
X176835021Y-46873949D01*
X177257952Y-46871182D01*
X176960674Y-46008641D01*
X177473709Y-46008641D01*
X177473709Y-46156807D01*
X177695959Y-46156807D01*
X177695959Y-46897641D01*
X177844126Y-46897641D01*
X177844126Y-46156807D01*
X178066376Y-46156807D01*
X178066376Y-46008641D01*
X177473709Y-46008641D01*
X176960674Y-46008641D01*
X176781101Y-45487618D01*
X176304251Y-44104055D01*
X175425791Y-44103641D01*
X177600709Y-44103641D01*
X177600709Y-44833891D01*
X178383876Y-44833891D01*
X178383876Y-46908224D01*
X179251709Y-46908224D01*
X179251709Y-44833891D01*
X180034876Y-44833891D01*
X180034876Y-44103641D01*
X177600709Y-44103641D01*
X175425791Y-44103641D01*
X175008545Y-45312786D01*
X174954099Y-45470562D01*
X174900695Y-45625307D01*
X174848839Y-45775553D01*
X174799038Y-45919833D01*
X174751800Y-46056677D01*
X174707632Y-46184618D01*
X174667039Y-46302187D01*
X174630531Y-46407916D01*
X174598612Y-46500336D01*
X174571791Y-46577980D01*
X174550574Y-46639378D01*
X174535468Y-46683063D01*
X174529839Y-46699323D01*
X174468377Y-46876714D01*
X173991792Y-46876714D01*
X173991792Y-46156807D01*
X174214042Y-46156807D01*
X174214042Y-46008641D01*
X173621376Y-46008641D01*
X173207375Y-46008641D01*
X173186020Y-45998902D01*
X173106851Y-45985046D01*
X173076524Y-45983980D01*
X172997151Y-45990649D01*
X172928342Y-46010584D01*
X172873604Y-46042705D01*
X172866574Y-46048732D01*
X172836342Y-46088183D01*
X172813756Y-46141640D01*
X172800209Y-46202886D01*
X172797094Y-46265707D01*
X172805314Y-46322113D01*
X172820170Y-46362462D01*
X172842535Y-46396198D01*
X172875044Y-46425132D01*
X172920333Y-46451075D01*
X172981035Y-46475836D01*
X173059785Y-46501226D01*
X173070595Y-46504407D01*
X173118934Y-46519645D01*
X173162127Y-46535291D01*
X173194521Y-46549188D01*
X173207831Y-46556786D01*
X173235124Y-46588774D01*
X173246133Y-46627740D01*
X173241640Y-46668139D01*
X173222425Y-46704426D01*
X173189269Y-46731055D01*
X173182888Y-46733980D01*
X173131202Y-46746820D01*
X173073224Y-46747844D01*
X173019993Y-46737035D01*
X173012726Y-46734236D01*
X172982060Y-46713866D01*
X172955008Y-46683300D01*
X172937294Y-46650039D01*
X172933498Y-46630411D01*
X172930632Y-46620582D01*
X172919173Y-46614947D01*
X172894757Y-46612417D01*
X172859376Y-46611891D01*
X172820239Y-46612544D01*
X172797808Y-46615283D01*
X172787640Y-46621275D01*
X172785292Y-46631375D01*
X172409899Y-46631375D01*
X172400359Y-46616132D01*
X172351300Y-46537744D01*
X172295619Y-46448777D01*
X172234236Y-46350704D01*
X172168073Y-46244998D01*
X172098053Y-46133132D01*
X172025096Y-46016579D01*
X171971273Y-45930594D01*
X171898019Y-45813508D01*
X171827964Y-45701415D01*
X171761926Y-45595631D01*
X171700724Y-45497474D01*
X171645176Y-45408259D01*
X171596100Y-45329304D01*
X171554316Y-45261926D01*
X171520642Y-45207441D01*
X171495897Y-45167166D01*
X171480899Y-45142418D01*
X171476442Y-45134618D01*
X171482575Y-45124331D01*
X171502595Y-45099754D01*
X171535662Y-45061806D01*
X171580939Y-45011404D01*
X171637587Y-44949463D01*
X171704768Y-44876903D01*
X171781643Y-44794640D01*
X171867375Y-44703590D01*
X171954101Y-44612061D01*
X172437186Y-44103641D01*
X171936552Y-44104082D01*
X171435917Y-44104524D01*
X170652751Y-45027560D01*
X170649993Y-44565600D01*
X170647236Y-44103641D01*
X169779626Y-44103641D01*
X166551709Y-44103641D01*
X165662709Y-44103641D01*
X165122959Y-44103641D01*
X164297459Y-44103641D01*
X164297459Y-44848644D01*
X164297625Y-44994155D01*
X164298110Y-45130612D01*
X164298894Y-45256485D01*
X164299957Y-45370243D01*
X164301280Y-45470354D01*
X164302841Y-45555287D01*
X164304622Y-45623511D01*
X164306603Y-45673494D01*
X164308562Y-45701846D01*
X164312753Y-45747310D01*
X164315271Y-45784333D01*
X164315853Y-45808266D01*
X164314949Y-45814761D01*
X164309913Y-45807415D01*
X164300001Y-45783861D01*
X164286779Y-45748053D01*
X164275664Y-45715621D01*
X164257138Y-45661748D01*
X164236986Y-45605974D01*
X164218516Y-45557366D01*
X164211858Y-45540788D01*
X164201791Y-45520150D01*
X164181907Y-45482881D01*
X164153125Y-45430595D01*
X164116359Y-45364906D01*
X164072527Y-45287427D01*
X164022545Y-45199771D01*
X163967329Y-45103552D01*
X163907796Y-45000383D01*
X163844862Y-44891879D01*
X163783577Y-44786725D01*
X163384532Y-44103641D01*
X162561792Y-44103641D01*
X162043209Y-44103641D01*
X161176145Y-44103641D01*
X161172916Y-45027036D01*
X161172321Y-45189301D01*
X161171725Y-45331772D01*
X161171097Y-45455826D01*
X161170407Y-45562837D01*
X161169624Y-45654179D01*
X161168719Y-45731226D01*
X161167662Y-45795352D01*
X161166422Y-45847933D01*
X161164969Y-45890342D01*
X161163273Y-45923955D01*
X161161304Y-45950144D01*
X161159031Y-45970286D01*
X161156425Y-45985753D01*
X161153455Y-45997921D01*
X161151469Y-46004263D01*
X161121424Y-46071981D01*
X161080905Y-46125922D01*
X161028291Y-46166954D01*
X160961963Y-46195949D01*
X160880300Y-46213776D01*
X160781684Y-46221305D01*
X160746751Y-46221683D01*
X160642076Y-46215400D01*
X160554131Y-46196668D01*
X160482099Y-46164882D01*
X160425162Y-46119432D01*
X160382505Y-46059712D01*
X160353310Y-45985112D01*
X160339707Y-45918682D01*
X160337815Y-45894580D01*
X160336065Y-45850544D01*
X160334473Y-45787805D01*
X160333052Y-45707595D01*
X160331817Y-45611147D01*
X160330782Y-45499691D01*
X160329960Y-45374461D01*
X160329366Y-45236687D01*
X160329014Y-45087602D01*
X160328918Y-44974120D01*
X160328709Y-44103641D01*
X159460876Y-44103641D01*
X151698933Y-44103641D01*
X151723588Y-44099246D01*
X151785442Y-44077701D01*
X151835584Y-44054048D01*
X151900751Y-44018880D01*
X151955089Y-43984227D01*
X152005228Y-43945154D01*
X152057800Y-43896719D01*
X152089584Y-43864883D01*
X152174251Y-43778374D01*
X152491751Y-43640463D01*
X152808131Y-43503040D01*
X153105315Y-43373960D01*
X153383523Y-43253127D01*
X153642970Y-43140448D01*
X153883875Y-43035827D01*
X154106455Y-42939171D01*
X154310927Y-42850385D01*
X154497510Y-42769374D01*
X154666421Y-42696044D01*
X154817876Y-42630302D01*
X154952095Y-42572051D01*
X155069294Y-42521198D01*
X155169691Y-42477649D01*
X155253503Y-42441308D01*
X155320948Y-42412082D01*
X155372244Y-42389876D01*
X155407609Y-42374596D01*
X155427258Y-42366147D01*
X155430895Y-42364605D01*
X155462978Y-42344650D01*
X155475174Y-42323692D01*
X155476242Y-42311175D01*
X155478561Y-42278393D01*
X155482077Y-42226206D01*
X155486734Y-42155475D01*
X155492478Y-42067060D01*
X155499255Y-41961823D01*
X155507011Y-41840625D01*
X155515691Y-41704325D01*
X155525241Y-41553785D01*
X155535606Y-41389866D01*
X155546731Y-41213428D01*
X155558564Y-41025333D01*
X155571048Y-40826441D01*
X155584130Y-40617612D01*
X155597756Y-40399708D01*
X155611870Y-40173589D01*
X155626419Y-39940116D01*
X155641348Y-39700150D01*
X155656602Y-39454552D01*
X155661012Y-39383474D01*
X155841882Y-36467766D01*
X155841469Y-31668224D01*
X156772709Y-31668224D01*
X156772709Y-33488557D01*
X157502959Y-33488557D01*
X157502959Y-31668224D01*
X156772709Y-31668224D01*
X155841469Y-31668224D01*
X155841376Y-30588724D01*
X158423709Y-30588724D01*
X158423980Y-33528245D01*
D11*
X144740000Y-72390000D02*
G75*
G03*
X144740000Y-72390000I-2500000J0D01*
G01*
X139680000Y-70845000D02*
X139680000Y-73935000D01*
X145230000Y-72389538D02*
G75*
G02*
X139680000Y-73934830I-2990000J-462D01*
G01*
X145230000Y-72390462D02*
G75*
G03*
X139680000Y-70845170I-2990000J462D01*
G01*
X167600000Y-80010000D02*
G75*
G03*
X167600000Y-80010000I-2500000J0D01*
G01*
X162540000Y-78465000D02*
X162540000Y-81555000D01*
X168090000Y-80009538D02*
G75*
G02*
X162540000Y-81554830I-2990000J-462D01*
G01*
X168090000Y-80010462D02*
G75*
G03*
X162540000Y-78465170I-2990000J462D01*
G01*
X159980000Y-80010000D02*
G75*
G03*
X159980000Y-80010000I-2500000J0D01*
G01*
X154920000Y-78465000D02*
X154920000Y-81555000D01*
X160470000Y-80009538D02*
G75*
G02*
X154920000Y-81554830I-2990000J-462D01*
G01*
X160470000Y-80010462D02*
G75*
G03*
X154920000Y-78465170I-2990000J462D01*
G01*
X152360000Y-80010000D02*
G75*
G03*
X152360000Y-80010000I-2500000J0D01*
G01*
X147300000Y-78465000D02*
X147300000Y-81555000D01*
X152850000Y-80009538D02*
G75*
G02*
X147300000Y-81554830I-2990000J-462D01*
G01*
X152850000Y-80010462D02*
G75*
G03*
X147300000Y-78465170I-2990000J462D01*
G01*
X144740000Y-80010000D02*
G75*
G03*
X144740000Y-80010000I-2500000J0D01*
G01*
X139680000Y-78465000D02*
X139680000Y-81555000D01*
X145230000Y-80009538D02*
G75*
G02*
X139680000Y-81554830I-2990000J-462D01*
G01*
X145230000Y-80010462D02*
G75*
G03*
X139680000Y-78465170I-2990000J462D01*
G01*
X167600000Y-72390000D02*
G75*
G03*
X167600000Y-72390000I-2500000J0D01*
G01*
X162540000Y-70845000D02*
X162540000Y-73935000D01*
X168090000Y-72389538D02*
G75*
G02*
X162540000Y-73934830I-2990000J-462D01*
G01*
X168090000Y-72390462D02*
G75*
G03*
X162540000Y-70845170I-2990000J462D01*
G01*
X159980000Y-72390000D02*
G75*
G03*
X159980000Y-72390000I-2500000J0D01*
G01*
X154920000Y-70845000D02*
X154920000Y-73935000D01*
X160470000Y-72389538D02*
G75*
G02*
X154920000Y-73934830I-2990000J-462D01*
G01*
X160470000Y-72390462D02*
G75*
G03*
X154920000Y-70845170I-2990000J462D01*
G01*
X152360000Y-72390000D02*
G75*
G03*
X152360000Y-72390000I-2500000J0D01*
G01*
X147300000Y-70845000D02*
X147300000Y-73935000D01*
X152850000Y-72389538D02*
G75*
G02*
X147300000Y-73934830I-2990000J-462D01*
G01*
X152850000Y-72390462D02*
G75*
G03*
X147300000Y-70845170I-2990000J462D01*
G01*
X167600000Y-64770000D02*
G75*
G03*
X167600000Y-64770000I-2500000J0D01*
G01*
X162540000Y-63225000D02*
X162540000Y-66315000D01*
X168090000Y-64769538D02*
G75*
G02*
X162540000Y-66314830I-2990000J-462D01*
G01*
X168090000Y-64770462D02*
G75*
G03*
X162540000Y-63225170I-2990000J462D01*
G01*
X159980000Y-64770000D02*
G75*
G03*
X159980000Y-64770000I-2500000J0D01*
G01*
X154920000Y-63225000D02*
X154920000Y-66315000D01*
X160470000Y-64769538D02*
G75*
G02*
X154920000Y-66314830I-2990000J-462D01*
G01*
X160470000Y-64770462D02*
G75*
G03*
X154920000Y-63225170I-2990000J462D01*
G01*
X152360000Y-64770000D02*
G75*
G03*
X152360000Y-64770000I-2500000J0D01*
G01*
X147300000Y-63225000D02*
X147300000Y-66315000D01*
X152850000Y-64769538D02*
G75*
G02*
X147300000Y-66314830I-2990000J-462D01*
G01*
X152850000Y-64770462D02*
G75*
G03*
X147300000Y-63225170I-2990000J462D01*
G01*
X144740000Y-64770000D02*
G75*
G03*
X144740000Y-64770000I-2500000J0D01*
G01*
X139680000Y-63225000D02*
X139680000Y-66315000D01*
X145230000Y-64769538D02*
G75*
G02*
X139680000Y-66314830I-2990000J-462D01*
G01*
X145230000Y-64770462D02*
G75*
G03*
X139680000Y-63225170I-2990000J462D01*
G01*
X167600000Y-57150000D02*
G75*
G03*
X167600000Y-57150000I-2500000J0D01*
G01*
X162540000Y-55605000D02*
X162540000Y-58695000D01*
X168090000Y-57149538D02*
G75*
G02*
X162540000Y-58694830I-2990000J-462D01*
G01*
X168090000Y-57150462D02*
G75*
G03*
X162540000Y-55605170I-2990000J462D01*
G01*
X159980000Y-57150000D02*
G75*
G03*
X159980000Y-57150000I-2500000J0D01*
G01*
X154920000Y-55605000D02*
X154920000Y-58695000D01*
X160470000Y-57149538D02*
G75*
G02*
X154920000Y-58694830I-2990000J-462D01*
G01*
X160470000Y-57150462D02*
G75*
G03*
X154920000Y-55605170I-2990000J462D01*
G01*
X152360000Y-57150000D02*
G75*
G03*
X152360000Y-57150000I-2500000J0D01*
G01*
X147300000Y-55605000D02*
X147300000Y-58695000D01*
X152850000Y-57149538D02*
G75*
G02*
X147300000Y-58694830I-2990000J-462D01*
G01*
X152850000Y-57150462D02*
G75*
G03*
X147300000Y-55605170I-2990000J462D01*
G01*
X144740000Y-57150000D02*
G75*
G03*
X144740000Y-57150000I-2500000J0D01*
G01*
X139680000Y-55605000D02*
X139680000Y-58695000D01*
X145230000Y-57149538D02*
G75*
G02*
X139680000Y-58694830I-2990000J-462D01*
G01*
X145230000Y-57150462D02*
G75*
G03*
X139680000Y-55605170I-2990000J462D01*
G01*
X148720000Y-86360000D02*
X148020000Y-86360000D01*
X150120000Y-87030000D02*
X148720000Y-86360000D01*
X148720000Y-88900000D02*
X148020000Y-88900000D01*
X150120000Y-88230000D02*
X148720000Y-88900000D01*
X150120000Y-85930000D02*
X150120000Y-89330000D01*
X161020000Y-85930000D02*
X150120000Y-85930000D01*
X161020000Y-89330000D02*
X161020000Y-85930000D01*
X150120000Y-89330000D02*
X161020000Y-89330000D01*
X161230000Y-93870000D02*
X161230000Y-95520000D01*
X179130000Y-93870000D02*
X161230000Y-93870000D01*
X179130000Y-99170000D02*
X179130000Y-93870000D01*
X161230000Y-99170000D02*
X179130000Y-99170000D01*
X161230000Y-97520000D02*
X161230000Y-99170000D01*
X161230000Y-95520000D02*
G75*
G02*
X161230000Y-97520000I0J-1000000D01*
G01*
X146110000Y-99170000D02*
X146110000Y-97520000D01*
X135830000Y-99170000D02*
X146110000Y-99170000D01*
X135830000Y-93870000D02*
X135830000Y-99170000D01*
X146110000Y-93870000D02*
X135830000Y-93870000D01*
X146110000Y-95520000D02*
X146110000Y-93870000D01*
X146110000Y-97520000D02*
G75*
G02*
X146110000Y-95520000I0J1000000D01*
G01*
X155980000Y-96955000D02*
X151440000Y-96955000D01*
X155980000Y-94815000D02*
X151440000Y-94815000D01*
X155980000Y-96955000D02*
X155980000Y-96940000D01*
X155980000Y-94830000D02*
X155980000Y-94815000D01*
X151440000Y-96955000D02*
X151440000Y-96940000D01*
X151440000Y-94830000D02*
X151440000Y-94815000D01*
X139930000Y-85290000D02*
X144470000Y-85290000D01*
X139930000Y-87430000D02*
X144470000Y-87430000D01*
X139930000Y-85290000D02*
X139930000Y-85305000D01*
X139930000Y-87415000D02*
X139930000Y-87430000D01*
X144470000Y-85290000D02*
X144470000Y-85305000D01*
X144470000Y-87415000D02*
X144470000Y-87430000D01*
X144470000Y-90224000D02*
X139930000Y-90224000D01*
X144470000Y-88084000D02*
X139930000Y-88084000D01*
X144470000Y-90224000D02*
X144470000Y-90209000D01*
X144470000Y-88099000D02*
X144470000Y-88084000D01*
X139930000Y-90224000D02*
X139930000Y-90209000D01*
X139930000Y-88099000D02*
X139930000Y-88084000D01*
X155980000Y-93780000D02*
X151440000Y-93780000D01*
X155980000Y-91640000D02*
X151440000Y-91640000D01*
X155980000Y-93780000D02*
X155980000Y-93765000D01*
X155980000Y-91655000D02*
X155980000Y-91640000D01*
X151440000Y-93780000D02*
X151440000Y-93765000D01*
X151440000Y-91655000D02*
X151440000Y-91640000D01*
D15*
X173926666Y-57554761D02*
X174069523Y-57602380D01*
X174307619Y-57602380D01*
X174402857Y-57554761D01*
X174450476Y-57507142D01*
X174498095Y-57411904D01*
X174498095Y-57316666D01*
X174450476Y-57221428D01*
X174402857Y-57173809D01*
X174307619Y-57126190D01*
X174117142Y-57078571D01*
X174021904Y-57030952D01*
X173974285Y-56983333D01*
X173926666Y-56888095D01*
X173926666Y-56792857D01*
X173974285Y-56697619D01*
X174021904Y-56650000D01*
X174117142Y-56602380D01*
X174355238Y-56602380D01*
X174498095Y-56650000D01*
X174831428Y-56602380D02*
X175069523Y-57602380D01*
X175260000Y-56888095D01*
X175450476Y-57602380D01*
X175688571Y-56602380D01*
X175974285Y-56602380D02*
X176593333Y-56602380D01*
X176260000Y-56983333D01*
X176402857Y-56983333D01*
X176498095Y-57030952D01*
X176545714Y-57078571D01*
X176593333Y-57173809D01*
X176593333Y-57411904D01*
X176545714Y-57507142D01*
X176498095Y-57554761D01*
X176402857Y-57602380D01*
X176117142Y-57602380D01*
X176021904Y-57554761D01*
X175974285Y-57507142D01*
X173926666Y-68984761D02*
X174069523Y-69032380D01*
X174307619Y-69032380D01*
X174402857Y-68984761D01*
X174450476Y-68937142D01*
X174498095Y-68841904D01*
X174498095Y-68746666D01*
X174450476Y-68651428D01*
X174402857Y-68603809D01*
X174307619Y-68556190D01*
X174117142Y-68508571D01*
X174021904Y-68460952D01*
X173974285Y-68413333D01*
X173926666Y-68318095D01*
X173926666Y-68222857D01*
X173974285Y-68127619D01*
X174021904Y-68080000D01*
X174117142Y-68032380D01*
X174355238Y-68032380D01*
X174498095Y-68080000D01*
X174831428Y-68032380D02*
X175069523Y-69032380D01*
X175260000Y-68318095D01*
X175450476Y-69032380D01*
X175688571Y-68032380D01*
X176021904Y-68127619D02*
X176069523Y-68080000D01*
X176164761Y-68032380D01*
X176402857Y-68032380D01*
X176498095Y-68080000D01*
X176545714Y-68127619D01*
X176593333Y-68222857D01*
X176593333Y-68318095D01*
X176545714Y-68460952D01*
X175974285Y-69032380D01*
X176593333Y-69032380D01*
X173926666Y-81049761D02*
X174069523Y-81097380D01*
X174307619Y-81097380D01*
X174402857Y-81049761D01*
X174450476Y-81002142D01*
X174498095Y-80906904D01*
X174498095Y-80811666D01*
X174450476Y-80716428D01*
X174402857Y-80668809D01*
X174307619Y-80621190D01*
X174117142Y-80573571D01*
X174021904Y-80525952D01*
X173974285Y-80478333D01*
X173926666Y-80383095D01*
X173926666Y-80287857D01*
X173974285Y-80192619D01*
X174021904Y-80145000D01*
X174117142Y-80097380D01*
X174355238Y-80097380D01*
X174498095Y-80145000D01*
X174831428Y-80097380D02*
X175069523Y-81097380D01*
X175260000Y-80383095D01*
X175450476Y-81097380D01*
X175688571Y-80097380D01*
X176593333Y-81097380D02*
X176021904Y-81097380D01*
X176307619Y-81097380D02*
X176307619Y-80097380D01*
X176212380Y-80240238D01*
X176117142Y-80335476D01*
X176021904Y-80383095D01*
X132532380Y-96432666D02*
X132056190Y-96766000D01*
X132532380Y-97004095D02*
X131532380Y-97004095D01*
X131532380Y-96623142D01*
X131580000Y-96527904D01*
X131627619Y-96480285D01*
X131722857Y-96432666D01*
X131865714Y-96432666D01*
X131960952Y-96480285D01*
X132008571Y-96527904D01*
X132056190Y-96623142D01*
X132056190Y-97004095D01*
X131532380Y-95575523D02*
X131532380Y-95766000D01*
X131580000Y-95861238D01*
X131627619Y-95908857D01*
X131770476Y-96004095D01*
X131960952Y-96051714D01*
X132341904Y-96051714D01*
X132437142Y-96004095D01*
X132484761Y-95956476D01*
X132532380Y-95861238D01*
X132532380Y-95670761D01*
X132484761Y-95575523D01*
X132437142Y-95527904D01*
X132341904Y-95480285D01*
X132103809Y-95480285D01*
X132008571Y-95527904D01*
X131960952Y-95575523D01*
X131913333Y-95670761D01*
X131913333Y-95861238D01*
X131960952Y-95956476D01*
X132008571Y-96004095D01*
X132103809Y-96051714D01*
X153503333Y-99512380D02*
X153170000Y-99036190D01*
X152931904Y-99512380D02*
X152931904Y-98512380D01*
X153312857Y-98512380D01*
X153408095Y-98560000D01*
X153455714Y-98607619D01*
X153503333Y-98702857D01*
X153503333Y-98845714D01*
X153455714Y-98940952D01*
X153408095Y-98988571D01*
X153312857Y-99036190D01*
X152931904Y-99036190D01*
X153836666Y-98512380D02*
X154503333Y-98512380D01*
X154074761Y-99512380D01*
X174617142Y-63317380D02*
X174283809Y-62841190D01*
X174045714Y-63317380D02*
X174045714Y-62317380D01*
X174426666Y-62317380D01*
X174521904Y-62365000D01*
X174569523Y-62412619D01*
X174617142Y-62507857D01*
X174617142Y-62650714D01*
X174569523Y-62745952D01*
X174521904Y-62793571D01*
X174426666Y-62841190D01*
X174045714Y-62841190D01*
X175569523Y-63317380D02*
X174998095Y-63317380D01*
X175283809Y-63317380D02*
X175283809Y-62317380D01*
X175188571Y-62460238D01*
X175093333Y-62555476D01*
X174998095Y-62603095D01*
X176188571Y-62317380D02*
X176283809Y-62317380D01*
X176379047Y-62365000D01*
X176426666Y-62412619D01*
X176474285Y-62507857D01*
X176521904Y-62698333D01*
X176521904Y-62936428D01*
X176474285Y-63126904D01*
X176426666Y-63222142D01*
X176379047Y-63269761D01*
X176283809Y-63317380D01*
X176188571Y-63317380D01*
X176093333Y-63269761D01*
X176045714Y-63222142D01*
X175998095Y-63126904D01*
X175950476Y-62936428D01*
X175950476Y-62698333D01*
X175998095Y-62507857D01*
X176045714Y-62412619D01*
X176093333Y-62365000D01*
X176188571Y-62317380D01*
X175093333Y-74747380D02*
X174760000Y-74271190D01*
X174521904Y-74747380D02*
X174521904Y-73747380D01*
X174902857Y-73747380D01*
X174998095Y-73795000D01*
X175045714Y-73842619D01*
X175093333Y-73937857D01*
X175093333Y-74080714D01*
X175045714Y-74175952D01*
X174998095Y-74223571D01*
X174902857Y-74271190D01*
X174521904Y-74271190D01*
X175569523Y-74747380D02*
X175760000Y-74747380D01*
X175855238Y-74699761D01*
X175902857Y-74652142D01*
X175998095Y-74509285D01*
X176045714Y-74318809D01*
X176045714Y-73937857D01*
X175998095Y-73842619D01*
X175950476Y-73795000D01*
X175855238Y-73747380D01*
X175664761Y-73747380D01*
X175569523Y-73795000D01*
X175521904Y-73842619D01*
X175474285Y-73937857D01*
X175474285Y-74175952D01*
X175521904Y-74271190D01*
X175569523Y-74318809D01*
X175664761Y-74366428D01*
X175855238Y-74366428D01*
X175950476Y-74318809D01*
X175998095Y-74271190D01*
X176045714Y-74175952D01*
X133183333Y-80378380D02*
X132850000Y-79902190D01*
X132611904Y-80378380D02*
X132611904Y-79378380D01*
X132992857Y-79378380D01*
X133088095Y-79426000D01*
X133135714Y-79473619D01*
X133183333Y-79568857D01*
X133183333Y-79711714D01*
X133135714Y-79806952D01*
X133088095Y-79854571D01*
X132992857Y-79902190D01*
X132611904Y-79902190D01*
X134040476Y-79711714D02*
X134040476Y-80378380D01*
X133802380Y-79330761D02*
X133564285Y-80045047D01*
X134183333Y-80045047D01*
X175093333Y-86177380D02*
X174760000Y-85701190D01*
X174521904Y-86177380D02*
X174521904Y-85177380D01*
X174902857Y-85177380D01*
X174998095Y-85225000D01*
X175045714Y-85272619D01*
X175093333Y-85367857D01*
X175093333Y-85510714D01*
X175045714Y-85605952D01*
X174998095Y-85653571D01*
X174902857Y-85701190D01*
X174521904Y-85701190D01*
X175664761Y-85605952D02*
X175569523Y-85558333D01*
X175521904Y-85510714D01*
X175474285Y-85415476D01*
X175474285Y-85367857D01*
X175521904Y-85272619D01*
X175569523Y-85225000D01*
X175664761Y-85177380D01*
X175855238Y-85177380D01*
X175950476Y-85225000D01*
X175998095Y-85272619D01*
X176045714Y-85367857D01*
X176045714Y-85415476D01*
X175998095Y-85510714D01*
X175950476Y-85558333D01*
X175855238Y-85605952D01*
X175664761Y-85605952D01*
X175569523Y-85653571D01*
X175521904Y-85701190D01*
X175474285Y-85796428D01*
X175474285Y-85986904D01*
X175521904Y-86082142D01*
X175569523Y-86129761D01*
X175664761Y-86177380D01*
X175855238Y-86177380D01*
X175950476Y-86129761D01*
X175998095Y-86082142D01*
X176045714Y-85986904D01*
X176045714Y-85796428D01*
X175998095Y-85701190D01*
X175950476Y-85653571D01*
X175855238Y-85605952D01*
X133183333Y-72758380D02*
X132850000Y-72282190D01*
X132611904Y-72758380D02*
X132611904Y-71758380D01*
X132992857Y-71758380D01*
X133088095Y-71806000D01*
X133135714Y-71853619D01*
X133183333Y-71948857D01*
X133183333Y-72091714D01*
X133135714Y-72186952D01*
X133088095Y-72234571D01*
X132992857Y-72282190D01*
X132611904Y-72282190D01*
X133516666Y-71758380D02*
X134135714Y-71758380D01*
X133802380Y-72139333D01*
X133945238Y-72139333D01*
X134040476Y-72186952D01*
X134088095Y-72234571D01*
X134135714Y-72329809D01*
X134135714Y-72567904D01*
X134088095Y-72663142D01*
X134040476Y-72710761D01*
X133945238Y-72758380D01*
X133659523Y-72758380D01*
X133564285Y-72710761D01*
X133516666Y-72663142D01*
X133183333Y-88082380D02*
X132850000Y-87606190D01*
X132611904Y-88082380D02*
X132611904Y-87082380D01*
X132992857Y-87082380D01*
X133088095Y-87130000D01*
X133135714Y-87177619D01*
X133183333Y-87272857D01*
X133183333Y-87415714D01*
X133135714Y-87510952D01*
X133088095Y-87558571D01*
X132992857Y-87606190D01*
X132611904Y-87606190D01*
X134088095Y-87082380D02*
X133611904Y-87082380D01*
X133564285Y-87558571D01*
X133611904Y-87510952D01*
X133707142Y-87463333D01*
X133945238Y-87463333D01*
X134040476Y-87510952D01*
X134088095Y-87558571D01*
X134135714Y-87653809D01*
X134135714Y-87891904D01*
X134088095Y-87987142D01*
X134040476Y-88034761D01*
X133945238Y-88082380D01*
X133707142Y-88082380D01*
X133611904Y-88034761D01*
X133564285Y-87987142D01*
X133183333Y-65138380D02*
X132850000Y-64662190D01*
X132611904Y-65138380D02*
X132611904Y-64138380D01*
X132992857Y-64138380D01*
X133088095Y-64186000D01*
X133135714Y-64233619D01*
X133183333Y-64328857D01*
X133183333Y-64471714D01*
X133135714Y-64566952D01*
X133088095Y-64614571D01*
X132992857Y-64662190D01*
X132611904Y-64662190D01*
X133564285Y-64233619D02*
X133611904Y-64186000D01*
X133707142Y-64138380D01*
X133945238Y-64138380D01*
X134040476Y-64186000D01*
X134088095Y-64233619D01*
X134135714Y-64328857D01*
X134135714Y-64424095D01*
X134088095Y-64566952D01*
X133516666Y-65138380D01*
X134135714Y-65138380D01*
X133183333Y-57518380D02*
X132850000Y-57042190D01*
X132611904Y-57518380D02*
X132611904Y-56518380D01*
X132992857Y-56518380D01*
X133088095Y-56566000D01*
X133135714Y-56613619D01*
X133183333Y-56708857D01*
X133183333Y-56851714D01*
X133135714Y-56946952D01*
X133088095Y-56994571D01*
X132992857Y-57042190D01*
X132611904Y-57042190D01*
X134135714Y-57518380D02*
X133564285Y-57518380D01*
X133850000Y-57518380D02*
X133850000Y-56518380D01*
X133754761Y-56661238D01*
X133659523Y-56756476D01*
X133564285Y-56804095D01*
X155733809Y-87606190D02*
X155733809Y-88082380D01*
X155400476Y-87082380D02*
X155733809Y-87606190D01*
X156067142Y-87082380D01*
X156924285Y-88082380D02*
X156352857Y-88082380D01*
X156638571Y-88082380D02*
X156638571Y-87082380D01*
X156543333Y-87225238D01*
X156448095Y-87320476D01*
X156352857Y-87368095D01*
X169418095Y-95972380D02*
X169418095Y-96781904D01*
X169465714Y-96877142D01*
X169513333Y-96924761D01*
X169608571Y-96972380D01*
X169799047Y-96972380D01*
X169894285Y-96924761D01*
X169941904Y-96877142D01*
X169989523Y-96781904D01*
X169989523Y-95972380D01*
X170418095Y-96067619D02*
X170465714Y-96020000D01*
X170560952Y-95972380D01*
X170799047Y-95972380D01*
X170894285Y-96020000D01*
X170941904Y-96067619D01*
X170989523Y-96162857D01*
X170989523Y-96258095D01*
X170941904Y-96400952D01*
X170370476Y-96972380D01*
X170989523Y-96972380D01*
X140208095Y-95972380D02*
X140208095Y-96781904D01*
X140255714Y-96877142D01*
X140303333Y-96924761D01*
X140398571Y-96972380D01*
X140589047Y-96972380D01*
X140684285Y-96924761D01*
X140731904Y-96877142D01*
X140779523Y-96781904D01*
X140779523Y-95972380D01*
X141779523Y-96972380D02*
X141208095Y-96972380D01*
X141493809Y-96972380D02*
X141493809Y-95972380D01*
X141398571Y-96115238D01*
X141303333Y-96210476D01*
X141208095Y-96258095D01*
X153543333Y-96242142D02*
X153495714Y-96289761D01*
X153352857Y-96337380D01*
X153257619Y-96337380D01*
X153114761Y-96289761D01*
X153019523Y-96194523D01*
X152971904Y-96099285D01*
X152924285Y-95908809D01*
X152924285Y-95765952D01*
X152971904Y-95575476D01*
X153019523Y-95480238D01*
X153114761Y-95385000D01*
X153257619Y-95337380D01*
X153352857Y-95337380D01*
X153495714Y-95385000D01*
X153543333Y-95432619D01*
X154400476Y-95670714D02*
X154400476Y-96337380D01*
X154162380Y-95289761D02*
X153924285Y-96004047D01*
X154543333Y-96004047D01*
X142033333Y-86717142D02*
X141985714Y-86764761D01*
X141842857Y-86812380D01*
X141747619Y-86812380D01*
X141604761Y-86764761D01*
X141509523Y-86669523D01*
X141461904Y-86574285D01*
X141414285Y-86383809D01*
X141414285Y-86240952D01*
X141461904Y-86050476D01*
X141509523Y-85955238D01*
X141604761Y-85860000D01*
X141747619Y-85812380D01*
X141842857Y-85812380D01*
X141985714Y-85860000D01*
X142033333Y-85907619D01*
X142985714Y-86812380D02*
X142414285Y-86812380D01*
X142700000Y-86812380D02*
X142700000Y-85812380D01*
X142604761Y-85955238D01*
X142509523Y-86050476D01*
X142414285Y-86098095D01*
X142033333Y-89511142D02*
X141985714Y-89558761D01*
X141842857Y-89606380D01*
X141747619Y-89606380D01*
X141604761Y-89558761D01*
X141509523Y-89463523D01*
X141461904Y-89368285D01*
X141414285Y-89177809D01*
X141414285Y-89034952D01*
X141461904Y-88844476D01*
X141509523Y-88749238D01*
X141604761Y-88654000D01*
X141747619Y-88606380D01*
X141842857Y-88606380D01*
X141985714Y-88654000D01*
X142033333Y-88701619D01*
X142414285Y-88701619D02*
X142461904Y-88654000D01*
X142557142Y-88606380D01*
X142795238Y-88606380D01*
X142890476Y-88654000D01*
X142938095Y-88701619D01*
X142985714Y-88796857D01*
X142985714Y-88892095D01*
X142938095Y-89034952D01*
X142366666Y-89606380D01*
X142985714Y-89606380D01*
X153503333Y-93067142D02*
X153455714Y-93114761D01*
X153312857Y-93162380D01*
X153217619Y-93162380D01*
X153074761Y-93114761D01*
X152979523Y-93019523D01*
X152931904Y-92924285D01*
X152884285Y-92733809D01*
X152884285Y-92590952D01*
X152931904Y-92400476D01*
X152979523Y-92305238D01*
X153074761Y-92210000D01*
X153217619Y-92162380D01*
X153312857Y-92162380D01*
X153455714Y-92210000D01*
X153503333Y-92257619D01*
X153836666Y-92162380D02*
X154455714Y-92162380D01*
X154122380Y-92543333D01*
X154265238Y-92543333D01*
X154360476Y-92590952D01*
X154408095Y-92638571D01*
X154455714Y-92733809D01*
X154455714Y-92971904D01*
X154408095Y-93067142D01*
X154360476Y-93114761D01*
X154265238Y-93162380D01*
X153979523Y-93162380D01*
X153884285Y-93114761D01*
X153836666Y-93067142D01*
%LPC*%
D16*
X172010000Y-59400000D03*
X172010000Y-54900000D03*
X178510000Y-59400000D03*
X178510000Y-54900000D03*
X172010000Y-70830000D03*
X172010000Y-66330000D03*
X178510000Y-70830000D03*
X178510000Y-66330000D03*
X172010000Y-82260000D03*
X172010000Y-77760000D03*
X178510000Y-82260000D03*
X178510000Y-77760000D03*
D17*
X166370000Y-87630000D03*
D18*
X163830000Y-87630000D03*
D19*
X132080000Y-91440000D03*
D20*
X132080000Y-101600000D03*
D19*
X148590000Y-99060000D03*
D20*
X158750000Y-99060000D03*
D19*
X179070000Y-62865000D03*
D20*
X171450000Y-62865000D03*
D19*
X179070000Y-74295000D03*
D20*
X171450000Y-74295000D03*
D19*
X137160000Y-80010000D03*
D20*
X129540000Y-80010000D03*
D19*
X179070000Y-85725000D03*
D20*
X171450000Y-85725000D03*
D19*
X137160000Y-72390000D03*
D20*
X129540000Y-72390000D03*
D19*
X137160000Y-87630000D03*
D20*
X129540000Y-87630000D03*
D19*
X137160000Y-64770000D03*
D20*
X129540000Y-64770000D03*
D19*
X137160000Y-57150000D03*
D20*
X129540000Y-57150000D03*
D17*
X143510000Y-72390000D03*
D18*
X140970000Y-72390000D03*
D17*
X166370000Y-80010000D03*
D18*
X163830000Y-80010000D03*
D17*
X158750000Y-80010000D03*
D18*
X156210000Y-80010000D03*
D17*
X151130000Y-80010000D03*
D18*
X148590000Y-80010000D03*
D17*
X143510000Y-80010000D03*
D18*
X140970000Y-80010000D03*
D17*
X166370000Y-72390000D03*
D18*
X163830000Y-72390000D03*
D17*
X158750000Y-72390000D03*
D18*
X156210000Y-72390000D03*
D17*
X151130000Y-72390000D03*
D18*
X148590000Y-72390000D03*
D17*
X166370000Y-64770000D03*
D18*
X163830000Y-64770000D03*
D17*
X158750000Y-64770000D03*
D18*
X156210000Y-64770000D03*
D17*
X151130000Y-64770000D03*
D18*
X148590000Y-64770000D03*
D17*
X143510000Y-64770000D03*
D18*
X140970000Y-64770000D03*
D17*
X166370000Y-57150000D03*
D18*
X163830000Y-57150000D03*
D17*
X158750000Y-57150000D03*
D18*
X156210000Y-57150000D03*
D17*
X151130000Y-57150000D03*
D18*
X148590000Y-57150000D03*
D17*
X143510000Y-57150000D03*
D18*
X140970000Y-57150000D03*
D21*
X147320000Y-88900000D03*
X147320000Y-86360000D03*
D20*
X162560000Y-100330000D03*
D19*
X177800000Y-92710000D03*
X165100000Y-100330000D03*
X175260000Y-92710000D03*
X167640000Y-100330000D03*
X172720000Y-92710000D03*
X170180000Y-100330000D03*
X170180000Y-92710000D03*
X172720000Y-100330000D03*
X167640000Y-92710000D03*
X175260000Y-100330000D03*
X165100000Y-92710000D03*
X177800000Y-100330000D03*
X162560000Y-92710000D03*
D22*
X144780000Y-92710000D03*
D19*
X137160000Y-100330000D03*
X142240000Y-92710000D03*
X139700000Y-100330000D03*
X139700000Y-92710000D03*
X142240000Y-100330000D03*
X137160000Y-92710000D03*
X144780000Y-100330000D03*
D20*
X151210000Y-95885000D03*
X156210000Y-95885000D03*
X144700000Y-86360000D03*
X139700000Y-86360000D03*
X139700000Y-89154000D03*
X144700000Y-89154000D03*
X151210000Y-92710000D03*
X156210000Y-92710000D03*
M02*
