M48
; DRILL file {KiCad 5.1.8-5.1.8} date Thu Jan 13 22:28:57 2022
; FORMAT={-:-/ absolute / metric / decimal}
; #@! TF.CreationDate,2022-01-13T22:28:57+01:00
; #@! TF.GenerationSoftware,Kicad,Pcbnew,5.1.8-5.1.8
; #@! TF.FileFunction,Plated,1,2,PTH
FMAT,2
METRIC
T1C0.400
T2C0.500
T3C0.800
T4C0.900
T5C1.100
%
G90
G05
T1
X128.27Y-49.53
X135.255Y-95.885
X135.255Y-99.695
X137.795Y-60.96
X137.795Y-68.58
X137.795Y-76.2
X144.78Y-95.885
X152.4Y-49.53
X153.67Y-53.34
X153.67Y-60.96
X153.67Y-68.58
X153.67Y-76.2
X156.845Y-46.355
X158.75Y-95.504
X160.02Y-91.44
X161.29Y-48.26
X167.425Y-76.2
X169.545Y-60.96
X169.545Y-68.58
X169.545Y-76.2
X172.72Y-96.52
T2
X147.32Y-86.36
X147.32Y-88.9
T3
X162.56Y-92.71
X162.56Y-100.33
X165.1Y-92.71
X165.1Y-100.33
X167.64Y-92.71
X167.64Y-100.33
X170.18Y-92.71
X170.18Y-100.33
X172.72Y-92.71
X172.72Y-100.33
X175.26Y-92.71
X175.26Y-100.33
X177.8Y-92.71
X177.8Y-100.33
X171.45Y-62.865
X179.07Y-62.865
X129.54Y-80.01
X137.16Y-80.01
X171.45Y-85.725
X179.07Y-85.725
X129.54Y-72.39
X137.16Y-72.39
X151.21Y-92.71
X156.21Y-92.71
X132.08Y-91.44
X132.08Y-101.6
X139.7Y-86.36
X144.7Y-86.36
X129.54Y-57.15
X137.16Y-57.15
X151.21Y-95.885
X156.21Y-95.885
X129.54Y-87.63
X137.16Y-87.63
X139.7Y-89.154
X144.7Y-89.154
X137.16Y-92.71
X137.16Y-100.33
X139.7Y-92.71
X139.7Y-100.33
X142.24Y-92.71
X142.24Y-100.33
X144.78Y-92.71
X144.78Y-100.33
X171.45Y-74.295
X179.07Y-74.295
X129.54Y-64.77
X137.16Y-64.77
X148.59Y-99.06
X158.75Y-99.06
T4
X140.97Y-72.39
X143.51Y-72.39
X163.83Y-57.15
X166.37Y-57.15
X156.21Y-57.15
X158.75Y-57.15
X140.97Y-80.01
X143.51Y-80.01
X156.21Y-64.77
X158.75Y-64.77
X148.59Y-64.77
X151.13Y-64.77
X148.59Y-80.01
X151.13Y-80.01
X156.21Y-80.01
X158.75Y-80.01
X148.59Y-57.15
X151.13Y-57.15
X140.97Y-64.77
X143.51Y-64.77
X163.83Y-64.77
X166.37Y-64.77
X163.83Y-87.63
X166.37Y-87.63
X163.83Y-72.39
X166.37Y-72.39
X156.21Y-72.39
X158.75Y-72.39
X163.83Y-80.01
X166.37Y-80.01
X148.59Y-72.39
X151.13Y-72.39
X140.97Y-57.15
X143.51Y-57.15
T5
X172.01Y-66.33
X172.01Y-70.83
X178.51Y-66.33
X178.51Y-70.83
X172.01Y-77.76
X172.01Y-82.26
X178.51Y-77.76
X178.51Y-82.26
X172.01Y-54.9
X172.01Y-59.4
X178.51Y-54.9
X178.51Y-59.4
T0
M30
