%TF.GenerationSoftware,KiCad,Pcbnew,5.1.8-5.1.8*%
%TF.CreationDate,2022-04-19T11:37:40+02:00*%
%TF.ProjectId,usb_binary_clk,7573625f-6269-46e6-9172-795f636c6b2e,rev?*%
%TF.SameCoordinates,Original*%
%TF.FileFunction,Profile,NP*%
%FSLAX46Y46*%
G04 Gerber Fmt 4.6, Leading zero omitted, Abs format (unit mm)*
G04 Created by KiCad (PCBNEW 5.1.8-5.1.8) date 2022-04-19 11:37:40*
%MOMM*%
%LPD*%
G01*
G04 APERTURE LIST*
%TA.AperFunction,Profile*%
%ADD10C,0.100000*%
%TD*%
G04 APERTURE END LIST*
D10*
X171497617Y-34606418D02*
X171823817Y-34522538D01*
X175896017Y-37509198D02*
X175913617Y-37857198D01*
X175502717Y-36234698D02*
X175646117Y-36532298D01*
X175136317Y-35692048D02*
X175332317Y-35954098D01*
X174916617Y-35450328D02*
X175136317Y-35692048D01*
X170887317Y-34864208D02*
X171184917Y-34720868D01*
X172857817Y-34470958D02*
X173195817Y-34522538D01*
X170606717Y-35034698D02*
X170887317Y-34864208D01*
X175913617Y-37857198D02*
X175913117Y-37943698D01*
X174412917Y-35034698D02*
X174674917Y-35230648D01*
X175646117Y-36532298D02*
X175760517Y-36844998D01*
X173834717Y-34720868D02*
X174132217Y-34864208D01*
X173522017Y-34606418D02*
X173834717Y-34720868D01*
X172161817Y-34470958D02*
X172509817Y-34453388D01*
X175844417Y-37171198D02*
X175896017Y-37509198D01*
X175760517Y-36844998D02*
X175844417Y-37171198D01*
X173195817Y-34522538D02*
X173522017Y-34606418D01*
X171184917Y-34720868D02*
X171497617Y-34606418D01*
X175332317Y-35954098D02*
X175502717Y-36234698D01*
X172509817Y-34453388D02*
X172857817Y-34470958D01*
X174674917Y-35230648D02*
X174916617Y-35450328D01*
X174132217Y-34864208D02*
X174412917Y-35034698D01*
X171823817Y-34522538D02*
X172161817Y-34470958D01*
X164266217Y-36136898D02*
X164325617Y-36074798D01*
X163727617Y-37623198D02*
X163869617Y-37187198D01*
X164007917Y-36755898D02*
X164140817Y-36386598D01*
X162672517Y-37584698D02*
X162914317Y-37990598D01*
X163129917Y-38276998D02*
X163221617Y-38356798D01*
X163584017Y-38006298D02*
X163727617Y-37623198D01*
X164204617Y-36243198D02*
X164266217Y-36136898D01*
X163512117Y-38160198D02*
X163584017Y-38006298D01*
X161482017Y-35986798D02*
X161574117Y-35920198D01*
X163299317Y-38384398D02*
X163369517Y-38356398D01*
X163026617Y-38152498D02*
X163129917Y-38276998D01*
X161774117Y-35854348D02*
X161845517Y-35961498D01*
X162424717Y-37119198D02*
X162672517Y-37584698D01*
X161991117Y-36247798D02*
X162424717Y-37119198D01*
X161671417Y-35875538D02*
X161774117Y-35854348D01*
X163869617Y-37187198D02*
X164007917Y-36755898D01*
X163440617Y-38279198D02*
X163512117Y-38160198D01*
X161574117Y-35920198D02*
X161671417Y-35875538D01*
X164140817Y-36386598D02*
X164204617Y-36243198D01*
X161845517Y-35961498D02*
X161991117Y-36247798D01*
X163369517Y-38356398D02*
X163440617Y-38279198D01*
X162914317Y-37990598D02*
X163026617Y-38152498D01*
X163221617Y-38356798D02*
X163299317Y-38384398D01*
X142253216Y-33128328D02*
X142404516Y-33205068D01*
X145525916Y-37411998D02*
X145927716Y-38049898D01*
X143205216Y-33963468D02*
X143444916Y-34304548D01*
X142689616Y-33405318D02*
X142955016Y-33660918D01*
X145927716Y-38049898D02*
X146750316Y-39372998D01*
X141386316Y-33020478D02*
X141576316Y-33001768D01*
X142549816Y-33297748D02*
X142689616Y-33405318D01*
X143444916Y-34304548D02*
X143678616Y-34675768D01*
X147674616Y-40748398D02*
X148075416Y-41258098D01*
X143910816Y-35068718D02*
X144388716Y-35886178D01*
X147219716Y-40093698D02*
X147674616Y-40748398D01*
X141930216Y-33026868D02*
X142095316Y-33068578D01*
X141576316Y-33001768D02*
X141757416Y-33004248D01*
X144915016Y-36689698D02*
X145207616Y-37065198D01*
X144643516Y-36293898D02*
X144915016Y-36689698D01*
X146750316Y-39372998D02*
X147219716Y-40093698D01*
X144388716Y-35886178D02*
X144643516Y-36293898D01*
X145207616Y-37065198D02*
X145525916Y-37411998D01*
X142095316Y-33068578D02*
X142253216Y-33128328D01*
X142955016Y-33660918D02*
X143205216Y-33963468D01*
X143678616Y-34675768D02*
X143910816Y-35068718D01*
X142404516Y-33205068D02*
X142549816Y-33297748D01*
X141757416Y-33004248D02*
X141930216Y-33026868D01*
X155441616Y-35458598D02*
X155479216Y-34526488D01*
X153935516Y-27847918D02*
X154013416Y-27704468D01*
X154410616Y-29837308D02*
X154332716Y-29693708D01*
X154294616Y-28758738D02*
X154231716Y-28649838D01*
X154335616Y-28996568D02*
X154329116Y-28869138D01*
X155487916Y-30969688D02*
X155475516Y-30557248D01*
X155383716Y-36402398D02*
X155441616Y-35458598D01*
X155051216Y-39038598D02*
X155192116Y-38218898D01*
X154266516Y-29364708D02*
X154314616Y-29156578D01*
X155111216Y-30210318D02*
X154940916Y-30193048D01*
X155505716Y-32065548D02*
X155487916Y-30969688D01*
X156930316Y-27463808D02*
X157089016Y-27368148D01*
X156786616Y-27599098D02*
X156930316Y-27463808D01*
X154116616Y-27579468D02*
X154241616Y-27476328D01*
X156661516Y-27754198D02*
X156786616Y-27599098D01*
X155311616Y-27754198D02*
X155492916Y-28044628D01*
X154283616Y-29535038D02*
X154266516Y-29364708D01*
X154329116Y-28869138D02*
X154294616Y-28758738D01*
X156480216Y-28044628D02*
X156661516Y-27754198D01*
X154385016Y-27398418D02*
X154543516Y-27349148D01*
X156413716Y-28176648D02*
X156480216Y-28044628D01*
X155559416Y-28176648D02*
X156413716Y-28176648D01*
X155499916Y-33632588D02*
X155505716Y-32065548D01*
X154638816Y-30065718D02*
X154513716Y-29962448D01*
X154940916Y-30193048D02*
X154782316Y-30143718D01*
X155042816Y-27463808D02*
X155186416Y-27599098D01*
X155301716Y-37331298D02*
X155383716Y-36402398D01*
X154713716Y-27331908D02*
X154800216Y-27341358D01*
X154231716Y-28649838D02*
X154140116Y-28526878D01*
X155192116Y-38218898D02*
X155301716Y-37331298D01*
X155492916Y-28044628D02*
X155559416Y-28176648D01*
X155186416Y-27599098D02*
X155311616Y-27754198D01*
X154800216Y-27341358D02*
X154884116Y-27368148D01*
X154884116Y-27368148D02*
X155042816Y-27463808D01*
X154241616Y-27476328D02*
X154385016Y-27398418D01*
X155475516Y-30557248D02*
X155111216Y-30210318D01*
X153886216Y-28006448D02*
X153935516Y-27847918D01*
X154513716Y-29962448D02*
X154410616Y-29837308D01*
X153869016Y-28176648D02*
X153886216Y-28006448D01*
X154013416Y-27704468D02*
X154116616Y-27579468D01*
X154140116Y-28526878D02*
X153869016Y-28176648D01*
X154314616Y-29156578D02*
X154335616Y-28996568D01*
X155479216Y-34526488D02*
X155499916Y-33632588D01*
X154332716Y-29693708D02*
X154283616Y-29535038D01*
X154543516Y-27349148D02*
X154713716Y-27331908D01*
X154782316Y-30143718D02*
X154638816Y-30065718D01*
X159941117Y-40118098D02*
X159995017Y-40100198D01*
X159694816Y-39765298D02*
X159785617Y-39954998D01*
X159407616Y-38717198D02*
X159536716Y-39293998D01*
X159304916Y-38055298D02*
X159407616Y-38717198D01*
X160281417Y-39551798D02*
X160456217Y-38885698D01*
X161090517Y-36590398D02*
X161234417Y-36301298D01*
X160456217Y-38885698D02*
X160638117Y-38100698D01*
X161394917Y-36073498D02*
X161482017Y-35986798D01*
X160096517Y-39994898D02*
X160191217Y-39807698D01*
X159611916Y-39544098D02*
X159694816Y-39765298D01*
X159536716Y-39293998D02*
X159611916Y-39544098D01*
X159225816Y-37328798D02*
X159304916Y-38055298D01*
X159128116Y-35764008D02*
X159167816Y-36558298D01*
X159884717Y-40110698D02*
X159941117Y-40118098D01*
X160961017Y-36927898D02*
X161090517Y-36590398D01*
X160046817Y-40058598D02*
X160096517Y-39994898D01*
X159785617Y-39954998D02*
X159884717Y-40110698D01*
X160191217Y-39807698D02*
X160281417Y-39551798D01*
X160638117Y-38100698D02*
X160843817Y-37300798D01*
X159995017Y-40100198D02*
X160046817Y-40058598D01*
X160843817Y-37300798D02*
X160961017Y-36927898D01*
X159167816Y-36558298D02*
X159225816Y-37328798D01*
X161234417Y-36301298D02*
X161394917Y-36073498D01*
X166330417Y-36014598D02*
X166459917Y-36173098D01*
X164873217Y-36364198D02*
X165105117Y-36547498D01*
X166265317Y-35965198D02*
X166330417Y-36014598D01*
X166140917Y-35959098D02*
X166202217Y-35948098D01*
X165733617Y-36460798D02*
X165849117Y-36284598D01*
X166202217Y-35948098D02*
X166265317Y-35965198D01*
X165228017Y-36629998D02*
X165359417Y-36699598D01*
X165849117Y-36284598D02*
X165964017Y-36117498D01*
X165554017Y-36666798D02*
X165615217Y-36611598D01*
X165105117Y-36547498D02*
X165228017Y-36629998D01*
X164515817Y-36118298D02*
X164640117Y-36189698D01*
X165491317Y-36702698D02*
X165554017Y-36666798D01*
X164382317Y-36064198D02*
X164515817Y-36118298D01*
X165359417Y-36699598D02*
X165426517Y-36715098D01*
X164640117Y-36189698D02*
X164873217Y-36364198D01*
X165964017Y-36117498D02*
X166080917Y-35993898D01*
X165615217Y-36611598D02*
X165733617Y-36460798D01*
X166702217Y-36606498D02*
X166816117Y-36861598D01*
X166583717Y-36373698D02*
X166702217Y-36606498D01*
X164325617Y-36074798D02*
X164382317Y-36064198D01*
X166080917Y-35993898D02*
X166140917Y-35959098D01*
X166459917Y-36173098D02*
X166583717Y-36373698D01*
X165426517Y-36715098D02*
X165491317Y-36702698D01*
X152587916Y-36506798D02*
X152692716Y-36741398D01*
X154773316Y-40082798D02*
X154875416Y-39763898D01*
X152123816Y-39937398D02*
X152117916Y-40290498D01*
X150092116Y-35527268D02*
X150329016Y-35500808D01*
X153396316Y-41647998D02*
X153531416Y-41563598D01*
X153113416Y-41768398D02*
X153256216Y-41718398D01*
X152692716Y-41735098D02*
X152829316Y-41782998D01*
X154875416Y-39763898D02*
X154967916Y-39414698D01*
X154538316Y-40616698D02*
X154661116Y-40368198D01*
X150806516Y-35510598D02*
X151042416Y-35545408D01*
X152271516Y-36127698D02*
X152423316Y-36280298D01*
X154404616Y-40824998D02*
X154538316Y-40616698D01*
X153973416Y-41208898D02*
X154102416Y-41107798D01*
X152726016Y-37497198D02*
X152669416Y-37767198D01*
X152153416Y-40655098D02*
X152238016Y-41031498D01*
X152100616Y-35989798D02*
X152271516Y-36127698D01*
X153776816Y-41377298D02*
X153973416Y-41208898D01*
X153256216Y-41718398D02*
X153396316Y-41647998D01*
X152970316Y-41791998D02*
X153113416Y-41768398D01*
X152333216Y-41296598D02*
X152442316Y-41498098D01*
X152163316Y-39595598D02*
X152123816Y-39937398D01*
X152117916Y-40290498D02*
X152153416Y-40655098D01*
X151042416Y-35545408D02*
X151273416Y-35599208D01*
X152311816Y-38944798D02*
X152228516Y-39264798D01*
X152501316Y-38335998D02*
X152311816Y-38944798D01*
X151497116Y-35671258D02*
X151711116Y-35760868D01*
X151711116Y-35760868D02*
X151913016Y-35867288D01*
X152745416Y-36984498D02*
X152753916Y-37236398D01*
X153531416Y-41563598D02*
X153776816Y-41377298D01*
X151273416Y-35599208D02*
X151497116Y-35671258D01*
X151913016Y-35867288D02*
X152100616Y-35989798D01*
X152562916Y-41642198D02*
X152692716Y-41735098D01*
X150329016Y-35500808D02*
X150567916Y-35495498D01*
X152442316Y-41498098D02*
X152562916Y-41642198D01*
X152669416Y-37767198D02*
X152501316Y-38335998D01*
X152423316Y-36280298D02*
X152587916Y-36506798D01*
X154967916Y-39414698D02*
X155051216Y-39038598D01*
X154259416Y-40989798D02*
X154404616Y-40824998D01*
X154102416Y-41107798D02*
X154259416Y-40989798D01*
X152753916Y-37236398D02*
X152726016Y-37497198D01*
X150567916Y-35495498D02*
X150806516Y-35510598D01*
X152829316Y-41782998D02*
X152970316Y-41791998D01*
X152238016Y-41031498D02*
X152333216Y-41296598D01*
X154661116Y-40368198D02*
X154773316Y-40082798D01*
X152228516Y-39264798D02*
X152163316Y-39595598D01*
X152692716Y-36741398D02*
X152745416Y-36984498D01*
X148687516Y-37199198D02*
X148731416Y-36789998D01*
X148662616Y-37656298D02*
X148687516Y-37199198D01*
X148652416Y-38146498D02*
X148662616Y-37656298D01*
X148618516Y-41233998D02*
X148650216Y-40935298D01*
X148242916Y-41433798D02*
X148382016Y-41543598D01*
X148669016Y-40135198D02*
X148657916Y-39165398D01*
X148531016Y-41512898D02*
X148566316Y-41444998D01*
X148650216Y-40935298D02*
X148669016Y-40135198D01*
X149634116Y-35646478D02*
X149859716Y-35575588D01*
X149021116Y-36001898D02*
X149212416Y-35858898D01*
X148439416Y-41564098D02*
X148488916Y-41553198D01*
X148566316Y-41444998D02*
X148618516Y-41233998D01*
X149859716Y-35575588D02*
X150092116Y-35527268D01*
X149417516Y-35740678D02*
X149634116Y-35646478D01*
X148488916Y-41553198D02*
X148531016Y-41512898D01*
X148953116Y-36076498D02*
X149021116Y-36001898D01*
X148657916Y-39165398D02*
X148652416Y-38146498D01*
X149212416Y-35858898D02*
X149417516Y-35740678D01*
X148893816Y-36176298D02*
X148953116Y-36076498D01*
X148798716Y-36444098D02*
X148893816Y-36176298D01*
X148382016Y-41543598D02*
X148439416Y-41564098D01*
X148731416Y-36789998D02*
X148798716Y-36444098D01*
X148075416Y-41258098D02*
X148242916Y-41433798D01*
X159974417Y-27348998D02*
X160133017Y-27398168D01*
X159717717Y-27341438D02*
X159804017Y-27331908D01*
X160229017Y-28710178D02*
X160171717Y-28833908D01*
X160276617Y-27476018D02*
X160401817Y-27579158D01*
X158959316Y-28176648D02*
X159025716Y-28044698D01*
X157345716Y-27341438D02*
X157429516Y-27368278D01*
X157731616Y-27599308D02*
X157856616Y-27754378D01*
X160401817Y-27579158D02*
X160505017Y-27704188D01*
X160649617Y-28176648D02*
X160533117Y-28338658D01*
X160632417Y-28006328D02*
X160649617Y-28176648D01*
X160583017Y-27847708D02*
X160632417Y-28006328D01*
X157259316Y-27331908D02*
X157345716Y-27341438D01*
X159025716Y-28044698D02*
X159206816Y-27754378D01*
X157089016Y-27368148D02*
X157172916Y-27341358D01*
X158104116Y-28176648D02*
X158959316Y-28176648D01*
X160133017Y-27398168D02*
X160276617Y-27476018D01*
X160174617Y-29149758D02*
X160252217Y-29364708D01*
X160533117Y-28338658D02*
X160418417Y-28473968D01*
X159633816Y-27368278D02*
X159717717Y-27341438D01*
X159149916Y-30924688D02*
X159149916Y-30924688D01*
X159407416Y-30210318D02*
X159149916Y-30924688D01*
X160171717Y-28833908D02*
X160150717Y-28976638D01*
X159206816Y-27754378D02*
X159331816Y-27599308D01*
X159577816Y-30193048D02*
X159407416Y-30210318D01*
X159736417Y-30143718D02*
X159577816Y-30193048D01*
X160314117Y-28593998D02*
X160229017Y-28710178D01*
X157429516Y-27368278D02*
X157588116Y-27464008D01*
X157856616Y-27754378D02*
X158037716Y-28044698D01*
X159804017Y-27331908D02*
X159974417Y-27348998D01*
X159879917Y-30065718D02*
X159736417Y-30143718D01*
X160004917Y-29962448D02*
X159879917Y-30065718D01*
X157588116Y-27464008D02*
X157731616Y-27599308D01*
X158037716Y-28044698D02*
X158104116Y-28176648D01*
X160418417Y-28473968D02*
X160314117Y-28593998D01*
X160108117Y-29837308D02*
X160004917Y-29962448D01*
X157172916Y-27341358D02*
X157259316Y-27331908D01*
X159331816Y-27599308D02*
X159475316Y-27464008D01*
X160185917Y-29693708D02*
X160108117Y-29837308D01*
X160150717Y-28976638D02*
X160174617Y-29149758D01*
X159475316Y-27464008D02*
X159633816Y-27368278D01*
X160235117Y-29535038D02*
X160185917Y-29693708D01*
X160252217Y-29364708D02*
X160235117Y-29535038D01*
X160505017Y-27704188D02*
X160583017Y-27847708D01*
X131761886Y-37894798D02*
X134830736Y-36390398D01*
X176786917Y-38640898D02*
X181931117Y-41212998D01*
X130447096Y-38527398D02*
X131761886Y-37894798D01*
X181931117Y-41212998D02*
X181879517Y-104775000D01*
X175922717Y-38034998D02*
X175947917Y-38143598D01*
X176786917Y-38640898D02*
X176786917Y-38640898D01*
X139850016Y-33789488D02*
X140471716Y-33434138D01*
X126365000Y-40691398D02*
X130447096Y-38527398D01*
X138340316Y-34604038D02*
X139850016Y-33789488D01*
X181879517Y-104775000D02*
X126365000Y-104775000D01*
X175913117Y-37943698D02*
X175922717Y-38034998D01*
X140977316Y-33125688D02*
X141186816Y-33061438D01*
X134830736Y-36390398D02*
X136612516Y-35495578D01*
X176667317Y-38599998D02*
X176786917Y-38640898D01*
X176113417Y-38331598D02*
X176249217Y-38415798D01*
X176007417Y-38239998D02*
X176113417Y-38331598D01*
X175947917Y-38143598D02*
X176007417Y-38239998D01*
X141186816Y-33061438D02*
X141386316Y-33020478D01*
X140471716Y-33434138D02*
X140977316Y-33125688D01*
X136612516Y-35495578D02*
X138340316Y-34604038D01*
X176249217Y-38415798D02*
X176398017Y-38490298D01*
X176398017Y-38490298D02*
X176667317Y-38599998D01*
X126365000Y-104775000D02*
X126365000Y-40691398D01*
X169516817Y-36234698D02*
X169687317Y-35954098D01*
X169175117Y-37171198D02*
X169259017Y-36844998D01*
X167901417Y-38648698D02*
X168054617Y-38706098D01*
X168860417Y-38707698D02*
X169070717Y-38640898D01*
X167344117Y-38127098D02*
X167469117Y-38308398D01*
X167605717Y-38453398D02*
X167750817Y-38565698D01*
X169687317Y-35954098D02*
X169883317Y-35692048D01*
X170102917Y-35450328D02*
X170344717Y-35230648D01*
X169883317Y-35692048D02*
X170102917Y-35450328D01*
X167469117Y-38308398D02*
X167605717Y-38453398D01*
X166816117Y-36861598D02*
X167233517Y-37905998D01*
X169373517Y-36532298D02*
X169516817Y-36234698D01*
X169259017Y-36844998D02*
X169373517Y-36532298D01*
X167750817Y-38565698D02*
X167901417Y-38648698D01*
X168356817Y-38757798D02*
X168633317Y-38748898D01*
X170344717Y-35230648D02*
X170606717Y-35034698D01*
X169123617Y-37509198D02*
X169175117Y-37171198D01*
X169070717Y-38640898D02*
X169106017Y-37857198D01*
X169106017Y-37857198D02*
X169123617Y-37509198D01*
X168054617Y-38706098D02*
X168207417Y-38741198D01*
X168207417Y-38741198D02*
X168356817Y-38757798D01*
X168633317Y-38748898D02*
X168860417Y-38707698D01*
X167233517Y-37905998D02*
X167344117Y-38127098D01*
X159103916Y-34966508D02*
X159128116Y-35764008D01*
X159091716Y-33443648D02*
X159103916Y-34966508D01*
X159109716Y-32153308D02*
X159091716Y-33443648D01*
X159149916Y-30924688D02*
X159109716Y-32153308D01*
M02*
