%FSLAX45Y45*%
G04 Gerber Fmt 4.5, Leading zero omitted, Abs format (unit mm)*
G04 Created by KiCad (PCBNEW 5.1.8-5.1.8) date 2022-04-19 11:37:44*
%MOMM*%
%LPD*%
G01*
G04 APERTURE LIST*
%TA.AperFunction,Profile*%
%ADD10C,0.100000*%
%TD*%
%ADD11C,0.200000*%
%ADD12C,0.300000*%
G04 APERTURE END LIST*
D10*
X17149762Y-3460642D02*
X17182382Y-3452254D01*
X17589602Y-3750920D02*
X17591362Y-3785720D01*
X17550272Y-3623470D02*
X17564612Y-3653230D01*
X17513632Y-3569205D02*
X17533232Y-3595410D01*
X17491662Y-3545033D02*
X17513632Y-3569205D01*
X17088732Y-3486421D02*
X17118492Y-3472087D01*
X17285782Y-3447096D02*
X17319582Y-3452254D01*
X17060672Y-3503470D02*
X17088732Y-3486421D01*
X17591362Y-3785720D02*
X17591312Y-3794370D01*
X17441292Y-3503470D02*
X17467492Y-3523065D01*
X17564612Y-3653230D02*
X17576052Y-3684500D01*
X17383472Y-3472087D02*
X17413222Y-3486421D01*
X17352202Y-3460642D02*
X17383472Y-3472087D01*
X17216182Y-3447096D02*
X17250982Y-3445339D01*
X17584442Y-3717120D02*
X17589602Y-3750920D01*
X17576052Y-3684500D02*
X17584442Y-3717120D01*
X17319582Y-3452254D02*
X17352202Y-3460642D01*
X17118492Y-3472087D02*
X17149762Y-3460642D01*
X17533232Y-3595410D02*
X17550272Y-3623470D01*
X17250982Y-3445339D02*
X17285782Y-3447096D01*
X17467492Y-3523065D02*
X17491662Y-3545033D01*
X17413222Y-3486421D02*
X17441292Y-3503470D01*
X17182382Y-3452254D02*
X17216182Y-3447096D01*
X16426622Y-3613690D02*
X16432562Y-3607480D01*
X16372762Y-3762320D02*
X16386962Y-3718720D01*
X16400792Y-3675590D02*
X16414082Y-3638660D01*
X16267252Y-3758470D02*
X16291432Y-3799060D01*
X16312992Y-3827700D02*
X16322162Y-3835680D01*
X16358402Y-3800630D02*
X16372762Y-3762320D01*
X16420462Y-3624320D02*
X16426622Y-3613690D01*
X16351212Y-3816020D02*
X16358402Y-3800630D01*
X16148202Y-3598680D02*
X16157412Y-3592020D01*
X16329932Y-3838440D02*
X16336952Y-3835640D01*
X16302662Y-3815250D02*
X16312992Y-3827700D01*
X16177412Y-3585435D02*
X16184552Y-3596150D01*
X16242472Y-3711920D02*
X16267252Y-3758470D01*
X16199112Y-3624780D02*
X16242472Y-3711920D01*
X16167142Y-3587554D02*
X16177412Y-3585435D01*
X16386962Y-3718720D02*
X16400792Y-3675590D01*
X16344062Y-3827920D02*
X16351212Y-3816020D01*
X16157412Y-3592020D02*
X16167142Y-3587554D01*
X16414082Y-3638660D02*
X16420462Y-3624320D01*
X16184552Y-3596150D02*
X16199112Y-3624780D01*
X16336952Y-3835640D02*
X16344062Y-3827920D01*
X16291432Y-3799060D02*
X16302662Y-3815250D01*
X16322162Y-3835680D02*
X16329932Y-3838440D01*
X14225322Y-3312833D02*
X14240452Y-3320507D01*
X14552592Y-3741200D02*
X14592772Y-3804990D01*
X14320522Y-3396347D02*
X14344492Y-3430455D01*
X14268962Y-3340532D02*
X14295502Y-3366092D01*
X14592772Y-3804990D02*
X14675032Y-3937300D01*
X14138632Y-3302048D02*
X14157632Y-3300177D01*
X14254982Y-3329775D02*
X14268962Y-3340532D01*
X14344492Y-3430455D02*
X14367862Y-3467577D01*
X14767462Y-4074840D02*
X14807542Y-4125810D01*
X14391082Y-3506872D02*
X14438872Y-3588618D01*
X14721972Y-4009370D02*
X14767462Y-4074840D01*
X14193022Y-3302687D02*
X14209532Y-3306858D01*
X14157632Y-3300177D02*
X14175742Y-3300425D01*
X14491502Y-3668970D02*
X14520762Y-3706520D01*
X14464352Y-3629390D02*
X14491502Y-3668970D01*
X14675032Y-3937300D02*
X14721972Y-4009370D01*
X14438872Y-3588618D02*
X14464352Y-3629390D01*
X14520762Y-3706520D02*
X14552592Y-3741200D01*
X14209532Y-3306858D02*
X14225322Y-3312833D01*
X14295502Y-3366092D02*
X14320522Y-3396347D01*
X14367862Y-3467577D02*
X14391082Y-3506872D01*
X14240452Y-3320507D02*
X14254982Y-3329775D01*
X14175742Y-3300425D02*
X14193022Y-3302687D01*
X15544162Y-3545860D02*
X15547922Y-3452649D01*
X15393552Y-2784792D02*
X15401342Y-2770447D01*
X15441062Y-2983731D02*
X15433272Y-2969371D01*
X15429462Y-2875874D02*
X15423172Y-2864984D01*
X15433562Y-2899657D02*
X15432912Y-2886914D01*
X15548792Y-3096969D02*
X15547552Y-3055725D01*
X15538372Y-3640240D02*
X15544162Y-3545860D01*
X15505122Y-3903860D02*
X15519212Y-3821890D01*
X15426652Y-2936471D02*
X15431462Y-2915658D01*
X15511122Y-3021032D02*
X15494092Y-3019305D01*
X15550572Y-3206555D02*
X15548792Y-3096969D01*
X15693032Y-2746381D02*
X15708902Y-2736815D01*
X15678662Y-2759910D02*
X15693032Y-2746381D01*
X15411662Y-2757947D02*
X15424162Y-2747633D01*
X15666152Y-2775420D02*
X15678662Y-2759910D01*
X15531162Y-2775420D02*
X15549292Y-2804463D01*
X15428362Y-2953504D02*
X15426652Y-2936471D01*
X15432912Y-2886914D02*
X15429462Y-2875874D01*
X15648022Y-2804463D02*
X15666152Y-2775420D01*
X15438502Y-2739842D02*
X15454352Y-2734915D01*
X15641372Y-2817665D02*
X15648022Y-2804463D01*
X15555942Y-2817665D02*
X15641372Y-2817665D01*
X15549992Y-3363259D02*
X15550572Y-3206555D01*
X15463882Y-3006572D02*
X15451372Y-2996245D01*
X15494092Y-3019305D02*
X15478232Y-3014372D01*
X15504282Y-2746381D02*
X15518642Y-2759910D01*
X15530172Y-3733130D02*
X15538372Y-3640240D01*
X15471372Y-2733191D02*
X15480022Y-2734136D01*
X15423172Y-2864984D02*
X15414012Y-2852688D01*
X15519212Y-3821890D02*
X15530172Y-3733130D01*
X15549292Y-2804463D02*
X15555942Y-2817665D01*
X15518642Y-2759910D02*
X15531162Y-2775420D01*
X15480022Y-2734136D02*
X15488412Y-2736815D01*
X15488412Y-2736815D02*
X15504282Y-2746381D01*
X15424162Y-2747633D02*
X15438502Y-2739842D01*
X15547552Y-3055725D02*
X15511122Y-3021032D01*
X15388622Y-2800645D02*
X15393552Y-2784792D01*
X15451372Y-2996245D02*
X15441062Y-2983731D01*
X15386902Y-2817665D02*
X15388622Y-2800645D01*
X15401342Y-2770447D02*
X15411662Y-2757947D01*
X15414012Y-2852688D02*
X15386902Y-2817665D01*
X15431462Y-2915658D02*
X15433562Y-2899657D01*
X15547922Y-3452649D02*
X15549992Y-3363259D01*
X15433272Y-2969371D02*
X15428362Y-2953504D01*
X15454352Y-2734915D02*
X15471372Y-2733191D01*
X15478232Y-3014372D02*
X15463882Y-3006572D01*
X15994112Y-4011810D02*
X15999502Y-4010020D01*
X15969482Y-3976530D02*
X15978562Y-3995500D01*
X15940762Y-3871720D02*
X15953672Y-3929400D01*
X15930492Y-3805530D02*
X15940762Y-3871720D01*
X16028142Y-3955180D02*
X16045622Y-3888570D01*
X16109052Y-3659040D02*
X16123442Y-3630130D01*
X16045622Y-3888570D02*
X16063812Y-3810070D01*
X16139492Y-3607350D02*
X16148202Y-3598680D01*
X16009652Y-3999490D02*
X16019122Y-3980770D01*
X15961192Y-3954410D02*
X15969482Y-3976530D01*
X15953672Y-3929400D02*
X15961192Y-3954410D01*
X15922582Y-3732880D02*
X15930492Y-3805530D01*
X15912812Y-3576401D02*
X15916782Y-3655830D01*
X15988472Y-4011070D02*
X15994112Y-4011810D01*
X16096102Y-3692790D02*
X16109052Y-3659040D01*
X16004682Y-4005860D02*
X16009652Y-3999490D01*
X15978562Y-3995500D02*
X15988472Y-4011070D01*
X16019122Y-3980770D02*
X16028142Y-3955180D01*
X16063812Y-3810070D02*
X16084382Y-3730080D01*
X15999502Y-4010020D02*
X16004682Y-4005860D01*
X16084382Y-3730080D02*
X16096102Y-3692790D01*
X15916782Y-3655830D02*
X15922582Y-3732880D01*
X16123442Y-3630130D02*
X16139492Y-3607350D01*
X16633042Y-3601460D02*
X16645992Y-3617310D01*
X16487322Y-3636420D02*
X16510512Y-3654750D01*
X16626532Y-3596520D02*
X16633042Y-3601460D01*
X16614092Y-3595910D02*
X16620222Y-3594810D01*
X16573362Y-3646080D02*
X16584912Y-3628460D01*
X16620222Y-3594810D02*
X16626532Y-3596520D01*
X16522802Y-3663000D02*
X16535942Y-3669960D01*
X16584912Y-3628460D02*
X16596402Y-3611750D01*
X16555402Y-3666680D02*
X16561522Y-3661160D01*
X16510512Y-3654750D02*
X16522802Y-3663000D01*
X16451582Y-3611830D02*
X16464012Y-3618970D01*
X16549132Y-3670270D02*
X16555402Y-3666680D01*
X16438232Y-3606420D02*
X16451582Y-3611830D01*
X16535942Y-3669960D02*
X16542652Y-3671510D01*
X16464012Y-3618970D02*
X16487322Y-3636420D01*
X16596402Y-3611750D02*
X16608092Y-3599390D01*
X16561522Y-3661160D02*
X16573362Y-3646080D01*
X16670222Y-3660650D02*
X16681612Y-3686160D01*
X16658372Y-3637370D02*
X16670222Y-3660650D01*
X16432562Y-3607480D02*
X16438232Y-3606420D01*
X16608092Y-3599390D02*
X16614092Y-3595910D01*
X16645992Y-3617310D02*
X16658372Y-3637370D01*
X16542652Y-3671510D02*
X16549132Y-3670270D01*
X15258792Y-3650680D02*
X15269272Y-3674140D01*
X15477332Y-4008280D02*
X15487542Y-3976390D01*
X15212382Y-3993740D02*
X15211792Y-4029050D01*
X15009212Y-3552727D02*
X15032902Y-3550081D01*
X15339632Y-4164800D02*
X15353142Y-4156360D01*
X15311342Y-4176840D02*
X15325622Y-4171840D01*
X15269272Y-4173510D02*
X15282932Y-4178300D01*
X15487542Y-3976390D02*
X15496792Y-3941470D01*
X15453832Y-4061670D02*
X15466112Y-4036820D01*
X15080652Y-3551060D02*
X15104242Y-3554541D01*
X15227152Y-3612770D02*
X15242332Y-3628030D01*
X15440462Y-4082500D02*
X15453832Y-4061670D01*
X15397342Y-4120890D02*
X15410242Y-4110780D01*
X15272602Y-3749720D02*
X15266942Y-3776720D01*
X15215342Y-4065510D02*
X15223802Y-4103150D01*
X15210062Y-3598980D02*
X15227152Y-3612770D01*
X15377682Y-4137730D02*
X15397342Y-4120890D01*
X15325622Y-4171840D02*
X15339632Y-4164800D01*
X15297032Y-4179200D02*
X15311342Y-4176840D01*
X15233322Y-4129660D02*
X15244232Y-4149810D01*
X15216332Y-3959560D02*
X15212382Y-3993740D01*
X15211792Y-4029050D02*
X15215342Y-4065510D01*
X15104242Y-3554541D02*
X15127342Y-3559921D01*
X15231182Y-3894480D02*
X15222852Y-3926480D01*
X15250132Y-3833600D02*
X15231182Y-3894480D01*
X15149712Y-3567126D02*
X15171112Y-3576087D01*
X15171112Y-3576087D02*
X15191302Y-3586729D01*
X15274542Y-3698450D02*
X15275392Y-3723640D01*
X15353142Y-4156360D02*
X15377682Y-4137730D01*
X15127342Y-3559921D02*
X15149712Y-3567126D01*
X15191302Y-3586729D02*
X15210062Y-3598980D01*
X15256292Y-4164220D02*
X15269272Y-4173510D01*
X15032902Y-3550081D02*
X15056792Y-3549550D01*
X15244232Y-4149810D02*
X15256292Y-4164220D01*
X15266942Y-3776720D02*
X15250132Y-3833600D01*
X15242332Y-3628030D02*
X15258792Y-3650680D01*
X15496792Y-3941470D02*
X15505122Y-3903860D01*
X15425942Y-4098980D02*
X15440462Y-4082500D01*
X15410242Y-4110780D02*
X15425942Y-4098980D01*
X15275392Y-3723640D02*
X15272602Y-3749720D01*
X15056792Y-3549550D02*
X15080652Y-3551060D01*
X15282932Y-4178300D02*
X15297032Y-4179200D01*
X15223802Y-4103150D02*
X15233322Y-4129660D01*
X15466112Y-4036820D02*
X15477332Y-4008280D01*
X15222852Y-3926480D02*
X15216332Y-3959560D01*
X15269272Y-3674140D02*
X15274542Y-3698450D01*
X14868752Y-3719920D02*
X14873142Y-3679000D01*
X14866262Y-3765630D02*
X14868752Y-3719920D01*
X14865242Y-3814650D02*
X14866262Y-3765630D01*
X14861852Y-4123400D02*
X14865022Y-4093530D01*
X14824292Y-4143380D02*
X14838202Y-4154360D01*
X14866902Y-4013520D02*
X14865792Y-3916540D01*
X14853102Y-4151290D02*
X14856632Y-4144500D01*
X14865022Y-4093530D02*
X14866902Y-4013520D01*
X14963412Y-3564648D02*
X14985972Y-3557559D01*
X14902112Y-3600190D02*
X14921242Y-3585890D01*
X14843942Y-4156410D02*
X14848892Y-4155320D01*
X14856632Y-4144500D02*
X14861852Y-4123400D01*
X14985972Y-3557559D02*
X15009212Y-3552727D01*
X14941752Y-3574068D02*
X14963412Y-3564648D01*
X14848892Y-4155320D02*
X14853102Y-4151290D01*
X14895312Y-3607650D02*
X14902112Y-3600190D01*
X14865792Y-3916540D02*
X14865242Y-3814650D01*
X14921242Y-3585890D02*
X14941752Y-3574068D01*
X14889382Y-3617630D02*
X14895312Y-3607650D01*
X14879872Y-3644410D02*
X14889382Y-3617630D01*
X14838202Y-4154360D02*
X14843942Y-4156410D01*
X14873142Y-3679000D02*
X14879872Y-3644410D01*
X14807542Y-4125810D02*
X14824292Y-4143380D01*
X15997442Y-2734900D02*
X16013302Y-2739817D01*
X15971772Y-2734144D02*
X15980402Y-2733191D01*
X16022902Y-2871018D02*
X16017172Y-2883391D01*
X16027662Y-2747602D02*
X16040182Y-2757916D01*
X15895932Y-2817665D02*
X15902572Y-2804470D01*
X15734572Y-2734144D02*
X15742952Y-2736828D01*
X15773162Y-2759931D02*
X15785662Y-2775438D01*
X16040182Y-2757916D02*
X16050502Y-2770419D01*
X16064962Y-2817665D02*
X16053312Y-2833866D01*
X16063242Y-2800633D02*
X16064962Y-2817665D01*
X16058302Y-2784771D02*
X16063242Y-2800633D01*
X15725932Y-2733191D02*
X15734572Y-2734144D01*
X15902572Y-2804470D02*
X15920682Y-2775438D01*
X15708902Y-2736815D02*
X15717292Y-2734136D01*
X15810412Y-2817665D02*
X15895932Y-2817665D01*
X16013302Y-2739817D02*
X16027662Y-2747602D01*
X16017462Y-2914976D02*
X16025222Y-2936471D01*
X16053312Y-2833866D02*
X16041842Y-2847397D01*
X15963382Y-2736828D02*
X15971772Y-2734144D01*
X15914992Y-3092469D02*
X15914992Y-3092469D01*
X15940742Y-3021032D02*
X15914992Y-3092469D01*
X16017172Y-2883391D02*
X16015072Y-2897664D01*
X15920682Y-2775438D02*
X15933182Y-2759931D01*
X15957782Y-3019305D02*
X15940742Y-3021032D01*
X15973642Y-3014372D02*
X15957782Y-3019305D01*
X16031412Y-2859400D02*
X16022902Y-2871018D01*
X15742952Y-2736828D02*
X15758812Y-2746401D01*
X15785662Y-2775438D02*
X15803772Y-2804470D01*
X15980402Y-2733191D02*
X15997442Y-2734900D01*
X15987992Y-3006572D02*
X15973642Y-3014372D01*
X16000492Y-2996245D02*
X15987992Y-3006572D01*
X15758812Y-2746401D02*
X15773162Y-2759931D01*
X15803772Y-2804470D02*
X15810412Y-2817665D01*
X16041842Y-2847397D02*
X16031412Y-2859400D01*
X16010812Y-2983731D02*
X16000492Y-2996245D01*
X15717292Y-2734136D02*
X15725932Y-2733191D01*
X15933182Y-2759931D02*
X15947532Y-2746401D01*
X16018592Y-2969371D02*
X16010812Y-2983731D01*
X16015072Y-2897664D02*
X16017462Y-2914976D01*
X15947532Y-2746401D02*
X15963382Y-2736828D01*
X16023512Y-2953504D02*
X16018592Y-2969371D01*
X16025222Y-2936471D02*
X16023512Y-2953504D01*
X16050502Y-2770419D02*
X16058302Y-2784771D01*
X13176189Y-3789480D02*
X13483074Y-3639040D01*
X17678692Y-3864090D02*
X18193112Y-4121300D01*
X13044710Y-3852740D02*
X13176189Y-3789480D01*
X18193112Y-4121300D02*
X18187952Y-10477500D01*
X17592272Y-3803500D02*
X17594792Y-3814360D01*
X17678692Y-3864090D02*
X17678692Y-3864090D01*
X13985002Y-3378949D02*
X14047172Y-3343414D01*
X12636500Y-4069140D02*
X13044710Y-3852740D01*
X13834032Y-3460404D02*
X13985002Y-3378949D01*
X18187952Y-10477500D02*
X12636500Y-10477500D01*
X17591312Y-3794370D02*
X17592272Y-3803500D01*
X14097732Y-3312569D02*
X14118682Y-3306144D01*
X13483074Y-3639040D02*
X13661252Y-3549558D01*
X17666732Y-3860000D02*
X17678692Y-3864090D01*
X17611342Y-3833160D02*
X17624922Y-3841580D01*
X17600742Y-3824000D02*
X17611342Y-3833160D01*
X17594792Y-3814360D02*
X17600742Y-3824000D01*
X14118682Y-3306144D02*
X14138632Y-3302048D01*
X14047172Y-3343414D02*
X14097732Y-3312569D01*
X13661252Y-3549558D02*
X13834032Y-3460404D01*
X17624922Y-3841580D02*
X17639802Y-3849030D01*
X17639802Y-3849030D02*
X17666732Y-3860000D01*
X12636500Y-10477500D02*
X12636500Y-4069140D01*
X16951682Y-3623470D02*
X16968732Y-3595410D01*
X16917512Y-3717120D02*
X16925902Y-3684500D01*
X16790142Y-3864870D02*
X16805462Y-3870610D01*
X16886042Y-3870770D02*
X16907072Y-3864090D01*
X16734412Y-3812710D02*
X16746912Y-3830840D01*
X16760572Y-3845340D02*
X16775082Y-3856570D01*
X16968732Y-3595410D02*
X16988332Y-3569205D01*
X17010292Y-3545033D02*
X17034472Y-3523065D01*
X16988332Y-3569205D02*
X17010292Y-3545033D01*
X16746912Y-3830840D02*
X16760572Y-3845340D01*
X16681612Y-3686160D02*
X16723352Y-3790600D01*
X16937352Y-3653230D02*
X16951682Y-3623470D01*
X16925902Y-3684500D02*
X16937352Y-3653230D01*
X16775082Y-3856570D02*
X16790142Y-3864870D01*
X16835682Y-3875780D02*
X16863332Y-3874890D01*
X17034472Y-3523065D02*
X17060672Y-3503470D01*
X16912362Y-3750920D02*
X16917512Y-3717120D01*
X16907072Y-3864090D02*
X16910602Y-3785720D01*
X16910602Y-3785720D02*
X16912362Y-3750920D01*
X16805462Y-3870610D02*
X16820742Y-3874120D01*
X16820742Y-3874120D02*
X16835682Y-3875780D01*
X16863332Y-3874890D02*
X16886042Y-3870770D01*
X16723352Y-3790600D02*
X16734412Y-3812710D01*
X15910392Y-3496651D02*
X15912812Y-3576401D01*
X15909172Y-3344365D02*
X15910392Y-3496651D01*
X15910972Y-3215331D02*
X15909172Y-3344365D01*
X15914992Y-3092469D02*
X15910972Y-3215331D01*
D11*
X12807000Y-4933000D02*
X12847000Y-4973000D01*
X12847000Y-4933000D02*
X12807000Y-4973000D01*
X13505500Y-9568500D02*
X13545500Y-9608500D01*
X13545500Y-9568500D02*
X13505500Y-9608500D01*
X13505500Y-9949500D02*
X13545500Y-9989500D01*
X13545500Y-9949500D02*
X13505500Y-9989500D01*
X13759500Y-6076000D02*
X13799500Y-6116000D01*
X13799500Y-6076000D02*
X13759500Y-6116000D01*
X13759500Y-6838000D02*
X13799500Y-6878000D01*
X13799500Y-6838000D02*
X13759500Y-6878000D01*
X13759500Y-7600000D02*
X13799500Y-7640000D01*
X13799500Y-7600000D02*
X13759500Y-7640000D01*
X14458000Y-9568500D02*
X14498000Y-9608500D01*
X14498000Y-9568500D02*
X14458000Y-9608500D01*
X15220000Y-4933000D02*
X15260000Y-4973000D01*
X15260000Y-4933000D02*
X15220000Y-4973000D01*
X15347000Y-5314000D02*
X15387000Y-5354000D01*
X15387000Y-5314000D02*
X15347000Y-5354000D01*
X15347000Y-6076000D02*
X15387000Y-6116000D01*
X15387000Y-6076000D02*
X15347000Y-6116000D01*
X15347000Y-6838000D02*
X15387000Y-6878000D01*
X15387000Y-6838000D02*
X15347000Y-6878000D01*
X15347000Y-7600000D02*
X15387000Y-7640000D01*
X15387000Y-7600000D02*
X15347000Y-7640000D01*
X15855000Y-9530400D02*
X15895000Y-9570400D01*
X15895000Y-9530400D02*
X15855000Y-9570400D01*
X15982000Y-9124004D02*
X16022000Y-9164004D01*
X16022000Y-9124004D02*
X15982000Y-9164004D01*
X16199499Y-4932999D02*
X16239499Y-4972999D01*
X16239499Y-4932999D02*
X16199499Y-4972999D01*
X16426501Y-4933000D02*
X16466501Y-4973000D01*
X16466501Y-4933000D02*
X16426501Y-4973000D01*
X16722499Y-7600000D02*
X16762499Y-7640000D01*
X16762499Y-7600000D02*
X16722499Y-7640000D01*
X16934500Y-6076000D02*
X16974500Y-6116000D01*
X16974500Y-6076000D02*
X16934500Y-6116000D01*
X16934500Y-6838000D02*
X16974500Y-6878000D01*
X16974500Y-6838000D02*
X16934500Y-6878000D01*
X16934500Y-7600000D02*
X16974500Y-7640000D01*
X16974500Y-7600000D02*
X16934500Y-7640000D01*
X17252000Y-9632000D02*
X17292000Y-9672000D01*
X17292000Y-9632000D02*
X17252000Y-9672000D01*
X14757000Y-8636000D02*
G75*
G03*
X14757000Y-8636000I-25000J0D01*
G01*
X14757000Y-8890000D02*
G75*
G03*
X14757000Y-8890000I-25000J0D01*
G01*
X17145000Y-8532500D02*
X17145000Y-8612500D01*
X17105000Y-8572500D02*
X17185000Y-8572500D01*
X17907000Y-8532500D02*
X17907000Y-8612500D01*
X17867000Y-8572500D02*
X17947000Y-8572500D01*
X17145000Y-6246500D02*
X17145000Y-6326500D01*
X17105000Y-6286500D02*
X17185000Y-6286500D01*
X17907000Y-6246500D02*
X17907000Y-6326500D01*
X17867000Y-6286500D02*
X17947000Y-6286500D01*
X16256000Y-9231000D02*
X16256000Y-9311000D01*
X16216000Y-9271000D02*
X16296000Y-9271000D01*
X16256000Y-9993000D02*
X16256000Y-10073000D01*
X16216000Y-10033000D02*
X16296000Y-10033000D01*
X16510000Y-9231000D02*
X16510000Y-9311000D01*
X16470000Y-9271000D02*
X16550000Y-9271000D01*
X16510000Y-9993000D02*
X16510000Y-10073000D01*
X16470000Y-10033000D02*
X16550000Y-10033000D01*
X16764000Y-9231000D02*
X16764000Y-9311000D01*
X16724000Y-9271000D02*
X16804000Y-9271000D01*
X16764000Y-9993000D02*
X16764000Y-10073000D01*
X16724000Y-10033000D02*
X16804000Y-10033000D01*
X17018000Y-9231000D02*
X17018000Y-9311000D01*
X16978000Y-9271000D02*
X17058000Y-9271000D01*
X17018000Y-9993000D02*
X17018000Y-10073000D01*
X16978000Y-10033000D02*
X17058000Y-10033000D01*
X17272000Y-9231000D02*
X17272000Y-9311000D01*
X17232000Y-9271000D02*
X17312000Y-9271000D01*
X17272000Y-9993000D02*
X17272000Y-10073000D01*
X17232000Y-10033000D02*
X17312000Y-10033000D01*
X17526000Y-9231000D02*
X17526000Y-9311000D01*
X17486000Y-9271000D02*
X17566000Y-9271000D01*
X17526000Y-9993000D02*
X17526000Y-10073000D01*
X17486000Y-10033000D02*
X17566000Y-10033000D01*
X17780000Y-9231000D02*
X17780000Y-9311000D01*
X17740000Y-9271000D02*
X17820000Y-9271000D01*
X17780000Y-9993000D02*
X17780000Y-10073000D01*
X17740000Y-10033000D02*
X17820000Y-10033000D01*
X12954000Y-7199000D02*
X12954000Y-7279000D01*
X12914000Y-7239000D02*
X12994000Y-7239000D01*
X13716000Y-7199000D02*
X13716000Y-7279000D01*
X13676000Y-7239000D02*
X13756000Y-7239000D01*
X13970000Y-8875400D02*
X13970000Y-8955400D01*
X13930000Y-8915400D02*
X14010000Y-8915400D01*
X14470000Y-8875400D02*
X14470000Y-8955400D01*
X14430000Y-8915400D02*
X14510000Y-8915400D01*
X15121000Y-9231000D02*
X15121000Y-9311000D01*
X15081000Y-9271000D02*
X15161000Y-9271000D01*
X15621000Y-9231000D02*
X15621000Y-9311000D01*
X15581000Y-9271000D02*
X15661000Y-9271000D01*
X13716000Y-9231000D02*
X13716000Y-9311000D01*
X13676000Y-9271000D02*
X13756000Y-9271000D01*
X13716000Y-9993000D02*
X13716000Y-10073000D01*
X13676000Y-10033000D02*
X13756000Y-10033000D01*
X13970000Y-9231000D02*
X13970000Y-9311000D01*
X13930000Y-9271000D02*
X14010000Y-9271000D01*
X13970000Y-9993000D02*
X13970000Y-10073000D01*
X13930000Y-10033000D02*
X14010000Y-10033000D01*
X14224000Y-9231000D02*
X14224000Y-9311000D01*
X14184000Y-9271000D02*
X14264000Y-9271000D01*
X14224000Y-9993000D02*
X14224000Y-10073000D01*
X14184000Y-10033000D02*
X14264000Y-10033000D01*
X14478000Y-9231000D02*
X14478000Y-9311000D01*
X14438000Y-9271000D02*
X14518000Y-9271000D01*
X14478000Y-9993000D02*
X14478000Y-10073000D01*
X14438000Y-10033000D02*
X14518000Y-10033000D01*
X15121000Y-9548500D02*
X15121000Y-9628500D01*
X15081000Y-9588500D02*
X15161000Y-9588500D01*
X15621000Y-9548500D02*
X15621000Y-9628500D01*
X15581000Y-9588500D02*
X15661000Y-9588500D01*
X13208000Y-9104000D02*
X13208000Y-9184000D01*
X13168000Y-9144000D02*
X13248000Y-9144000D01*
X13208000Y-10120000D02*
X13208000Y-10200000D01*
X13168000Y-10160000D02*
X13248000Y-10160000D01*
X13970000Y-8596000D02*
X13970000Y-8676000D01*
X13930000Y-8636000D02*
X14010000Y-8636000D01*
X14470000Y-8596000D02*
X14470000Y-8676000D01*
X14430000Y-8636000D02*
X14510000Y-8636000D01*
X12954000Y-5675000D02*
X12954000Y-5755000D01*
X12914000Y-5715000D02*
X12994000Y-5715000D01*
X13716000Y-5675000D02*
X13716000Y-5755000D01*
X13676000Y-5715000D02*
X13756000Y-5715000D01*
X14859000Y-9866000D02*
X14859000Y-9946000D01*
X14819000Y-9906000D02*
X14899000Y-9906000D01*
X15875000Y-9866000D02*
X15875000Y-9946000D01*
X15835000Y-9906000D02*
X15915000Y-9906000D01*
X17145000Y-7389500D02*
X17145000Y-7469500D01*
X17105000Y-7429500D02*
X17185000Y-7429500D01*
X17907000Y-7389500D02*
X17907000Y-7469500D01*
X17867000Y-7429500D02*
X17947000Y-7429500D01*
X12954000Y-6437000D02*
X12954000Y-6517000D01*
X12914000Y-6477000D02*
X12994000Y-6477000D01*
X13716000Y-6437000D02*
X13716000Y-6517000D01*
X13676000Y-6477000D02*
X13756000Y-6477000D01*
X12954000Y-7961000D02*
X12954000Y-8041000D01*
X12914000Y-8001000D02*
X12994000Y-8001000D01*
X13716000Y-7961000D02*
X13716000Y-8041000D01*
X13676000Y-8001000D02*
X13756000Y-8001000D01*
X12954000Y-8723000D02*
X12954000Y-8803000D01*
X12914000Y-8763000D02*
X12994000Y-8763000D01*
X13716000Y-8723000D02*
X13716000Y-8803000D01*
X13676000Y-8763000D02*
X13756000Y-8763000D01*
X15652820Y-6508820D02*
X15652820Y-6445180D01*
X15589180Y-6445180D01*
X15589180Y-6508820D01*
X15652820Y-6508820D01*
X15906820Y-6508820D02*
X15906820Y-6445180D01*
X15843180Y-6445180D01*
X15843180Y-6508820D01*
X15906820Y-6508820D01*
X16414820Y-7270820D02*
X16414820Y-7207180D01*
X16351180Y-7207180D01*
X16351180Y-7270820D01*
X16414820Y-7270820D01*
X16668820Y-7270820D02*
X16668820Y-7207180D01*
X16605180Y-7207180D01*
X16605180Y-7270820D01*
X16668820Y-7270820D01*
X14890820Y-6508820D02*
X14890820Y-6445180D01*
X14827180Y-6445180D01*
X14827180Y-6508820D01*
X14890820Y-6508820D01*
X15144820Y-6508820D02*
X15144820Y-6445180D01*
X15081180Y-6445180D01*
X15081180Y-6508820D01*
X15144820Y-6508820D01*
X15652820Y-5746820D02*
X15652820Y-5683180D01*
X15589180Y-5683180D01*
X15589180Y-5746820D01*
X15652820Y-5746820D01*
X15906820Y-5746820D02*
X15906820Y-5683180D01*
X15843180Y-5683180D01*
X15843180Y-5746820D01*
X15906820Y-5746820D01*
X16414820Y-6508820D02*
X16414820Y-6445180D01*
X16351180Y-6445180D01*
X16351180Y-6508820D01*
X16414820Y-6508820D01*
X16668820Y-6508820D02*
X16668820Y-6445180D01*
X16605180Y-6445180D01*
X16605180Y-6508820D01*
X16668820Y-6508820D01*
X14890820Y-8032820D02*
X14890820Y-7969180D01*
X14827180Y-7969180D01*
X14827180Y-8032820D01*
X14890820Y-8032820D01*
X15144820Y-8032820D02*
X15144820Y-7969180D01*
X15081180Y-7969180D01*
X15081180Y-8032820D01*
X15144820Y-8032820D01*
X14890820Y-7270820D02*
X14890820Y-7207180D01*
X14827180Y-7207180D01*
X14827180Y-7270820D01*
X14890820Y-7270820D01*
X15144820Y-7270820D02*
X15144820Y-7207180D01*
X15081180Y-7207180D01*
X15081180Y-7270820D01*
X15144820Y-7270820D01*
X14890820Y-5746820D02*
X14890820Y-5683180D01*
X14827180Y-5683180D01*
X14827180Y-5746820D01*
X14890820Y-5746820D01*
X15144820Y-5746820D02*
X15144820Y-5683180D01*
X15081180Y-5683180D01*
X15081180Y-5746820D01*
X15144820Y-5746820D01*
X14128820Y-5746820D02*
X14128820Y-5683180D01*
X14065180Y-5683180D01*
X14065180Y-5746820D01*
X14128820Y-5746820D01*
X14382820Y-5746820D02*
X14382820Y-5683180D01*
X14319180Y-5683180D01*
X14319180Y-5746820D01*
X14382820Y-5746820D01*
X15652820Y-8032820D02*
X15652820Y-7969180D01*
X15589180Y-7969180D01*
X15589180Y-8032820D01*
X15652820Y-8032820D01*
X15906820Y-8032820D02*
X15906820Y-7969180D01*
X15843180Y-7969180D01*
X15843180Y-8032820D01*
X15906820Y-8032820D01*
X16414820Y-8032820D02*
X16414820Y-7969180D01*
X16351180Y-7969180D01*
X16351180Y-8032820D01*
X16414820Y-8032820D01*
X16668820Y-8032820D02*
X16668820Y-7969180D01*
X16605180Y-7969180D01*
X16605180Y-8032820D01*
X16668820Y-8032820D01*
X16414820Y-8794820D02*
X16414820Y-8731180D01*
X16351180Y-8731180D01*
X16351180Y-8794820D01*
X16414820Y-8794820D01*
X16668820Y-8794820D02*
X16668820Y-8731180D01*
X16605180Y-8731180D01*
X16605180Y-8794820D01*
X16668820Y-8794820D01*
X16414820Y-5746820D02*
X16414820Y-5683180D01*
X16351180Y-5683180D01*
X16351180Y-5746820D01*
X16414820Y-5746820D01*
X16668820Y-5746820D02*
X16668820Y-5683180D01*
X16605180Y-5683180D01*
X16605180Y-5746820D01*
X16668820Y-5746820D01*
X15652820Y-7270820D02*
X15652820Y-7207180D01*
X15589180Y-7207180D01*
X15589180Y-7270820D01*
X15652820Y-7270820D01*
X15906820Y-7270820D02*
X15906820Y-7207180D01*
X15843180Y-7207180D01*
X15843180Y-7270820D01*
X15906820Y-7270820D01*
X14128820Y-6508820D02*
X14128820Y-6445180D01*
X14065180Y-6445180D01*
X14065180Y-6508820D01*
X14128820Y-6508820D01*
X14382820Y-6508820D02*
X14382820Y-6445180D01*
X14319180Y-6445180D01*
X14319180Y-6508820D01*
X14382820Y-6508820D01*
X14128820Y-8032820D02*
X14128820Y-7969180D01*
X14065180Y-7969180D01*
X14065180Y-8032820D01*
X14128820Y-8032820D01*
X14382820Y-8032820D02*
X14382820Y-7969180D01*
X14319180Y-7969180D01*
X14319180Y-8032820D01*
X14382820Y-8032820D01*
X14128820Y-7270820D02*
X14128820Y-7207180D01*
X14065180Y-7207180D01*
X14065180Y-7270820D01*
X14128820Y-7270820D01*
X14382820Y-7270820D02*
X14382820Y-7207180D01*
X14319180Y-7207180D01*
X14319180Y-7270820D01*
X14382820Y-7270820D01*
X17201000Y-6688000D02*
X17256000Y-6633000D01*
X17201000Y-6578000D01*
X17146000Y-6633000D01*
X17201000Y-6688000D01*
X17201000Y-7138000D02*
X17256000Y-7083000D01*
X17201000Y-7028000D01*
X17146000Y-7083000D01*
X17201000Y-7138000D01*
X17851000Y-6688000D02*
X17906000Y-6633000D01*
X17851000Y-6578000D01*
X17796000Y-6633000D01*
X17851000Y-6688000D01*
X17851000Y-7138000D02*
X17906000Y-7083000D01*
X17851000Y-7028000D01*
X17796000Y-7083000D01*
X17851000Y-7138000D01*
X17201000Y-7831000D02*
X17256000Y-7776000D01*
X17201000Y-7721000D01*
X17146000Y-7776000D01*
X17201000Y-7831000D01*
X17201000Y-8281000D02*
X17256000Y-8226000D01*
X17201000Y-8171000D01*
X17146000Y-8226000D01*
X17201000Y-8281000D01*
X17851000Y-7831000D02*
X17906000Y-7776000D01*
X17851000Y-7721000D01*
X17796000Y-7776000D01*
X17851000Y-7831000D01*
X17851000Y-8281000D02*
X17906000Y-8226000D01*
X17851000Y-8171000D01*
X17796000Y-8226000D01*
X17851000Y-8281000D01*
X17201000Y-5545000D02*
X17256000Y-5490000D01*
X17201000Y-5435000D01*
X17146000Y-5490000D01*
X17201000Y-5545000D01*
X17201000Y-5995000D02*
X17256000Y-5940000D01*
X17201000Y-5885000D01*
X17146000Y-5940000D01*
X17201000Y-5995000D01*
X17851000Y-5545000D02*
X17906000Y-5490000D01*
X17851000Y-5435000D01*
X17796000Y-5490000D01*
X17851000Y-5545000D01*
X17851000Y-5995000D02*
X17906000Y-5940000D01*
X17851000Y-5885000D01*
X17796000Y-5940000D01*
X17851000Y-5995000D01*
D12*
X12917928Y-10948214D02*
X12917928Y-10648214D01*
X12989357Y-10648214D01*
X13032214Y-10662500D01*
X13060786Y-10691072D01*
X13075071Y-10719643D01*
X13089357Y-10776786D01*
X13089357Y-10819643D01*
X13075071Y-10876786D01*
X13060786Y-10905357D01*
X13032214Y-10933929D01*
X12989357Y-10948214D01*
X12917928Y-10948214D01*
X13217928Y-10948214D02*
X13217928Y-10748214D01*
X13217928Y-10805357D02*
X13232214Y-10776786D01*
X13246500Y-10762500D01*
X13275071Y-10748214D01*
X13303643Y-10748214D01*
X13403643Y-10948214D02*
X13403643Y-10748214D01*
X13403643Y-10648214D02*
X13389357Y-10662500D01*
X13403643Y-10676786D01*
X13417928Y-10662500D01*
X13403643Y-10648214D01*
X13403643Y-10676786D01*
X13589357Y-10948214D02*
X13560786Y-10933929D01*
X13546500Y-10905357D01*
X13546500Y-10648214D01*
X13746500Y-10948214D02*
X13717928Y-10933929D01*
X13703643Y-10905357D01*
X13703643Y-10648214D01*
X14089357Y-10948214D02*
X14089357Y-10648214D01*
X14189357Y-10862500D01*
X14289357Y-10648214D01*
X14289357Y-10948214D01*
X14560786Y-10948214D02*
X14560786Y-10791072D01*
X14546500Y-10762500D01*
X14517928Y-10748214D01*
X14460786Y-10748214D01*
X14432214Y-10762500D01*
X14560786Y-10933929D02*
X14532214Y-10948214D01*
X14460786Y-10948214D01*
X14432214Y-10933929D01*
X14417928Y-10905357D01*
X14417928Y-10876786D01*
X14432214Y-10848214D01*
X14460786Y-10833929D01*
X14532214Y-10833929D01*
X14560786Y-10819643D01*
X14703643Y-10748214D02*
X14703643Y-11048214D01*
X14703643Y-10762500D02*
X14732214Y-10748214D01*
X14789357Y-10748214D01*
X14817928Y-10762500D01*
X14832214Y-10776786D01*
X14846500Y-10805357D01*
X14846500Y-10891072D01*
X14832214Y-10919643D01*
X14817928Y-10933929D01*
X14789357Y-10948214D01*
X14732214Y-10948214D01*
X14703643Y-10933929D01*
X14975071Y-10919643D02*
X14989357Y-10933929D01*
X14975071Y-10948214D01*
X14960786Y-10933929D01*
X14975071Y-10919643D01*
X14975071Y-10948214D01*
X14975071Y-10762500D02*
X14989357Y-10776786D01*
X14975071Y-10791072D01*
X14960786Y-10776786D01*
X14975071Y-10762500D01*
X14975071Y-10791072D01*
X12591500Y-11422500D02*
X12631500Y-11462500D01*
X12631500Y-11422500D02*
X12591500Y-11462500D01*
X12975071Y-11278214D02*
X13003643Y-11278214D01*
X13032214Y-11292500D01*
X13046500Y-11306786D01*
X13060786Y-11335357D01*
X13075071Y-11392500D01*
X13075071Y-11463929D01*
X13060786Y-11521071D01*
X13046500Y-11549643D01*
X13032214Y-11563929D01*
X13003643Y-11578214D01*
X12975071Y-11578214D01*
X12946500Y-11563929D01*
X12932214Y-11549643D01*
X12917928Y-11521071D01*
X12903643Y-11463929D01*
X12903643Y-11392500D01*
X12917928Y-11335357D01*
X12932214Y-11306786D01*
X12946500Y-11292500D01*
X12975071Y-11278214D01*
X13203643Y-11549643D02*
X13217928Y-11563929D01*
X13203643Y-11578214D01*
X13189357Y-11563929D01*
X13203643Y-11549643D01*
X13203643Y-11578214D01*
X13475071Y-11378214D02*
X13475071Y-11578214D01*
X13403643Y-11263929D02*
X13332214Y-11478214D01*
X13517928Y-11478214D01*
X13689357Y-11278214D02*
X13717928Y-11278214D01*
X13746500Y-11292500D01*
X13760786Y-11306786D01*
X13775071Y-11335357D01*
X13789357Y-11392500D01*
X13789357Y-11463929D01*
X13775071Y-11521071D01*
X13760786Y-11549643D01*
X13746500Y-11563929D01*
X13717928Y-11578214D01*
X13689357Y-11578214D01*
X13660786Y-11563929D01*
X13646500Y-11549643D01*
X13632214Y-11521071D01*
X13617928Y-11463929D01*
X13617928Y-11392500D01*
X13632214Y-11335357D01*
X13646500Y-11306786D01*
X13660786Y-11292500D01*
X13689357Y-11278214D01*
X13917928Y-11578214D02*
X13917928Y-11378214D01*
X13917928Y-11406786D02*
X13932214Y-11392500D01*
X13960786Y-11378214D01*
X14003643Y-11378214D01*
X14032214Y-11392500D01*
X14046500Y-11421071D01*
X14046500Y-11578214D01*
X14046500Y-11421071D02*
X14060786Y-11392500D01*
X14089357Y-11378214D01*
X14132214Y-11378214D01*
X14160786Y-11392500D01*
X14175071Y-11421071D01*
X14175071Y-11578214D01*
X14317928Y-11578214D02*
X14317928Y-11378214D01*
X14317928Y-11406786D02*
X14332214Y-11392500D01*
X14360786Y-11378214D01*
X14403643Y-11378214D01*
X14432214Y-11392500D01*
X14446500Y-11421071D01*
X14446500Y-11578214D01*
X14446500Y-11421071D02*
X14460786Y-11392500D01*
X14489357Y-11378214D01*
X14532214Y-11378214D01*
X14560786Y-11392500D01*
X14575071Y-11421071D01*
X14575071Y-11578214D01*
X15160786Y-11263929D02*
X14903643Y-11649643D01*
X15546500Y-11278214D02*
X15575071Y-11278214D01*
X15603643Y-11292500D01*
X15617928Y-11306786D01*
X15632214Y-11335357D01*
X15646500Y-11392500D01*
X15646500Y-11463929D01*
X15632214Y-11521071D01*
X15617928Y-11549643D01*
X15603643Y-11563929D01*
X15575071Y-11578214D01*
X15546500Y-11578214D01*
X15517928Y-11563929D01*
X15503643Y-11549643D01*
X15489357Y-11521071D01*
X15475071Y-11463929D01*
X15475071Y-11392500D01*
X15489357Y-11335357D01*
X15503643Y-11306786D01*
X15517928Y-11292500D01*
X15546500Y-11278214D01*
X15775071Y-11549643D02*
X15789357Y-11563929D01*
X15775071Y-11578214D01*
X15760786Y-11563929D01*
X15775071Y-11549643D01*
X15775071Y-11578214D01*
X15975071Y-11278214D02*
X16003643Y-11278214D01*
X16032214Y-11292500D01*
X16046500Y-11306786D01*
X16060786Y-11335357D01*
X16075071Y-11392500D01*
X16075071Y-11463929D01*
X16060786Y-11521071D01*
X16046500Y-11549643D01*
X16032214Y-11563929D01*
X16003643Y-11578214D01*
X15975071Y-11578214D01*
X15946500Y-11563929D01*
X15932214Y-11549643D01*
X15917928Y-11521071D01*
X15903643Y-11463929D01*
X15903643Y-11392500D01*
X15917928Y-11335357D01*
X15932214Y-11306786D01*
X15946500Y-11292500D01*
X15975071Y-11278214D01*
X16360786Y-11578214D02*
X16189357Y-11578214D01*
X16275071Y-11578214D02*
X16275071Y-11278214D01*
X16246500Y-11321071D01*
X16217928Y-11349643D01*
X16189357Y-11363929D01*
X16617928Y-11278214D02*
X16560786Y-11278214D01*
X16532214Y-11292500D01*
X16517928Y-11306786D01*
X16489357Y-11349643D01*
X16475071Y-11406786D01*
X16475071Y-11521071D01*
X16489357Y-11549643D01*
X16503643Y-11563929D01*
X16532214Y-11578214D01*
X16589357Y-11578214D01*
X16617928Y-11563929D01*
X16632214Y-11549643D01*
X16646500Y-11521071D01*
X16646500Y-11449643D01*
X16632214Y-11421071D01*
X16617928Y-11406786D01*
X16589357Y-11392500D01*
X16532214Y-11392500D01*
X16503643Y-11406786D01*
X16489357Y-11421071D01*
X16475071Y-11449643D01*
X16760786Y-11278214D02*
X16760786Y-11335357D01*
X16875071Y-11278214D02*
X16875071Y-11335357D01*
X17317928Y-11692500D02*
X17303643Y-11678214D01*
X17275071Y-11635357D01*
X17260786Y-11606786D01*
X17246500Y-11563929D01*
X17232214Y-11492500D01*
X17232214Y-11435357D01*
X17246500Y-11363929D01*
X17260786Y-11321071D01*
X17275071Y-11292500D01*
X17303643Y-11249643D01*
X17317928Y-11235357D01*
X17417928Y-11306786D02*
X17432214Y-11292500D01*
X17460786Y-11278214D01*
X17532214Y-11278214D01*
X17560786Y-11292500D01*
X17575071Y-11306786D01*
X17589357Y-11335357D01*
X17589357Y-11363929D01*
X17575071Y-11406786D01*
X17403643Y-11578214D01*
X17589357Y-11578214D01*
X17875071Y-11578214D02*
X17703643Y-11578214D01*
X17789357Y-11578214D02*
X17789357Y-11278214D01*
X17760786Y-11321071D01*
X17732214Y-11349643D01*
X17703643Y-11363929D01*
X18232214Y-11578214D02*
X18232214Y-11278214D01*
X18360786Y-11578214D02*
X18360786Y-11421071D01*
X18346500Y-11392500D01*
X18317928Y-11378214D01*
X18275071Y-11378214D01*
X18246500Y-11392500D01*
X18232214Y-11406786D01*
X18546500Y-11578214D02*
X18517928Y-11563929D01*
X18503643Y-11549643D01*
X18489357Y-11521071D01*
X18489357Y-11435357D01*
X18503643Y-11406786D01*
X18517928Y-11392500D01*
X18546500Y-11378214D01*
X18589357Y-11378214D01*
X18617928Y-11392500D01*
X18632214Y-11406786D01*
X18646500Y-11435357D01*
X18646500Y-11521071D01*
X18632214Y-11549643D01*
X18617928Y-11563929D01*
X18589357Y-11578214D01*
X18546500Y-11578214D01*
X18817928Y-11578214D02*
X18789357Y-11563929D01*
X18775071Y-11535357D01*
X18775071Y-11278214D01*
X19046500Y-11563929D02*
X19017928Y-11578214D01*
X18960786Y-11578214D01*
X18932214Y-11563929D01*
X18917928Y-11535357D01*
X18917928Y-11421071D01*
X18932214Y-11392500D01*
X18960786Y-11378214D01*
X19017928Y-11378214D01*
X19046500Y-11392500D01*
X19060786Y-11421071D01*
X19060786Y-11449643D01*
X18917928Y-11478214D01*
X19175071Y-11563929D02*
X19203643Y-11578214D01*
X19260786Y-11578214D01*
X19289357Y-11563929D01*
X19303643Y-11535357D01*
X19303643Y-11521071D01*
X19289357Y-11492500D01*
X19260786Y-11478214D01*
X19217928Y-11478214D01*
X19189357Y-11463929D01*
X19175071Y-11435357D01*
X19175071Y-11421071D01*
X19189357Y-11392500D01*
X19217928Y-11378214D01*
X19260786Y-11378214D01*
X19289357Y-11392500D01*
X19403643Y-11692500D02*
X19417928Y-11678214D01*
X19446500Y-11635357D01*
X19460786Y-11606786D01*
X19475071Y-11563929D01*
X19489357Y-11492500D01*
X19489357Y-11435357D01*
X19475071Y-11363929D01*
X19460786Y-11321071D01*
X19446500Y-11292500D01*
X19417928Y-11249643D01*
X19403643Y-11235357D01*
X12631500Y-11838500D02*
G75*
G03*
X12631500Y-11838500I-25000J0D01*
G01*
X12975071Y-11674214D02*
X13003643Y-11674214D01*
X13032214Y-11688500D01*
X13046500Y-11702786D01*
X13060786Y-11731357D01*
X13075071Y-11788500D01*
X13075071Y-11859929D01*
X13060786Y-11917071D01*
X13046500Y-11945643D01*
X13032214Y-11959929D01*
X13003643Y-11974214D01*
X12975071Y-11974214D01*
X12946500Y-11959929D01*
X12932214Y-11945643D01*
X12917928Y-11917071D01*
X12903643Y-11859929D01*
X12903643Y-11788500D01*
X12917928Y-11731357D01*
X12932214Y-11702786D01*
X12946500Y-11688500D01*
X12975071Y-11674214D01*
X13203643Y-11945643D02*
X13217928Y-11959929D01*
X13203643Y-11974214D01*
X13189357Y-11959929D01*
X13203643Y-11945643D01*
X13203643Y-11974214D01*
X13489357Y-11674214D02*
X13346500Y-11674214D01*
X13332214Y-11817071D01*
X13346500Y-11802786D01*
X13375071Y-11788500D01*
X13446500Y-11788500D01*
X13475071Y-11802786D01*
X13489357Y-11817071D01*
X13503643Y-11845643D01*
X13503643Y-11917071D01*
X13489357Y-11945643D01*
X13475071Y-11959929D01*
X13446500Y-11974214D01*
X13375071Y-11974214D01*
X13346500Y-11959929D01*
X13332214Y-11945643D01*
X13689357Y-11674214D02*
X13717928Y-11674214D01*
X13746500Y-11688500D01*
X13760786Y-11702786D01*
X13775071Y-11731357D01*
X13789357Y-11788500D01*
X13789357Y-11859929D01*
X13775071Y-11917071D01*
X13760786Y-11945643D01*
X13746500Y-11959929D01*
X13717928Y-11974214D01*
X13689357Y-11974214D01*
X13660786Y-11959929D01*
X13646500Y-11945643D01*
X13632214Y-11917071D01*
X13617928Y-11859929D01*
X13617928Y-11788500D01*
X13632214Y-11731357D01*
X13646500Y-11702786D01*
X13660786Y-11688500D01*
X13689357Y-11674214D01*
X13917928Y-11974214D02*
X13917928Y-11774214D01*
X13917928Y-11802786D02*
X13932214Y-11788500D01*
X13960786Y-11774214D01*
X14003643Y-11774214D01*
X14032214Y-11788500D01*
X14046500Y-11817071D01*
X14046500Y-11974214D01*
X14046500Y-11817071D02*
X14060786Y-11788500D01*
X14089357Y-11774214D01*
X14132214Y-11774214D01*
X14160786Y-11788500D01*
X14175071Y-11817071D01*
X14175071Y-11974214D01*
X14317928Y-11974214D02*
X14317928Y-11774214D01*
X14317928Y-11802786D02*
X14332214Y-11788500D01*
X14360786Y-11774214D01*
X14403643Y-11774214D01*
X14432214Y-11788500D01*
X14446500Y-11817071D01*
X14446500Y-11974214D01*
X14446500Y-11817071D02*
X14460786Y-11788500D01*
X14489357Y-11774214D01*
X14532214Y-11774214D01*
X14560786Y-11788500D01*
X14575071Y-11817071D01*
X14575071Y-11974214D01*
X15160786Y-11659929D02*
X14903643Y-12045643D01*
X15546500Y-11674214D02*
X15575071Y-11674214D01*
X15603643Y-11688500D01*
X15617928Y-11702786D01*
X15632214Y-11731357D01*
X15646500Y-11788500D01*
X15646500Y-11859929D01*
X15632214Y-11917071D01*
X15617928Y-11945643D01*
X15603643Y-11959929D01*
X15575071Y-11974214D01*
X15546500Y-11974214D01*
X15517928Y-11959929D01*
X15503643Y-11945643D01*
X15489357Y-11917071D01*
X15475071Y-11859929D01*
X15475071Y-11788500D01*
X15489357Y-11731357D01*
X15503643Y-11702786D01*
X15517928Y-11688500D01*
X15546500Y-11674214D01*
X15775071Y-11945643D02*
X15789357Y-11959929D01*
X15775071Y-11974214D01*
X15760786Y-11959929D01*
X15775071Y-11945643D01*
X15775071Y-11974214D01*
X15975071Y-11674214D02*
X16003643Y-11674214D01*
X16032214Y-11688500D01*
X16046500Y-11702786D01*
X16060786Y-11731357D01*
X16075071Y-11788500D01*
X16075071Y-11859929D01*
X16060786Y-11917071D01*
X16046500Y-11945643D01*
X16032214Y-11959929D01*
X16003643Y-11974214D01*
X15975071Y-11974214D01*
X15946500Y-11959929D01*
X15932214Y-11945643D01*
X15917928Y-11917071D01*
X15903643Y-11859929D01*
X15903643Y-11788500D01*
X15917928Y-11731357D01*
X15932214Y-11702786D01*
X15946500Y-11688500D01*
X15975071Y-11674214D01*
X16189357Y-11702786D02*
X16203643Y-11688500D01*
X16232214Y-11674214D01*
X16303643Y-11674214D01*
X16332214Y-11688500D01*
X16346500Y-11702786D01*
X16360786Y-11731357D01*
X16360786Y-11759929D01*
X16346500Y-11802786D01*
X16175071Y-11974214D01*
X16360786Y-11974214D01*
X16546500Y-11674214D02*
X16575071Y-11674214D01*
X16603643Y-11688500D01*
X16617928Y-11702786D01*
X16632214Y-11731357D01*
X16646500Y-11788500D01*
X16646500Y-11859929D01*
X16632214Y-11917071D01*
X16617928Y-11945643D01*
X16603643Y-11959929D01*
X16575071Y-11974214D01*
X16546500Y-11974214D01*
X16517928Y-11959929D01*
X16503643Y-11945643D01*
X16489357Y-11917071D01*
X16475071Y-11859929D01*
X16475071Y-11788500D01*
X16489357Y-11731357D01*
X16503643Y-11702786D01*
X16517928Y-11688500D01*
X16546500Y-11674214D01*
X16760786Y-11674214D02*
X16760786Y-11731357D01*
X16875071Y-11674214D02*
X16875071Y-11731357D01*
X17317928Y-12088500D02*
X17303643Y-12074214D01*
X17275071Y-12031357D01*
X17260786Y-12002786D01*
X17246500Y-11959929D01*
X17232214Y-11888500D01*
X17232214Y-11831357D01*
X17246500Y-11759929D01*
X17260786Y-11717071D01*
X17275071Y-11688500D01*
X17303643Y-11645643D01*
X17317928Y-11631357D01*
X17417928Y-11702786D02*
X17432214Y-11688500D01*
X17460786Y-11674214D01*
X17532214Y-11674214D01*
X17560786Y-11688500D01*
X17575071Y-11702786D01*
X17589357Y-11731357D01*
X17589357Y-11759929D01*
X17575071Y-11802786D01*
X17403643Y-11974214D01*
X17589357Y-11974214D01*
X17946500Y-11974214D02*
X17946500Y-11674214D01*
X18075071Y-11974214D02*
X18075071Y-11817071D01*
X18060786Y-11788500D01*
X18032214Y-11774214D01*
X17989357Y-11774214D01*
X17960786Y-11788500D01*
X17946500Y-11802786D01*
X18260786Y-11974214D02*
X18232214Y-11959929D01*
X18217928Y-11945643D01*
X18203643Y-11917071D01*
X18203643Y-11831357D01*
X18217928Y-11802786D01*
X18232214Y-11788500D01*
X18260786Y-11774214D01*
X18303643Y-11774214D01*
X18332214Y-11788500D01*
X18346500Y-11802786D01*
X18360786Y-11831357D01*
X18360786Y-11917071D01*
X18346500Y-11945643D01*
X18332214Y-11959929D01*
X18303643Y-11974214D01*
X18260786Y-11974214D01*
X18532214Y-11974214D02*
X18503643Y-11959929D01*
X18489357Y-11931357D01*
X18489357Y-11674214D01*
X18760786Y-11959929D02*
X18732214Y-11974214D01*
X18675071Y-11974214D01*
X18646500Y-11959929D01*
X18632214Y-11931357D01*
X18632214Y-11817071D01*
X18646500Y-11788500D01*
X18675071Y-11774214D01*
X18732214Y-11774214D01*
X18760786Y-11788500D01*
X18775071Y-11817071D01*
X18775071Y-11845643D01*
X18632214Y-11874214D01*
X18889357Y-11959929D02*
X18917928Y-11974214D01*
X18975071Y-11974214D01*
X19003643Y-11959929D01*
X19017928Y-11931357D01*
X19017928Y-11917071D01*
X19003643Y-11888500D01*
X18975071Y-11874214D01*
X18932214Y-11874214D01*
X18903643Y-11859929D01*
X18889357Y-11831357D01*
X18889357Y-11817071D01*
X18903643Y-11788500D01*
X18932214Y-11774214D01*
X18975071Y-11774214D01*
X19003643Y-11788500D01*
X19117928Y-12088500D02*
X19132214Y-12074214D01*
X19160786Y-12031357D01*
X19175071Y-12002786D01*
X19189357Y-11959929D01*
X19203643Y-11888500D01*
X19203643Y-11831357D01*
X19189357Y-11759929D01*
X19175071Y-11717071D01*
X19160786Y-11688500D01*
X19132214Y-11645643D01*
X19117928Y-11631357D01*
X12591500Y-12194500D02*
X12591500Y-12274500D01*
X12551500Y-12234500D02*
X12631500Y-12234500D01*
X12975071Y-12070214D02*
X13003643Y-12070214D01*
X13032214Y-12084500D01*
X13046500Y-12098786D01*
X13060786Y-12127357D01*
X13075071Y-12184500D01*
X13075071Y-12255929D01*
X13060786Y-12313071D01*
X13046500Y-12341643D01*
X13032214Y-12355929D01*
X13003643Y-12370214D01*
X12975071Y-12370214D01*
X12946500Y-12355929D01*
X12932214Y-12341643D01*
X12917928Y-12313071D01*
X12903643Y-12255929D01*
X12903643Y-12184500D01*
X12917928Y-12127357D01*
X12932214Y-12098786D01*
X12946500Y-12084500D01*
X12975071Y-12070214D01*
X13203643Y-12341643D02*
X13217928Y-12355929D01*
X13203643Y-12370214D01*
X13189357Y-12355929D01*
X13203643Y-12341643D01*
X13203643Y-12370214D01*
X13389357Y-12198786D02*
X13360786Y-12184500D01*
X13346500Y-12170214D01*
X13332214Y-12141643D01*
X13332214Y-12127357D01*
X13346500Y-12098786D01*
X13360786Y-12084500D01*
X13389357Y-12070214D01*
X13446500Y-12070214D01*
X13475071Y-12084500D01*
X13489357Y-12098786D01*
X13503643Y-12127357D01*
X13503643Y-12141643D01*
X13489357Y-12170214D01*
X13475071Y-12184500D01*
X13446500Y-12198786D01*
X13389357Y-12198786D01*
X13360786Y-12213071D01*
X13346500Y-12227357D01*
X13332214Y-12255929D01*
X13332214Y-12313071D01*
X13346500Y-12341643D01*
X13360786Y-12355929D01*
X13389357Y-12370214D01*
X13446500Y-12370214D01*
X13475071Y-12355929D01*
X13489357Y-12341643D01*
X13503643Y-12313071D01*
X13503643Y-12255929D01*
X13489357Y-12227357D01*
X13475071Y-12213071D01*
X13446500Y-12198786D01*
X13689357Y-12070214D02*
X13717928Y-12070214D01*
X13746500Y-12084500D01*
X13760786Y-12098786D01*
X13775071Y-12127357D01*
X13789357Y-12184500D01*
X13789357Y-12255929D01*
X13775071Y-12313071D01*
X13760786Y-12341643D01*
X13746500Y-12355929D01*
X13717928Y-12370214D01*
X13689357Y-12370214D01*
X13660786Y-12355929D01*
X13646500Y-12341643D01*
X13632214Y-12313071D01*
X13617928Y-12255929D01*
X13617928Y-12184500D01*
X13632214Y-12127357D01*
X13646500Y-12098786D01*
X13660786Y-12084500D01*
X13689357Y-12070214D01*
X13917928Y-12370214D02*
X13917928Y-12170214D01*
X13917928Y-12198786D02*
X13932214Y-12184500D01*
X13960786Y-12170214D01*
X14003643Y-12170214D01*
X14032214Y-12184500D01*
X14046500Y-12213071D01*
X14046500Y-12370214D01*
X14046500Y-12213071D02*
X14060786Y-12184500D01*
X14089357Y-12170214D01*
X14132214Y-12170214D01*
X14160786Y-12184500D01*
X14175071Y-12213071D01*
X14175071Y-12370214D01*
X14317928Y-12370214D02*
X14317928Y-12170214D01*
X14317928Y-12198786D02*
X14332214Y-12184500D01*
X14360786Y-12170214D01*
X14403643Y-12170214D01*
X14432214Y-12184500D01*
X14446500Y-12213071D01*
X14446500Y-12370214D01*
X14446500Y-12213071D02*
X14460786Y-12184500D01*
X14489357Y-12170214D01*
X14532214Y-12170214D01*
X14560786Y-12184500D01*
X14575071Y-12213071D01*
X14575071Y-12370214D01*
X15160786Y-12055929D02*
X14903643Y-12441643D01*
X15546500Y-12070214D02*
X15575071Y-12070214D01*
X15603643Y-12084500D01*
X15617928Y-12098786D01*
X15632214Y-12127357D01*
X15646500Y-12184500D01*
X15646500Y-12255929D01*
X15632214Y-12313071D01*
X15617928Y-12341643D01*
X15603643Y-12355929D01*
X15575071Y-12370214D01*
X15546500Y-12370214D01*
X15517928Y-12355929D01*
X15503643Y-12341643D01*
X15489357Y-12313071D01*
X15475071Y-12255929D01*
X15475071Y-12184500D01*
X15489357Y-12127357D01*
X15503643Y-12098786D01*
X15517928Y-12084500D01*
X15546500Y-12070214D01*
X15775071Y-12341643D02*
X15789357Y-12355929D01*
X15775071Y-12370214D01*
X15760786Y-12355929D01*
X15775071Y-12341643D01*
X15775071Y-12370214D01*
X15975071Y-12070214D02*
X16003643Y-12070214D01*
X16032214Y-12084500D01*
X16046500Y-12098786D01*
X16060786Y-12127357D01*
X16075071Y-12184500D01*
X16075071Y-12255929D01*
X16060786Y-12313071D01*
X16046500Y-12341643D01*
X16032214Y-12355929D01*
X16003643Y-12370214D01*
X15975071Y-12370214D01*
X15946500Y-12355929D01*
X15932214Y-12341643D01*
X15917928Y-12313071D01*
X15903643Y-12255929D01*
X15903643Y-12184500D01*
X15917928Y-12127357D01*
X15932214Y-12098786D01*
X15946500Y-12084500D01*
X15975071Y-12070214D01*
X16175071Y-12070214D02*
X16360786Y-12070214D01*
X16260786Y-12184500D01*
X16303643Y-12184500D01*
X16332214Y-12198786D01*
X16346500Y-12213071D01*
X16360786Y-12241643D01*
X16360786Y-12313071D01*
X16346500Y-12341643D01*
X16332214Y-12355929D01*
X16303643Y-12370214D01*
X16217928Y-12370214D01*
X16189357Y-12355929D01*
X16175071Y-12341643D01*
X16646500Y-12370214D02*
X16475071Y-12370214D01*
X16560786Y-12370214D02*
X16560786Y-12070214D01*
X16532214Y-12113071D01*
X16503643Y-12141643D01*
X16475071Y-12155929D01*
X16760786Y-12070214D02*
X16760786Y-12127357D01*
X16875071Y-12070214D02*
X16875071Y-12127357D01*
X17317928Y-12484500D02*
X17303643Y-12470214D01*
X17275071Y-12427357D01*
X17260786Y-12398786D01*
X17246500Y-12355929D01*
X17232214Y-12284500D01*
X17232214Y-12227357D01*
X17246500Y-12155929D01*
X17260786Y-12113071D01*
X17275071Y-12084500D01*
X17303643Y-12041643D01*
X17317928Y-12027357D01*
X17575071Y-12070214D02*
X17432214Y-12070214D01*
X17417928Y-12213071D01*
X17432214Y-12198786D01*
X17460786Y-12184500D01*
X17532214Y-12184500D01*
X17560786Y-12198786D01*
X17575071Y-12213071D01*
X17589357Y-12241643D01*
X17589357Y-12313071D01*
X17575071Y-12341643D01*
X17560786Y-12355929D01*
X17532214Y-12370214D01*
X17460786Y-12370214D01*
X17432214Y-12355929D01*
X17417928Y-12341643D01*
X17775071Y-12070214D02*
X17803643Y-12070214D01*
X17832214Y-12084500D01*
X17846500Y-12098786D01*
X17860786Y-12127357D01*
X17875071Y-12184500D01*
X17875071Y-12255929D01*
X17860786Y-12313071D01*
X17846500Y-12341643D01*
X17832214Y-12355929D01*
X17803643Y-12370214D01*
X17775071Y-12370214D01*
X17746500Y-12355929D01*
X17732214Y-12341643D01*
X17717928Y-12313071D01*
X17703643Y-12255929D01*
X17703643Y-12184500D01*
X17717928Y-12127357D01*
X17732214Y-12098786D01*
X17746500Y-12084500D01*
X17775071Y-12070214D01*
X18232214Y-12370214D02*
X18232214Y-12070214D01*
X18360786Y-12370214D02*
X18360786Y-12213071D01*
X18346500Y-12184500D01*
X18317928Y-12170214D01*
X18275071Y-12170214D01*
X18246500Y-12184500D01*
X18232214Y-12198786D01*
X18546500Y-12370214D02*
X18517928Y-12355929D01*
X18503643Y-12341643D01*
X18489357Y-12313071D01*
X18489357Y-12227357D01*
X18503643Y-12198786D01*
X18517928Y-12184500D01*
X18546500Y-12170214D01*
X18589357Y-12170214D01*
X18617928Y-12184500D01*
X18632214Y-12198786D01*
X18646500Y-12227357D01*
X18646500Y-12313071D01*
X18632214Y-12341643D01*
X18617928Y-12355929D01*
X18589357Y-12370214D01*
X18546500Y-12370214D01*
X18817928Y-12370214D02*
X18789357Y-12355929D01*
X18775071Y-12327357D01*
X18775071Y-12070214D01*
X19046500Y-12355929D02*
X19017928Y-12370214D01*
X18960786Y-12370214D01*
X18932214Y-12355929D01*
X18917928Y-12327357D01*
X18917928Y-12213071D01*
X18932214Y-12184500D01*
X18960786Y-12170214D01*
X19017928Y-12170214D01*
X19046500Y-12184500D01*
X19060786Y-12213071D01*
X19060786Y-12241643D01*
X18917928Y-12270214D01*
X19175071Y-12355929D02*
X19203643Y-12370214D01*
X19260786Y-12370214D01*
X19289357Y-12355929D01*
X19303643Y-12327357D01*
X19303643Y-12313071D01*
X19289357Y-12284500D01*
X19260786Y-12270214D01*
X19217928Y-12270214D01*
X19189357Y-12255929D01*
X19175071Y-12227357D01*
X19175071Y-12213071D01*
X19189357Y-12184500D01*
X19217928Y-12170214D01*
X19260786Y-12170214D01*
X19289357Y-12184500D01*
X19403643Y-12484500D02*
X19417928Y-12470214D01*
X19446500Y-12427357D01*
X19460786Y-12398786D01*
X19475071Y-12355929D01*
X19489357Y-12284500D01*
X19489357Y-12227357D01*
X19475071Y-12155929D01*
X19460786Y-12113071D01*
X19446500Y-12084500D01*
X19417928Y-12041643D01*
X19403643Y-12027357D01*
X12618320Y-12662320D02*
X12618320Y-12598680D01*
X12554680Y-12598680D01*
X12554680Y-12662320D01*
X12618320Y-12662320D01*
X12975071Y-12466214D02*
X13003643Y-12466214D01*
X13032214Y-12480500D01*
X13046500Y-12494786D01*
X13060786Y-12523357D01*
X13075071Y-12580500D01*
X13075071Y-12651929D01*
X13060786Y-12709071D01*
X13046500Y-12737643D01*
X13032214Y-12751929D01*
X13003643Y-12766214D01*
X12975071Y-12766214D01*
X12946500Y-12751929D01*
X12932214Y-12737643D01*
X12917928Y-12709071D01*
X12903643Y-12651929D01*
X12903643Y-12580500D01*
X12917928Y-12523357D01*
X12932214Y-12494786D01*
X12946500Y-12480500D01*
X12975071Y-12466214D01*
X13203643Y-12737643D02*
X13217928Y-12751929D01*
X13203643Y-12766214D01*
X13189357Y-12751929D01*
X13203643Y-12737643D01*
X13203643Y-12766214D01*
X13360786Y-12766214D02*
X13417928Y-12766214D01*
X13446500Y-12751929D01*
X13460786Y-12737643D01*
X13489357Y-12694786D01*
X13503643Y-12637643D01*
X13503643Y-12523357D01*
X13489357Y-12494786D01*
X13475071Y-12480500D01*
X13446500Y-12466214D01*
X13389357Y-12466214D01*
X13360786Y-12480500D01*
X13346500Y-12494786D01*
X13332214Y-12523357D01*
X13332214Y-12594786D01*
X13346500Y-12623357D01*
X13360786Y-12637643D01*
X13389357Y-12651929D01*
X13446500Y-12651929D01*
X13475071Y-12637643D01*
X13489357Y-12623357D01*
X13503643Y-12594786D01*
X13689357Y-12466214D02*
X13717928Y-12466214D01*
X13746500Y-12480500D01*
X13760786Y-12494786D01*
X13775071Y-12523357D01*
X13789357Y-12580500D01*
X13789357Y-12651929D01*
X13775071Y-12709071D01*
X13760786Y-12737643D01*
X13746500Y-12751929D01*
X13717928Y-12766214D01*
X13689357Y-12766214D01*
X13660786Y-12751929D01*
X13646500Y-12737643D01*
X13632214Y-12709071D01*
X13617928Y-12651929D01*
X13617928Y-12580500D01*
X13632214Y-12523357D01*
X13646500Y-12494786D01*
X13660786Y-12480500D01*
X13689357Y-12466214D01*
X13917928Y-12766214D02*
X13917928Y-12566214D01*
X13917928Y-12594786D02*
X13932214Y-12580500D01*
X13960786Y-12566214D01*
X14003643Y-12566214D01*
X14032214Y-12580500D01*
X14046500Y-12609071D01*
X14046500Y-12766214D01*
X14046500Y-12609071D02*
X14060786Y-12580500D01*
X14089357Y-12566214D01*
X14132214Y-12566214D01*
X14160786Y-12580500D01*
X14175071Y-12609071D01*
X14175071Y-12766214D01*
X14317928Y-12766214D02*
X14317928Y-12566214D01*
X14317928Y-12594786D02*
X14332214Y-12580500D01*
X14360786Y-12566214D01*
X14403643Y-12566214D01*
X14432214Y-12580500D01*
X14446500Y-12609071D01*
X14446500Y-12766214D01*
X14446500Y-12609071D02*
X14460786Y-12580500D01*
X14489357Y-12566214D01*
X14532214Y-12566214D01*
X14560786Y-12580500D01*
X14575071Y-12609071D01*
X14575071Y-12766214D01*
X15160786Y-12451929D02*
X14903643Y-12837643D01*
X15546500Y-12466214D02*
X15575071Y-12466214D01*
X15603643Y-12480500D01*
X15617928Y-12494786D01*
X15632214Y-12523357D01*
X15646500Y-12580500D01*
X15646500Y-12651929D01*
X15632214Y-12709071D01*
X15617928Y-12737643D01*
X15603643Y-12751929D01*
X15575071Y-12766214D01*
X15546500Y-12766214D01*
X15517928Y-12751929D01*
X15503643Y-12737643D01*
X15489357Y-12709071D01*
X15475071Y-12651929D01*
X15475071Y-12580500D01*
X15489357Y-12523357D01*
X15503643Y-12494786D01*
X15517928Y-12480500D01*
X15546500Y-12466214D01*
X15775071Y-12737643D02*
X15789357Y-12751929D01*
X15775071Y-12766214D01*
X15760786Y-12751929D01*
X15775071Y-12737643D01*
X15775071Y-12766214D01*
X15975071Y-12466214D02*
X16003643Y-12466214D01*
X16032214Y-12480500D01*
X16046500Y-12494786D01*
X16060786Y-12523357D01*
X16075071Y-12580500D01*
X16075071Y-12651929D01*
X16060786Y-12709071D01*
X16046500Y-12737643D01*
X16032214Y-12751929D01*
X16003643Y-12766214D01*
X15975071Y-12766214D01*
X15946500Y-12751929D01*
X15932214Y-12737643D01*
X15917928Y-12709071D01*
X15903643Y-12651929D01*
X15903643Y-12580500D01*
X15917928Y-12523357D01*
X15932214Y-12494786D01*
X15946500Y-12480500D01*
X15975071Y-12466214D01*
X16175071Y-12466214D02*
X16360786Y-12466214D01*
X16260786Y-12580500D01*
X16303643Y-12580500D01*
X16332214Y-12594786D01*
X16346500Y-12609071D01*
X16360786Y-12637643D01*
X16360786Y-12709071D01*
X16346500Y-12737643D01*
X16332214Y-12751929D01*
X16303643Y-12766214D01*
X16217928Y-12766214D01*
X16189357Y-12751929D01*
X16175071Y-12737643D01*
X16632214Y-12466214D02*
X16489357Y-12466214D01*
X16475071Y-12609071D01*
X16489357Y-12594786D01*
X16517928Y-12580500D01*
X16589357Y-12580500D01*
X16617928Y-12594786D01*
X16632214Y-12609071D01*
X16646500Y-12637643D01*
X16646500Y-12709071D01*
X16632214Y-12737643D01*
X16617928Y-12751929D01*
X16589357Y-12766214D01*
X16517928Y-12766214D01*
X16489357Y-12751929D01*
X16475071Y-12737643D01*
X16760786Y-12466214D02*
X16760786Y-12523357D01*
X16875071Y-12466214D02*
X16875071Y-12523357D01*
X17317928Y-12880500D02*
X17303643Y-12866214D01*
X17275071Y-12823357D01*
X17260786Y-12794786D01*
X17246500Y-12751929D01*
X17232214Y-12680500D01*
X17232214Y-12623357D01*
X17246500Y-12551929D01*
X17260786Y-12509071D01*
X17275071Y-12480500D01*
X17303643Y-12437643D01*
X17317928Y-12423357D01*
X17403643Y-12466214D02*
X17589357Y-12466214D01*
X17489357Y-12580500D01*
X17532214Y-12580500D01*
X17560786Y-12594786D01*
X17575071Y-12609071D01*
X17589357Y-12637643D01*
X17589357Y-12709071D01*
X17575071Y-12737643D01*
X17560786Y-12751929D01*
X17532214Y-12766214D01*
X17446500Y-12766214D01*
X17417928Y-12751929D01*
X17403643Y-12737643D01*
X17846500Y-12566214D02*
X17846500Y-12766214D01*
X17775071Y-12451929D02*
X17703643Y-12666214D01*
X17889357Y-12666214D01*
X18232214Y-12766214D02*
X18232214Y-12466214D01*
X18360786Y-12766214D02*
X18360786Y-12609071D01*
X18346500Y-12580500D01*
X18317928Y-12566214D01*
X18275071Y-12566214D01*
X18246500Y-12580500D01*
X18232214Y-12594786D01*
X18546500Y-12766214D02*
X18517928Y-12751929D01*
X18503643Y-12737643D01*
X18489357Y-12709071D01*
X18489357Y-12623357D01*
X18503643Y-12594786D01*
X18517928Y-12580500D01*
X18546500Y-12566214D01*
X18589357Y-12566214D01*
X18617928Y-12580500D01*
X18632214Y-12594786D01*
X18646500Y-12623357D01*
X18646500Y-12709071D01*
X18632214Y-12737643D01*
X18617928Y-12751929D01*
X18589357Y-12766214D01*
X18546500Y-12766214D01*
X18817928Y-12766214D02*
X18789357Y-12751929D01*
X18775071Y-12723357D01*
X18775071Y-12466214D01*
X19046500Y-12751929D02*
X19017928Y-12766214D01*
X18960786Y-12766214D01*
X18932214Y-12751929D01*
X18917928Y-12723357D01*
X18917928Y-12609071D01*
X18932214Y-12580500D01*
X18960786Y-12566214D01*
X19017928Y-12566214D01*
X19046500Y-12580500D01*
X19060786Y-12609071D01*
X19060786Y-12637643D01*
X18917928Y-12666214D01*
X19175071Y-12751929D02*
X19203643Y-12766214D01*
X19260786Y-12766214D01*
X19289357Y-12751929D01*
X19303643Y-12723357D01*
X19303643Y-12709071D01*
X19289357Y-12680500D01*
X19260786Y-12666214D01*
X19217928Y-12666214D01*
X19189357Y-12651929D01*
X19175071Y-12623357D01*
X19175071Y-12609071D01*
X19189357Y-12580500D01*
X19217928Y-12566214D01*
X19260786Y-12566214D01*
X19289357Y-12580500D01*
X19403643Y-12880500D02*
X19417928Y-12866214D01*
X19446500Y-12823357D01*
X19460786Y-12794786D01*
X19475071Y-12751929D01*
X19489357Y-12680500D01*
X19489357Y-12623357D01*
X19475071Y-12551929D01*
X19460786Y-12509071D01*
X19446500Y-12480500D01*
X19417928Y-12437643D01*
X19403643Y-12423357D01*
X12576500Y-13081500D02*
X12631500Y-13026500D01*
X12576500Y-12971500D01*
X12521500Y-13026500D01*
X12576500Y-13081500D01*
X13075071Y-13162214D02*
X12903643Y-13162214D01*
X12989357Y-13162214D02*
X12989357Y-12862214D01*
X12960786Y-12905071D01*
X12932214Y-12933643D01*
X12903643Y-12947929D01*
X13203643Y-13133643D02*
X13217928Y-13147929D01*
X13203643Y-13162214D01*
X13189357Y-13147929D01*
X13203643Y-13133643D01*
X13203643Y-13162214D01*
X13503643Y-13162214D02*
X13332214Y-13162214D01*
X13417928Y-13162214D02*
X13417928Y-12862214D01*
X13389357Y-12905071D01*
X13360786Y-12933643D01*
X13332214Y-12947929D01*
X13689357Y-12862214D02*
X13717928Y-12862214D01*
X13746500Y-12876500D01*
X13760786Y-12890786D01*
X13775071Y-12919357D01*
X13789357Y-12976500D01*
X13789357Y-13047929D01*
X13775071Y-13105071D01*
X13760786Y-13133643D01*
X13746500Y-13147929D01*
X13717928Y-13162214D01*
X13689357Y-13162214D01*
X13660786Y-13147929D01*
X13646500Y-13133643D01*
X13632214Y-13105071D01*
X13617928Y-13047929D01*
X13617928Y-12976500D01*
X13632214Y-12919357D01*
X13646500Y-12890786D01*
X13660786Y-12876500D01*
X13689357Y-12862214D01*
X13917928Y-13162214D02*
X13917928Y-12962214D01*
X13917928Y-12990786D02*
X13932214Y-12976500D01*
X13960786Y-12962214D01*
X14003643Y-12962214D01*
X14032214Y-12976500D01*
X14046500Y-13005071D01*
X14046500Y-13162214D01*
X14046500Y-13005071D02*
X14060786Y-12976500D01*
X14089357Y-12962214D01*
X14132214Y-12962214D01*
X14160786Y-12976500D01*
X14175071Y-13005071D01*
X14175071Y-13162214D01*
X14317928Y-13162214D02*
X14317928Y-12962214D01*
X14317928Y-12990786D02*
X14332214Y-12976500D01*
X14360786Y-12962214D01*
X14403643Y-12962214D01*
X14432214Y-12976500D01*
X14446500Y-13005071D01*
X14446500Y-13162214D01*
X14446500Y-13005071D02*
X14460786Y-12976500D01*
X14489357Y-12962214D01*
X14532214Y-12962214D01*
X14560786Y-12976500D01*
X14575071Y-13005071D01*
X14575071Y-13162214D01*
X15160786Y-12847929D02*
X14903643Y-13233643D01*
X15546500Y-12862214D02*
X15575071Y-12862214D01*
X15603643Y-12876500D01*
X15617928Y-12890786D01*
X15632214Y-12919357D01*
X15646500Y-12976500D01*
X15646500Y-13047929D01*
X15632214Y-13105071D01*
X15617928Y-13133643D01*
X15603643Y-13147929D01*
X15575071Y-13162214D01*
X15546500Y-13162214D01*
X15517928Y-13147929D01*
X15503643Y-13133643D01*
X15489357Y-13105071D01*
X15475071Y-13047929D01*
X15475071Y-12976500D01*
X15489357Y-12919357D01*
X15503643Y-12890786D01*
X15517928Y-12876500D01*
X15546500Y-12862214D01*
X15775071Y-13133643D02*
X15789357Y-13147929D01*
X15775071Y-13162214D01*
X15760786Y-13147929D01*
X15775071Y-13133643D01*
X15775071Y-13162214D01*
X15975071Y-12862214D02*
X16003643Y-12862214D01*
X16032214Y-12876500D01*
X16046500Y-12890786D01*
X16060786Y-12919357D01*
X16075071Y-12976500D01*
X16075071Y-13047929D01*
X16060786Y-13105071D01*
X16046500Y-13133643D01*
X16032214Y-13147929D01*
X16003643Y-13162214D01*
X15975071Y-13162214D01*
X15946500Y-13147929D01*
X15932214Y-13133643D01*
X15917928Y-13105071D01*
X15903643Y-13047929D01*
X15903643Y-12976500D01*
X15917928Y-12919357D01*
X15932214Y-12890786D01*
X15946500Y-12876500D01*
X15975071Y-12862214D01*
X16332214Y-12962214D02*
X16332214Y-13162214D01*
X16260786Y-12847929D02*
X16189357Y-13062214D01*
X16375071Y-13062214D01*
X16460786Y-12862214D02*
X16646500Y-12862214D01*
X16546500Y-12976500D01*
X16589357Y-12976500D01*
X16617928Y-12990786D01*
X16632214Y-13005071D01*
X16646500Y-13033643D01*
X16646500Y-13105071D01*
X16632214Y-13133643D01*
X16617928Y-13147929D01*
X16589357Y-13162214D01*
X16503643Y-13162214D01*
X16475071Y-13147929D01*
X16460786Y-13133643D01*
X16760786Y-12862214D02*
X16760786Y-12919357D01*
X16875071Y-12862214D02*
X16875071Y-12919357D01*
X17317928Y-13276500D02*
X17303643Y-13262214D01*
X17275071Y-13219357D01*
X17260786Y-13190786D01*
X17246500Y-13147929D01*
X17232214Y-13076500D01*
X17232214Y-13019357D01*
X17246500Y-12947929D01*
X17260786Y-12905071D01*
X17275071Y-12876500D01*
X17303643Y-12833643D01*
X17317928Y-12819357D01*
X17589357Y-13162214D02*
X17417928Y-13162214D01*
X17503643Y-13162214D02*
X17503643Y-12862214D01*
X17475071Y-12905071D01*
X17446500Y-12933643D01*
X17417928Y-12947929D01*
X17703643Y-12890786D02*
X17717928Y-12876500D01*
X17746500Y-12862214D01*
X17817928Y-12862214D01*
X17846500Y-12876500D01*
X17860786Y-12890786D01*
X17875071Y-12919357D01*
X17875071Y-12947929D01*
X17860786Y-12990786D01*
X17689357Y-13162214D01*
X17875071Y-13162214D01*
X18232214Y-13162214D02*
X18232214Y-12862214D01*
X18360786Y-13162214D02*
X18360786Y-13005071D01*
X18346500Y-12976500D01*
X18317928Y-12962214D01*
X18275071Y-12962214D01*
X18246500Y-12976500D01*
X18232214Y-12990786D01*
X18546500Y-13162214D02*
X18517928Y-13147929D01*
X18503643Y-13133643D01*
X18489357Y-13105071D01*
X18489357Y-13019357D01*
X18503643Y-12990786D01*
X18517928Y-12976500D01*
X18546500Y-12962214D01*
X18589357Y-12962214D01*
X18617928Y-12976500D01*
X18632214Y-12990786D01*
X18646500Y-13019357D01*
X18646500Y-13105071D01*
X18632214Y-13133643D01*
X18617928Y-13147929D01*
X18589357Y-13162214D01*
X18546500Y-13162214D01*
X18817928Y-13162214D02*
X18789357Y-13147929D01*
X18775071Y-13119357D01*
X18775071Y-12862214D01*
X19046500Y-13147929D02*
X19017928Y-13162214D01*
X18960786Y-13162214D01*
X18932214Y-13147929D01*
X18917928Y-13119357D01*
X18917928Y-13005071D01*
X18932214Y-12976500D01*
X18960786Y-12962214D01*
X19017928Y-12962214D01*
X19046500Y-12976500D01*
X19060786Y-13005071D01*
X19060786Y-13033643D01*
X18917928Y-13062214D01*
X19175071Y-13147929D02*
X19203643Y-13162214D01*
X19260786Y-13162214D01*
X19289357Y-13147929D01*
X19303643Y-13119357D01*
X19303643Y-13105071D01*
X19289357Y-13076500D01*
X19260786Y-13062214D01*
X19217928Y-13062214D01*
X19189357Y-13047929D01*
X19175071Y-13019357D01*
X19175071Y-13005071D01*
X19189357Y-12976500D01*
X19217928Y-12962214D01*
X19260786Y-12962214D01*
X19289357Y-12976500D01*
X19403643Y-13276500D02*
X19417928Y-13262214D01*
X19446500Y-13219357D01*
X19460786Y-13190786D01*
X19475071Y-13147929D01*
X19489357Y-13076500D01*
X19489357Y-13019357D01*
X19475071Y-12947929D01*
X19460786Y-12905071D01*
X19446500Y-12876500D01*
X19417928Y-12833643D01*
X19403643Y-12819357D01*
M02*
