%TF.GenerationSoftware,KiCad,Pcbnew,5.1.8-5.1.8*%
%TF.CreationDate,2022-01-13T22:28:20+01:00*%
%TF.ProjectId,usb_binary_clk,7573625f-6269-46e6-9172-795f636c6b2e,rev?*%
%TF.SameCoordinates,Original*%
%TF.FileFunction,Copper,L1,Top*%
%TF.FilePolarity,Positive*%
%FSLAX46Y46*%
G04 Gerber Fmt 4.6, Leading zero omitted, Abs format (unit mm)*
G04 Created by KiCad (PCBNEW 5.1.8-5.1.8) date 2022-01-13 22:28:20*
%MOMM*%
%LPD*%
G01*
G04 APERTURE LIST*
%TA.AperFunction,ComponentPad*%
%ADD10C,2.000000*%
%TD*%
%TA.AperFunction,ComponentPad*%
%ADD11C,1.800000*%
%TD*%
%TA.AperFunction,ComponentPad*%
%ADD12R,1.800000X1.800000*%
%TD*%
%TA.AperFunction,ComponentPad*%
%ADD13O,1.600000X1.600000*%
%TD*%
%TA.AperFunction,ComponentPad*%
%ADD14C,1.600000*%
%TD*%
%TA.AperFunction,ComponentPad*%
%ADD15C,1.000000*%
%TD*%
%TA.AperFunction,ComponentPad*%
%ADD16R,1.600000X1.600000*%
%TD*%
%TA.AperFunction,ViaPad*%
%ADD17C,0.800000*%
%TD*%
%TA.AperFunction,Conductor*%
%ADD18C,0.250000*%
%TD*%
%TA.AperFunction,Conductor*%
%ADD19C,0.500000*%
%TD*%
%TA.AperFunction,Conductor*%
%ADD20C,0.254000*%
%TD*%
%TA.AperFunction,Conductor*%
%ADD21C,0.100000*%
%TD*%
G04 APERTURE END LIST*
D10*
X172010000Y-59400000D03*
X172010000Y-54900000D03*
X178510000Y-59400000D03*
X178510000Y-54900000D03*
X172010000Y-70830000D03*
X172010000Y-66330000D03*
X178510000Y-70830000D03*
X178510000Y-66330000D03*
X172010000Y-82260000D03*
X172010000Y-77760000D03*
X178510000Y-82260000D03*
X178510000Y-77760000D03*
D11*
X166370000Y-87630000D03*
D12*
X163830000Y-87630000D03*
D13*
X132080000Y-91440000D03*
D14*
X132080000Y-101600000D03*
D13*
X148590000Y-99060000D03*
D14*
X158750000Y-99060000D03*
D13*
X179070000Y-62865000D03*
D14*
X171450000Y-62865000D03*
D13*
X179070000Y-74295000D03*
D14*
X171450000Y-74295000D03*
D13*
X137160000Y-80010000D03*
D14*
X129540000Y-80010000D03*
D13*
X179070000Y-85725000D03*
D14*
X171450000Y-85725000D03*
D13*
X137160000Y-72390000D03*
D14*
X129540000Y-72390000D03*
D13*
X137160000Y-87630000D03*
D14*
X129540000Y-87630000D03*
D13*
X137160000Y-64770000D03*
D14*
X129540000Y-64770000D03*
D13*
X137160000Y-57150000D03*
D14*
X129540000Y-57150000D03*
D11*
X143510000Y-72390000D03*
D12*
X140970000Y-72390000D03*
D11*
X166370000Y-80010000D03*
D12*
X163830000Y-80010000D03*
D11*
X158750000Y-80010000D03*
D12*
X156210000Y-80010000D03*
D11*
X151130000Y-80010000D03*
D12*
X148590000Y-80010000D03*
D11*
X143510000Y-80010000D03*
D12*
X140970000Y-80010000D03*
D11*
X166370000Y-72390000D03*
D12*
X163830000Y-72390000D03*
D11*
X158750000Y-72390000D03*
D12*
X156210000Y-72390000D03*
D11*
X151130000Y-72390000D03*
D12*
X148590000Y-72390000D03*
D11*
X166370000Y-64770000D03*
D12*
X163830000Y-64770000D03*
D11*
X158750000Y-64770000D03*
D12*
X156210000Y-64770000D03*
D11*
X151130000Y-64770000D03*
D12*
X148590000Y-64770000D03*
D11*
X143510000Y-64770000D03*
D12*
X140970000Y-64770000D03*
D11*
X166370000Y-57150000D03*
D12*
X163830000Y-57150000D03*
D11*
X158750000Y-57150000D03*
D12*
X156210000Y-57150000D03*
D11*
X151130000Y-57150000D03*
D12*
X148590000Y-57150000D03*
D11*
X143510000Y-57150000D03*
D12*
X140970000Y-57150000D03*
D15*
X147320000Y-88900000D03*
X147320000Y-86360000D03*
D14*
X162560000Y-100330000D03*
D13*
X177800000Y-92710000D03*
X165100000Y-100330000D03*
X175260000Y-92710000D03*
X167640000Y-100330000D03*
X172720000Y-92710000D03*
X170180000Y-100330000D03*
X170180000Y-92710000D03*
X172720000Y-100330000D03*
X167640000Y-92710000D03*
X175260000Y-100330000D03*
X165100000Y-92710000D03*
X177800000Y-100330000D03*
X162560000Y-92710000D03*
D16*
X144780000Y-92710000D03*
D13*
X137160000Y-100330000D03*
X142240000Y-92710000D03*
X139700000Y-100330000D03*
X139700000Y-92710000D03*
X142240000Y-100330000D03*
X137160000Y-92710000D03*
X144780000Y-100330000D03*
D14*
X151210000Y-95885000D03*
X156210000Y-95885000D03*
X144700000Y-86360000D03*
X139700000Y-86360000D03*
X139700000Y-89154000D03*
X144700000Y-89154000D03*
X151210000Y-92710000D03*
X156210000Y-92710000D03*
D17*
X144780000Y-95885000D03*
X135255000Y-95885000D03*
X135255000Y-99695000D03*
X137795000Y-76200000D03*
X137795000Y-68580000D03*
X137795000Y-60960000D03*
X153670000Y-60960000D03*
X153670000Y-68580000D03*
X153670000Y-76200000D03*
X169545000Y-76200000D03*
X169545000Y-60960000D03*
X169545000Y-68580000D03*
X153670000Y-53340000D03*
X128270000Y-49530000D03*
X158750000Y-95504000D03*
X160020000Y-91440042D03*
X161290000Y-48260000D03*
X152400000Y-49530000D03*
X172720000Y-96520000D03*
X167424990Y-76200000D03*
X156845000Y-46355000D03*
D18*
X178510000Y-82260000D02*
X178510000Y-82244000D01*
X178510000Y-82244000D02*
X177184999Y-80918999D01*
X177184999Y-80918999D02*
X177184999Y-72155001D01*
X177184999Y-72155001D02*
X178510000Y-70830000D01*
D19*
X139010002Y-92710000D02*
X128016000Y-81715998D01*
X139700000Y-92710000D02*
X139010002Y-92710000D01*
X128016000Y-49784000D02*
X128270000Y-49530000D01*
X128016000Y-81715998D02*
X128016000Y-49784000D01*
X166276998Y-85725000D02*
X171450000Y-85725000D01*
X164371998Y-87630000D02*
X166276998Y-85725000D01*
X163830000Y-87630000D02*
X164371998Y-87630000D01*
X160020000Y-94234000D02*
X160020000Y-91440042D01*
X158750000Y-95504000D02*
X160020000Y-94234000D01*
X168275000Y-55245000D02*
X161290000Y-48260000D01*
X166276998Y-85725000D02*
X166276998Y-83278002D01*
X168275000Y-81280000D02*
X168275000Y-55245000D01*
X166276998Y-83278002D02*
X168275000Y-81280000D01*
D18*
X143510000Y-57150000D02*
X148590000Y-57150000D01*
X149815001Y-55924999D02*
X148590000Y-57150000D01*
X157524999Y-55924999D02*
X149815001Y-55924999D01*
X158750000Y-57150000D02*
X157524999Y-55924999D01*
X163830000Y-57150000D02*
X158750000Y-57150000D01*
X138385001Y-55924999D02*
X137160000Y-57150000D01*
X142284999Y-55924999D02*
X138385001Y-55924999D01*
X143510000Y-57150000D02*
X142284999Y-55924999D01*
X151130000Y-57150000D02*
X151130000Y-64770000D01*
X151130000Y-64770000D02*
X151130000Y-72390000D01*
X151130000Y-72390000D02*
X151130000Y-80010000D01*
X140970000Y-57150000D02*
X140970000Y-64770000D01*
X140970000Y-64770000D02*
X140970000Y-72390000D01*
X140970000Y-72390000D02*
X140970000Y-80010000D01*
X151130000Y-80010000D02*
X149860000Y-78740000D01*
X142240000Y-78740000D02*
X140970000Y-80010000D01*
X149860000Y-78740000D02*
X142240000Y-78740000D01*
X156210000Y-57150000D02*
X156210000Y-64770000D01*
X156210000Y-64770000D02*
X156210000Y-72390000D01*
X156210000Y-72390000D02*
X156210000Y-80010000D01*
X166370000Y-57150000D02*
X166370000Y-64770000D01*
X166370000Y-64770000D02*
X166370000Y-72390000D01*
X166370000Y-72390000D02*
X166370000Y-80010000D01*
X157435001Y-78784999D02*
X156210000Y-80010000D01*
X165144999Y-78784999D02*
X157435001Y-78784999D01*
X166370000Y-80010000D02*
X165144999Y-78784999D01*
X143510000Y-64770000D02*
X148590000Y-64770000D01*
X158750000Y-64770000D02*
X163830000Y-64770000D01*
X148590000Y-72390000D02*
X143510000Y-72390000D01*
X163830000Y-72390000D02*
X158750000Y-72390000D01*
X163830000Y-80010000D02*
X158750000Y-80010000D01*
X148590000Y-80010000D02*
X143510000Y-80010000D01*
X169819981Y-90684979D02*
X164109211Y-90684979D01*
X171845002Y-92710000D02*
X169819981Y-90684979D01*
X172720000Y-92710000D02*
X171845002Y-92710000D01*
X164109211Y-90684979D02*
X157164202Y-83739970D01*
X157164202Y-83739970D02*
X136207792Y-83739970D01*
X131115011Y-58725011D02*
X129540000Y-57150000D01*
X131115011Y-78647189D02*
X131115011Y-58725011D01*
X136207792Y-83739970D02*
X131115011Y-78647189D01*
X130665001Y-78833589D02*
X130665001Y-65895001D01*
X156977802Y-84189980D02*
X136021392Y-84189980D01*
X136021392Y-84189980D02*
X130665001Y-78833589D01*
X163922811Y-91134989D02*
X156977802Y-84189980D01*
X167729991Y-91134989D02*
X163922811Y-91134989D01*
X130665001Y-65895001D02*
X129540000Y-64770000D01*
X169305002Y-92710000D02*
X167729991Y-91134989D01*
X170180000Y-92710000D02*
X169305002Y-92710000D01*
X129935002Y-87630000D02*
X129540000Y-87630000D01*
X139700000Y-97394998D02*
X129935002Y-87630000D01*
X139700000Y-100330000D02*
X139700000Y-97394998D01*
X142095001Y-97934999D02*
X139700000Y-100330000D01*
X149130001Y-97934999D02*
X142095001Y-97934999D01*
X149168501Y-97973499D02*
X149130001Y-97934999D01*
X149207001Y-97934999D02*
X149168501Y-97973499D01*
X169160003Y-97934999D02*
X149207001Y-97934999D01*
X174385002Y-92710000D02*
X169160003Y-97934999D01*
X175260000Y-92710000D02*
X174385002Y-92710000D01*
X163736411Y-91584999D02*
X156791402Y-84639990D01*
X165640001Y-91584999D02*
X163736411Y-91584999D01*
X166765002Y-92710000D02*
X165640001Y-91584999D01*
X167640000Y-92710000D02*
X166765002Y-92710000D01*
X135834992Y-84639990D02*
X129540000Y-78344998D01*
X156791402Y-84639990D02*
X135834992Y-84639990D01*
X129540000Y-78344998D02*
X129540000Y-72390000D01*
X156605002Y-85090000D02*
X134620000Y-85090000D01*
X164225002Y-92710000D02*
X156605002Y-85090000D01*
X165100000Y-92710000D02*
X164225002Y-92710000D01*
X134620000Y-85090000D02*
X129540000Y-80010000D01*
X177184999Y-56225001D02*
X178510000Y-54900000D01*
X173335001Y-56225001D02*
X172010000Y-54900000D01*
X177184999Y-56225001D02*
X173335001Y-56225001D01*
X141224000Y-89154000D02*
X144780000Y-92710000D01*
X139700000Y-89154000D02*
X141224000Y-89154000D01*
X146752904Y-86927096D02*
X147320000Y-86360000D01*
X146494999Y-87185001D02*
X146752904Y-86927096D01*
X146153636Y-88737773D02*
X146094618Y-88717121D01*
X146153636Y-88151774D02*
X146277905Y-88137773D01*
X146277905Y-88751774D02*
X146153636Y-88737773D01*
X146094618Y-88172426D02*
X146153636Y-88151774D01*
X146336923Y-88772426D02*
X146277905Y-88751774D01*
X146041674Y-88205692D02*
X146094618Y-88172426D01*
X146389867Y-88805692D02*
X146336923Y-88772426D01*
X146434081Y-88849906D02*
X146389867Y-88805692D01*
X146467347Y-88902850D02*
X146434081Y-88849906D01*
X146487999Y-88961868D02*
X146467347Y-88902850D01*
X146094618Y-88717121D02*
X146041674Y-88683855D01*
X145936541Y-88424003D02*
X145943542Y-88361868D01*
X146487999Y-87927679D02*
X146494999Y-87865545D01*
X146487999Y-91002001D02*
X146487999Y-88961868D01*
X146277905Y-88137773D02*
X146336923Y-88117121D01*
X144780000Y-92710000D02*
X146487999Y-91002001D01*
X145964194Y-88586697D02*
X145943542Y-88527679D01*
X145997460Y-88249906D02*
X146041674Y-88205692D01*
X145943542Y-88527679D02*
X145936541Y-88465545D01*
X146336923Y-88117121D02*
X146389867Y-88083855D01*
X145936541Y-88465545D02*
X145936541Y-88424003D01*
X146041674Y-88683855D02*
X145997460Y-88639641D01*
X145943542Y-88361868D02*
X145964194Y-88302850D01*
X146494999Y-87865545D02*
X146494999Y-87185001D01*
X145997460Y-88639641D02*
X145964194Y-88586697D01*
X145964194Y-88302850D02*
X145997460Y-88249906D01*
X146389867Y-88083855D02*
X146434081Y-88039641D01*
X146434081Y-88039641D02*
X146467347Y-87986697D01*
X146467347Y-87986697D02*
X146487999Y-87927679D01*
X138574999Y-87485001D02*
X139700000Y-86360000D01*
X138574999Y-89919997D02*
X138574999Y-87485001D01*
X141365002Y-92710000D02*
X138574999Y-89919997D01*
X142240000Y-92710000D02*
X141365002Y-92710000D01*
X177184999Y-60979999D02*
X177184999Y-56225001D01*
X179070000Y-62865000D02*
X177184999Y-60979999D01*
X170180000Y-99060000D02*
X170180000Y-100330000D01*
X172720000Y-96520000D02*
X170180000Y-99060000D01*
X167640000Y-56606998D02*
X167640000Y-75984990D01*
X160563002Y-49530000D02*
X167640000Y-56606998D01*
X152400000Y-49530000D02*
X160563002Y-49530000D01*
X167640000Y-75984990D02*
X167424990Y-76200000D01*
X138430000Y-101600000D02*
X137160000Y-100330000D01*
X176530000Y-101600000D02*
X138430000Y-101600000D01*
X177800000Y-100330000D02*
X176530000Y-101600000D01*
X158024999Y-47534999D02*
X156845000Y-46355000D01*
X180340000Y-52705000D02*
X175169999Y-47534999D01*
X180340000Y-97824657D02*
X180340000Y-52705000D01*
X175169999Y-47534999D02*
X158024999Y-47534999D01*
X177834657Y-100330000D02*
X180340000Y-97824657D01*
X177800000Y-100330000D02*
X177834657Y-100330000D01*
D20*
X159885350Y-28043087D02*
X159800385Y-28140866D01*
X159781389Y-28162076D01*
X159778356Y-28166217D01*
X159774986Y-28170095D01*
X159758487Y-28193343D01*
X159695855Y-28278849D01*
X159672860Y-28304636D01*
X159638992Y-28362192D01*
X159605052Y-28419587D01*
X159593606Y-28452186D01*
X159551095Y-28543981D01*
X159523367Y-28602787D01*
X159514615Y-28637900D01*
X159502701Y-28672067D01*
X159493688Y-28736404D01*
X159473565Y-28873182D01*
X159463608Y-28935940D01*
X159465077Y-28973588D01*
X159463273Y-29011222D01*
X159472677Y-29074109D01*
X159492059Y-29214503D01*
X159494044Y-29252689D01*
X159509531Y-29313779D01*
X159524236Y-29375102D01*
X159540238Y-29409836D01*
X159548397Y-29432436D01*
X159537436Y-29452667D01*
X159518124Y-29476085D01*
X159494645Y-29495482D01*
X159468556Y-29509663D01*
X159440182Y-29518488D01*
X159390381Y-29523536D01*
X159375257Y-29522757D01*
X159323414Y-29530323D01*
X159304870Y-29532202D01*
X159290086Y-29535186D01*
X159241737Y-29542242D01*
X159224098Y-29548507D01*
X159205747Y-29552211D01*
X159160643Y-29571044D01*
X159114587Y-29587401D01*
X159098507Y-29596988D01*
X159081231Y-29604201D01*
X159040671Y-29631468D01*
X158998688Y-29656498D01*
X158984787Y-29669038D01*
X158969250Y-29679483D01*
X158934784Y-29714145D01*
X158898497Y-29746879D01*
X158887310Y-29761889D01*
X158874109Y-29775165D01*
X158847069Y-29815883D01*
X158817863Y-29855069D01*
X158809819Y-29871973D01*
X158799462Y-29887569D01*
X158780888Y-29932771D01*
X158774412Y-29946381D01*
X158768096Y-29963904D01*
X158748178Y-30012377D01*
X158745265Y-30027243D01*
X158526184Y-30635030D01*
X158522952Y-30640628D01*
X158519324Y-30651315D01*
X158513997Y-30661282D01*
X158499528Y-30708980D01*
X158494093Y-30724058D01*
X158492514Y-30730300D01*
X158479581Y-30768401D01*
X158478108Y-30779594D01*
X158474828Y-30790405D01*
X158473247Y-30806461D01*
X158469292Y-30822093D01*
X158467223Y-30862278D01*
X158466383Y-30868659D01*
X158466016Y-30879871D01*
X158461602Y-30924688D01*
X158463183Y-30940742D01*
X158462354Y-30956846D01*
X158463288Y-30963247D01*
X158425973Y-32103703D01*
X158425252Y-32110110D01*
X158424872Y-32137376D01*
X158423983Y-32164536D01*
X158424403Y-32170948D01*
X158407148Y-33407985D01*
X158406469Y-33415490D01*
X158406678Y-33441619D01*
X158406314Y-33467737D01*
X158406948Y-33475243D01*
X158418730Y-34946011D01*
X158418211Y-34953654D01*
X158419000Y-34979647D01*
X158419208Y-35005641D01*
X158420020Y-35013255D01*
X158442615Y-35757883D01*
X158442291Y-35764597D01*
X158443635Y-35791479D01*
X158444452Y-35818416D01*
X158445315Y-35825091D01*
X158482422Y-36567520D01*
X158482223Y-36576164D01*
X158484101Y-36601118D01*
X158485350Y-36626098D01*
X158486625Y-36634644D01*
X158541082Y-37358061D01*
X158541199Y-37369492D01*
X158543607Y-37391605D01*
X158545275Y-37413768D01*
X158547245Y-37425019D01*
X158621988Y-38111499D01*
X158622857Y-38127076D01*
X158625628Y-38144937D01*
X158627583Y-38162890D01*
X158630781Y-38178148D01*
X158729040Y-38811424D01*
X158731806Y-38833979D01*
X158734198Y-38844667D01*
X158735875Y-38855474D01*
X158741535Y-38877448D01*
X158866291Y-39434834D01*
X158871040Y-39459018D01*
X158873637Y-39467654D01*
X158875605Y-39476448D01*
X158883313Y-39499835D01*
X158952805Y-39730952D01*
X158958675Y-39752983D01*
X158962490Y-39763163D01*
X158965617Y-39773562D01*
X158974280Y-39794621D01*
X159052178Y-40002474D01*
X159062423Y-40030694D01*
X159063947Y-40033879D01*
X159065191Y-40037197D01*
X159078468Y-40064216D01*
X159141936Y-40196812D01*
X159143999Y-40204200D01*
X159171026Y-40257587D01*
X159182277Y-40281092D01*
X159186228Y-40287614D01*
X159189673Y-40294420D01*
X159203672Y-40316415D01*
X159234667Y-40367586D01*
X159239842Y-40373243D01*
X159305044Y-40475684D01*
X159338826Y-40529956D01*
X159364307Y-40557137D01*
X159387304Y-40586466D01*
X159410344Y-40606248D01*
X159431108Y-40628398D01*
X159461406Y-40650089D01*
X159489680Y-40674365D01*
X159516135Y-40689271D01*
X159540823Y-40706946D01*
X159574770Y-40722309D01*
X159607237Y-40740603D01*
X159636090Y-40750061D01*
X159663753Y-40762580D01*
X159700054Y-40771027D01*
X159735457Y-40782632D01*
X159798909Y-40790310D01*
X159838516Y-40795507D01*
X159891559Y-40804625D01*
X159938997Y-40803386D01*
X159986435Y-40804918D01*
X160006308Y-40801628D01*
X160026446Y-40801102D01*
X160072743Y-40790629D01*
X160119557Y-40782879D01*
X160167694Y-40764738D01*
X160187829Y-40760954D01*
X160230880Y-40743654D01*
X160242841Y-40739682D01*
X160262100Y-40731109D01*
X160313032Y-40710642D01*
X160323648Y-40703710D01*
X160335224Y-40698557D01*
X160380056Y-40666878D01*
X160397703Y-40655355D01*
X160407519Y-40647472D01*
X160445422Y-40620689D01*
X160459711Y-40605634D01*
X160496465Y-40579742D01*
X160534646Y-40539630D01*
X160574230Y-40500876D01*
X160600131Y-40462988D01*
X160615439Y-40443368D01*
X160638295Y-40419458D01*
X160656829Y-40390319D01*
X160657281Y-40389740D01*
X160674940Y-40361846D01*
X160692567Y-40334133D01*
X160692897Y-40333481D01*
X160711371Y-40304299D01*
X160723272Y-40273437D01*
X160776879Y-40167467D01*
X160783269Y-40158766D01*
X160807286Y-40107360D01*
X160817644Y-40086885D01*
X160821526Y-40076882D01*
X160826073Y-40067149D01*
X160833707Y-40045493D01*
X160854227Y-39992612D01*
X160856094Y-39981978D01*
X160925664Y-39784606D01*
X160935442Y-39758215D01*
X160936827Y-39752936D01*
X160938644Y-39747782D01*
X160945361Y-39720419D01*
X161112764Y-39082507D01*
X161115940Y-39073107D01*
X161121296Y-39049991D01*
X161127323Y-39027026D01*
X161128890Y-39017222D01*
X161303585Y-38263315D01*
X161502730Y-37488908D01*
X161608145Y-37153507D01*
X161637981Y-37075748D01*
X161800654Y-37402669D01*
X161804244Y-37411378D01*
X161815635Y-37432776D01*
X161826434Y-37454479D01*
X161831437Y-37462460D01*
X162059795Y-37891438D01*
X162066805Y-37906364D01*
X162075596Y-37921121D01*
X162083665Y-37936279D01*
X162092801Y-37950002D01*
X162320749Y-38332649D01*
X162332289Y-38353365D01*
X162337959Y-38361539D01*
X162343045Y-38370077D01*
X162357112Y-38389152D01*
X162461453Y-38539577D01*
X162477965Y-38564004D01*
X162480594Y-38567173D01*
X162482943Y-38570559D01*
X162502049Y-38593031D01*
X162573745Y-38679440D01*
X162585449Y-38698103D01*
X162616719Y-38731235D01*
X162624235Y-38740293D01*
X162639827Y-38755719D01*
X162654858Y-38771644D01*
X162663723Y-38779359D01*
X162696123Y-38811412D01*
X162714510Y-38823555D01*
X162741922Y-38847410D01*
X162760549Y-38867867D01*
X162792690Y-38891590D01*
X162797321Y-38895620D01*
X162819752Y-38911564D01*
X162869113Y-38947997D01*
X162874709Y-38950628D01*
X162879744Y-38954207D01*
X162935683Y-38979295D01*
X162960626Y-38991022D01*
X162966419Y-38993080D01*
X163002862Y-39009424D01*
X163022260Y-39013869D01*
X163027556Y-39016790D01*
X163080844Y-39033725D01*
X163101738Y-39041147D01*
X163112943Y-39043926D01*
X163156151Y-39057658D01*
X163178277Y-39060132D01*
X163199887Y-39065492D01*
X163245186Y-39067613D01*
X163290249Y-39072651D01*
X163312433Y-39070761D01*
X163334672Y-39071802D01*
X163379509Y-39065046D01*
X163424694Y-39061196D01*
X163446082Y-39055015D01*
X163468099Y-39051697D01*
X163510757Y-39036322D01*
X163521841Y-39033119D01*
X163542426Y-39024908D01*
X163595039Y-39005946D01*
X163604972Y-38999961D01*
X163609333Y-38998222D01*
X163658835Y-38980954D01*
X163700950Y-38956165D01*
X163744349Y-38933698D01*
X163758982Y-38922008D01*
X163775121Y-38912509D01*
X163811595Y-38879978D01*
X163849773Y-38849479D01*
X163883554Y-38809406D01*
X163923294Y-38766255D01*
X163950126Y-38741989D01*
X163988960Y-38689745D01*
X164028161Y-38637760D01*
X164043890Y-38605179D01*
X164065570Y-38569097D01*
X164066910Y-38567604D01*
X164100245Y-38511386D01*
X164116610Y-38484149D01*
X164117468Y-38482339D01*
X164118486Y-38480623D01*
X164131907Y-38451897D01*
X164159944Y-38392781D01*
X164160433Y-38390836D01*
X164201769Y-38302359D01*
X164213627Y-38278232D01*
X164216006Y-38271885D01*
X164218870Y-38265755D01*
X164227793Y-38240439D01*
X164362501Y-37881062D01*
X164368523Y-37867320D01*
X164374297Y-37849593D01*
X164380846Y-37832120D01*
X164384713Y-37817610D01*
X164511010Y-37429826D01*
X164511628Y-37428399D01*
X164521375Y-37398003D01*
X164531363Y-37367335D01*
X164531701Y-37365800D01*
X164633619Y-37047960D01*
X164674867Y-37080563D01*
X164695398Y-37097486D01*
X164701228Y-37101400D01*
X164706742Y-37105758D01*
X164729137Y-37120134D01*
X164791915Y-37162276D01*
X164793362Y-37163712D01*
X164847811Y-37199797D01*
X164874170Y-37217492D01*
X164875963Y-37218455D01*
X164877654Y-37219576D01*
X164905669Y-37234415D01*
X164963251Y-37265351D01*
X164965198Y-37265946D01*
X165028384Y-37299414D01*
X165076637Y-37327141D01*
X165119876Y-37341720D01*
X165162092Y-37359020D01*
X165216713Y-37369671D01*
X165247387Y-37376757D01*
X165287325Y-37389190D01*
X165346421Y-37395445D01*
X165405411Y-37403088D01*
X165413476Y-37402543D01*
X165421509Y-37403393D01*
X165480728Y-37397995D01*
X165540037Y-37393985D01*
X165570812Y-37385671D01*
X165578706Y-37385441D01*
X165632290Y-37373150D01*
X165653108Y-37369166D01*
X165665096Y-37365625D01*
X165710224Y-37355273D01*
X165729655Y-37346553D01*
X165750088Y-37340517D01*
X165791079Y-37318989D01*
X165802483Y-37313871D01*
X165820884Y-37303335D01*
X165869548Y-37277777D01*
X165876620Y-37272059D01*
X165906455Y-37258036D01*
X165955899Y-37221550D01*
X166005990Y-37185927D01*
X166033318Y-37156959D01*
X166042631Y-37148559D01*
X166063271Y-37134113D01*
X166092597Y-37103491D01*
X166098994Y-37097722D01*
X166115890Y-37079170D01*
X166133215Y-37061080D01*
X166138525Y-37054316D01*
X166147558Y-37044398D01*
X166185078Y-37128429D01*
X166595600Y-38155620D01*
X166605837Y-38182358D01*
X166608070Y-38186822D01*
X166609922Y-38191456D01*
X166623099Y-38216866D01*
X166707736Y-38386063D01*
X166712104Y-38399742D01*
X166737859Y-38446281D01*
X166746543Y-38463642D01*
X166754156Y-38475731D01*
X166761068Y-38488221D01*
X166772079Y-38504191D01*
X166800430Y-38549211D01*
X166810306Y-38559636D01*
X166877406Y-38656959D01*
X166885658Y-38673570D01*
X166915612Y-38712372D01*
X166924265Y-38724923D01*
X166936187Y-38739026D01*
X166947451Y-38753617D01*
X166957888Y-38764696D01*
X166989550Y-38802149D01*
X167004061Y-38813708D01*
X167074672Y-38888662D01*
X167086335Y-38905081D01*
X167120840Y-38937669D01*
X167130195Y-38947599D01*
X167145281Y-38960752D01*
X167159853Y-38974514D01*
X167170657Y-38982876D01*
X167206417Y-39014053D01*
X167223881Y-39024068D01*
X167293699Y-39078104D01*
X167307363Y-39092123D01*
X167346935Y-39119306D01*
X167358170Y-39128001D01*
X167374656Y-39138348D01*
X167390715Y-39149379D01*
X167403168Y-39156242D01*
X167443822Y-39181757D01*
X167462111Y-39188727D01*
X167525924Y-39223896D01*
X167538813Y-39233756D01*
X167584887Y-39256392D01*
X167600251Y-39264860D01*
X167615079Y-39271226D01*
X167629573Y-39278347D01*
X167646013Y-39284506D01*
X167693172Y-39304753D01*
X167709044Y-39308123D01*
X167762270Y-39328065D01*
X167772604Y-39333986D01*
X167825332Y-39351693D01*
X167845789Y-39359357D01*
X167857237Y-39362406D01*
X167868466Y-39366177D01*
X167889752Y-39371067D01*
X167943505Y-39385384D01*
X167955393Y-39386145D01*
X167994026Y-39395020D01*
X167999405Y-39397327D01*
X168059646Y-39410094D01*
X168086851Y-39416343D01*
X168092639Y-39417086D01*
X168098331Y-39418292D01*
X168126004Y-39421367D01*
X168187152Y-39429213D01*
X168192996Y-39428811D01*
X168229445Y-39432861D01*
X168244323Y-39436856D01*
X168296346Y-39440294D01*
X168314612Y-39442324D01*
X168329950Y-39442515D01*
X168345225Y-39443525D01*
X168363558Y-39442935D01*
X168415727Y-39443586D01*
X168430880Y-39440768D01*
X168604864Y-39435168D01*
X168621697Y-39437113D01*
X168672168Y-39433001D01*
X168688983Y-39432460D01*
X168705682Y-39430271D01*
X168722485Y-39428902D01*
X168739055Y-39425896D01*
X168789248Y-39419316D01*
X168805293Y-39413879D01*
X168926481Y-39391894D01*
X168936808Y-39391759D01*
X168992759Y-39379870D01*
X169015798Y-39375690D01*
X169025673Y-39372876D01*
X169035723Y-39370740D01*
X169058049Y-39363648D01*
X169113049Y-39347973D01*
X169122239Y-39343259D01*
X169259143Y-39299772D01*
X169305241Y-39288025D01*
X169353724Y-39264852D01*
X169403071Y-39243654D01*
X169414482Y-39235813D01*
X169426984Y-39229837D01*
X169470016Y-39197650D01*
X169514277Y-39167233D01*
X169523942Y-39157313D01*
X169535034Y-39149016D01*
X169570955Y-39109058D01*
X169608438Y-39070585D01*
X169615979Y-39058974D01*
X169625242Y-39048670D01*
X169652685Y-39002458D01*
X169681933Y-38957424D01*
X169687064Y-38944564D01*
X169694139Y-38932651D01*
X169712034Y-38881988D01*
X169731940Y-38832101D01*
X169734465Y-38818483D01*
X169739078Y-38805422D01*
X169746745Y-38752243D01*
X169756537Y-38699429D01*
X169755917Y-38651873D01*
X169790237Y-37889920D01*
X169806000Y-37578260D01*
X169847110Y-37308450D01*
X169913950Y-37048578D01*
X170005232Y-36799287D01*
X170119532Y-36561913D01*
X170255602Y-36337977D01*
X170412291Y-36128485D01*
X170587844Y-35935249D01*
X170781147Y-35759629D01*
X170990583Y-35602992D01*
X171214558Y-35466907D01*
X171451897Y-35352591D01*
X171701129Y-35261371D01*
X171961130Y-35194513D01*
X172230929Y-35153341D01*
X172509817Y-35139260D01*
X172788705Y-35153341D01*
X173058507Y-35194514D01*
X173318509Y-35261372D01*
X173567696Y-35352576D01*
X173804986Y-35466907D01*
X174029092Y-35603023D01*
X174238433Y-35759589D01*
X174431695Y-35935244D01*
X174607391Y-36128550D01*
X174763975Y-36337901D01*
X174900012Y-36561914D01*
X175014393Y-36799290D01*
X175105560Y-37048484D01*
X175172449Y-37308546D01*
X175213639Y-37578355D01*
X175228517Y-37872529D01*
X175228494Y-37876557D01*
X175227689Y-37880747D01*
X175228105Y-37943859D01*
X175227934Y-37973384D01*
X175228327Y-37977626D01*
X175228355Y-37981866D01*
X175231431Y-38011116D01*
X175235131Y-38051049D01*
X175234749Y-38056786D01*
X175242370Y-38115159D01*
X175244992Y-38140091D01*
X175246726Y-38148517D01*
X175247841Y-38157058D01*
X175253513Y-38181502D01*
X175265373Y-38239139D01*
X175267911Y-38245153D01*
X175268427Y-38253453D01*
X175282998Y-38308568D01*
X175288252Y-38331210D01*
X175291603Y-38341117D01*
X175302915Y-38383904D01*
X175313172Y-38404881D01*
X175320655Y-38427001D01*
X175342742Y-38465350D01*
X175347337Y-38474748D01*
X175359550Y-38494535D01*
X175387997Y-38543928D01*
X175392288Y-38548832D01*
X175392325Y-38548927D01*
X175426409Y-38602858D01*
X175442182Y-38628412D01*
X175444395Y-38631316D01*
X175464413Y-38662990D01*
X175485193Y-38684854D01*
X175503474Y-38708844D01*
X175531562Y-38733643D01*
X175534077Y-38736289D01*
X175556787Y-38755914D01*
X175604624Y-38798149D01*
X175607800Y-38799997D01*
X175630007Y-38819187D01*
X175643549Y-38834588D01*
X175680950Y-38863210D01*
X175690994Y-38871889D01*
X175707645Y-38883638D01*
X175723855Y-38896043D01*
X175735154Y-38903048D01*
X175773619Y-38930190D01*
X175792355Y-38938515D01*
X175886180Y-38996689D01*
X175912460Y-39013252D01*
X175914711Y-39014379D01*
X175916848Y-39015704D01*
X175944685Y-39029386D01*
X176084989Y-39099633D01*
X176108438Y-39111990D01*
X176115052Y-39114684D01*
X176121433Y-39117879D01*
X176146170Y-39127360D01*
X176395943Y-39229105D01*
X176413831Y-39237259D01*
X176427091Y-39241794D01*
X176440059Y-39247076D01*
X176458892Y-39252668D01*
X176512859Y-39271124D01*
X176523511Y-39276817D01*
X176532507Y-39279546D01*
X181245774Y-41636179D01*
X181195073Y-104090000D01*
X127050000Y-104090000D01*
X127050000Y-101458665D01*
X130645000Y-101458665D01*
X130645000Y-101741335D01*
X130700147Y-102018574D01*
X130808320Y-102279727D01*
X130965363Y-102514759D01*
X131165241Y-102714637D01*
X131400273Y-102871680D01*
X131661426Y-102979853D01*
X131938665Y-103035000D01*
X132221335Y-103035000D01*
X132498574Y-102979853D01*
X132759727Y-102871680D01*
X132994759Y-102714637D01*
X133194637Y-102514759D01*
X133351680Y-102279727D01*
X133459853Y-102018574D01*
X133515000Y-101741335D01*
X133515000Y-101458665D01*
X133459853Y-101181426D01*
X133351680Y-100920273D01*
X133194637Y-100685241D01*
X132994759Y-100485363D01*
X132759727Y-100328320D01*
X132498574Y-100220147D01*
X132221335Y-100165000D01*
X131938665Y-100165000D01*
X131661426Y-100220147D01*
X131400273Y-100328320D01*
X131165241Y-100485363D01*
X130965363Y-100685241D01*
X130808320Y-100920273D01*
X130700147Y-101181426D01*
X130645000Y-101458665D01*
X127050000Y-101458665D01*
X127050000Y-98430373D01*
X130364000Y-98430373D01*
X130364000Y-98609627D01*
X130398971Y-98785437D01*
X130467569Y-98951047D01*
X130567157Y-99100091D01*
X130693909Y-99226843D01*
X130842953Y-99326431D01*
X131008563Y-99395029D01*
X131184373Y-99430000D01*
X131363627Y-99430000D01*
X131539437Y-99395029D01*
X131705047Y-99326431D01*
X131854091Y-99226843D01*
X131980843Y-99100091D01*
X132080431Y-98951047D01*
X132149029Y-98785437D01*
X132184000Y-98609627D01*
X132184000Y-98430373D01*
X132149029Y-98254563D01*
X132080431Y-98088953D01*
X131980843Y-97939909D01*
X131854091Y-97813157D01*
X131705047Y-97713569D01*
X131539437Y-97644971D01*
X131363627Y-97610000D01*
X131184373Y-97610000D01*
X131008563Y-97644971D01*
X130842953Y-97713569D01*
X130693909Y-97813157D01*
X130567157Y-97939909D01*
X130467569Y-98088953D01*
X130398971Y-98254563D01*
X130364000Y-98430373D01*
X127050000Y-98430373D01*
X127050000Y-94430373D01*
X130364000Y-94430373D01*
X130364000Y-94609627D01*
X130398971Y-94785437D01*
X130467569Y-94951047D01*
X130567157Y-95100091D01*
X130693909Y-95226843D01*
X130842953Y-95326431D01*
X131008563Y-95395029D01*
X131184373Y-95430000D01*
X131363627Y-95430000D01*
X131539437Y-95395029D01*
X131705047Y-95326431D01*
X131854091Y-95226843D01*
X131980843Y-95100091D01*
X132080431Y-94951047D01*
X132149029Y-94785437D01*
X132184000Y-94609627D01*
X132184000Y-94430373D01*
X132149029Y-94254563D01*
X132080431Y-94088953D01*
X131980843Y-93939909D01*
X131854091Y-93813157D01*
X131705047Y-93713569D01*
X131539437Y-93644971D01*
X131363627Y-93610000D01*
X131184373Y-93610000D01*
X131008563Y-93644971D01*
X130842953Y-93713569D01*
X130693909Y-93813157D01*
X130567157Y-93939909D01*
X130467569Y-94088953D01*
X130398971Y-94254563D01*
X130364000Y-94430373D01*
X127050000Y-94430373D01*
X127050000Y-49784000D01*
X127126719Y-49784000D01*
X127131001Y-49827479D01*
X127131000Y-81672529D01*
X127126719Y-81715998D01*
X127131000Y-81759467D01*
X127131000Y-81759474D01*
X127143805Y-81889487D01*
X127194411Y-82056310D01*
X127276589Y-82210056D01*
X127387183Y-82344815D01*
X127420956Y-82372532D01*
X136493749Y-91445326D01*
X136422580Y-91478963D01*
X136196586Y-91646481D01*
X136007615Y-91854869D01*
X135862930Y-92096119D01*
X135768091Y-92360960D01*
X135800987Y-92421183D01*
X130975000Y-87595197D01*
X130975000Y-87488665D01*
X130919853Y-87211426D01*
X130811680Y-86950273D01*
X130654637Y-86715241D01*
X130454759Y-86515363D01*
X130219727Y-86358320D01*
X129958574Y-86250147D01*
X129681335Y-86195000D01*
X129398665Y-86195000D01*
X129121426Y-86250147D01*
X128860273Y-86358320D01*
X128625241Y-86515363D01*
X128425363Y-86715241D01*
X128268320Y-86950273D01*
X128160147Y-87211426D01*
X128105000Y-87488665D01*
X128105000Y-87771335D01*
X128160147Y-88048574D01*
X128268320Y-88309727D01*
X128425363Y-88544759D01*
X128625241Y-88744637D01*
X128860273Y-88901680D01*
X129121426Y-89009853D01*
X129398665Y-89065000D01*
X129681335Y-89065000D01*
X129958574Y-89009853D01*
X130157610Y-88927410D01*
X131399223Y-90169022D01*
X131165241Y-90325363D01*
X130965363Y-90525241D01*
X130808320Y-90760273D01*
X130700147Y-91021426D01*
X130645000Y-91298665D01*
X130645000Y-91581335D01*
X130700147Y-91858574D01*
X130808320Y-92119727D01*
X130965363Y-92354759D01*
X131165241Y-92554637D01*
X131400273Y-92711680D01*
X131661426Y-92819853D01*
X131938665Y-92875000D01*
X132221335Y-92875000D01*
X132498574Y-92819853D01*
X132759727Y-92711680D01*
X132994759Y-92554637D01*
X133194637Y-92354759D01*
X133350978Y-92120777D01*
X138940001Y-97709801D01*
X138940000Y-99111956D01*
X138785241Y-99215363D01*
X138585363Y-99415241D01*
X138430000Y-99647759D01*
X138274637Y-99415241D01*
X138074759Y-99215363D01*
X137839727Y-99058320D01*
X137578574Y-98950147D01*
X137301335Y-98895000D01*
X137018665Y-98895000D01*
X136741426Y-98950147D01*
X136480273Y-99058320D01*
X136245241Y-99215363D01*
X136045363Y-99415241D01*
X135888320Y-99650273D01*
X135780147Y-99911426D01*
X135725000Y-100188665D01*
X135725000Y-100471335D01*
X135780147Y-100748574D01*
X135888320Y-101009727D01*
X136045363Y-101244759D01*
X136245241Y-101444637D01*
X136480273Y-101601680D01*
X136741426Y-101709853D01*
X137018665Y-101765000D01*
X137301335Y-101765000D01*
X137483886Y-101728688D01*
X137866201Y-102111003D01*
X137889999Y-102140001D01*
X138005724Y-102234974D01*
X138137753Y-102305546D01*
X138281014Y-102349003D01*
X138392667Y-102360000D01*
X138392676Y-102360000D01*
X138429999Y-102363676D01*
X138467322Y-102360000D01*
X176492678Y-102360000D01*
X176530000Y-102363676D01*
X176567322Y-102360000D01*
X176567333Y-102360000D01*
X176678986Y-102349003D01*
X176822247Y-102305546D01*
X176954276Y-102234974D01*
X177070001Y-102140001D01*
X177093804Y-102110997D01*
X177476114Y-101728688D01*
X177658665Y-101765000D01*
X177941335Y-101765000D01*
X178218574Y-101709853D01*
X178479727Y-101601680D01*
X178714759Y-101444637D01*
X178914637Y-101244759D01*
X179071680Y-101009727D01*
X179179853Y-100748574D01*
X179235000Y-100471335D01*
X179235000Y-100188665D01*
X179204438Y-100035021D01*
X180851004Y-98388455D01*
X180880001Y-98364658D01*
X180914534Y-98322580D01*
X180974974Y-98248934D01*
X181045546Y-98116904D01*
X181071916Y-98029972D01*
X181089003Y-97973643D01*
X181100000Y-97861990D01*
X181100000Y-97861981D01*
X181103676Y-97824658D01*
X181100000Y-97787335D01*
X181100000Y-52742333D01*
X181103677Y-52705000D01*
X181089003Y-52556014D01*
X181045546Y-52412753D01*
X180974974Y-52280724D01*
X180903799Y-52193997D01*
X180880001Y-52164999D01*
X180851003Y-52141201D01*
X175733803Y-47024002D01*
X175710000Y-46994998D01*
X175594275Y-46900025D01*
X175462246Y-46829453D01*
X175318985Y-46785996D01*
X175207332Y-46774999D01*
X175207321Y-46774999D01*
X175169999Y-46771323D01*
X175132677Y-46774999D01*
X158339801Y-46774999D01*
X157880000Y-46315199D01*
X157880000Y-46253061D01*
X157840226Y-46053102D01*
X157762205Y-45864744D01*
X157648937Y-45695226D01*
X157504774Y-45551063D01*
X157335256Y-45437795D01*
X157146898Y-45359774D01*
X156946939Y-45320000D01*
X156743061Y-45320000D01*
X156543102Y-45359774D01*
X156354744Y-45437795D01*
X156185226Y-45551063D01*
X156041063Y-45695226D01*
X155927795Y-45864744D01*
X155849774Y-46053102D01*
X155810000Y-46253061D01*
X155810000Y-46456939D01*
X155849774Y-46656898D01*
X155927795Y-46845256D01*
X156041063Y-47014774D01*
X156185226Y-47158937D01*
X156354744Y-47272205D01*
X156543102Y-47350226D01*
X156743061Y-47390000D01*
X156805199Y-47390000D01*
X157461199Y-48046001D01*
X157484998Y-48075000D01*
X157513996Y-48098798D01*
X157600723Y-48169973D01*
X157732752Y-48240545D01*
X157876013Y-48284002D01*
X158024999Y-48298676D01*
X158062332Y-48294999D01*
X160255000Y-48294999D01*
X160255000Y-48361939D01*
X160294774Y-48561898D01*
X160372795Y-48750256D01*
X160385987Y-48770000D01*
X153103711Y-48770000D01*
X153059774Y-48726063D01*
X152890256Y-48612795D01*
X152701898Y-48534774D01*
X152501939Y-48495000D01*
X152298061Y-48495000D01*
X152098102Y-48534774D01*
X151909744Y-48612795D01*
X151740226Y-48726063D01*
X151596063Y-48870226D01*
X151482795Y-49039744D01*
X151404774Y-49228102D01*
X151365000Y-49428061D01*
X151365000Y-49631939D01*
X151404774Y-49831898D01*
X151482795Y-50020256D01*
X151596063Y-50189774D01*
X151740226Y-50333937D01*
X151909744Y-50447205D01*
X152098102Y-50525226D01*
X152298061Y-50565000D01*
X152501939Y-50565000D01*
X152701898Y-50525226D01*
X152890256Y-50447205D01*
X153059774Y-50333937D01*
X153103711Y-50290000D01*
X160248201Y-50290000D01*
X165717148Y-55758948D01*
X165642905Y-55789701D01*
X165391495Y-55957688D01*
X165325056Y-56024127D01*
X165319502Y-56005820D01*
X165260537Y-55895506D01*
X165181185Y-55798815D01*
X165084494Y-55719463D01*
X164974180Y-55660498D01*
X164854482Y-55624188D01*
X164730000Y-55611928D01*
X162930000Y-55611928D01*
X162805518Y-55624188D01*
X162685820Y-55660498D01*
X162575506Y-55719463D01*
X162478815Y-55798815D01*
X162399463Y-55895506D01*
X162340498Y-56005820D01*
X162304188Y-56125518D01*
X162291928Y-56250000D01*
X162291928Y-56390000D01*
X160088313Y-56390000D01*
X159942312Y-56171495D01*
X159728505Y-55957688D01*
X159477095Y-55789701D01*
X159197743Y-55673989D01*
X158901184Y-55615000D01*
X158598816Y-55615000D01*
X158341070Y-55666269D01*
X158088803Y-55414002D01*
X158065000Y-55384998D01*
X157949275Y-55290025D01*
X157817246Y-55219453D01*
X157673985Y-55175996D01*
X157562332Y-55164999D01*
X157562321Y-55164999D01*
X157524999Y-55161323D01*
X157487677Y-55164999D01*
X149852323Y-55164999D01*
X149815000Y-55161323D01*
X149777677Y-55164999D01*
X149777668Y-55164999D01*
X149666015Y-55175996D01*
X149522754Y-55219453D01*
X149390724Y-55290025D01*
X149307084Y-55358667D01*
X149275000Y-55384998D01*
X149251202Y-55413996D01*
X149053270Y-55611928D01*
X147690000Y-55611928D01*
X147565518Y-55624188D01*
X147445820Y-55660498D01*
X147335506Y-55719463D01*
X147238815Y-55798815D01*
X147159463Y-55895506D01*
X147100498Y-56005820D01*
X147064188Y-56125518D01*
X147051928Y-56250000D01*
X147051928Y-56390000D01*
X144848313Y-56390000D01*
X144702312Y-56171495D01*
X144488505Y-55957688D01*
X144237095Y-55789701D01*
X143957743Y-55673989D01*
X143661184Y-55615000D01*
X143358816Y-55615000D01*
X143101070Y-55666269D01*
X142848803Y-55414002D01*
X142825000Y-55384998D01*
X142709275Y-55290025D01*
X142577246Y-55219453D01*
X142433985Y-55175996D01*
X142322332Y-55164999D01*
X142322321Y-55164999D01*
X142284999Y-55161323D01*
X142247677Y-55164999D01*
X138422323Y-55164999D01*
X138385000Y-55161323D01*
X138347677Y-55164999D01*
X138347668Y-55164999D01*
X138236015Y-55175996D01*
X138092754Y-55219453D01*
X137960724Y-55290025D01*
X137877084Y-55358667D01*
X137845000Y-55384998D01*
X137821202Y-55413996D01*
X137483886Y-55751312D01*
X137301335Y-55715000D01*
X137018665Y-55715000D01*
X136741426Y-55770147D01*
X136480273Y-55878320D01*
X136245241Y-56035363D01*
X136045363Y-56235241D01*
X135888320Y-56470273D01*
X135780147Y-56731426D01*
X135725000Y-57008665D01*
X135725000Y-57291335D01*
X135780147Y-57568574D01*
X135888320Y-57829727D01*
X136045363Y-58064759D01*
X136245241Y-58264637D01*
X136480273Y-58421680D01*
X136741426Y-58529853D01*
X137018665Y-58585000D01*
X137301335Y-58585000D01*
X137578574Y-58529853D01*
X137839727Y-58421680D01*
X138074759Y-58264637D01*
X138274637Y-58064759D01*
X138431680Y-57829727D01*
X138539853Y-57568574D01*
X138595000Y-57291335D01*
X138595000Y-57008665D01*
X138558688Y-56826114D01*
X138699803Y-56684999D01*
X139431928Y-56684999D01*
X139431928Y-58050000D01*
X139444188Y-58174482D01*
X139480498Y-58294180D01*
X139539463Y-58404494D01*
X139618815Y-58501185D01*
X139715506Y-58580537D01*
X139825820Y-58639502D01*
X139945518Y-58675812D01*
X140070000Y-58688072D01*
X140210000Y-58688072D01*
X140210001Y-63231928D01*
X140070000Y-63231928D01*
X139945518Y-63244188D01*
X139825820Y-63280498D01*
X139715506Y-63339463D01*
X139618815Y-63418815D01*
X139539463Y-63515506D01*
X139480498Y-63625820D01*
X139444188Y-63745518D01*
X139431928Y-63870000D01*
X139431928Y-65670000D01*
X139444188Y-65794482D01*
X139480498Y-65914180D01*
X139539463Y-66024494D01*
X139618815Y-66121185D01*
X139715506Y-66200537D01*
X139825820Y-66259502D01*
X139945518Y-66295812D01*
X140070000Y-66308072D01*
X140210000Y-66308072D01*
X140210001Y-70851928D01*
X140070000Y-70851928D01*
X139945518Y-70864188D01*
X139825820Y-70900498D01*
X139715506Y-70959463D01*
X139618815Y-71038815D01*
X139539463Y-71135506D01*
X139480498Y-71245820D01*
X139444188Y-71365518D01*
X139431928Y-71490000D01*
X139431928Y-73290000D01*
X139444188Y-73414482D01*
X139480498Y-73534180D01*
X139539463Y-73644494D01*
X139618815Y-73741185D01*
X139715506Y-73820537D01*
X139825820Y-73879502D01*
X139945518Y-73915812D01*
X140070000Y-73928072D01*
X140210000Y-73928072D01*
X140210001Y-78471928D01*
X140070000Y-78471928D01*
X139945518Y-78484188D01*
X139825820Y-78520498D01*
X139715506Y-78579463D01*
X139618815Y-78658815D01*
X139539463Y-78755506D01*
X139480498Y-78865820D01*
X139444188Y-78985518D01*
X139431928Y-79110000D01*
X139431928Y-80910000D01*
X139444188Y-81034482D01*
X139480498Y-81154180D01*
X139539463Y-81264494D01*
X139618815Y-81361185D01*
X139715506Y-81440537D01*
X139825820Y-81499502D01*
X139945518Y-81535812D01*
X140070000Y-81548072D01*
X141870000Y-81548072D01*
X141994482Y-81535812D01*
X142114180Y-81499502D01*
X142224494Y-81440537D01*
X142321185Y-81361185D01*
X142400537Y-81264494D01*
X142459502Y-81154180D01*
X142465056Y-81135873D01*
X142531495Y-81202312D01*
X142782905Y-81370299D01*
X143062257Y-81486011D01*
X143358816Y-81545000D01*
X143661184Y-81545000D01*
X143957743Y-81486011D01*
X144237095Y-81370299D01*
X144488505Y-81202312D01*
X144702312Y-80988505D01*
X144848313Y-80770000D01*
X147051928Y-80770000D01*
X147051928Y-80910000D01*
X147064188Y-81034482D01*
X147100498Y-81154180D01*
X147159463Y-81264494D01*
X147238815Y-81361185D01*
X147335506Y-81440537D01*
X147445820Y-81499502D01*
X147565518Y-81535812D01*
X147690000Y-81548072D01*
X149490000Y-81548072D01*
X149614482Y-81535812D01*
X149734180Y-81499502D01*
X149844494Y-81440537D01*
X149941185Y-81361185D01*
X150020537Y-81264494D01*
X150079502Y-81154180D01*
X150085056Y-81135873D01*
X150151495Y-81202312D01*
X150402905Y-81370299D01*
X150682257Y-81486011D01*
X150978816Y-81545000D01*
X151281184Y-81545000D01*
X151577743Y-81486011D01*
X151857095Y-81370299D01*
X152108505Y-81202312D01*
X152322312Y-80988505D01*
X152490299Y-80737095D01*
X152606011Y-80457743D01*
X152665000Y-80161184D01*
X152665000Y-79858816D01*
X152606011Y-79562257D01*
X152490299Y-79282905D01*
X152322312Y-79031495D01*
X152108505Y-78817688D01*
X151890000Y-78671687D01*
X151890000Y-73728313D01*
X152108505Y-73582312D01*
X152322312Y-73368505D01*
X152490299Y-73117095D01*
X152606011Y-72837743D01*
X152665000Y-72541184D01*
X152665000Y-72238816D01*
X152606011Y-71942257D01*
X152490299Y-71662905D01*
X152322312Y-71411495D01*
X152108505Y-71197688D01*
X151890000Y-71051687D01*
X151890000Y-66108313D01*
X152108505Y-65962312D01*
X152322312Y-65748505D01*
X152490299Y-65497095D01*
X152606011Y-65217743D01*
X152665000Y-64921184D01*
X152665000Y-64618816D01*
X152606011Y-64322257D01*
X152490299Y-64042905D01*
X152322312Y-63791495D01*
X152108505Y-63577688D01*
X151890000Y-63431687D01*
X151890000Y-58488313D01*
X152108505Y-58342312D01*
X152322312Y-58128505D01*
X152490299Y-57877095D01*
X152606011Y-57597743D01*
X152665000Y-57301184D01*
X152665000Y-56998816D01*
X152606011Y-56702257D01*
X152598862Y-56684999D01*
X154671928Y-56684999D01*
X154671928Y-58050000D01*
X154684188Y-58174482D01*
X154720498Y-58294180D01*
X154779463Y-58404494D01*
X154858815Y-58501185D01*
X154955506Y-58580537D01*
X155065820Y-58639502D01*
X155185518Y-58675812D01*
X155310000Y-58688072D01*
X155450000Y-58688072D01*
X155450001Y-63231928D01*
X155310000Y-63231928D01*
X155185518Y-63244188D01*
X155065820Y-63280498D01*
X154955506Y-63339463D01*
X154858815Y-63418815D01*
X154779463Y-63515506D01*
X154720498Y-63625820D01*
X154684188Y-63745518D01*
X154671928Y-63870000D01*
X154671928Y-65670000D01*
X154684188Y-65794482D01*
X154720498Y-65914180D01*
X154779463Y-66024494D01*
X154858815Y-66121185D01*
X154955506Y-66200537D01*
X155065820Y-66259502D01*
X155185518Y-66295812D01*
X155310000Y-66308072D01*
X155450000Y-66308072D01*
X155450001Y-70851928D01*
X155310000Y-70851928D01*
X155185518Y-70864188D01*
X155065820Y-70900498D01*
X154955506Y-70959463D01*
X154858815Y-71038815D01*
X154779463Y-71135506D01*
X154720498Y-71245820D01*
X154684188Y-71365518D01*
X154671928Y-71490000D01*
X154671928Y-73290000D01*
X154684188Y-73414482D01*
X154720498Y-73534180D01*
X154779463Y-73644494D01*
X154858815Y-73741185D01*
X154955506Y-73820537D01*
X155065820Y-73879502D01*
X155185518Y-73915812D01*
X155310000Y-73928072D01*
X155450000Y-73928072D01*
X155450001Y-78471928D01*
X155310000Y-78471928D01*
X155185518Y-78484188D01*
X155065820Y-78520498D01*
X154955506Y-78579463D01*
X154858815Y-78658815D01*
X154779463Y-78755506D01*
X154720498Y-78865820D01*
X154684188Y-78985518D01*
X154671928Y-79110000D01*
X154671928Y-80910000D01*
X154684188Y-81034482D01*
X154720498Y-81154180D01*
X154779463Y-81264494D01*
X154858815Y-81361185D01*
X154955506Y-81440537D01*
X155065820Y-81499502D01*
X155185518Y-81535812D01*
X155310000Y-81548072D01*
X157110000Y-81548072D01*
X157234482Y-81535812D01*
X157354180Y-81499502D01*
X157464494Y-81440537D01*
X157561185Y-81361185D01*
X157640537Y-81264494D01*
X157699502Y-81154180D01*
X157705056Y-81135873D01*
X157771495Y-81202312D01*
X158022905Y-81370299D01*
X158302257Y-81486011D01*
X158598816Y-81545000D01*
X158901184Y-81545000D01*
X159197743Y-81486011D01*
X159477095Y-81370299D01*
X159728505Y-81202312D01*
X159942312Y-80988505D01*
X160088313Y-80770000D01*
X162291928Y-80770000D01*
X162291928Y-80910000D01*
X162304188Y-81034482D01*
X162340498Y-81154180D01*
X162399463Y-81264494D01*
X162478815Y-81361185D01*
X162575506Y-81440537D01*
X162685820Y-81499502D01*
X162805518Y-81535812D01*
X162930000Y-81548072D01*
X164730000Y-81548072D01*
X164854482Y-81535812D01*
X164974180Y-81499502D01*
X165084494Y-81440537D01*
X165181185Y-81361185D01*
X165260537Y-81264494D01*
X165319502Y-81154180D01*
X165325056Y-81135873D01*
X165391495Y-81202312D01*
X165642905Y-81370299D01*
X165922257Y-81486011D01*
X166218816Y-81545000D01*
X166521184Y-81545000D01*
X166817328Y-81486094D01*
X165681949Y-82621473D01*
X165648182Y-82649185D01*
X165620469Y-82682953D01*
X165620466Y-82682956D01*
X165537588Y-82783943D01*
X165455410Y-82937689D01*
X165404803Y-83104512D01*
X165387717Y-83278002D01*
X165391999Y-83321481D01*
X165391998Y-85358421D01*
X164658492Y-86091928D01*
X162930000Y-86091928D01*
X162805518Y-86104188D01*
X162685820Y-86140498D01*
X162575506Y-86199463D01*
X162478815Y-86278815D01*
X162399463Y-86375506D01*
X162340498Y-86485820D01*
X162304188Y-86605518D01*
X162291928Y-86730000D01*
X162291928Y-87792894D01*
X157728006Y-83228973D01*
X157704203Y-83199969D01*
X157588478Y-83104996D01*
X157456449Y-83034424D01*
X157313188Y-82990967D01*
X157201535Y-82979970D01*
X157201524Y-82979970D01*
X157164202Y-82976294D01*
X157126880Y-82979970D01*
X136522594Y-82979970D01*
X133411289Y-79868665D01*
X135725000Y-79868665D01*
X135725000Y-80151335D01*
X135780147Y-80428574D01*
X135888320Y-80689727D01*
X136045363Y-80924759D01*
X136245241Y-81124637D01*
X136480273Y-81281680D01*
X136741426Y-81389853D01*
X137018665Y-81445000D01*
X137301335Y-81445000D01*
X137578574Y-81389853D01*
X137839727Y-81281680D01*
X138074759Y-81124637D01*
X138274637Y-80924759D01*
X138431680Y-80689727D01*
X138539853Y-80428574D01*
X138595000Y-80151335D01*
X138595000Y-79868665D01*
X138539853Y-79591426D01*
X138431680Y-79330273D01*
X138274637Y-79095241D01*
X138074759Y-78895363D01*
X137839727Y-78738320D01*
X137578574Y-78630147D01*
X137301335Y-78575000D01*
X137018665Y-78575000D01*
X136741426Y-78630147D01*
X136480273Y-78738320D01*
X136245241Y-78895363D01*
X136045363Y-79095241D01*
X135888320Y-79330273D01*
X135780147Y-79591426D01*
X135725000Y-79868665D01*
X133411289Y-79868665D01*
X131875011Y-78332388D01*
X131875011Y-72248665D01*
X135725000Y-72248665D01*
X135725000Y-72531335D01*
X135780147Y-72808574D01*
X135888320Y-73069727D01*
X136045363Y-73304759D01*
X136245241Y-73504637D01*
X136480273Y-73661680D01*
X136741426Y-73769853D01*
X137018665Y-73825000D01*
X137301335Y-73825000D01*
X137578574Y-73769853D01*
X137839727Y-73661680D01*
X138074759Y-73504637D01*
X138274637Y-73304759D01*
X138431680Y-73069727D01*
X138539853Y-72808574D01*
X138595000Y-72531335D01*
X138595000Y-72248665D01*
X138539853Y-71971426D01*
X138431680Y-71710273D01*
X138274637Y-71475241D01*
X138074759Y-71275363D01*
X137839727Y-71118320D01*
X137578574Y-71010147D01*
X137301335Y-70955000D01*
X137018665Y-70955000D01*
X136741426Y-71010147D01*
X136480273Y-71118320D01*
X136245241Y-71275363D01*
X136045363Y-71475241D01*
X135888320Y-71710273D01*
X135780147Y-71971426D01*
X135725000Y-72248665D01*
X131875011Y-72248665D01*
X131875011Y-64628665D01*
X135725000Y-64628665D01*
X135725000Y-64911335D01*
X135780147Y-65188574D01*
X135888320Y-65449727D01*
X136045363Y-65684759D01*
X136245241Y-65884637D01*
X136480273Y-66041680D01*
X136741426Y-66149853D01*
X137018665Y-66205000D01*
X137301335Y-66205000D01*
X137578574Y-66149853D01*
X137839727Y-66041680D01*
X138074759Y-65884637D01*
X138274637Y-65684759D01*
X138431680Y-65449727D01*
X138539853Y-65188574D01*
X138595000Y-64911335D01*
X138595000Y-64628665D01*
X138539853Y-64351426D01*
X138431680Y-64090273D01*
X138274637Y-63855241D01*
X138074759Y-63655363D01*
X137839727Y-63498320D01*
X137578574Y-63390147D01*
X137301335Y-63335000D01*
X137018665Y-63335000D01*
X136741426Y-63390147D01*
X136480273Y-63498320D01*
X136245241Y-63655363D01*
X136045363Y-63855241D01*
X135888320Y-64090273D01*
X135780147Y-64351426D01*
X135725000Y-64628665D01*
X131875011Y-64628665D01*
X131875011Y-58762334D01*
X131878687Y-58725011D01*
X131875011Y-58687688D01*
X131875011Y-58687678D01*
X131864014Y-58576025D01*
X131820557Y-58432764D01*
X131772209Y-58342312D01*
X131749985Y-58300734D01*
X131678810Y-58214008D01*
X131655012Y-58185010D01*
X131626014Y-58161212D01*
X130938688Y-57473886D01*
X130975000Y-57291335D01*
X130975000Y-57008665D01*
X130919853Y-56731426D01*
X130811680Y-56470273D01*
X130654637Y-56235241D01*
X130454759Y-56035363D01*
X130219727Y-55878320D01*
X129958574Y-55770147D01*
X129681335Y-55715000D01*
X129398665Y-55715000D01*
X129121426Y-55770147D01*
X128901000Y-55861450D01*
X128901000Y-50353163D01*
X128929774Y-50333937D01*
X129073937Y-50189774D01*
X129187205Y-50020256D01*
X129265226Y-49831898D01*
X129305000Y-49631939D01*
X129305000Y-49428061D01*
X129265226Y-49228102D01*
X129187205Y-49039744D01*
X129073937Y-48870226D01*
X128929774Y-48726063D01*
X128760256Y-48612795D01*
X128571898Y-48534774D01*
X128371939Y-48495000D01*
X128168061Y-48495000D01*
X127968102Y-48534774D01*
X127779744Y-48612795D01*
X127610226Y-48726063D01*
X127466063Y-48870226D01*
X127352795Y-49039744D01*
X127274774Y-49228102D01*
X127254107Y-49332005D01*
X127194412Y-49443687D01*
X127143805Y-49610510D01*
X127126719Y-49784000D01*
X127050000Y-49784000D01*
X127050000Y-41103565D01*
X130756130Y-39138872D01*
X132030834Y-38525560D01*
X132033191Y-38524679D01*
X132061098Y-38510999D01*
X132089199Y-38497478D01*
X132091356Y-38496166D01*
X135105018Y-37018821D01*
X135108088Y-37017640D01*
X135135115Y-37004067D01*
X135162466Y-36990659D01*
X135165284Y-36988916D01*
X136893238Y-36121128D01*
X136896722Y-36119744D01*
X136923224Y-36106069D01*
X136950004Y-36092620D01*
X136953189Y-36090607D01*
X138630155Y-35225298D01*
X138635968Y-35222864D01*
X138659963Y-35209918D01*
X138684323Y-35197348D01*
X138689641Y-35193905D01*
X140153074Y-34404320D01*
X140160726Y-34400893D01*
X140182625Y-34388376D01*
X140204892Y-34376362D01*
X140211866Y-34371663D01*
X140790932Y-34040681D01*
X140799741Y-34036430D01*
X140820110Y-34024004D01*
X140840850Y-34012149D01*
X140848834Y-34006480D01*
X141260521Y-33755323D01*
X141356502Y-33725887D01*
X141489040Y-33698675D01*
X141605280Y-33687229D01*
X141708104Y-33688637D01*
X141801426Y-33700853D01*
X141889543Y-33723114D01*
X141976271Y-33755932D01*
X142064583Y-33800725D01*
X142156000Y-33859036D01*
X142241792Y-33925048D01*
X142451879Y-34127377D01*
X142660221Y-34379312D01*
X142874473Y-34684180D01*
X143093789Y-35032552D01*
X143320258Y-35415802D01*
X143785488Y-36211590D01*
X143789990Y-36220668D01*
X143802469Y-36240637D01*
X143814340Y-36260942D01*
X143820280Y-36269138D01*
X144052555Y-36640814D01*
X144059607Y-36653629D01*
X144070363Y-36669309D01*
X144080453Y-36685455D01*
X144089394Y-36697053D01*
X144342892Y-37066610D01*
X144354009Y-37084194D01*
X144361903Y-37094324D01*
X144369173Y-37104923D01*
X144382574Y-37120852D01*
X144663613Y-37481516D01*
X144680204Y-37503596D01*
X144684273Y-37508030D01*
X144687971Y-37512775D01*
X144706989Y-37532779D01*
X144979349Y-37829526D01*
X145347035Y-38413268D01*
X146154639Y-39712249D01*
X146157964Y-39718649D01*
X146172365Y-39740759D01*
X146186347Y-39763249D01*
X146190753Y-39768991D01*
X146632967Y-40447952D01*
X146637978Y-40456930D01*
X146651337Y-40476156D01*
X146664090Y-40495737D01*
X146670507Y-40503746D01*
X147104449Y-41128283D01*
X147115355Y-41145366D01*
X147123636Y-41155897D01*
X147131277Y-41166894D01*
X147144413Y-41182320D01*
X147536512Y-41680954D01*
X147556400Y-41706404D01*
X147557110Y-41707148D01*
X147557751Y-41707964D01*
X147580289Y-41731462D01*
X147710783Y-41868344D01*
X147719237Y-41880491D01*
X147757254Y-41917090D01*
X147770334Y-41930811D01*
X147781475Y-41940409D01*
X147792087Y-41950625D01*
X147806984Y-41962384D01*
X147846948Y-41996812D01*
X147859830Y-42004098D01*
X147912958Y-42046036D01*
X147920073Y-42053876D01*
X147965827Y-42087768D01*
X147984008Y-42102119D01*
X147992873Y-42107802D01*
X148028500Y-42134192D01*
X148049546Y-42144131D01*
X148069141Y-42156692D01*
X148110414Y-42172876D01*
X148119939Y-42177374D01*
X148141761Y-42185168D01*
X148175699Y-42198475D01*
X148189032Y-42205256D01*
X148231255Y-42217129D01*
X148240713Y-42220507D01*
X148263628Y-42226233D01*
X148318928Y-42241783D01*
X148329010Y-42242569D01*
X148338820Y-42245020D01*
X148396186Y-42247805D01*
X148453452Y-42252268D01*
X148463494Y-42251072D01*
X148473593Y-42251562D01*
X148530406Y-42243101D01*
X148553865Y-42240306D01*
X148563677Y-42238145D01*
X148607055Y-42231685D01*
X148610169Y-42230569D01*
X148654920Y-42218054D01*
X148669085Y-42214935D01*
X148687347Y-42208986D01*
X148738371Y-42194717D01*
X148751372Y-42188129D01*
X148765234Y-42183613D01*
X148811458Y-42157680D01*
X148858732Y-42133724D01*
X148870200Y-42124724D01*
X148882913Y-42117592D01*
X148923186Y-42083143D01*
X148938284Y-42071295D01*
X148948751Y-42061275D01*
X148973523Y-42040086D01*
X148973739Y-42039938D01*
X148973958Y-42039714D01*
X148985451Y-42029883D01*
X148993247Y-42019978D01*
X149012919Y-41999851D01*
X149028995Y-41984462D01*
X149036432Y-41975794D01*
X149068053Y-41943440D01*
X149080272Y-41924692D01*
X149094839Y-41907712D01*
X149117028Y-41868295D01*
X149123268Y-41858721D01*
X149133536Y-41838970D01*
X149161030Y-41790130D01*
X149164605Y-41779209D01*
X149164989Y-41778470D01*
X149189399Y-41737475D01*
X149207301Y-41686978D01*
X149227235Y-41637252D01*
X149236007Y-41590354D01*
X149270470Y-41451047D01*
X149275662Y-41438775D01*
X149286641Y-41385681D01*
X149291549Y-41365841D01*
X149293456Y-41352721D01*
X149296139Y-41339747D01*
X149298294Y-41319441D01*
X149306096Y-41265770D01*
X149305403Y-41252456D01*
X149330818Y-41012981D01*
X149334236Y-40985026D01*
X149334364Y-40979565D01*
X149334941Y-40974131D01*
X149335154Y-40945967D01*
X149353318Y-40172942D01*
X149354356Y-40161003D01*
X149354108Y-40139321D01*
X149354617Y-40117652D01*
X149353723Y-40105705D01*
X149342894Y-39159534D01*
X149337454Y-38151760D01*
X149347227Y-37682060D01*
X149370525Y-37254392D01*
X149409389Y-36892134D01*
X149461339Y-36625124D01*
X149508269Y-36492973D01*
X149589858Y-36431984D01*
X149726128Y-36353438D01*
X149874058Y-36289103D01*
X150032537Y-36239304D01*
X150200090Y-36204467D01*
X150374730Y-36184961D01*
X150553869Y-36180979D01*
X150734766Y-36192427D01*
X150914515Y-36218952D01*
X151090419Y-36259920D01*
X151259398Y-36314346D01*
X151418551Y-36380989D01*
X151565290Y-36458334D01*
X151697250Y-36544510D01*
X151812255Y-36637308D01*
X151900322Y-36725839D01*
X151991690Y-36851566D01*
X152038314Y-36955938D01*
X152062888Y-37069292D01*
X152067683Y-37211394D01*
X152048552Y-37390225D01*
X152004664Y-37599586D01*
X151845802Y-38137127D01*
X151662966Y-38724519D01*
X151657385Y-38739674D01*
X151652974Y-38756620D01*
X151647769Y-38773341D01*
X151644504Y-38789156D01*
X151568892Y-39079619D01*
X151562953Y-39099323D01*
X151560427Y-39112140D01*
X151557132Y-39124797D01*
X151553922Y-39145142D01*
X151492478Y-39456888D01*
X151486708Y-39483535D01*
X151485974Y-39489886D01*
X151484740Y-39496147D01*
X151482118Y-39523253D01*
X151451084Y-39791801D01*
X151451066Y-39791856D01*
X151443446Y-39857893D01*
X151439483Y-39892185D01*
X151439482Y-39892242D01*
X151439474Y-39892312D01*
X151438829Y-39930913D01*
X151437776Y-39993292D01*
X151437786Y-39993346D01*
X151434049Y-40216990D01*
X151432993Y-40222269D01*
X151432924Y-40284350D01*
X151432450Y-40312696D01*
X151432886Y-40318036D01*
X151432880Y-40323391D01*
X151435625Y-40351588D01*
X151440679Y-40413483D01*
X151442156Y-40418663D01*
X151465968Y-40663221D01*
X151465313Y-40672123D01*
X151472496Y-40730272D01*
X151474901Y-40754968D01*
X151476623Y-40763675D01*
X151477711Y-40772483D01*
X151483152Y-40796693D01*
X151494519Y-40854170D01*
X151497925Y-40862419D01*
X151556828Y-41124487D01*
X151557270Y-41133281D01*
X151571600Y-41190210D01*
X151577068Y-41214539D01*
X151579817Y-41222854D01*
X151581954Y-41231345D01*
X151590379Y-41254805D01*
X151608807Y-41310552D01*
X151613150Y-41318215D01*
X151671942Y-41481930D01*
X151675625Y-41499941D01*
X151694694Y-41545286D01*
X151699898Y-41559779D01*
X151707736Y-41576303D01*
X151714824Y-41593157D01*
X151722153Y-41606693D01*
X151743239Y-41651143D01*
X151754210Y-41665900D01*
X151824619Y-41795941D01*
X151838430Y-41828396D01*
X151875692Y-41883016D01*
X151912597Y-41937611D01*
X151937666Y-41962412D01*
X152028439Y-42070874D01*
X152060813Y-42113014D01*
X152097028Y-42144737D01*
X152131397Y-42178450D01*
X152175864Y-42207546D01*
X152291179Y-42290080D01*
X152342609Y-42327719D01*
X152376566Y-42343516D01*
X152409007Y-42362221D01*
X152469377Y-42382675D01*
X152595893Y-42427040D01*
X152652303Y-42448161D01*
X152692787Y-42454774D01*
X152732644Y-42464489D01*
X152792836Y-42467063D01*
X152903671Y-42474138D01*
X152947675Y-42479939D01*
X153004458Y-42476227D01*
X153061323Y-42474268D01*
X153104528Y-42464116D01*
X153183891Y-42451028D01*
X153209772Y-42449933D01*
X153250281Y-42440079D01*
X153258078Y-42438793D01*
X153282999Y-42432120D01*
X153308030Y-42426031D01*
X153315478Y-42423423D01*
X153355760Y-42412637D01*
X153378999Y-42401182D01*
X153428911Y-42383706D01*
X153439343Y-42381903D01*
X153492493Y-42361443D01*
X153514342Y-42353793D01*
X153523883Y-42349360D01*
X153533715Y-42345575D01*
X153554424Y-42335169D01*
X153606049Y-42311181D01*
X153614594Y-42304933D01*
X153702294Y-42260864D01*
X153730713Y-42246776D01*
X153732287Y-42245792D01*
X153733944Y-42244960D01*
X153760716Y-42228033D01*
X153892354Y-42145795D01*
X153918811Y-42129532D01*
X153920781Y-42128036D01*
X153922885Y-42126722D01*
X153947563Y-42107705D01*
X154180322Y-41931001D01*
X154196879Y-41919426D01*
X154207091Y-41910679D01*
X154217809Y-41902542D01*
X154232631Y-41888802D01*
X154407699Y-41738845D01*
X154519515Y-41651213D01*
X154646182Y-41556011D01*
X154677173Y-41536839D01*
X154724653Y-41492575D01*
X154772362Y-41448776D01*
X154793878Y-41419374D01*
X154886173Y-41314621D01*
X154900207Y-41302664D01*
X154930683Y-41264103D01*
X154940825Y-41252591D01*
X154951538Y-41237714D01*
X154962908Y-41223327D01*
X154971198Y-41210412D01*
X154999917Y-41170529D01*
X155007564Y-41153754D01*
X155080859Y-41039563D01*
X155084048Y-41036164D01*
X155117264Y-40982846D01*
X155132958Y-40958395D01*
X155135067Y-40954269D01*
X155137518Y-40950334D01*
X155150397Y-40924272D01*
X155178977Y-40868349D01*
X155180247Y-40863867D01*
X155273153Y-40675861D01*
X155286310Y-40650135D01*
X155288038Y-40645739D01*
X155290131Y-40641504D01*
X155300336Y-40614458D01*
X155406633Y-40344074D01*
X155415436Y-40323710D01*
X155418935Y-40312781D01*
X155423131Y-40302108D01*
X155429183Y-40280771D01*
X155522862Y-39988176D01*
X155528963Y-39971824D01*
X155533113Y-39956155D01*
X155538055Y-39940721D01*
X155541721Y-39923660D01*
X155625065Y-39609025D01*
X155629432Y-39595675D01*
X155633670Y-39576539D01*
X155638694Y-39557574D01*
X155640944Y-39543697D01*
X155716278Y-39203568D01*
X155720614Y-39187802D01*
X155723541Y-39170777D01*
X155727284Y-39153875D01*
X155729242Y-39137610D01*
X155864270Y-38352074D01*
X155867829Y-38336236D01*
X155869962Y-38318960D01*
X155872915Y-38301782D01*
X155874085Y-38285574D01*
X155978895Y-37436771D01*
X155981103Y-37425049D01*
X155983012Y-37403429D01*
X155985676Y-37381851D01*
X155985971Y-37369907D01*
X156063912Y-36486993D01*
X156065370Y-36477926D01*
X156066868Y-36453503D01*
X156069021Y-36429117D01*
X156068928Y-36419926D01*
X156123709Y-35526956D01*
X156124703Y-35519827D01*
X156125771Y-35493348D01*
X156127390Y-35466959D01*
X156127125Y-35459783D01*
X156162540Y-34581831D01*
X156163253Y-34575984D01*
X156163896Y-34548220D01*
X156165015Y-34520478D01*
X156164674Y-34514600D01*
X156184108Y-33675405D01*
X156184786Y-33668770D01*
X156184886Y-33641806D01*
X156185511Y-33614808D01*
X156185010Y-33608148D01*
X156190611Y-32094894D01*
X156191172Y-32088066D01*
X156190736Y-32061217D01*
X156190835Y-32034437D01*
X156190190Y-32027634D01*
X156173295Y-30987457D01*
X156173617Y-30982734D01*
X156172749Y-30953870D01*
X156172279Y-30924921D01*
X156171737Y-30920206D01*
X156161275Y-30572229D01*
X156163624Y-30540443D01*
X156159253Y-30504968D01*
X156159195Y-30503031D01*
X156155140Y-30471580D01*
X156147124Y-30406522D01*
X156146512Y-30404668D01*
X156146263Y-30402739D01*
X156125388Y-30340699D01*
X156104814Y-30278394D01*
X156103853Y-30276698D01*
X156103232Y-30274851D01*
X156070590Y-30217963D01*
X156038320Y-30160983D01*
X156037049Y-30159510D01*
X156036077Y-30157815D01*
X155992997Y-30108427D01*
X155972279Y-30084403D01*
X155970874Y-30083065D01*
X155947380Y-30056131D01*
X155922148Y-30036662D01*
X155590377Y-29720710D01*
X155549412Y-29679508D01*
X155513572Y-29655411D01*
X155479535Y-29628841D01*
X155457712Y-29617853D01*
X155437436Y-29604220D01*
X155397588Y-29587579D01*
X155359017Y-29568158D01*
X155335471Y-29561639D01*
X155312924Y-29552223D01*
X155270591Y-29543675D01*
X155228976Y-29532153D01*
X155171055Y-29527873D01*
X155078570Y-29518494D01*
X155050177Y-29509663D01*
X155023970Y-29495418D01*
X155000548Y-29476084D01*
X154981259Y-29452671D01*
X154967095Y-29426562D01*
X154960329Y-29404697D01*
X154982035Y-29310777D01*
X154989413Y-29279075D01*
X154989481Y-29278555D01*
X154989601Y-29278037D01*
X154993821Y-29245489D01*
X155009748Y-29124132D01*
X155016668Y-29096286D01*
X155018504Y-29057416D01*
X155019170Y-29052344D01*
X155020093Y-29023786D01*
X155021440Y-28995276D01*
X155021180Y-28990172D01*
X155022437Y-28951274D01*
X155017752Y-28922965D01*
X155013969Y-28848807D01*
X155013527Y-28795946D01*
X155003681Y-28748525D01*
X154996486Y-28700639D01*
X154978586Y-28650907D01*
X154955958Y-28578496D01*
X154946360Y-28537368D01*
X154921973Y-28483570D01*
X154898920Y-28429206D01*
X154875166Y-28394291D01*
X154855457Y-28360169D01*
X154853315Y-28354222D01*
X154821757Y-28301823D01*
X154808051Y-28278094D01*
X154804389Y-28272986D01*
X154801143Y-28267596D01*
X154784765Y-28245611D01*
X154749134Y-28195907D01*
X154744518Y-28191585D01*
X154705761Y-28139559D01*
X154702391Y-28134191D01*
X154685652Y-28112566D01*
X154669341Y-28090671D01*
X154665081Y-28085991D01*
X154632298Y-28043639D01*
X154649444Y-28034323D01*
X154682720Y-28065673D01*
X154752526Y-28152149D01*
X154895245Y-28380777D01*
X154921064Y-28432034D01*
X154923497Y-28440054D01*
X154951393Y-28492244D01*
X154962782Y-28514854D01*
X154967232Y-28521878D01*
X154987104Y-28559055D01*
X155003272Y-28578755D01*
X155016906Y-28600273D01*
X155045969Y-28630782D01*
X155072705Y-28663359D01*
X155092403Y-28679525D01*
X155109976Y-28697972D01*
X155144431Y-28722223D01*
X155177009Y-28748960D01*
X155199482Y-28760972D01*
X155220317Y-28775637D01*
X155258845Y-28792702D01*
X155296010Y-28812567D01*
X155320395Y-28819964D01*
X155343690Y-28830282D01*
X155384804Y-28839502D01*
X155425133Y-28851736D01*
X155450491Y-28854234D01*
X155475352Y-28859809D01*
X155517475Y-28860831D01*
X155525769Y-28861648D01*
X155551144Y-28861648D01*
X155610245Y-28863082D01*
X155618495Y-28861648D01*
X156354637Y-28861648D01*
X156362887Y-28863082D01*
X156421988Y-28861648D01*
X156447363Y-28861648D01*
X156455657Y-28860831D01*
X156497780Y-28859809D01*
X156522639Y-28854234D01*
X156547999Y-28851736D01*
X156588336Y-28839500D01*
X156629442Y-28830281D01*
X156652730Y-28819966D01*
X156677122Y-28812567D01*
X156714298Y-28792696D01*
X156752815Y-28775636D01*
X156773644Y-28760975D01*
X156796123Y-28748960D01*
X156828710Y-28722216D01*
X156863156Y-28697971D01*
X156880726Y-28679528D01*
X156900427Y-28663359D01*
X156927164Y-28630780D01*
X156956226Y-28600273D01*
X156969861Y-28578754D01*
X156986028Y-28559055D01*
X157005895Y-28521887D01*
X157010351Y-28514854D01*
X157021754Y-28492215D01*
X157049635Y-28440054D01*
X157052067Y-28432037D01*
X157077888Y-28380774D01*
X157220676Y-28152037D01*
X157259013Y-28104507D01*
X157297331Y-28152044D01*
X157439921Y-28380629D01*
X157465726Y-28431907D01*
X157468197Y-28440054D01*
X157496022Y-28492111D01*
X157507349Y-28514620D01*
X157511871Y-28521763D01*
X157531804Y-28559055D01*
X157547886Y-28578651D01*
X157561440Y-28600060D01*
X157590581Y-28630674D01*
X157617405Y-28663359D01*
X157637003Y-28679443D01*
X157654472Y-28697795D01*
X157689019Y-28722132D01*
X157721709Y-28748960D01*
X157744067Y-28760911D01*
X157764783Y-28775504D01*
X157803422Y-28792636D01*
X157840710Y-28812567D01*
X157864970Y-28819926D01*
X157888134Y-28830197D01*
X157929371Y-28839462D01*
X157969833Y-28851736D01*
X157995059Y-28854221D01*
X158019785Y-28859776D01*
X158062041Y-28860818D01*
X158070469Y-28861648D01*
X158095707Y-28861648D01*
X158154676Y-28863102D01*
X158163061Y-28861648D01*
X158900371Y-28861648D01*
X158908756Y-28863102D01*
X158967725Y-28861648D01*
X158992963Y-28861648D01*
X159001391Y-28860818D01*
X159043647Y-28859776D01*
X159068373Y-28854221D01*
X159093599Y-28851736D01*
X159134061Y-28839462D01*
X159175298Y-28830197D01*
X159198462Y-28819926D01*
X159222722Y-28812567D01*
X159260010Y-28792636D01*
X159298649Y-28775504D01*
X159319365Y-28760911D01*
X159341723Y-28748960D01*
X159374413Y-28722132D01*
X159408960Y-28697795D01*
X159426429Y-28679443D01*
X159446027Y-28663359D01*
X159472851Y-28630674D01*
X159501992Y-28600060D01*
X159515546Y-28578651D01*
X159531628Y-28559055D01*
X159551561Y-28521763D01*
X159556083Y-28514620D01*
X159567408Y-28492115D01*
X159595235Y-28440054D01*
X159597707Y-28431904D01*
X159623507Y-28380635D01*
X159766102Y-28152042D01*
X159835767Y-28065619D01*
X159869042Y-28034245D01*
X159885350Y-28043087D01*
%TA.AperFunction,Conductor*%
D21*
G36*
X159885350Y-28043087D02*
G01*
X159800385Y-28140866D01*
X159781389Y-28162076D01*
X159778356Y-28166217D01*
X159774986Y-28170095D01*
X159758487Y-28193343D01*
X159695855Y-28278849D01*
X159672860Y-28304636D01*
X159638992Y-28362192D01*
X159605052Y-28419587D01*
X159593606Y-28452186D01*
X159551095Y-28543981D01*
X159523367Y-28602787D01*
X159514615Y-28637900D01*
X159502701Y-28672067D01*
X159493688Y-28736404D01*
X159473565Y-28873182D01*
X159463608Y-28935940D01*
X159465077Y-28973588D01*
X159463273Y-29011222D01*
X159472677Y-29074109D01*
X159492059Y-29214503D01*
X159494044Y-29252689D01*
X159509531Y-29313779D01*
X159524236Y-29375102D01*
X159540238Y-29409836D01*
X159548397Y-29432436D01*
X159537436Y-29452667D01*
X159518124Y-29476085D01*
X159494645Y-29495482D01*
X159468556Y-29509663D01*
X159440182Y-29518488D01*
X159390381Y-29523536D01*
X159375257Y-29522757D01*
X159323414Y-29530323D01*
X159304870Y-29532202D01*
X159290086Y-29535186D01*
X159241737Y-29542242D01*
X159224098Y-29548507D01*
X159205747Y-29552211D01*
X159160643Y-29571044D01*
X159114587Y-29587401D01*
X159098507Y-29596988D01*
X159081231Y-29604201D01*
X159040671Y-29631468D01*
X158998688Y-29656498D01*
X158984787Y-29669038D01*
X158969250Y-29679483D01*
X158934784Y-29714145D01*
X158898497Y-29746879D01*
X158887310Y-29761889D01*
X158874109Y-29775165D01*
X158847069Y-29815883D01*
X158817863Y-29855069D01*
X158809819Y-29871973D01*
X158799462Y-29887569D01*
X158780888Y-29932771D01*
X158774412Y-29946381D01*
X158768096Y-29963904D01*
X158748178Y-30012377D01*
X158745265Y-30027243D01*
X158526184Y-30635030D01*
X158522952Y-30640628D01*
X158519324Y-30651315D01*
X158513997Y-30661282D01*
X158499528Y-30708980D01*
X158494093Y-30724058D01*
X158492514Y-30730300D01*
X158479581Y-30768401D01*
X158478108Y-30779594D01*
X158474828Y-30790405D01*
X158473247Y-30806461D01*
X158469292Y-30822093D01*
X158467223Y-30862278D01*
X158466383Y-30868659D01*
X158466016Y-30879871D01*
X158461602Y-30924688D01*
X158463183Y-30940742D01*
X158462354Y-30956846D01*
X158463288Y-30963247D01*
X158425973Y-32103703D01*
X158425252Y-32110110D01*
X158424872Y-32137376D01*
X158423983Y-32164536D01*
X158424403Y-32170948D01*
X158407148Y-33407985D01*
X158406469Y-33415490D01*
X158406678Y-33441619D01*
X158406314Y-33467737D01*
X158406948Y-33475243D01*
X158418730Y-34946011D01*
X158418211Y-34953654D01*
X158419000Y-34979647D01*
X158419208Y-35005641D01*
X158420020Y-35013255D01*
X158442615Y-35757883D01*
X158442291Y-35764597D01*
X158443635Y-35791479D01*
X158444452Y-35818416D01*
X158445315Y-35825091D01*
X158482422Y-36567520D01*
X158482223Y-36576164D01*
X158484101Y-36601118D01*
X158485350Y-36626098D01*
X158486625Y-36634644D01*
X158541082Y-37358061D01*
X158541199Y-37369492D01*
X158543607Y-37391605D01*
X158545275Y-37413768D01*
X158547245Y-37425019D01*
X158621988Y-38111499D01*
X158622857Y-38127076D01*
X158625628Y-38144937D01*
X158627583Y-38162890D01*
X158630781Y-38178148D01*
X158729040Y-38811424D01*
X158731806Y-38833979D01*
X158734198Y-38844667D01*
X158735875Y-38855474D01*
X158741535Y-38877448D01*
X158866291Y-39434834D01*
X158871040Y-39459018D01*
X158873637Y-39467654D01*
X158875605Y-39476448D01*
X158883313Y-39499835D01*
X158952805Y-39730952D01*
X158958675Y-39752983D01*
X158962490Y-39763163D01*
X158965617Y-39773562D01*
X158974280Y-39794621D01*
X159052178Y-40002474D01*
X159062423Y-40030694D01*
X159063947Y-40033879D01*
X159065191Y-40037197D01*
X159078468Y-40064216D01*
X159141936Y-40196812D01*
X159143999Y-40204200D01*
X159171026Y-40257587D01*
X159182277Y-40281092D01*
X159186228Y-40287614D01*
X159189673Y-40294420D01*
X159203672Y-40316415D01*
X159234667Y-40367586D01*
X159239842Y-40373243D01*
X159305044Y-40475684D01*
X159338826Y-40529956D01*
X159364307Y-40557137D01*
X159387304Y-40586466D01*
X159410344Y-40606248D01*
X159431108Y-40628398D01*
X159461406Y-40650089D01*
X159489680Y-40674365D01*
X159516135Y-40689271D01*
X159540823Y-40706946D01*
X159574770Y-40722309D01*
X159607237Y-40740603D01*
X159636090Y-40750061D01*
X159663753Y-40762580D01*
X159700054Y-40771027D01*
X159735457Y-40782632D01*
X159798909Y-40790310D01*
X159838516Y-40795507D01*
X159891559Y-40804625D01*
X159938997Y-40803386D01*
X159986435Y-40804918D01*
X160006308Y-40801628D01*
X160026446Y-40801102D01*
X160072743Y-40790629D01*
X160119557Y-40782879D01*
X160167694Y-40764738D01*
X160187829Y-40760954D01*
X160230880Y-40743654D01*
X160242841Y-40739682D01*
X160262100Y-40731109D01*
X160313032Y-40710642D01*
X160323648Y-40703710D01*
X160335224Y-40698557D01*
X160380056Y-40666878D01*
X160397703Y-40655355D01*
X160407519Y-40647472D01*
X160445422Y-40620689D01*
X160459711Y-40605634D01*
X160496465Y-40579742D01*
X160534646Y-40539630D01*
X160574230Y-40500876D01*
X160600131Y-40462988D01*
X160615439Y-40443368D01*
X160638295Y-40419458D01*
X160656829Y-40390319D01*
X160657281Y-40389740D01*
X160674940Y-40361846D01*
X160692567Y-40334133D01*
X160692897Y-40333481D01*
X160711371Y-40304299D01*
X160723272Y-40273437D01*
X160776879Y-40167467D01*
X160783269Y-40158766D01*
X160807286Y-40107360D01*
X160817644Y-40086885D01*
X160821526Y-40076882D01*
X160826073Y-40067149D01*
X160833707Y-40045493D01*
X160854227Y-39992612D01*
X160856094Y-39981978D01*
X160925664Y-39784606D01*
X160935442Y-39758215D01*
X160936827Y-39752936D01*
X160938644Y-39747782D01*
X160945361Y-39720419D01*
X161112764Y-39082507D01*
X161115940Y-39073107D01*
X161121296Y-39049991D01*
X161127323Y-39027026D01*
X161128890Y-39017222D01*
X161303585Y-38263315D01*
X161502730Y-37488908D01*
X161608145Y-37153507D01*
X161637981Y-37075748D01*
X161800654Y-37402669D01*
X161804244Y-37411378D01*
X161815635Y-37432776D01*
X161826434Y-37454479D01*
X161831437Y-37462460D01*
X162059795Y-37891438D01*
X162066805Y-37906364D01*
X162075596Y-37921121D01*
X162083665Y-37936279D01*
X162092801Y-37950002D01*
X162320749Y-38332649D01*
X162332289Y-38353365D01*
X162337959Y-38361539D01*
X162343045Y-38370077D01*
X162357112Y-38389152D01*
X162461453Y-38539577D01*
X162477965Y-38564004D01*
X162480594Y-38567173D01*
X162482943Y-38570559D01*
X162502049Y-38593031D01*
X162573745Y-38679440D01*
X162585449Y-38698103D01*
X162616719Y-38731235D01*
X162624235Y-38740293D01*
X162639827Y-38755719D01*
X162654858Y-38771644D01*
X162663723Y-38779359D01*
X162696123Y-38811412D01*
X162714510Y-38823555D01*
X162741922Y-38847410D01*
X162760549Y-38867867D01*
X162792690Y-38891590D01*
X162797321Y-38895620D01*
X162819752Y-38911564D01*
X162869113Y-38947997D01*
X162874709Y-38950628D01*
X162879744Y-38954207D01*
X162935683Y-38979295D01*
X162960626Y-38991022D01*
X162966419Y-38993080D01*
X163002862Y-39009424D01*
X163022260Y-39013869D01*
X163027556Y-39016790D01*
X163080844Y-39033725D01*
X163101738Y-39041147D01*
X163112943Y-39043926D01*
X163156151Y-39057658D01*
X163178277Y-39060132D01*
X163199887Y-39065492D01*
X163245186Y-39067613D01*
X163290249Y-39072651D01*
X163312433Y-39070761D01*
X163334672Y-39071802D01*
X163379509Y-39065046D01*
X163424694Y-39061196D01*
X163446082Y-39055015D01*
X163468099Y-39051697D01*
X163510757Y-39036322D01*
X163521841Y-39033119D01*
X163542426Y-39024908D01*
X163595039Y-39005946D01*
X163604972Y-38999961D01*
X163609333Y-38998222D01*
X163658835Y-38980954D01*
X163700950Y-38956165D01*
X163744349Y-38933698D01*
X163758982Y-38922008D01*
X163775121Y-38912509D01*
X163811595Y-38879978D01*
X163849773Y-38849479D01*
X163883554Y-38809406D01*
X163923294Y-38766255D01*
X163950126Y-38741989D01*
X163988960Y-38689745D01*
X164028161Y-38637760D01*
X164043890Y-38605179D01*
X164065570Y-38569097D01*
X164066910Y-38567604D01*
X164100245Y-38511386D01*
X164116610Y-38484149D01*
X164117468Y-38482339D01*
X164118486Y-38480623D01*
X164131907Y-38451897D01*
X164159944Y-38392781D01*
X164160433Y-38390836D01*
X164201769Y-38302359D01*
X164213627Y-38278232D01*
X164216006Y-38271885D01*
X164218870Y-38265755D01*
X164227793Y-38240439D01*
X164362501Y-37881062D01*
X164368523Y-37867320D01*
X164374297Y-37849593D01*
X164380846Y-37832120D01*
X164384713Y-37817610D01*
X164511010Y-37429826D01*
X164511628Y-37428399D01*
X164521375Y-37398003D01*
X164531363Y-37367335D01*
X164531701Y-37365800D01*
X164633619Y-37047960D01*
X164674867Y-37080563D01*
X164695398Y-37097486D01*
X164701228Y-37101400D01*
X164706742Y-37105758D01*
X164729137Y-37120134D01*
X164791915Y-37162276D01*
X164793362Y-37163712D01*
X164847811Y-37199797D01*
X164874170Y-37217492D01*
X164875963Y-37218455D01*
X164877654Y-37219576D01*
X164905669Y-37234415D01*
X164963251Y-37265351D01*
X164965198Y-37265946D01*
X165028384Y-37299414D01*
X165076637Y-37327141D01*
X165119876Y-37341720D01*
X165162092Y-37359020D01*
X165216713Y-37369671D01*
X165247387Y-37376757D01*
X165287325Y-37389190D01*
X165346421Y-37395445D01*
X165405411Y-37403088D01*
X165413476Y-37402543D01*
X165421509Y-37403393D01*
X165480728Y-37397995D01*
X165540037Y-37393985D01*
X165570812Y-37385671D01*
X165578706Y-37385441D01*
X165632290Y-37373150D01*
X165653108Y-37369166D01*
X165665096Y-37365625D01*
X165710224Y-37355273D01*
X165729655Y-37346553D01*
X165750088Y-37340517D01*
X165791079Y-37318989D01*
X165802483Y-37313871D01*
X165820884Y-37303335D01*
X165869548Y-37277777D01*
X165876620Y-37272059D01*
X165906455Y-37258036D01*
X165955899Y-37221550D01*
X166005990Y-37185927D01*
X166033318Y-37156959D01*
X166042631Y-37148559D01*
X166063271Y-37134113D01*
X166092597Y-37103491D01*
X166098994Y-37097722D01*
X166115890Y-37079170D01*
X166133215Y-37061080D01*
X166138525Y-37054316D01*
X166147558Y-37044398D01*
X166185078Y-37128429D01*
X166595600Y-38155620D01*
X166605837Y-38182358D01*
X166608070Y-38186822D01*
X166609922Y-38191456D01*
X166623099Y-38216866D01*
X166707736Y-38386063D01*
X166712104Y-38399742D01*
X166737859Y-38446281D01*
X166746543Y-38463642D01*
X166754156Y-38475731D01*
X166761068Y-38488221D01*
X166772079Y-38504191D01*
X166800430Y-38549211D01*
X166810306Y-38559636D01*
X166877406Y-38656959D01*
X166885658Y-38673570D01*
X166915612Y-38712372D01*
X166924265Y-38724923D01*
X166936187Y-38739026D01*
X166947451Y-38753617D01*
X166957888Y-38764696D01*
X166989550Y-38802149D01*
X167004061Y-38813708D01*
X167074672Y-38888662D01*
X167086335Y-38905081D01*
X167120840Y-38937669D01*
X167130195Y-38947599D01*
X167145281Y-38960752D01*
X167159853Y-38974514D01*
X167170657Y-38982876D01*
X167206417Y-39014053D01*
X167223881Y-39024068D01*
X167293699Y-39078104D01*
X167307363Y-39092123D01*
X167346935Y-39119306D01*
X167358170Y-39128001D01*
X167374656Y-39138348D01*
X167390715Y-39149379D01*
X167403168Y-39156242D01*
X167443822Y-39181757D01*
X167462111Y-39188727D01*
X167525924Y-39223896D01*
X167538813Y-39233756D01*
X167584887Y-39256392D01*
X167600251Y-39264860D01*
X167615079Y-39271226D01*
X167629573Y-39278347D01*
X167646013Y-39284506D01*
X167693172Y-39304753D01*
X167709044Y-39308123D01*
X167762270Y-39328065D01*
X167772604Y-39333986D01*
X167825332Y-39351693D01*
X167845789Y-39359357D01*
X167857237Y-39362406D01*
X167868466Y-39366177D01*
X167889752Y-39371067D01*
X167943505Y-39385384D01*
X167955393Y-39386145D01*
X167994026Y-39395020D01*
X167999405Y-39397327D01*
X168059646Y-39410094D01*
X168086851Y-39416343D01*
X168092639Y-39417086D01*
X168098331Y-39418292D01*
X168126004Y-39421367D01*
X168187152Y-39429213D01*
X168192996Y-39428811D01*
X168229445Y-39432861D01*
X168244323Y-39436856D01*
X168296346Y-39440294D01*
X168314612Y-39442324D01*
X168329950Y-39442515D01*
X168345225Y-39443525D01*
X168363558Y-39442935D01*
X168415727Y-39443586D01*
X168430880Y-39440768D01*
X168604864Y-39435168D01*
X168621697Y-39437113D01*
X168672168Y-39433001D01*
X168688983Y-39432460D01*
X168705682Y-39430271D01*
X168722485Y-39428902D01*
X168739055Y-39425896D01*
X168789248Y-39419316D01*
X168805293Y-39413879D01*
X168926481Y-39391894D01*
X168936808Y-39391759D01*
X168992759Y-39379870D01*
X169015798Y-39375690D01*
X169025673Y-39372876D01*
X169035723Y-39370740D01*
X169058049Y-39363648D01*
X169113049Y-39347973D01*
X169122239Y-39343259D01*
X169259143Y-39299772D01*
X169305241Y-39288025D01*
X169353724Y-39264852D01*
X169403071Y-39243654D01*
X169414482Y-39235813D01*
X169426984Y-39229837D01*
X169470016Y-39197650D01*
X169514277Y-39167233D01*
X169523942Y-39157313D01*
X169535034Y-39149016D01*
X169570955Y-39109058D01*
X169608438Y-39070585D01*
X169615979Y-39058974D01*
X169625242Y-39048670D01*
X169652685Y-39002458D01*
X169681933Y-38957424D01*
X169687064Y-38944564D01*
X169694139Y-38932651D01*
X169712034Y-38881988D01*
X169731940Y-38832101D01*
X169734465Y-38818483D01*
X169739078Y-38805422D01*
X169746745Y-38752243D01*
X169756537Y-38699429D01*
X169755917Y-38651873D01*
X169790237Y-37889920D01*
X169806000Y-37578260D01*
X169847110Y-37308450D01*
X169913950Y-37048578D01*
X170005232Y-36799287D01*
X170119532Y-36561913D01*
X170255602Y-36337977D01*
X170412291Y-36128485D01*
X170587844Y-35935249D01*
X170781147Y-35759629D01*
X170990583Y-35602992D01*
X171214558Y-35466907D01*
X171451897Y-35352591D01*
X171701129Y-35261371D01*
X171961130Y-35194513D01*
X172230929Y-35153341D01*
X172509817Y-35139260D01*
X172788705Y-35153341D01*
X173058507Y-35194514D01*
X173318509Y-35261372D01*
X173567696Y-35352576D01*
X173804986Y-35466907D01*
X174029092Y-35603023D01*
X174238433Y-35759589D01*
X174431695Y-35935244D01*
X174607391Y-36128550D01*
X174763975Y-36337901D01*
X174900012Y-36561914D01*
X175014393Y-36799290D01*
X175105560Y-37048484D01*
X175172449Y-37308546D01*
X175213639Y-37578355D01*
X175228517Y-37872529D01*
X175228494Y-37876557D01*
X175227689Y-37880747D01*
X175228105Y-37943859D01*
X175227934Y-37973384D01*
X175228327Y-37977626D01*
X175228355Y-37981866D01*
X175231431Y-38011116D01*
X175235131Y-38051049D01*
X175234749Y-38056786D01*
X175242370Y-38115159D01*
X175244992Y-38140091D01*
X175246726Y-38148517D01*
X175247841Y-38157058D01*
X175253513Y-38181502D01*
X175265373Y-38239139D01*
X175267911Y-38245153D01*
X175268427Y-38253453D01*
X175282998Y-38308568D01*
X175288252Y-38331210D01*
X175291603Y-38341117D01*
X175302915Y-38383904D01*
X175313172Y-38404881D01*
X175320655Y-38427001D01*
X175342742Y-38465350D01*
X175347337Y-38474748D01*
X175359550Y-38494535D01*
X175387997Y-38543928D01*
X175392288Y-38548832D01*
X175392325Y-38548927D01*
X175426409Y-38602858D01*
X175442182Y-38628412D01*
X175444395Y-38631316D01*
X175464413Y-38662990D01*
X175485193Y-38684854D01*
X175503474Y-38708844D01*
X175531562Y-38733643D01*
X175534077Y-38736289D01*
X175556787Y-38755914D01*
X175604624Y-38798149D01*
X175607800Y-38799997D01*
X175630007Y-38819187D01*
X175643549Y-38834588D01*
X175680950Y-38863210D01*
X175690994Y-38871889D01*
X175707645Y-38883638D01*
X175723855Y-38896043D01*
X175735154Y-38903048D01*
X175773619Y-38930190D01*
X175792355Y-38938515D01*
X175886180Y-38996689D01*
X175912460Y-39013252D01*
X175914711Y-39014379D01*
X175916848Y-39015704D01*
X175944685Y-39029386D01*
X176084989Y-39099633D01*
X176108438Y-39111990D01*
X176115052Y-39114684D01*
X176121433Y-39117879D01*
X176146170Y-39127360D01*
X176395943Y-39229105D01*
X176413831Y-39237259D01*
X176427091Y-39241794D01*
X176440059Y-39247076D01*
X176458892Y-39252668D01*
X176512859Y-39271124D01*
X176523511Y-39276817D01*
X176532507Y-39279546D01*
X181245774Y-41636179D01*
X181195073Y-104090000D01*
X127050000Y-104090000D01*
X127050000Y-101458665D01*
X130645000Y-101458665D01*
X130645000Y-101741335D01*
X130700147Y-102018574D01*
X130808320Y-102279727D01*
X130965363Y-102514759D01*
X131165241Y-102714637D01*
X131400273Y-102871680D01*
X131661426Y-102979853D01*
X131938665Y-103035000D01*
X132221335Y-103035000D01*
X132498574Y-102979853D01*
X132759727Y-102871680D01*
X132994759Y-102714637D01*
X133194637Y-102514759D01*
X133351680Y-102279727D01*
X133459853Y-102018574D01*
X133515000Y-101741335D01*
X133515000Y-101458665D01*
X133459853Y-101181426D01*
X133351680Y-100920273D01*
X133194637Y-100685241D01*
X132994759Y-100485363D01*
X132759727Y-100328320D01*
X132498574Y-100220147D01*
X132221335Y-100165000D01*
X131938665Y-100165000D01*
X131661426Y-100220147D01*
X131400273Y-100328320D01*
X131165241Y-100485363D01*
X130965363Y-100685241D01*
X130808320Y-100920273D01*
X130700147Y-101181426D01*
X130645000Y-101458665D01*
X127050000Y-101458665D01*
X127050000Y-98430373D01*
X130364000Y-98430373D01*
X130364000Y-98609627D01*
X130398971Y-98785437D01*
X130467569Y-98951047D01*
X130567157Y-99100091D01*
X130693909Y-99226843D01*
X130842953Y-99326431D01*
X131008563Y-99395029D01*
X131184373Y-99430000D01*
X131363627Y-99430000D01*
X131539437Y-99395029D01*
X131705047Y-99326431D01*
X131854091Y-99226843D01*
X131980843Y-99100091D01*
X132080431Y-98951047D01*
X132149029Y-98785437D01*
X132184000Y-98609627D01*
X132184000Y-98430373D01*
X132149029Y-98254563D01*
X132080431Y-98088953D01*
X131980843Y-97939909D01*
X131854091Y-97813157D01*
X131705047Y-97713569D01*
X131539437Y-97644971D01*
X131363627Y-97610000D01*
X131184373Y-97610000D01*
X131008563Y-97644971D01*
X130842953Y-97713569D01*
X130693909Y-97813157D01*
X130567157Y-97939909D01*
X130467569Y-98088953D01*
X130398971Y-98254563D01*
X130364000Y-98430373D01*
X127050000Y-98430373D01*
X127050000Y-94430373D01*
X130364000Y-94430373D01*
X130364000Y-94609627D01*
X130398971Y-94785437D01*
X130467569Y-94951047D01*
X130567157Y-95100091D01*
X130693909Y-95226843D01*
X130842953Y-95326431D01*
X131008563Y-95395029D01*
X131184373Y-95430000D01*
X131363627Y-95430000D01*
X131539437Y-95395029D01*
X131705047Y-95326431D01*
X131854091Y-95226843D01*
X131980843Y-95100091D01*
X132080431Y-94951047D01*
X132149029Y-94785437D01*
X132184000Y-94609627D01*
X132184000Y-94430373D01*
X132149029Y-94254563D01*
X132080431Y-94088953D01*
X131980843Y-93939909D01*
X131854091Y-93813157D01*
X131705047Y-93713569D01*
X131539437Y-93644971D01*
X131363627Y-93610000D01*
X131184373Y-93610000D01*
X131008563Y-93644971D01*
X130842953Y-93713569D01*
X130693909Y-93813157D01*
X130567157Y-93939909D01*
X130467569Y-94088953D01*
X130398971Y-94254563D01*
X130364000Y-94430373D01*
X127050000Y-94430373D01*
X127050000Y-49784000D01*
X127126719Y-49784000D01*
X127131001Y-49827479D01*
X127131000Y-81672529D01*
X127126719Y-81715998D01*
X127131000Y-81759467D01*
X127131000Y-81759474D01*
X127143805Y-81889487D01*
X127194411Y-82056310D01*
X127276589Y-82210056D01*
X127387183Y-82344815D01*
X127420956Y-82372532D01*
X136493749Y-91445326D01*
X136422580Y-91478963D01*
X136196586Y-91646481D01*
X136007615Y-91854869D01*
X135862930Y-92096119D01*
X135768091Y-92360960D01*
X135800987Y-92421183D01*
X130975000Y-87595197D01*
X130975000Y-87488665D01*
X130919853Y-87211426D01*
X130811680Y-86950273D01*
X130654637Y-86715241D01*
X130454759Y-86515363D01*
X130219727Y-86358320D01*
X129958574Y-86250147D01*
X129681335Y-86195000D01*
X129398665Y-86195000D01*
X129121426Y-86250147D01*
X128860273Y-86358320D01*
X128625241Y-86515363D01*
X128425363Y-86715241D01*
X128268320Y-86950273D01*
X128160147Y-87211426D01*
X128105000Y-87488665D01*
X128105000Y-87771335D01*
X128160147Y-88048574D01*
X128268320Y-88309727D01*
X128425363Y-88544759D01*
X128625241Y-88744637D01*
X128860273Y-88901680D01*
X129121426Y-89009853D01*
X129398665Y-89065000D01*
X129681335Y-89065000D01*
X129958574Y-89009853D01*
X130157610Y-88927410D01*
X131399223Y-90169022D01*
X131165241Y-90325363D01*
X130965363Y-90525241D01*
X130808320Y-90760273D01*
X130700147Y-91021426D01*
X130645000Y-91298665D01*
X130645000Y-91581335D01*
X130700147Y-91858574D01*
X130808320Y-92119727D01*
X130965363Y-92354759D01*
X131165241Y-92554637D01*
X131400273Y-92711680D01*
X131661426Y-92819853D01*
X131938665Y-92875000D01*
X132221335Y-92875000D01*
X132498574Y-92819853D01*
X132759727Y-92711680D01*
X132994759Y-92554637D01*
X133194637Y-92354759D01*
X133350978Y-92120777D01*
X138940001Y-97709801D01*
X138940000Y-99111956D01*
X138785241Y-99215363D01*
X138585363Y-99415241D01*
X138430000Y-99647759D01*
X138274637Y-99415241D01*
X138074759Y-99215363D01*
X137839727Y-99058320D01*
X137578574Y-98950147D01*
X137301335Y-98895000D01*
X137018665Y-98895000D01*
X136741426Y-98950147D01*
X136480273Y-99058320D01*
X136245241Y-99215363D01*
X136045363Y-99415241D01*
X135888320Y-99650273D01*
X135780147Y-99911426D01*
X135725000Y-100188665D01*
X135725000Y-100471335D01*
X135780147Y-100748574D01*
X135888320Y-101009727D01*
X136045363Y-101244759D01*
X136245241Y-101444637D01*
X136480273Y-101601680D01*
X136741426Y-101709853D01*
X137018665Y-101765000D01*
X137301335Y-101765000D01*
X137483886Y-101728688D01*
X137866201Y-102111003D01*
X137889999Y-102140001D01*
X138005724Y-102234974D01*
X138137753Y-102305546D01*
X138281014Y-102349003D01*
X138392667Y-102360000D01*
X138392676Y-102360000D01*
X138429999Y-102363676D01*
X138467322Y-102360000D01*
X176492678Y-102360000D01*
X176530000Y-102363676D01*
X176567322Y-102360000D01*
X176567333Y-102360000D01*
X176678986Y-102349003D01*
X176822247Y-102305546D01*
X176954276Y-102234974D01*
X177070001Y-102140001D01*
X177093804Y-102110997D01*
X177476114Y-101728688D01*
X177658665Y-101765000D01*
X177941335Y-101765000D01*
X178218574Y-101709853D01*
X178479727Y-101601680D01*
X178714759Y-101444637D01*
X178914637Y-101244759D01*
X179071680Y-101009727D01*
X179179853Y-100748574D01*
X179235000Y-100471335D01*
X179235000Y-100188665D01*
X179204438Y-100035021D01*
X180851004Y-98388455D01*
X180880001Y-98364658D01*
X180914534Y-98322580D01*
X180974974Y-98248934D01*
X181045546Y-98116904D01*
X181071916Y-98029972D01*
X181089003Y-97973643D01*
X181100000Y-97861990D01*
X181100000Y-97861981D01*
X181103676Y-97824658D01*
X181100000Y-97787335D01*
X181100000Y-52742333D01*
X181103677Y-52705000D01*
X181089003Y-52556014D01*
X181045546Y-52412753D01*
X180974974Y-52280724D01*
X180903799Y-52193997D01*
X180880001Y-52164999D01*
X180851003Y-52141201D01*
X175733803Y-47024002D01*
X175710000Y-46994998D01*
X175594275Y-46900025D01*
X175462246Y-46829453D01*
X175318985Y-46785996D01*
X175207332Y-46774999D01*
X175207321Y-46774999D01*
X175169999Y-46771323D01*
X175132677Y-46774999D01*
X158339801Y-46774999D01*
X157880000Y-46315199D01*
X157880000Y-46253061D01*
X157840226Y-46053102D01*
X157762205Y-45864744D01*
X157648937Y-45695226D01*
X157504774Y-45551063D01*
X157335256Y-45437795D01*
X157146898Y-45359774D01*
X156946939Y-45320000D01*
X156743061Y-45320000D01*
X156543102Y-45359774D01*
X156354744Y-45437795D01*
X156185226Y-45551063D01*
X156041063Y-45695226D01*
X155927795Y-45864744D01*
X155849774Y-46053102D01*
X155810000Y-46253061D01*
X155810000Y-46456939D01*
X155849774Y-46656898D01*
X155927795Y-46845256D01*
X156041063Y-47014774D01*
X156185226Y-47158937D01*
X156354744Y-47272205D01*
X156543102Y-47350226D01*
X156743061Y-47390000D01*
X156805199Y-47390000D01*
X157461199Y-48046001D01*
X157484998Y-48075000D01*
X157513996Y-48098798D01*
X157600723Y-48169973D01*
X157732752Y-48240545D01*
X157876013Y-48284002D01*
X158024999Y-48298676D01*
X158062332Y-48294999D01*
X160255000Y-48294999D01*
X160255000Y-48361939D01*
X160294774Y-48561898D01*
X160372795Y-48750256D01*
X160385987Y-48770000D01*
X153103711Y-48770000D01*
X153059774Y-48726063D01*
X152890256Y-48612795D01*
X152701898Y-48534774D01*
X152501939Y-48495000D01*
X152298061Y-48495000D01*
X152098102Y-48534774D01*
X151909744Y-48612795D01*
X151740226Y-48726063D01*
X151596063Y-48870226D01*
X151482795Y-49039744D01*
X151404774Y-49228102D01*
X151365000Y-49428061D01*
X151365000Y-49631939D01*
X151404774Y-49831898D01*
X151482795Y-50020256D01*
X151596063Y-50189774D01*
X151740226Y-50333937D01*
X151909744Y-50447205D01*
X152098102Y-50525226D01*
X152298061Y-50565000D01*
X152501939Y-50565000D01*
X152701898Y-50525226D01*
X152890256Y-50447205D01*
X153059774Y-50333937D01*
X153103711Y-50290000D01*
X160248201Y-50290000D01*
X165717148Y-55758948D01*
X165642905Y-55789701D01*
X165391495Y-55957688D01*
X165325056Y-56024127D01*
X165319502Y-56005820D01*
X165260537Y-55895506D01*
X165181185Y-55798815D01*
X165084494Y-55719463D01*
X164974180Y-55660498D01*
X164854482Y-55624188D01*
X164730000Y-55611928D01*
X162930000Y-55611928D01*
X162805518Y-55624188D01*
X162685820Y-55660498D01*
X162575506Y-55719463D01*
X162478815Y-55798815D01*
X162399463Y-55895506D01*
X162340498Y-56005820D01*
X162304188Y-56125518D01*
X162291928Y-56250000D01*
X162291928Y-56390000D01*
X160088313Y-56390000D01*
X159942312Y-56171495D01*
X159728505Y-55957688D01*
X159477095Y-55789701D01*
X159197743Y-55673989D01*
X158901184Y-55615000D01*
X158598816Y-55615000D01*
X158341070Y-55666269D01*
X158088803Y-55414002D01*
X158065000Y-55384998D01*
X157949275Y-55290025D01*
X157817246Y-55219453D01*
X157673985Y-55175996D01*
X157562332Y-55164999D01*
X157562321Y-55164999D01*
X157524999Y-55161323D01*
X157487677Y-55164999D01*
X149852323Y-55164999D01*
X149815000Y-55161323D01*
X149777677Y-55164999D01*
X149777668Y-55164999D01*
X149666015Y-55175996D01*
X149522754Y-55219453D01*
X149390724Y-55290025D01*
X149307084Y-55358667D01*
X149275000Y-55384998D01*
X149251202Y-55413996D01*
X149053270Y-55611928D01*
X147690000Y-55611928D01*
X147565518Y-55624188D01*
X147445820Y-55660498D01*
X147335506Y-55719463D01*
X147238815Y-55798815D01*
X147159463Y-55895506D01*
X147100498Y-56005820D01*
X147064188Y-56125518D01*
X147051928Y-56250000D01*
X147051928Y-56390000D01*
X144848313Y-56390000D01*
X144702312Y-56171495D01*
X144488505Y-55957688D01*
X144237095Y-55789701D01*
X143957743Y-55673989D01*
X143661184Y-55615000D01*
X143358816Y-55615000D01*
X143101070Y-55666269D01*
X142848803Y-55414002D01*
X142825000Y-55384998D01*
X142709275Y-55290025D01*
X142577246Y-55219453D01*
X142433985Y-55175996D01*
X142322332Y-55164999D01*
X142322321Y-55164999D01*
X142284999Y-55161323D01*
X142247677Y-55164999D01*
X138422323Y-55164999D01*
X138385000Y-55161323D01*
X138347677Y-55164999D01*
X138347668Y-55164999D01*
X138236015Y-55175996D01*
X138092754Y-55219453D01*
X137960724Y-55290025D01*
X137877084Y-55358667D01*
X137845000Y-55384998D01*
X137821202Y-55413996D01*
X137483886Y-55751312D01*
X137301335Y-55715000D01*
X137018665Y-55715000D01*
X136741426Y-55770147D01*
X136480273Y-55878320D01*
X136245241Y-56035363D01*
X136045363Y-56235241D01*
X135888320Y-56470273D01*
X135780147Y-56731426D01*
X135725000Y-57008665D01*
X135725000Y-57291335D01*
X135780147Y-57568574D01*
X135888320Y-57829727D01*
X136045363Y-58064759D01*
X136245241Y-58264637D01*
X136480273Y-58421680D01*
X136741426Y-58529853D01*
X137018665Y-58585000D01*
X137301335Y-58585000D01*
X137578574Y-58529853D01*
X137839727Y-58421680D01*
X138074759Y-58264637D01*
X138274637Y-58064759D01*
X138431680Y-57829727D01*
X138539853Y-57568574D01*
X138595000Y-57291335D01*
X138595000Y-57008665D01*
X138558688Y-56826114D01*
X138699803Y-56684999D01*
X139431928Y-56684999D01*
X139431928Y-58050000D01*
X139444188Y-58174482D01*
X139480498Y-58294180D01*
X139539463Y-58404494D01*
X139618815Y-58501185D01*
X139715506Y-58580537D01*
X139825820Y-58639502D01*
X139945518Y-58675812D01*
X140070000Y-58688072D01*
X140210000Y-58688072D01*
X140210001Y-63231928D01*
X140070000Y-63231928D01*
X139945518Y-63244188D01*
X139825820Y-63280498D01*
X139715506Y-63339463D01*
X139618815Y-63418815D01*
X139539463Y-63515506D01*
X139480498Y-63625820D01*
X139444188Y-63745518D01*
X139431928Y-63870000D01*
X139431928Y-65670000D01*
X139444188Y-65794482D01*
X139480498Y-65914180D01*
X139539463Y-66024494D01*
X139618815Y-66121185D01*
X139715506Y-66200537D01*
X139825820Y-66259502D01*
X139945518Y-66295812D01*
X140070000Y-66308072D01*
X140210000Y-66308072D01*
X140210001Y-70851928D01*
X140070000Y-70851928D01*
X139945518Y-70864188D01*
X139825820Y-70900498D01*
X139715506Y-70959463D01*
X139618815Y-71038815D01*
X139539463Y-71135506D01*
X139480498Y-71245820D01*
X139444188Y-71365518D01*
X139431928Y-71490000D01*
X139431928Y-73290000D01*
X139444188Y-73414482D01*
X139480498Y-73534180D01*
X139539463Y-73644494D01*
X139618815Y-73741185D01*
X139715506Y-73820537D01*
X139825820Y-73879502D01*
X139945518Y-73915812D01*
X140070000Y-73928072D01*
X140210000Y-73928072D01*
X140210001Y-78471928D01*
X140070000Y-78471928D01*
X139945518Y-78484188D01*
X139825820Y-78520498D01*
X139715506Y-78579463D01*
X139618815Y-78658815D01*
X139539463Y-78755506D01*
X139480498Y-78865820D01*
X139444188Y-78985518D01*
X139431928Y-79110000D01*
X139431928Y-80910000D01*
X139444188Y-81034482D01*
X139480498Y-81154180D01*
X139539463Y-81264494D01*
X139618815Y-81361185D01*
X139715506Y-81440537D01*
X139825820Y-81499502D01*
X139945518Y-81535812D01*
X140070000Y-81548072D01*
X141870000Y-81548072D01*
X141994482Y-81535812D01*
X142114180Y-81499502D01*
X142224494Y-81440537D01*
X142321185Y-81361185D01*
X142400537Y-81264494D01*
X142459502Y-81154180D01*
X142465056Y-81135873D01*
X142531495Y-81202312D01*
X142782905Y-81370299D01*
X143062257Y-81486011D01*
X143358816Y-81545000D01*
X143661184Y-81545000D01*
X143957743Y-81486011D01*
X144237095Y-81370299D01*
X144488505Y-81202312D01*
X144702312Y-80988505D01*
X144848313Y-80770000D01*
X147051928Y-80770000D01*
X147051928Y-80910000D01*
X147064188Y-81034482D01*
X147100498Y-81154180D01*
X147159463Y-81264494D01*
X147238815Y-81361185D01*
X147335506Y-81440537D01*
X147445820Y-81499502D01*
X147565518Y-81535812D01*
X147690000Y-81548072D01*
X149490000Y-81548072D01*
X149614482Y-81535812D01*
X149734180Y-81499502D01*
X149844494Y-81440537D01*
X149941185Y-81361185D01*
X150020537Y-81264494D01*
X150079502Y-81154180D01*
X150085056Y-81135873D01*
X150151495Y-81202312D01*
X150402905Y-81370299D01*
X150682257Y-81486011D01*
X150978816Y-81545000D01*
X151281184Y-81545000D01*
X151577743Y-81486011D01*
X151857095Y-81370299D01*
X152108505Y-81202312D01*
X152322312Y-80988505D01*
X152490299Y-80737095D01*
X152606011Y-80457743D01*
X152665000Y-80161184D01*
X152665000Y-79858816D01*
X152606011Y-79562257D01*
X152490299Y-79282905D01*
X152322312Y-79031495D01*
X152108505Y-78817688D01*
X151890000Y-78671687D01*
X151890000Y-73728313D01*
X152108505Y-73582312D01*
X152322312Y-73368505D01*
X152490299Y-73117095D01*
X152606011Y-72837743D01*
X152665000Y-72541184D01*
X152665000Y-72238816D01*
X152606011Y-71942257D01*
X152490299Y-71662905D01*
X152322312Y-71411495D01*
X152108505Y-71197688D01*
X151890000Y-71051687D01*
X151890000Y-66108313D01*
X152108505Y-65962312D01*
X152322312Y-65748505D01*
X152490299Y-65497095D01*
X152606011Y-65217743D01*
X152665000Y-64921184D01*
X152665000Y-64618816D01*
X152606011Y-64322257D01*
X152490299Y-64042905D01*
X152322312Y-63791495D01*
X152108505Y-63577688D01*
X151890000Y-63431687D01*
X151890000Y-58488313D01*
X152108505Y-58342312D01*
X152322312Y-58128505D01*
X152490299Y-57877095D01*
X152606011Y-57597743D01*
X152665000Y-57301184D01*
X152665000Y-56998816D01*
X152606011Y-56702257D01*
X152598862Y-56684999D01*
X154671928Y-56684999D01*
X154671928Y-58050000D01*
X154684188Y-58174482D01*
X154720498Y-58294180D01*
X154779463Y-58404494D01*
X154858815Y-58501185D01*
X154955506Y-58580537D01*
X155065820Y-58639502D01*
X155185518Y-58675812D01*
X155310000Y-58688072D01*
X155450000Y-58688072D01*
X155450001Y-63231928D01*
X155310000Y-63231928D01*
X155185518Y-63244188D01*
X155065820Y-63280498D01*
X154955506Y-63339463D01*
X154858815Y-63418815D01*
X154779463Y-63515506D01*
X154720498Y-63625820D01*
X154684188Y-63745518D01*
X154671928Y-63870000D01*
X154671928Y-65670000D01*
X154684188Y-65794482D01*
X154720498Y-65914180D01*
X154779463Y-66024494D01*
X154858815Y-66121185D01*
X154955506Y-66200537D01*
X155065820Y-66259502D01*
X155185518Y-66295812D01*
X155310000Y-66308072D01*
X155450000Y-66308072D01*
X155450001Y-70851928D01*
X155310000Y-70851928D01*
X155185518Y-70864188D01*
X155065820Y-70900498D01*
X154955506Y-70959463D01*
X154858815Y-71038815D01*
X154779463Y-71135506D01*
X154720498Y-71245820D01*
X154684188Y-71365518D01*
X154671928Y-71490000D01*
X154671928Y-73290000D01*
X154684188Y-73414482D01*
X154720498Y-73534180D01*
X154779463Y-73644494D01*
X154858815Y-73741185D01*
X154955506Y-73820537D01*
X155065820Y-73879502D01*
X155185518Y-73915812D01*
X155310000Y-73928072D01*
X155450000Y-73928072D01*
X155450001Y-78471928D01*
X155310000Y-78471928D01*
X155185518Y-78484188D01*
X155065820Y-78520498D01*
X154955506Y-78579463D01*
X154858815Y-78658815D01*
X154779463Y-78755506D01*
X154720498Y-78865820D01*
X154684188Y-78985518D01*
X154671928Y-79110000D01*
X154671928Y-80910000D01*
X154684188Y-81034482D01*
X154720498Y-81154180D01*
X154779463Y-81264494D01*
X154858815Y-81361185D01*
X154955506Y-81440537D01*
X155065820Y-81499502D01*
X155185518Y-81535812D01*
X155310000Y-81548072D01*
X157110000Y-81548072D01*
X157234482Y-81535812D01*
X157354180Y-81499502D01*
X157464494Y-81440537D01*
X157561185Y-81361185D01*
X157640537Y-81264494D01*
X157699502Y-81154180D01*
X157705056Y-81135873D01*
X157771495Y-81202312D01*
X158022905Y-81370299D01*
X158302257Y-81486011D01*
X158598816Y-81545000D01*
X158901184Y-81545000D01*
X159197743Y-81486011D01*
X159477095Y-81370299D01*
X159728505Y-81202312D01*
X159942312Y-80988505D01*
X160088313Y-80770000D01*
X162291928Y-80770000D01*
X162291928Y-80910000D01*
X162304188Y-81034482D01*
X162340498Y-81154180D01*
X162399463Y-81264494D01*
X162478815Y-81361185D01*
X162575506Y-81440537D01*
X162685820Y-81499502D01*
X162805518Y-81535812D01*
X162930000Y-81548072D01*
X164730000Y-81548072D01*
X164854482Y-81535812D01*
X164974180Y-81499502D01*
X165084494Y-81440537D01*
X165181185Y-81361185D01*
X165260537Y-81264494D01*
X165319502Y-81154180D01*
X165325056Y-81135873D01*
X165391495Y-81202312D01*
X165642905Y-81370299D01*
X165922257Y-81486011D01*
X166218816Y-81545000D01*
X166521184Y-81545000D01*
X166817328Y-81486094D01*
X165681949Y-82621473D01*
X165648182Y-82649185D01*
X165620469Y-82682953D01*
X165620466Y-82682956D01*
X165537588Y-82783943D01*
X165455410Y-82937689D01*
X165404803Y-83104512D01*
X165387717Y-83278002D01*
X165391999Y-83321481D01*
X165391998Y-85358421D01*
X164658492Y-86091928D01*
X162930000Y-86091928D01*
X162805518Y-86104188D01*
X162685820Y-86140498D01*
X162575506Y-86199463D01*
X162478815Y-86278815D01*
X162399463Y-86375506D01*
X162340498Y-86485820D01*
X162304188Y-86605518D01*
X162291928Y-86730000D01*
X162291928Y-87792894D01*
X157728006Y-83228973D01*
X157704203Y-83199969D01*
X157588478Y-83104996D01*
X157456449Y-83034424D01*
X157313188Y-82990967D01*
X157201535Y-82979970D01*
X157201524Y-82979970D01*
X157164202Y-82976294D01*
X157126880Y-82979970D01*
X136522594Y-82979970D01*
X133411289Y-79868665D01*
X135725000Y-79868665D01*
X135725000Y-80151335D01*
X135780147Y-80428574D01*
X135888320Y-80689727D01*
X136045363Y-80924759D01*
X136245241Y-81124637D01*
X136480273Y-81281680D01*
X136741426Y-81389853D01*
X137018665Y-81445000D01*
X137301335Y-81445000D01*
X137578574Y-81389853D01*
X137839727Y-81281680D01*
X138074759Y-81124637D01*
X138274637Y-80924759D01*
X138431680Y-80689727D01*
X138539853Y-80428574D01*
X138595000Y-80151335D01*
X138595000Y-79868665D01*
X138539853Y-79591426D01*
X138431680Y-79330273D01*
X138274637Y-79095241D01*
X138074759Y-78895363D01*
X137839727Y-78738320D01*
X137578574Y-78630147D01*
X137301335Y-78575000D01*
X137018665Y-78575000D01*
X136741426Y-78630147D01*
X136480273Y-78738320D01*
X136245241Y-78895363D01*
X136045363Y-79095241D01*
X135888320Y-79330273D01*
X135780147Y-79591426D01*
X135725000Y-79868665D01*
X133411289Y-79868665D01*
X131875011Y-78332388D01*
X131875011Y-72248665D01*
X135725000Y-72248665D01*
X135725000Y-72531335D01*
X135780147Y-72808574D01*
X135888320Y-73069727D01*
X136045363Y-73304759D01*
X136245241Y-73504637D01*
X136480273Y-73661680D01*
X136741426Y-73769853D01*
X137018665Y-73825000D01*
X137301335Y-73825000D01*
X137578574Y-73769853D01*
X137839727Y-73661680D01*
X138074759Y-73504637D01*
X138274637Y-73304759D01*
X138431680Y-73069727D01*
X138539853Y-72808574D01*
X138595000Y-72531335D01*
X138595000Y-72248665D01*
X138539853Y-71971426D01*
X138431680Y-71710273D01*
X138274637Y-71475241D01*
X138074759Y-71275363D01*
X137839727Y-71118320D01*
X137578574Y-71010147D01*
X137301335Y-70955000D01*
X137018665Y-70955000D01*
X136741426Y-71010147D01*
X136480273Y-71118320D01*
X136245241Y-71275363D01*
X136045363Y-71475241D01*
X135888320Y-71710273D01*
X135780147Y-71971426D01*
X135725000Y-72248665D01*
X131875011Y-72248665D01*
X131875011Y-64628665D01*
X135725000Y-64628665D01*
X135725000Y-64911335D01*
X135780147Y-65188574D01*
X135888320Y-65449727D01*
X136045363Y-65684759D01*
X136245241Y-65884637D01*
X136480273Y-66041680D01*
X136741426Y-66149853D01*
X137018665Y-66205000D01*
X137301335Y-66205000D01*
X137578574Y-66149853D01*
X137839727Y-66041680D01*
X138074759Y-65884637D01*
X138274637Y-65684759D01*
X138431680Y-65449727D01*
X138539853Y-65188574D01*
X138595000Y-64911335D01*
X138595000Y-64628665D01*
X138539853Y-64351426D01*
X138431680Y-64090273D01*
X138274637Y-63855241D01*
X138074759Y-63655363D01*
X137839727Y-63498320D01*
X137578574Y-63390147D01*
X137301335Y-63335000D01*
X137018665Y-63335000D01*
X136741426Y-63390147D01*
X136480273Y-63498320D01*
X136245241Y-63655363D01*
X136045363Y-63855241D01*
X135888320Y-64090273D01*
X135780147Y-64351426D01*
X135725000Y-64628665D01*
X131875011Y-64628665D01*
X131875011Y-58762334D01*
X131878687Y-58725011D01*
X131875011Y-58687688D01*
X131875011Y-58687678D01*
X131864014Y-58576025D01*
X131820557Y-58432764D01*
X131772209Y-58342312D01*
X131749985Y-58300734D01*
X131678810Y-58214008D01*
X131655012Y-58185010D01*
X131626014Y-58161212D01*
X130938688Y-57473886D01*
X130975000Y-57291335D01*
X130975000Y-57008665D01*
X130919853Y-56731426D01*
X130811680Y-56470273D01*
X130654637Y-56235241D01*
X130454759Y-56035363D01*
X130219727Y-55878320D01*
X129958574Y-55770147D01*
X129681335Y-55715000D01*
X129398665Y-55715000D01*
X129121426Y-55770147D01*
X128901000Y-55861450D01*
X128901000Y-50353163D01*
X128929774Y-50333937D01*
X129073937Y-50189774D01*
X129187205Y-50020256D01*
X129265226Y-49831898D01*
X129305000Y-49631939D01*
X129305000Y-49428061D01*
X129265226Y-49228102D01*
X129187205Y-49039744D01*
X129073937Y-48870226D01*
X128929774Y-48726063D01*
X128760256Y-48612795D01*
X128571898Y-48534774D01*
X128371939Y-48495000D01*
X128168061Y-48495000D01*
X127968102Y-48534774D01*
X127779744Y-48612795D01*
X127610226Y-48726063D01*
X127466063Y-48870226D01*
X127352795Y-49039744D01*
X127274774Y-49228102D01*
X127254107Y-49332005D01*
X127194412Y-49443687D01*
X127143805Y-49610510D01*
X127126719Y-49784000D01*
X127050000Y-49784000D01*
X127050000Y-41103565D01*
X130756130Y-39138872D01*
X132030834Y-38525560D01*
X132033191Y-38524679D01*
X132061098Y-38510999D01*
X132089199Y-38497478D01*
X132091356Y-38496166D01*
X135105018Y-37018821D01*
X135108088Y-37017640D01*
X135135115Y-37004067D01*
X135162466Y-36990659D01*
X135165284Y-36988916D01*
X136893238Y-36121128D01*
X136896722Y-36119744D01*
X136923224Y-36106069D01*
X136950004Y-36092620D01*
X136953189Y-36090607D01*
X138630155Y-35225298D01*
X138635968Y-35222864D01*
X138659963Y-35209918D01*
X138684323Y-35197348D01*
X138689641Y-35193905D01*
X140153074Y-34404320D01*
X140160726Y-34400893D01*
X140182625Y-34388376D01*
X140204892Y-34376362D01*
X140211866Y-34371663D01*
X140790932Y-34040681D01*
X140799741Y-34036430D01*
X140820110Y-34024004D01*
X140840850Y-34012149D01*
X140848834Y-34006480D01*
X141260521Y-33755323D01*
X141356502Y-33725887D01*
X141489040Y-33698675D01*
X141605280Y-33687229D01*
X141708104Y-33688637D01*
X141801426Y-33700853D01*
X141889543Y-33723114D01*
X141976271Y-33755932D01*
X142064583Y-33800725D01*
X142156000Y-33859036D01*
X142241792Y-33925048D01*
X142451879Y-34127377D01*
X142660221Y-34379312D01*
X142874473Y-34684180D01*
X143093789Y-35032552D01*
X143320258Y-35415802D01*
X143785488Y-36211590D01*
X143789990Y-36220668D01*
X143802469Y-36240637D01*
X143814340Y-36260942D01*
X143820280Y-36269138D01*
X144052555Y-36640814D01*
X144059607Y-36653629D01*
X144070363Y-36669309D01*
X144080453Y-36685455D01*
X144089394Y-36697053D01*
X144342892Y-37066610D01*
X144354009Y-37084194D01*
X144361903Y-37094324D01*
X144369173Y-37104923D01*
X144382574Y-37120852D01*
X144663613Y-37481516D01*
X144680204Y-37503596D01*
X144684273Y-37508030D01*
X144687971Y-37512775D01*
X144706989Y-37532779D01*
X144979349Y-37829526D01*
X145347035Y-38413268D01*
X146154639Y-39712249D01*
X146157964Y-39718649D01*
X146172365Y-39740759D01*
X146186347Y-39763249D01*
X146190753Y-39768991D01*
X146632967Y-40447952D01*
X146637978Y-40456930D01*
X146651337Y-40476156D01*
X146664090Y-40495737D01*
X146670507Y-40503746D01*
X147104449Y-41128283D01*
X147115355Y-41145366D01*
X147123636Y-41155897D01*
X147131277Y-41166894D01*
X147144413Y-41182320D01*
X147536512Y-41680954D01*
X147556400Y-41706404D01*
X147557110Y-41707148D01*
X147557751Y-41707964D01*
X147580289Y-41731462D01*
X147710783Y-41868344D01*
X147719237Y-41880491D01*
X147757254Y-41917090D01*
X147770334Y-41930811D01*
X147781475Y-41940409D01*
X147792087Y-41950625D01*
X147806984Y-41962384D01*
X147846948Y-41996812D01*
X147859830Y-42004098D01*
X147912958Y-42046036D01*
X147920073Y-42053876D01*
X147965827Y-42087768D01*
X147984008Y-42102119D01*
X147992873Y-42107802D01*
X148028500Y-42134192D01*
X148049546Y-42144131D01*
X148069141Y-42156692D01*
X148110414Y-42172876D01*
X148119939Y-42177374D01*
X148141761Y-42185168D01*
X148175699Y-42198475D01*
X148189032Y-42205256D01*
X148231255Y-42217129D01*
X148240713Y-42220507D01*
X148263628Y-42226233D01*
X148318928Y-42241783D01*
X148329010Y-42242569D01*
X148338820Y-42245020D01*
X148396186Y-42247805D01*
X148453452Y-42252268D01*
X148463494Y-42251072D01*
X148473593Y-42251562D01*
X148530406Y-42243101D01*
X148553865Y-42240306D01*
X148563677Y-42238145D01*
X148607055Y-42231685D01*
X148610169Y-42230569D01*
X148654920Y-42218054D01*
X148669085Y-42214935D01*
X148687347Y-42208986D01*
X148738371Y-42194717D01*
X148751372Y-42188129D01*
X148765234Y-42183613D01*
X148811458Y-42157680D01*
X148858732Y-42133724D01*
X148870200Y-42124724D01*
X148882913Y-42117592D01*
X148923186Y-42083143D01*
X148938284Y-42071295D01*
X148948751Y-42061275D01*
X148973523Y-42040086D01*
X148973739Y-42039938D01*
X148973958Y-42039714D01*
X148985451Y-42029883D01*
X148993247Y-42019978D01*
X149012919Y-41999851D01*
X149028995Y-41984462D01*
X149036432Y-41975794D01*
X149068053Y-41943440D01*
X149080272Y-41924692D01*
X149094839Y-41907712D01*
X149117028Y-41868295D01*
X149123268Y-41858721D01*
X149133536Y-41838970D01*
X149161030Y-41790130D01*
X149164605Y-41779209D01*
X149164989Y-41778470D01*
X149189399Y-41737475D01*
X149207301Y-41686978D01*
X149227235Y-41637252D01*
X149236007Y-41590354D01*
X149270470Y-41451047D01*
X149275662Y-41438775D01*
X149286641Y-41385681D01*
X149291549Y-41365841D01*
X149293456Y-41352721D01*
X149296139Y-41339747D01*
X149298294Y-41319441D01*
X149306096Y-41265770D01*
X149305403Y-41252456D01*
X149330818Y-41012981D01*
X149334236Y-40985026D01*
X149334364Y-40979565D01*
X149334941Y-40974131D01*
X149335154Y-40945967D01*
X149353318Y-40172942D01*
X149354356Y-40161003D01*
X149354108Y-40139321D01*
X149354617Y-40117652D01*
X149353723Y-40105705D01*
X149342894Y-39159534D01*
X149337454Y-38151760D01*
X149347227Y-37682060D01*
X149370525Y-37254392D01*
X149409389Y-36892134D01*
X149461339Y-36625124D01*
X149508269Y-36492973D01*
X149589858Y-36431984D01*
X149726128Y-36353438D01*
X149874058Y-36289103D01*
X150032537Y-36239304D01*
X150200090Y-36204467D01*
X150374730Y-36184961D01*
X150553869Y-36180979D01*
X150734766Y-36192427D01*
X150914515Y-36218952D01*
X151090419Y-36259920D01*
X151259398Y-36314346D01*
X151418551Y-36380989D01*
X151565290Y-36458334D01*
X151697250Y-36544510D01*
X151812255Y-36637308D01*
X151900322Y-36725839D01*
X151991690Y-36851566D01*
X152038314Y-36955938D01*
X152062888Y-37069292D01*
X152067683Y-37211394D01*
X152048552Y-37390225D01*
X152004664Y-37599586D01*
X151845802Y-38137127D01*
X151662966Y-38724519D01*
X151657385Y-38739674D01*
X151652974Y-38756620D01*
X151647769Y-38773341D01*
X151644504Y-38789156D01*
X151568892Y-39079619D01*
X151562953Y-39099323D01*
X151560427Y-39112140D01*
X151557132Y-39124797D01*
X151553922Y-39145142D01*
X151492478Y-39456888D01*
X151486708Y-39483535D01*
X151485974Y-39489886D01*
X151484740Y-39496147D01*
X151482118Y-39523253D01*
X151451084Y-39791801D01*
X151451066Y-39791856D01*
X151443446Y-39857893D01*
X151439483Y-39892185D01*
X151439482Y-39892242D01*
X151439474Y-39892312D01*
X151438829Y-39930913D01*
X151437776Y-39993292D01*
X151437786Y-39993346D01*
X151434049Y-40216990D01*
X151432993Y-40222269D01*
X151432924Y-40284350D01*
X151432450Y-40312696D01*
X151432886Y-40318036D01*
X151432880Y-40323391D01*
X151435625Y-40351588D01*
X151440679Y-40413483D01*
X151442156Y-40418663D01*
X151465968Y-40663221D01*
X151465313Y-40672123D01*
X151472496Y-40730272D01*
X151474901Y-40754968D01*
X151476623Y-40763675D01*
X151477711Y-40772483D01*
X151483152Y-40796693D01*
X151494519Y-40854170D01*
X151497925Y-40862419D01*
X151556828Y-41124487D01*
X151557270Y-41133281D01*
X151571600Y-41190210D01*
X151577068Y-41214539D01*
X151579817Y-41222854D01*
X151581954Y-41231345D01*
X151590379Y-41254805D01*
X151608807Y-41310552D01*
X151613150Y-41318215D01*
X151671942Y-41481930D01*
X151675625Y-41499941D01*
X151694694Y-41545286D01*
X151699898Y-41559779D01*
X151707736Y-41576303D01*
X151714824Y-41593157D01*
X151722153Y-41606693D01*
X151743239Y-41651143D01*
X151754210Y-41665900D01*
X151824619Y-41795941D01*
X151838430Y-41828396D01*
X151875692Y-41883016D01*
X151912597Y-41937611D01*
X151937666Y-41962412D01*
X152028439Y-42070874D01*
X152060813Y-42113014D01*
X152097028Y-42144737D01*
X152131397Y-42178450D01*
X152175864Y-42207546D01*
X152291179Y-42290080D01*
X152342609Y-42327719D01*
X152376566Y-42343516D01*
X152409007Y-42362221D01*
X152469377Y-42382675D01*
X152595893Y-42427040D01*
X152652303Y-42448161D01*
X152692787Y-42454774D01*
X152732644Y-42464489D01*
X152792836Y-42467063D01*
X152903671Y-42474138D01*
X152947675Y-42479939D01*
X153004458Y-42476227D01*
X153061323Y-42474268D01*
X153104528Y-42464116D01*
X153183891Y-42451028D01*
X153209772Y-42449933D01*
X153250281Y-42440079D01*
X153258078Y-42438793D01*
X153282999Y-42432120D01*
X153308030Y-42426031D01*
X153315478Y-42423423D01*
X153355760Y-42412637D01*
X153378999Y-42401182D01*
X153428911Y-42383706D01*
X153439343Y-42381903D01*
X153492493Y-42361443D01*
X153514342Y-42353793D01*
X153523883Y-42349360D01*
X153533715Y-42345575D01*
X153554424Y-42335169D01*
X153606049Y-42311181D01*
X153614594Y-42304933D01*
X153702294Y-42260864D01*
X153730713Y-42246776D01*
X153732287Y-42245792D01*
X153733944Y-42244960D01*
X153760716Y-42228033D01*
X153892354Y-42145795D01*
X153918811Y-42129532D01*
X153920781Y-42128036D01*
X153922885Y-42126722D01*
X153947563Y-42107705D01*
X154180322Y-41931001D01*
X154196879Y-41919426D01*
X154207091Y-41910679D01*
X154217809Y-41902542D01*
X154232631Y-41888802D01*
X154407699Y-41738845D01*
X154519515Y-41651213D01*
X154646182Y-41556011D01*
X154677173Y-41536839D01*
X154724653Y-41492575D01*
X154772362Y-41448776D01*
X154793878Y-41419374D01*
X154886173Y-41314621D01*
X154900207Y-41302664D01*
X154930683Y-41264103D01*
X154940825Y-41252591D01*
X154951538Y-41237714D01*
X154962908Y-41223327D01*
X154971198Y-41210412D01*
X154999917Y-41170529D01*
X155007564Y-41153754D01*
X155080859Y-41039563D01*
X155084048Y-41036164D01*
X155117264Y-40982846D01*
X155132958Y-40958395D01*
X155135067Y-40954269D01*
X155137518Y-40950334D01*
X155150397Y-40924272D01*
X155178977Y-40868349D01*
X155180247Y-40863867D01*
X155273153Y-40675861D01*
X155286310Y-40650135D01*
X155288038Y-40645739D01*
X155290131Y-40641504D01*
X155300336Y-40614458D01*
X155406633Y-40344074D01*
X155415436Y-40323710D01*
X155418935Y-40312781D01*
X155423131Y-40302108D01*
X155429183Y-40280771D01*
X155522862Y-39988176D01*
X155528963Y-39971824D01*
X155533113Y-39956155D01*
X155538055Y-39940721D01*
X155541721Y-39923660D01*
X155625065Y-39609025D01*
X155629432Y-39595675D01*
X155633670Y-39576539D01*
X155638694Y-39557574D01*
X155640944Y-39543697D01*
X155716278Y-39203568D01*
X155720614Y-39187802D01*
X155723541Y-39170777D01*
X155727284Y-39153875D01*
X155729242Y-39137610D01*
X155864270Y-38352074D01*
X155867829Y-38336236D01*
X155869962Y-38318960D01*
X155872915Y-38301782D01*
X155874085Y-38285574D01*
X155978895Y-37436771D01*
X155981103Y-37425049D01*
X155983012Y-37403429D01*
X155985676Y-37381851D01*
X155985971Y-37369907D01*
X156063912Y-36486993D01*
X156065370Y-36477926D01*
X156066868Y-36453503D01*
X156069021Y-36429117D01*
X156068928Y-36419926D01*
X156123709Y-35526956D01*
X156124703Y-35519827D01*
X156125771Y-35493348D01*
X156127390Y-35466959D01*
X156127125Y-35459783D01*
X156162540Y-34581831D01*
X156163253Y-34575984D01*
X156163896Y-34548220D01*
X156165015Y-34520478D01*
X156164674Y-34514600D01*
X156184108Y-33675405D01*
X156184786Y-33668770D01*
X156184886Y-33641806D01*
X156185511Y-33614808D01*
X156185010Y-33608148D01*
X156190611Y-32094894D01*
X156191172Y-32088066D01*
X156190736Y-32061217D01*
X156190835Y-32034437D01*
X156190190Y-32027634D01*
X156173295Y-30987457D01*
X156173617Y-30982734D01*
X156172749Y-30953870D01*
X156172279Y-30924921D01*
X156171737Y-30920206D01*
X156161275Y-30572229D01*
X156163624Y-30540443D01*
X156159253Y-30504968D01*
X156159195Y-30503031D01*
X156155140Y-30471580D01*
X156147124Y-30406522D01*
X156146512Y-30404668D01*
X156146263Y-30402739D01*
X156125388Y-30340699D01*
X156104814Y-30278394D01*
X156103853Y-30276698D01*
X156103232Y-30274851D01*
X156070590Y-30217963D01*
X156038320Y-30160983D01*
X156037049Y-30159510D01*
X156036077Y-30157815D01*
X155992997Y-30108427D01*
X155972279Y-30084403D01*
X155970874Y-30083065D01*
X155947380Y-30056131D01*
X155922148Y-30036662D01*
X155590377Y-29720710D01*
X155549412Y-29679508D01*
X155513572Y-29655411D01*
X155479535Y-29628841D01*
X155457712Y-29617853D01*
X155437436Y-29604220D01*
X155397588Y-29587579D01*
X155359017Y-29568158D01*
X155335471Y-29561639D01*
X155312924Y-29552223D01*
X155270591Y-29543675D01*
X155228976Y-29532153D01*
X155171055Y-29527873D01*
X155078570Y-29518494D01*
X155050177Y-29509663D01*
X155023970Y-29495418D01*
X155000548Y-29476084D01*
X154981259Y-29452671D01*
X154967095Y-29426562D01*
X154960329Y-29404697D01*
X154982035Y-29310777D01*
X154989413Y-29279075D01*
X154989481Y-29278555D01*
X154989601Y-29278037D01*
X154993821Y-29245489D01*
X155009748Y-29124132D01*
X155016668Y-29096286D01*
X155018504Y-29057416D01*
X155019170Y-29052344D01*
X155020093Y-29023786D01*
X155021440Y-28995276D01*
X155021180Y-28990172D01*
X155022437Y-28951274D01*
X155017752Y-28922965D01*
X155013969Y-28848807D01*
X155013527Y-28795946D01*
X155003681Y-28748525D01*
X154996486Y-28700639D01*
X154978586Y-28650907D01*
X154955958Y-28578496D01*
X154946360Y-28537368D01*
X154921973Y-28483570D01*
X154898920Y-28429206D01*
X154875166Y-28394291D01*
X154855457Y-28360169D01*
X154853315Y-28354222D01*
X154821757Y-28301823D01*
X154808051Y-28278094D01*
X154804389Y-28272986D01*
X154801143Y-28267596D01*
X154784765Y-28245611D01*
X154749134Y-28195907D01*
X154744518Y-28191585D01*
X154705761Y-28139559D01*
X154702391Y-28134191D01*
X154685652Y-28112566D01*
X154669341Y-28090671D01*
X154665081Y-28085991D01*
X154632298Y-28043639D01*
X154649444Y-28034323D01*
X154682720Y-28065673D01*
X154752526Y-28152149D01*
X154895245Y-28380777D01*
X154921064Y-28432034D01*
X154923497Y-28440054D01*
X154951393Y-28492244D01*
X154962782Y-28514854D01*
X154967232Y-28521878D01*
X154987104Y-28559055D01*
X155003272Y-28578755D01*
X155016906Y-28600273D01*
X155045969Y-28630782D01*
X155072705Y-28663359D01*
X155092403Y-28679525D01*
X155109976Y-28697972D01*
X155144431Y-28722223D01*
X155177009Y-28748960D01*
X155199482Y-28760972D01*
X155220317Y-28775637D01*
X155258845Y-28792702D01*
X155296010Y-28812567D01*
X155320395Y-28819964D01*
X155343690Y-28830282D01*
X155384804Y-28839502D01*
X155425133Y-28851736D01*
X155450491Y-28854234D01*
X155475352Y-28859809D01*
X155517475Y-28860831D01*
X155525769Y-28861648D01*
X155551144Y-28861648D01*
X155610245Y-28863082D01*
X155618495Y-28861648D01*
X156354637Y-28861648D01*
X156362887Y-28863082D01*
X156421988Y-28861648D01*
X156447363Y-28861648D01*
X156455657Y-28860831D01*
X156497780Y-28859809D01*
X156522639Y-28854234D01*
X156547999Y-28851736D01*
X156588336Y-28839500D01*
X156629442Y-28830281D01*
X156652730Y-28819966D01*
X156677122Y-28812567D01*
X156714298Y-28792696D01*
X156752815Y-28775636D01*
X156773644Y-28760975D01*
X156796123Y-28748960D01*
X156828710Y-28722216D01*
X156863156Y-28697971D01*
X156880726Y-28679528D01*
X156900427Y-28663359D01*
X156927164Y-28630780D01*
X156956226Y-28600273D01*
X156969861Y-28578754D01*
X156986028Y-28559055D01*
X157005895Y-28521887D01*
X157010351Y-28514854D01*
X157021754Y-28492215D01*
X157049635Y-28440054D01*
X157052067Y-28432037D01*
X157077888Y-28380774D01*
X157220676Y-28152037D01*
X157259013Y-28104507D01*
X157297331Y-28152044D01*
X157439921Y-28380629D01*
X157465726Y-28431907D01*
X157468197Y-28440054D01*
X157496022Y-28492111D01*
X157507349Y-28514620D01*
X157511871Y-28521763D01*
X157531804Y-28559055D01*
X157547886Y-28578651D01*
X157561440Y-28600060D01*
X157590581Y-28630674D01*
X157617405Y-28663359D01*
X157637003Y-28679443D01*
X157654472Y-28697795D01*
X157689019Y-28722132D01*
X157721709Y-28748960D01*
X157744067Y-28760911D01*
X157764783Y-28775504D01*
X157803422Y-28792636D01*
X157840710Y-28812567D01*
X157864970Y-28819926D01*
X157888134Y-28830197D01*
X157929371Y-28839462D01*
X157969833Y-28851736D01*
X157995059Y-28854221D01*
X158019785Y-28859776D01*
X158062041Y-28860818D01*
X158070469Y-28861648D01*
X158095707Y-28861648D01*
X158154676Y-28863102D01*
X158163061Y-28861648D01*
X158900371Y-28861648D01*
X158908756Y-28863102D01*
X158967725Y-28861648D01*
X158992963Y-28861648D01*
X159001391Y-28860818D01*
X159043647Y-28859776D01*
X159068373Y-28854221D01*
X159093599Y-28851736D01*
X159134061Y-28839462D01*
X159175298Y-28830197D01*
X159198462Y-28819926D01*
X159222722Y-28812567D01*
X159260010Y-28792636D01*
X159298649Y-28775504D01*
X159319365Y-28760911D01*
X159341723Y-28748960D01*
X159374413Y-28722132D01*
X159408960Y-28697795D01*
X159426429Y-28679443D01*
X159446027Y-28663359D01*
X159472851Y-28630674D01*
X159501992Y-28600060D01*
X159515546Y-28578651D01*
X159531628Y-28559055D01*
X159551561Y-28521763D01*
X159556083Y-28514620D01*
X159567408Y-28492115D01*
X159595235Y-28440054D01*
X159597707Y-28431904D01*
X159623507Y-28380635D01*
X159766102Y-28152042D01*
X159835767Y-28065619D01*
X159869042Y-28034245D01*
X159885350Y-28043087D01*
G37*
%TD.AperFunction*%
D20*
X169598987Y-98569973D02*
X169545026Y-98635724D01*
X169490799Y-98737175D01*
X169474454Y-98767754D01*
X169430997Y-98911015D01*
X169420000Y-99022668D01*
X169420000Y-99022678D01*
X169416324Y-99060000D01*
X169420000Y-99097323D01*
X169420000Y-99111957D01*
X169265241Y-99215363D01*
X169065363Y-99415241D01*
X168910000Y-99647759D01*
X168754637Y-99415241D01*
X168554759Y-99215363D01*
X168319727Y-99058320D01*
X168058574Y-98950147D01*
X167781335Y-98895000D01*
X167498665Y-98895000D01*
X167221426Y-98950147D01*
X166960273Y-99058320D01*
X166725241Y-99215363D01*
X166525363Y-99415241D01*
X166370000Y-99647759D01*
X166214637Y-99415241D01*
X166014759Y-99215363D01*
X165779727Y-99058320D01*
X165518574Y-98950147D01*
X165241335Y-98895000D01*
X164958665Y-98895000D01*
X164681426Y-98950147D01*
X164420273Y-99058320D01*
X164185241Y-99215363D01*
X163985363Y-99415241D01*
X163830000Y-99647759D01*
X163674637Y-99415241D01*
X163474759Y-99215363D01*
X163239727Y-99058320D01*
X162978574Y-98950147D01*
X162701335Y-98895000D01*
X162418665Y-98895000D01*
X162141426Y-98950147D01*
X161880273Y-99058320D01*
X161645241Y-99215363D01*
X161445363Y-99415241D01*
X161288320Y-99650273D01*
X161180147Y-99911426D01*
X161125000Y-100188665D01*
X161125000Y-100471335D01*
X161180147Y-100748574D01*
X161218017Y-100840000D01*
X146121983Y-100840000D01*
X146159853Y-100748574D01*
X146215000Y-100471335D01*
X146215000Y-100188665D01*
X146159853Y-99911426D01*
X146051680Y-99650273D01*
X145894637Y-99415241D01*
X145888435Y-99409039D01*
X147198096Y-99409039D01*
X147238754Y-99543087D01*
X147358963Y-99797420D01*
X147526481Y-100023414D01*
X147734869Y-100212385D01*
X147976119Y-100357070D01*
X148240960Y-100451909D01*
X148463000Y-100330624D01*
X148463000Y-99187000D01*
X148717000Y-99187000D01*
X148717000Y-100330624D01*
X148939040Y-100451909D01*
X149203881Y-100357070D01*
X149445131Y-100212385D01*
X149653519Y-100023414D01*
X149821037Y-99797420D01*
X149891010Y-99649373D01*
X150760000Y-99649373D01*
X150760000Y-99828627D01*
X150794971Y-100004437D01*
X150863569Y-100170047D01*
X150963157Y-100319091D01*
X151089909Y-100445843D01*
X151238953Y-100545431D01*
X151404563Y-100614029D01*
X151580373Y-100649000D01*
X151759627Y-100649000D01*
X151935437Y-100614029D01*
X152101047Y-100545431D01*
X152250091Y-100445843D01*
X152376843Y-100319091D01*
X152476431Y-100170047D01*
X152545029Y-100004437D01*
X152580000Y-99828627D01*
X152580000Y-99649373D01*
X154760000Y-99649373D01*
X154760000Y-99828627D01*
X154794971Y-100004437D01*
X154863569Y-100170047D01*
X154963157Y-100319091D01*
X155089909Y-100445843D01*
X155238953Y-100545431D01*
X155404563Y-100614029D01*
X155580373Y-100649000D01*
X155759627Y-100649000D01*
X155935437Y-100614029D01*
X156101047Y-100545431D01*
X156250091Y-100445843D01*
X156376843Y-100319091D01*
X156476431Y-100170047D01*
X156545029Y-100004437D01*
X156580000Y-99828627D01*
X156580000Y-99649373D01*
X156545029Y-99473563D01*
X156476431Y-99307953D01*
X156376843Y-99158909D01*
X156250091Y-99032157D01*
X156101047Y-98932569D01*
X155935437Y-98863971D01*
X155759627Y-98829000D01*
X155580373Y-98829000D01*
X155404563Y-98863971D01*
X155238953Y-98932569D01*
X155089909Y-99032157D01*
X154963157Y-99158909D01*
X154863569Y-99307953D01*
X154794971Y-99473563D01*
X154760000Y-99649373D01*
X152580000Y-99649373D01*
X152545029Y-99473563D01*
X152476431Y-99307953D01*
X152376843Y-99158909D01*
X152250091Y-99032157D01*
X152101047Y-98932569D01*
X151935437Y-98863971D01*
X151759627Y-98829000D01*
X151580373Y-98829000D01*
X151404563Y-98863971D01*
X151238953Y-98932569D01*
X151089909Y-99032157D01*
X150963157Y-99158909D01*
X150863569Y-99307953D01*
X150794971Y-99473563D01*
X150760000Y-99649373D01*
X149891010Y-99649373D01*
X149941246Y-99543087D01*
X149981904Y-99409039D01*
X149859915Y-99187000D01*
X148717000Y-99187000D01*
X148463000Y-99187000D01*
X147320085Y-99187000D01*
X147198096Y-99409039D01*
X145888435Y-99409039D01*
X145694759Y-99215363D01*
X145459727Y-99058320D01*
X145198574Y-98950147D01*
X144921335Y-98895000D01*
X144638665Y-98895000D01*
X144361426Y-98950147D01*
X144100273Y-99058320D01*
X143865241Y-99215363D01*
X143665363Y-99415241D01*
X143510000Y-99647759D01*
X143354637Y-99415241D01*
X143154759Y-99215363D01*
X142919727Y-99058320D01*
X142658574Y-98950147D01*
X142381335Y-98895000D01*
X142209802Y-98895000D01*
X142409803Y-98694999D01*
X147202937Y-98694999D01*
X147198096Y-98710961D01*
X147320085Y-98933000D01*
X148463000Y-98933000D01*
X148463000Y-98913000D01*
X148717000Y-98913000D01*
X148717000Y-98933000D01*
X149859915Y-98933000D01*
X149981904Y-98710961D01*
X149977063Y-98694999D01*
X157359491Y-98694999D01*
X157315000Y-98918665D01*
X157315000Y-99201335D01*
X157370147Y-99478574D01*
X157478320Y-99739727D01*
X157635363Y-99974759D01*
X157835241Y-100174637D01*
X158070273Y-100331680D01*
X158331426Y-100439853D01*
X158608665Y-100495000D01*
X158891335Y-100495000D01*
X159168574Y-100439853D01*
X159429727Y-100331680D01*
X159664759Y-100174637D01*
X159864637Y-99974759D01*
X160021680Y-99739727D01*
X160129853Y-99478574D01*
X160185000Y-99201335D01*
X160185000Y-98918665D01*
X160140509Y-98694999D01*
X169122681Y-98694999D01*
X169160003Y-98698675D01*
X169197325Y-98694999D01*
X169197336Y-98694999D01*
X169308989Y-98684002D01*
X169452250Y-98640545D01*
X169584279Y-98569973D01*
X169629327Y-98533003D01*
X169598987Y-98569973D01*
%TA.AperFunction,Conductor*%
D21*
G36*
X169598987Y-98569973D02*
G01*
X169545026Y-98635724D01*
X169490799Y-98737175D01*
X169474454Y-98767754D01*
X169430997Y-98911015D01*
X169420000Y-99022668D01*
X169420000Y-99022678D01*
X169416324Y-99060000D01*
X169420000Y-99097323D01*
X169420000Y-99111957D01*
X169265241Y-99215363D01*
X169065363Y-99415241D01*
X168910000Y-99647759D01*
X168754637Y-99415241D01*
X168554759Y-99215363D01*
X168319727Y-99058320D01*
X168058574Y-98950147D01*
X167781335Y-98895000D01*
X167498665Y-98895000D01*
X167221426Y-98950147D01*
X166960273Y-99058320D01*
X166725241Y-99215363D01*
X166525363Y-99415241D01*
X166370000Y-99647759D01*
X166214637Y-99415241D01*
X166014759Y-99215363D01*
X165779727Y-99058320D01*
X165518574Y-98950147D01*
X165241335Y-98895000D01*
X164958665Y-98895000D01*
X164681426Y-98950147D01*
X164420273Y-99058320D01*
X164185241Y-99215363D01*
X163985363Y-99415241D01*
X163830000Y-99647759D01*
X163674637Y-99415241D01*
X163474759Y-99215363D01*
X163239727Y-99058320D01*
X162978574Y-98950147D01*
X162701335Y-98895000D01*
X162418665Y-98895000D01*
X162141426Y-98950147D01*
X161880273Y-99058320D01*
X161645241Y-99215363D01*
X161445363Y-99415241D01*
X161288320Y-99650273D01*
X161180147Y-99911426D01*
X161125000Y-100188665D01*
X161125000Y-100471335D01*
X161180147Y-100748574D01*
X161218017Y-100840000D01*
X146121983Y-100840000D01*
X146159853Y-100748574D01*
X146215000Y-100471335D01*
X146215000Y-100188665D01*
X146159853Y-99911426D01*
X146051680Y-99650273D01*
X145894637Y-99415241D01*
X145888435Y-99409039D01*
X147198096Y-99409039D01*
X147238754Y-99543087D01*
X147358963Y-99797420D01*
X147526481Y-100023414D01*
X147734869Y-100212385D01*
X147976119Y-100357070D01*
X148240960Y-100451909D01*
X148463000Y-100330624D01*
X148463000Y-99187000D01*
X148717000Y-99187000D01*
X148717000Y-100330624D01*
X148939040Y-100451909D01*
X149203881Y-100357070D01*
X149445131Y-100212385D01*
X149653519Y-100023414D01*
X149821037Y-99797420D01*
X149891010Y-99649373D01*
X150760000Y-99649373D01*
X150760000Y-99828627D01*
X150794971Y-100004437D01*
X150863569Y-100170047D01*
X150963157Y-100319091D01*
X151089909Y-100445843D01*
X151238953Y-100545431D01*
X151404563Y-100614029D01*
X151580373Y-100649000D01*
X151759627Y-100649000D01*
X151935437Y-100614029D01*
X152101047Y-100545431D01*
X152250091Y-100445843D01*
X152376843Y-100319091D01*
X152476431Y-100170047D01*
X152545029Y-100004437D01*
X152580000Y-99828627D01*
X152580000Y-99649373D01*
X154760000Y-99649373D01*
X154760000Y-99828627D01*
X154794971Y-100004437D01*
X154863569Y-100170047D01*
X154963157Y-100319091D01*
X155089909Y-100445843D01*
X155238953Y-100545431D01*
X155404563Y-100614029D01*
X155580373Y-100649000D01*
X155759627Y-100649000D01*
X155935437Y-100614029D01*
X156101047Y-100545431D01*
X156250091Y-100445843D01*
X156376843Y-100319091D01*
X156476431Y-100170047D01*
X156545029Y-100004437D01*
X156580000Y-99828627D01*
X156580000Y-99649373D01*
X156545029Y-99473563D01*
X156476431Y-99307953D01*
X156376843Y-99158909D01*
X156250091Y-99032157D01*
X156101047Y-98932569D01*
X155935437Y-98863971D01*
X155759627Y-98829000D01*
X155580373Y-98829000D01*
X155404563Y-98863971D01*
X155238953Y-98932569D01*
X155089909Y-99032157D01*
X154963157Y-99158909D01*
X154863569Y-99307953D01*
X154794971Y-99473563D01*
X154760000Y-99649373D01*
X152580000Y-99649373D01*
X152545029Y-99473563D01*
X152476431Y-99307953D01*
X152376843Y-99158909D01*
X152250091Y-99032157D01*
X152101047Y-98932569D01*
X151935437Y-98863971D01*
X151759627Y-98829000D01*
X151580373Y-98829000D01*
X151404563Y-98863971D01*
X151238953Y-98932569D01*
X151089909Y-99032157D01*
X150963157Y-99158909D01*
X150863569Y-99307953D01*
X150794971Y-99473563D01*
X150760000Y-99649373D01*
X149891010Y-99649373D01*
X149941246Y-99543087D01*
X149981904Y-99409039D01*
X149859915Y-99187000D01*
X148717000Y-99187000D01*
X148463000Y-99187000D01*
X147320085Y-99187000D01*
X147198096Y-99409039D01*
X145888435Y-99409039D01*
X145694759Y-99215363D01*
X145459727Y-99058320D01*
X145198574Y-98950147D01*
X144921335Y-98895000D01*
X144638665Y-98895000D01*
X144361426Y-98950147D01*
X144100273Y-99058320D01*
X143865241Y-99215363D01*
X143665363Y-99415241D01*
X143510000Y-99647759D01*
X143354637Y-99415241D01*
X143154759Y-99215363D01*
X142919727Y-99058320D01*
X142658574Y-98950147D01*
X142381335Y-98895000D01*
X142209802Y-98895000D01*
X142409803Y-98694999D01*
X147202937Y-98694999D01*
X147198096Y-98710961D01*
X147320085Y-98933000D01*
X148463000Y-98933000D01*
X148463000Y-98913000D01*
X148717000Y-98913000D01*
X148717000Y-98933000D01*
X149859915Y-98933000D01*
X149981904Y-98710961D01*
X149977063Y-98694999D01*
X157359491Y-98694999D01*
X157315000Y-98918665D01*
X157315000Y-99201335D01*
X157370147Y-99478574D01*
X157478320Y-99739727D01*
X157635363Y-99974759D01*
X157835241Y-100174637D01*
X158070273Y-100331680D01*
X158331426Y-100439853D01*
X158608665Y-100495000D01*
X158891335Y-100495000D01*
X159168574Y-100439853D01*
X159429727Y-100331680D01*
X159664759Y-100174637D01*
X159864637Y-99974759D01*
X160021680Y-99739727D01*
X160129853Y-99478574D01*
X160185000Y-99201335D01*
X160185000Y-98918665D01*
X160140509Y-98694999D01*
X169122681Y-98694999D01*
X169160003Y-98698675D01*
X169197325Y-98694999D01*
X169197336Y-98694999D01*
X169308989Y-98684002D01*
X169452250Y-98640545D01*
X169584279Y-98569973D01*
X169629327Y-98533003D01*
X169598987Y-98569973D01*
G37*
%TD.AperFunction*%
D20*
X179580001Y-53019803D02*
X179580001Y-53657762D01*
X179552252Y-53630013D01*
X179284463Y-53451082D01*
X178986912Y-53327832D01*
X178671033Y-53265000D01*
X178348967Y-53265000D01*
X178033088Y-53327832D01*
X177735537Y-53451082D01*
X177467748Y-53630013D01*
X177240013Y-53857748D01*
X177061082Y-54125537D01*
X176937832Y-54423088D01*
X176875000Y-54738967D01*
X176875000Y-55061033D01*
X176937832Y-55376912D01*
X176943823Y-55391376D01*
X176870198Y-55465001D01*
X173649804Y-55465001D01*
X173576177Y-55391375D01*
X173582168Y-55376912D01*
X173645000Y-55061033D01*
X173645000Y-54738967D01*
X173582168Y-54423088D01*
X173458918Y-54125537D01*
X173279987Y-53857748D01*
X173052252Y-53630013D01*
X172784463Y-53451082D01*
X172486912Y-53327832D01*
X172171033Y-53265000D01*
X171848967Y-53265000D01*
X171533088Y-53327832D01*
X171235537Y-53451082D01*
X170967748Y-53630013D01*
X170740013Y-53857748D01*
X170561082Y-54125537D01*
X170437832Y-54423088D01*
X170375000Y-54738967D01*
X170375000Y-55061033D01*
X170437832Y-55376912D01*
X170561082Y-55674463D01*
X170740013Y-55942252D01*
X170967748Y-56169987D01*
X171235537Y-56348918D01*
X171533088Y-56472168D01*
X171848967Y-56535000D01*
X172171033Y-56535000D01*
X172486912Y-56472168D01*
X172501375Y-56466177D01*
X172771206Y-56736009D01*
X172795000Y-56765002D01*
X172823993Y-56788796D01*
X172823997Y-56788800D01*
X172894686Y-56846812D01*
X172910725Y-56859975D01*
X173042754Y-56930547D01*
X173186015Y-56974004D01*
X173297668Y-56985001D01*
X173297677Y-56985001D01*
X173335000Y-56988677D01*
X173372323Y-56985001D01*
X176425000Y-56985001D01*
X176424999Y-60942676D01*
X176421323Y-60979999D01*
X176424999Y-61017321D01*
X176424999Y-61017331D01*
X176435996Y-61128984D01*
X176479453Y-61272245D01*
X176550025Y-61404275D01*
X176589870Y-61452825D01*
X176644998Y-61520000D01*
X176674002Y-61543803D01*
X177671312Y-62541114D01*
X177635000Y-62723665D01*
X177635000Y-63006335D01*
X177690147Y-63283574D01*
X177798320Y-63544727D01*
X177955363Y-63779759D01*
X178155241Y-63979637D01*
X178390273Y-64136680D01*
X178651426Y-64244853D01*
X178928665Y-64300000D01*
X179211335Y-64300000D01*
X179488574Y-64244853D01*
X179580001Y-64206983D01*
X179580001Y-65087762D01*
X179552252Y-65060013D01*
X179284463Y-64881082D01*
X178986912Y-64757832D01*
X178671033Y-64695000D01*
X178348967Y-64695000D01*
X178033088Y-64757832D01*
X177735537Y-64881082D01*
X177467748Y-65060013D01*
X177240013Y-65287748D01*
X177061082Y-65555537D01*
X176937832Y-65853088D01*
X176875000Y-66168967D01*
X176875000Y-66491033D01*
X176937832Y-66806912D01*
X177061082Y-67104463D01*
X177240013Y-67372252D01*
X177467748Y-67599987D01*
X177735537Y-67778918D01*
X178033088Y-67902168D01*
X178348967Y-67965000D01*
X178671033Y-67965000D01*
X178986912Y-67902168D01*
X179284463Y-67778918D01*
X179552252Y-67599987D01*
X179580001Y-67572238D01*
X179580001Y-69580391D01*
X179465807Y-69694585D01*
X179370044Y-69430186D01*
X179080429Y-69289296D01*
X178768892Y-69207616D01*
X178447405Y-69188282D01*
X178128325Y-69232039D01*
X177823912Y-69337205D01*
X177649956Y-69430186D01*
X177554192Y-69694587D01*
X178510000Y-70650395D01*
X178524143Y-70636253D01*
X178703748Y-70815858D01*
X178689605Y-70830000D01*
X178703748Y-70844143D01*
X178524143Y-71023748D01*
X178510000Y-71009605D01*
X177554192Y-71965413D01*
X177649956Y-72229814D01*
X177939571Y-72370704D01*
X178251108Y-72452384D01*
X178572595Y-72471718D01*
X178891675Y-72427961D01*
X179196088Y-72322795D01*
X179370044Y-72229814D01*
X179465807Y-71965415D01*
X179580001Y-72079609D01*
X179580001Y-72953017D01*
X179488574Y-72915147D01*
X179211335Y-72860000D01*
X178928665Y-72860000D01*
X178651426Y-72915147D01*
X178390273Y-73023320D01*
X178155241Y-73180363D01*
X177955363Y-73380241D01*
X177798320Y-73615273D01*
X177690147Y-73876426D01*
X177635000Y-74153665D01*
X177635000Y-74436335D01*
X177690147Y-74713574D01*
X177798320Y-74974727D01*
X177955363Y-75209759D01*
X178155241Y-75409637D01*
X178390273Y-75566680D01*
X178651426Y-75674853D01*
X178928665Y-75730000D01*
X179211335Y-75730000D01*
X179488574Y-75674853D01*
X179580000Y-75636983D01*
X179580000Y-76517761D01*
X179552252Y-76490013D01*
X179284463Y-76311082D01*
X178986912Y-76187832D01*
X178671033Y-76125000D01*
X178348967Y-76125000D01*
X178033088Y-76187832D01*
X177735537Y-76311082D01*
X177467748Y-76490013D01*
X177240013Y-76717748D01*
X177061082Y-76985537D01*
X176937832Y-77283088D01*
X176875000Y-77598967D01*
X176875000Y-77921033D01*
X176937832Y-78236912D01*
X177061082Y-78534463D01*
X177240013Y-78802252D01*
X177467748Y-79029987D01*
X177735537Y-79208918D01*
X178033088Y-79332168D01*
X178348967Y-79395000D01*
X178671033Y-79395000D01*
X178986912Y-79332168D01*
X179284463Y-79208918D01*
X179552252Y-79029987D01*
X179580000Y-79002239D01*
X179580000Y-81010392D01*
X179465807Y-81124585D01*
X179370044Y-80860186D01*
X179080429Y-80719296D01*
X178768892Y-80637616D01*
X178447405Y-80618282D01*
X178128325Y-80662039D01*
X177823912Y-80767205D01*
X177649956Y-80860186D01*
X177554192Y-81124587D01*
X178510000Y-82080395D01*
X178524143Y-82066253D01*
X178703748Y-82245858D01*
X178689605Y-82260000D01*
X178703748Y-82274143D01*
X178524143Y-82453748D01*
X178510000Y-82439605D01*
X177554192Y-83395413D01*
X177649956Y-83659814D01*
X177939571Y-83800704D01*
X178251108Y-83882384D01*
X178572595Y-83901718D01*
X178891675Y-83857961D01*
X179196088Y-83752795D01*
X179370044Y-83659814D01*
X179465807Y-83395415D01*
X179580000Y-83509608D01*
X179580000Y-84383017D01*
X179488574Y-84345147D01*
X179211335Y-84290000D01*
X178928665Y-84290000D01*
X178651426Y-84345147D01*
X178390273Y-84453320D01*
X178155241Y-84610363D01*
X177955363Y-84810241D01*
X177798320Y-85045273D01*
X177690147Y-85306426D01*
X177635000Y-85583665D01*
X177635000Y-85866335D01*
X177690147Y-86143574D01*
X177798320Y-86404727D01*
X177955363Y-86639759D01*
X178155241Y-86839637D01*
X178390273Y-86996680D01*
X178651426Y-87104853D01*
X178928665Y-87160000D01*
X179211335Y-87160000D01*
X179488574Y-87104853D01*
X179580000Y-87066983D01*
X179580000Y-97509855D01*
X178152793Y-98937062D01*
X177941335Y-98895000D01*
X177658665Y-98895000D01*
X177381426Y-98950147D01*
X177120273Y-99058320D01*
X176885241Y-99215363D01*
X176685363Y-99415241D01*
X176530000Y-99647759D01*
X176374637Y-99415241D01*
X176174759Y-99215363D01*
X175939727Y-99058320D01*
X175678574Y-98950147D01*
X175401335Y-98895000D01*
X175118665Y-98895000D01*
X174841426Y-98950147D01*
X174580273Y-99058320D01*
X174345241Y-99215363D01*
X174145363Y-99415241D01*
X173990000Y-99647759D01*
X173834637Y-99415241D01*
X173634759Y-99215363D01*
X173399727Y-99058320D01*
X173138574Y-98950147D01*
X172861335Y-98895000D01*
X172578665Y-98895000D01*
X172301426Y-98950147D01*
X172040273Y-99058320D01*
X171805241Y-99215363D01*
X171605363Y-99415241D01*
X171450000Y-99647759D01*
X171294637Y-99415241D01*
X171097099Y-99217703D01*
X172759803Y-97555000D01*
X172821939Y-97555000D01*
X173021898Y-97515226D01*
X173210256Y-97437205D01*
X173379774Y-97323937D01*
X173523937Y-97179774D01*
X173637205Y-97010256D01*
X173715226Y-96821898D01*
X173755000Y-96621939D01*
X173755000Y-96418061D01*
X173715226Y-96218102D01*
X173637205Y-96029744D01*
X173523937Y-95860226D01*
X173379774Y-95716063D01*
X173210256Y-95602795D01*
X173021898Y-95524774D01*
X172821939Y-95485000D01*
X172684804Y-95485000D01*
X174345204Y-93824600D01*
X174345241Y-93824637D01*
X174580273Y-93981680D01*
X174841426Y-94089853D01*
X175118665Y-94145000D01*
X175401335Y-94145000D01*
X175678574Y-94089853D01*
X175939727Y-93981680D01*
X176174759Y-93824637D01*
X176374637Y-93624759D01*
X176530000Y-93392241D01*
X176685363Y-93624759D01*
X176885241Y-93824637D01*
X177120273Y-93981680D01*
X177381426Y-94089853D01*
X177658665Y-94145000D01*
X177941335Y-94145000D01*
X178218574Y-94089853D01*
X178479727Y-93981680D01*
X178714759Y-93824637D01*
X178914637Y-93624759D01*
X179071680Y-93389727D01*
X179179853Y-93128574D01*
X179235000Y-92851335D01*
X179235000Y-92568665D01*
X179179853Y-92291426D01*
X179071680Y-92030273D01*
X178914637Y-91795241D01*
X178714759Y-91595363D01*
X178479727Y-91438320D01*
X178218574Y-91330147D01*
X177941335Y-91275000D01*
X177658665Y-91275000D01*
X177381426Y-91330147D01*
X177120273Y-91438320D01*
X176885241Y-91595363D01*
X176685363Y-91795241D01*
X176530000Y-92027759D01*
X176374637Y-91795241D01*
X176174759Y-91595363D01*
X175939727Y-91438320D01*
X175678574Y-91330147D01*
X175401335Y-91275000D01*
X175118665Y-91275000D01*
X174841426Y-91330147D01*
X174580273Y-91438320D01*
X174345241Y-91595363D01*
X174145363Y-91795241D01*
X173990000Y-92027759D01*
X173834637Y-91795241D01*
X173634759Y-91595363D01*
X173399727Y-91438320D01*
X173138574Y-91330147D01*
X172861335Y-91275000D01*
X172578665Y-91275000D01*
X172301426Y-91330147D01*
X172040273Y-91438320D01*
X171805241Y-91595363D01*
X171805204Y-91595400D01*
X170383785Y-90173982D01*
X170359982Y-90144978D01*
X170244257Y-90050005D01*
X170112228Y-89979433D01*
X169968967Y-89935976D01*
X169857314Y-89924979D01*
X169857303Y-89924979D01*
X169819981Y-89921303D01*
X169782659Y-89924979D01*
X164424013Y-89924979D01*
X163667106Y-89168072D01*
X164730000Y-89168072D01*
X164854482Y-89155812D01*
X164974180Y-89119502D01*
X165084494Y-89060537D01*
X165181185Y-88981185D01*
X165260537Y-88884494D01*
X165319502Y-88774180D01*
X165325056Y-88755873D01*
X165391495Y-88822312D01*
X165642905Y-88990299D01*
X165922257Y-89106011D01*
X166218816Y-89165000D01*
X166521184Y-89165000D01*
X166817743Y-89106011D01*
X167097095Y-88990299D01*
X167348505Y-88822312D01*
X167562312Y-88608505D01*
X167730299Y-88357095D01*
X167846011Y-88077743D01*
X167905000Y-87781184D01*
X167905000Y-87478816D01*
X167846011Y-87182257D01*
X167730299Y-86902905D01*
X167562312Y-86651495D01*
X167520817Y-86610000D01*
X170315479Y-86610000D01*
X170335363Y-86639759D01*
X170535241Y-86839637D01*
X170770273Y-86996680D01*
X171031426Y-87104853D01*
X171308665Y-87160000D01*
X171591335Y-87160000D01*
X171868574Y-87104853D01*
X172129727Y-86996680D01*
X172364759Y-86839637D01*
X172564637Y-86639759D01*
X172721680Y-86404727D01*
X172829853Y-86143574D01*
X172885000Y-85866335D01*
X172885000Y-85583665D01*
X172829853Y-85306426D01*
X172721680Y-85045273D01*
X172564637Y-84810241D01*
X172364759Y-84610363D01*
X172129727Y-84453320D01*
X171868574Y-84345147D01*
X171591335Y-84290000D01*
X171308665Y-84290000D01*
X171031426Y-84345147D01*
X170770273Y-84453320D01*
X170535241Y-84610363D01*
X170335363Y-84810241D01*
X170315479Y-84840000D01*
X167161998Y-84840000D01*
X167161998Y-83644580D01*
X167411165Y-83395413D01*
X171054192Y-83395413D01*
X171149956Y-83659814D01*
X171439571Y-83800704D01*
X171751108Y-83882384D01*
X172072595Y-83901718D01*
X172391675Y-83857961D01*
X172696088Y-83752795D01*
X172870044Y-83659814D01*
X172965808Y-83395413D01*
X172010000Y-82439605D01*
X171054192Y-83395413D01*
X167411165Y-83395413D01*
X168483983Y-82322595D01*
X170368282Y-82322595D01*
X170412039Y-82641675D01*
X170517205Y-82946088D01*
X170610186Y-83120044D01*
X170874587Y-83215808D01*
X171830395Y-82260000D01*
X172189605Y-82260000D01*
X173145413Y-83215808D01*
X173409814Y-83120044D01*
X173550704Y-82830429D01*
X173632384Y-82518892D01*
X173644189Y-82322595D01*
X176868282Y-82322595D01*
X176912039Y-82641675D01*
X177017205Y-82946088D01*
X177110186Y-83120044D01*
X177374587Y-83215808D01*
X178330395Y-82260000D01*
X177374587Y-81304192D01*
X177110186Y-81399956D01*
X176969296Y-81689571D01*
X176887616Y-82001108D01*
X176868282Y-82322595D01*
X173644189Y-82322595D01*
X173651718Y-82197405D01*
X173607961Y-81878325D01*
X173502795Y-81573912D01*
X173409814Y-81399956D01*
X173145413Y-81304192D01*
X172189605Y-82260000D01*
X171830395Y-82260000D01*
X170874587Y-81304192D01*
X170610186Y-81399956D01*
X170469296Y-81689571D01*
X170387616Y-82001108D01*
X170368282Y-82322595D01*
X168483983Y-82322595D01*
X168870050Y-81936529D01*
X168903817Y-81908817D01*
X169014411Y-81774059D01*
X169045445Y-81715998D01*
X169096589Y-81620314D01*
X169147195Y-81453490D01*
X169148471Y-81440537D01*
X169160000Y-81323477D01*
X169160000Y-81323469D01*
X169164281Y-81280000D01*
X169160000Y-81236531D01*
X169160000Y-81124587D01*
X171054192Y-81124587D01*
X172010000Y-82080395D01*
X172965808Y-81124587D01*
X172870044Y-80860186D01*
X172580429Y-80719296D01*
X172268892Y-80637616D01*
X171947405Y-80618282D01*
X171628325Y-80662039D01*
X171323912Y-80767205D01*
X171149956Y-80860186D01*
X171054192Y-81124587D01*
X169160000Y-81124587D01*
X169160000Y-77598967D01*
X170375000Y-77598967D01*
X170375000Y-77921033D01*
X170437832Y-78236912D01*
X170561082Y-78534463D01*
X170740013Y-78802252D01*
X170967748Y-79029987D01*
X171235537Y-79208918D01*
X171533088Y-79332168D01*
X171848967Y-79395000D01*
X172171033Y-79395000D01*
X172486912Y-79332168D01*
X172784463Y-79208918D01*
X173052252Y-79029987D01*
X173279987Y-78802252D01*
X173458918Y-78534463D01*
X173582168Y-78236912D01*
X173645000Y-77921033D01*
X173645000Y-77598967D01*
X173582168Y-77283088D01*
X173458918Y-76985537D01*
X173279987Y-76717748D01*
X173052252Y-76490013D01*
X172784463Y-76311082D01*
X172486912Y-76187832D01*
X172171033Y-76125000D01*
X171848967Y-76125000D01*
X171533088Y-76187832D01*
X171235537Y-76311082D01*
X170967748Y-76490013D01*
X170740013Y-76717748D01*
X170561082Y-76985537D01*
X170437832Y-77283088D01*
X170375000Y-77598967D01*
X169160000Y-77598967D01*
X169160000Y-74153665D01*
X170015000Y-74153665D01*
X170015000Y-74436335D01*
X170070147Y-74713574D01*
X170178320Y-74974727D01*
X170335363Y-75209759D01*
X170535241Y-75409637D01*
X170770273Y-75566680D01*
X171031426Y-75674853D01*
X171308665Y-75730000D01*
X171591335Y-75730000D01*
X171868574Y-75674853D01*
X172129727Y-75566680D01*
X172364759Y-75409637D01*
X172564637Y-75209759D01*
X172721680Y-74974727D01*
X172829853Y-74713574D01*
X172885000Y-74436335D01*
X172885000Y-74153665D01*
X172829853Y-73876426D01*
X172721680Y-73615273D01*
X172564637Y-73380241D01*
X172364759Y-73180363D01*
X172129727Y-73023320D01*
X171868574Y-72915147D01*
X171591335Y-72860000D01*
X171308665Y-72860000D01*
X171031426Y-72915147D01*
X170770273Y-73023320D01*
X170535241Y-73180363D01*
X170335363Y-73380241D01*
X170178320Y-73615273D01*
X170070147Y-73876426D01*
X170015000Y-74153665D01*
X169160000Y-74153665D01*
X169160000Y-71965413D01*
X171054192Y-71965413D01*
X171149956Y-72229814D01*
X171439571Y-72370704D01*
X171751108Y-72452384D01*
X172072595Y-72471718D01*
X172391675Y-72427961D01*
X172696088Y-72322795D01*
X172870044Y-72229814D01*
X172965808Y-71965413D01*
X172010000Y-71009605D01*
X171054192Y-71965413D01*
X169160000Y-71965413D01*
X169160000Y-70892595D01*
X170368282Y-70892595D01*
X170412039Y-71211675D01*
X170517205Y-71516088D01*
X170610186Y-71690044D01*
X170874587Y-71785808D01*
X171830395Y-70830000D01*
X172189605Y-70830000D01*
X173145413Y-71785808D01*
X173409814Y-71690044D01*
X173550704Y-71400429D01*
X173632384Y-71088892D01*
X173644189Y-70892595D01*
X176868282Y-70892595D01*
X176912039Y-71211675D01*
X177017205Y-71516088D01*
X177110186Y-71690044D01*
X177374587Y-71785808D01*
X178330395Y-70830000D01*
X177374587Y-69874192D01*
X177110186Y-69969956D01*
X176969296Y-70259571D01*
X176887616Y-70571108D01*
X176868282Y-70892595D01*
X173644189Y-70892595D01*
X173651718Y-70767405D01*
X173607961Y-70448325D01*
X173502795Y-70143912D01*
X173409814Y-69969956D01*
X173145413Y-69874192D01*
X172189605Y-70830000D01*
X171830395Y-70830000D01*
X170874587Y-69874192D01*
X170610186Y-69969956D01*
X170469296Y-70259571D01*
X170387616Y-70571108D01*
X170368282Y-70892595D01*
X169160000Y-70892595D01*
X169160000Y-69694587D01*
X171054192Y-69694587D01*
X172010000Y-70650395D01*
X172965808Y-69694587D01*
X172870044Y-69430186D01*
X172580429Y-69289296D01*
X172268892Y-69207616D01*
X171947405Y-69188282D01*
X171628325Y-69232039D01*
X171323912Y-69337205D01*
X171149956Y-69430186D01*
X171054192Y-69694587D01*
X169160000Y-69694587D01*
X169160000Y-66168967D01*
X170375000Y-66168967D01*
X170375000Y-66491033D01*
X170437832Y-66806912D01*
X170561082Y-67104463D01*
X170740013Y-67372252D01*
X170967748Y-67599987D01*
X171235537Y-67778918D01*
X171533088Y-67902168D01*
X171848967Y-67965000D01*
X172171033Y-67965000D01*
X172486912Y-67902168D01*
X172784463Y-67778918D01*
X173052252Y-67599987D01*
X173279987Y-67372252D01*
X173458918Y-67104463D01*
X173582168Y-66806912D01*
X173645000Y-66491033D01*
X173645000Y-66168967D01*
X173582168Y-65853088D01*
X173458918Y-65555537D01*
X173279987Y-65287748D01*
X173052252Y-65060013D01*
X172784463Y-64881082D01*
X172486912Y-64757832D01*
X172171033Y-64695000D01*
X171848967Y-64695000D01*
X171533088Y-64757832D01*
X171235537Y-64881082D01*
X170967748Y-65060013D01*
X170740013Y-65287748D01*
X170561082Y-65555537D01*
X170437832Y-65853088D01*
X170375000Y-66168967D01*
X169160000Y-66168967D01*
X169160000Y-62723665D01*
X170015000Y-62723665D01*
X170015000Y-63006335D01*
X170070147Y-63283574D01*
X170178320Y-63544727D01*
X170335363Y-63779759D01*
X170535241Y-63979637D01*
X170770273Y-64136680D01*
X171031426Y-64244853D01*
X171308665Y-64300000D01*
X171591335Y-64300000D01*
X171868574Y-64244853D01*
X172129727Y-64136680D01*
X172364759Y-63979637D01*
X172564637Y-63779759D01*
X172721680Y-63544727D01*
X172829853Y-63283574D01*
X172885000Y-63006335D01*
X172885000Y-62723665D01*
X172829853Y-62446426D01*
X172721680Y-62185273D01*
X172564637Y-61950241D01*
X172364759Y-61750363D01*
X172129727Y-61593320D01*
X171868574Y-61485147D01*
X171591335Y-61430000D01*
X171308665Y-61430000D01*
X171031426Y-61485147D01*
X170770273Y-61593320D01*
X170535241Y-61750363D01*
X170335363Y-61950241D01*
X170178320Y-62185273D01*
X170070147Y-62446426D01*
X170015000Y-62723665D01*
X169160000Y-62723665D01*
X169160000Y-60535413D01*
X171054192Y-60535413D01*
X171149956Y-60799814D01*
X171439571Y-60940704D01*
X171751108Y-61022384D01*
X172072595Y-61041718D01*
X172391675Y-60997961D01*
X172696088Y-60892795D01*
X172870044Y-60799814D01*
X172965808Y-60535413D01*
X172010000Y-59579605D01*
X171054192Y-60535413D01*
X169160000Y-60535413D01*
X169160000Y-59462595D01*
X170368282Y-59462595D01*
X170412039Y-59781675D01*
X170517205Y-60086088D01*
X170610186Y-60260044D01*
X170874587Y-60355808D01*
X171830395Y-59400000D01*
X172189605Y-59400000D01*
X173145413Y-60355808D01*
X173409814Y-60260044D01*
X173550704Y-59970429D01*
X173632384Y-59658892D01*
X173651718Y-59337405D01*
X173607961Y-59018325D01*
X173502795Y-58713912D01*
X173409814Y-58539956D01*
X173145413Y-58444192D01*
X172189605Y-59400000D01*
X171830395Y-59400000D01*
X170874587Y-58444192D01*
X170610186Y-58539956D01*
X170469296Y-58829571D01*
X170387616Y-59141108D01*
X170368282Y-59462595D01*
X169160000Y-59462595D01*
X169160000Y-58264587D01*
X171054192Y-58264587D01*
X172010000Y-59220395D01*
X172965808Y-58264587D01*
X172870044Y-58000186D01*
X172580429Y-57859296D01*
X172268892Y-57777616D01*
X171947405Y-57758282D01*
X171628325Y-57802039D01*
X171323912Y-57907205D01*
X171149956Y-58000186D01*
X171054192Y-58264587D01*
X169160000Y-58264587D01*
X169160000Y-55288469D01*
X169164281Y-55245000D01*
X169160000Y-55201531D01*
X169160000Y-55201523D01*
X169147195Y-55071510D01*
X169096589Y-54904687D01*
X169014411Y-54750941D01*
X168903817Y-54616183D01*
X168870049Y-54588470D01*
X162576577Y-48294999D01*
X174855198Y-48294999D01*
X179580001Y-53019803D01*
%TA.AperFunction,Conductor*%
D21*
G36*
X179580001Y-53019803D02*
G01*
X179580001Y-53657762D01*
X179552252Y-53630013D01*
X179284463Y-53451082D01*
X178986912Y-53327832D01*
X178671033Y-53265000D01*
X178348967Y-53265000D01*
X178033088Y-53327832D01*
X177735537Y-53451082D01*
X177467748Y-53630013D01*
X177240013Y-53857748D01*
X177061082Y-54125537D01*
X176937832Y-54423088D01*
X176875000Y-54738967D01*
X176875000Y-55061033D01*
X176937832Y-55376912D01*
X176943823Y-55391376D01*
X176870198Y-55465001D01*
X173649804Y-55465001D01*
X173576177Y-55391375D01*
X173582168Y-55376912D01*
X173645000Y-55061033D01*
X173645000Y-54738967D01*
X173582168Y-54423088D01*
X173458918Y-54125537D01*
X173279987Y-53857748D01*
X173052252Y-53630013D01*
X172784463Y-53451082D01*
X172486912Y-53327832D01*
X172171033Y-53265000D01*
X171848967Y-53265000D01*
X171533088Y-53327832D01*
X171235537Y-53451082D01*
X170967748Y-53630013D01*
X170740013Y-53857748D01*
X170561082Y-54125537D01*
X170437832Y-54423088D01*
X170375000Y-54738967D01*
X170375000Y-55061033D01*
X170437832Y-55376912D01*
X170561082Y-55674463D01*
X170740013Y-55942252D01*
X170967748Y-56169987D01*
X171235537Y-56348918D01*
X171533088Y-56472168D01*
X171848967Y-56535000D01*
X172171033Y-56535000D01*
X172486912Y-56472168D01*
X172501375Y-56466177D01*
X172771206Y-56736009D01*
X172795000Y-56765002D01*
X172823993Y-56788796D01*
X172823997Y-56788800D01*
X172894686Y-56846812D01*
X172910725Y-56859975D01*
X173042754Y-56930547D01*
X173186015Y-56974004D01*
X173297668Y-56985001D01*
X173297677Y-56985001D01*
X173335000Y-56988677D01*
X173372323Y-56985001D01*
X176425000Y-56985001D01*
X176424999Y-60942676D01*
X176421323Y-60979999D01*
X176424999Y-61017321D01*
X176424999Y-61017331D01*
X176435996Y-61128984D01*
X176479453Y-61272245D01*
X176550025Y-61404275D01*
X176589870Y-61452825D01*
X176644998Y-61520000D01*
X176674002Y-61543803D01*
X177671312Y-62541114D01*
X177635000Y-62723665D01*
X177635000Y-63006335D01*
X177690147Y-63283574D01*
X177798320Y-63544727D01*
X177955363Y-63779759D01*
X178155241Y-63979637D01*
X178390273Y-64136680D01*
X178651426Y-64244853D01*
X178928665Y-64300000D01*
X179211335Y-64300000D01*
X179488574Y-64244853D01*
X179580001Y-64206983D01*
X179580001Y-65087762D01*
X179552252Y-65060013D01*
X179284463Y-64881082D01*
X178986912Y-64757832D01*
X178671033Y-64695000D01*
X178348967Y-64695000D01*
X178033088Y-64757832D01*
X177735537Y-64881082D01*
X177467748Y-65060013D01*
X177240013Y-65287748D01*
X177061082Y-65555537D01*
X176937832Y-65853088D01*
X176875000Y-66168967D01*
X176875000Y-66491033D01*
X176937832Y-66806912D01*
X177061082Y-67104463D01*
X177240013Y-67372252D01*
X177467748Y-67599987D01*
X177735537Y-67778918D01*
X178033088Y-67902168D01*
X178348967Y-67965000D01*
X178671033Y-67965000D01*
X178986912Y-67902168D01*
X179284463Y-67778918D01*
X179552252Y-67599987D01*
X179580001Y-67572238D01*
X179580001Y-69580391D01*
X179465807Y-69694585D01*
X179370044Y-69430186D01*
X179080429Y-69289296D01*
X178768892Y-69207616D01*
X178447405Y-69188282D01*
X178128325Y-69232039D01*
X177823912Y-69337205D01*
X177649956Y-69430186D01*
X177554192Y-69694587D01*
X178510000Y-70650395D01*
X178524143Y-70636253D01*
X178703748Y-70815858D01*
X178689605Y-70830000D01*
X178703748Y-70844143D01*
X178524143Y-71023748D01*
X178510000Y-71009605D01*
X177554192Y-71965413D01*
X177649956Y-72229814D01*
X177939571Y-72370704D01*
X178251108Y-72452384D01*
X178572595Y-72471718D01*
X178891675Y-72427961D01*
X179196088Y-72322795D01*
X179370044Y-72229814D01*
X179465807Y-71965415D01*
X179580001Y-72079609D01*
X179580001Y-72953017D01*
X179488574Y-72915147D01*
X179211335Y-72860000D01*
X178928665Y-72860000D01*
X178651426Y-72915147D01*
X178390273Y-73023320D01*
X178155241Y-73180363D01*
X177955363Y-73380241D01*
X177798320Y-73615273D01*
X177690147Y-73876426D01*
X177635000Y-74153665D01*
X177635000Y-74436335D01*
X177690147Y-74713574D01*
X177798320Y-74974727D01*
X177955363Y-75209759D01*
X178155241Y-75409637D01*
X178390273Y-75566680D01*
X178651426Y-75674853D01*
X178928665Y-75730000D01*
X179211335Y-75730000D01*
X179488574Y-75674853D01*
X179580000Y-75636983D01*
X179580000Y-76517761D01*
X179552252Y-76490013D01*
X179284463Y-76311082D01*
X178986912Y-76187832D01*
X178671033Y-76125000D01*
X178348967Y-76125000D01*
X178033088Y-76187832D01*
X177735537Y-76311082D01*
X177467748Y-76490013D01*
X177240013Y-76717748D01*
X177061082Y-76985537D01*
X176937832Y-77283088D01*
X176875000Y-77598967D01*
X176875000Y-77921033D01*
X176937832Y-78236912D01*
X177061082Y-78534463D01*
X177240013Y-78802252D01*
X177467748Y-79029987D01*
X177735537Y-79208918D01*
X178033088Y-79332168D01*
X178348967Y-79395000D01*
X178671033Y-79395000D01*
X178986912Y-79332168D01*
X179284463Y-79208918D01*
X179552252Y-79029987D01*
X179580000Y-79002239D01*
X179580000Y-81010392D01*
X179465807Y-81124585D01*
X179370044Y-80860186D01*
X179080429Y-80719296D01*
X178768892Y-80637616D01*
X178447405Y-80618282D01*
X178128325Y-80662039D01*
X177823912Y-80767205D01*
X177649956Y-80860186D01*
X177554192Y-81124587D01*
X178510000Y-82080395D01*
X178524143Y-82066253D01*
X178703748Y-82245858D01*
X178689605Y-82260000D01*
X178703748Y-82274143D01*
X178524143Y-82453748D01*
X178510000Y-82439605D01*
X177554192Y-83395413D01*
X177649956Y-83659814D01*
X177939571Y-83800704D01*
X178251108Y-83882384D01*
X178572595Y-83901718D01*
X178891675Y-83857961D01*
X179196088Y-83752795D01*
X179370044Y-83659814D01*
X179465807Y-83395415D01*
X179580000Y-83509608D01*
X179580000Y-84383017D01*
X179488574Y-84345147D01*
X179211335Y-84290000D01*
X178928665Y-84290000D01*
X178651426Y-84345147D01*
X178390273Y-84453320D01*
X178155241Y-84610363D01*
X177955363Y-84810241D01*
X177798320Y-85045273D01*
X177690147Y-85306426D01*
X177635000Y-85583665D01*
X177635000Y-85866335D01*
X177690147Y-86143574D01*
X177798320Y-86404727D01*
X177955363Y-86639759D01*
X178155241Y-86839637D01*
X178390273Y-86996680D01*
X178651426Y-87104853D01*
X178928665Y-87160000D01*
X179211335Y-87160000D01*
X179488574Y-87104853D01*
X179580000Y-87066983D01*
X179580000Y-97509855D01*
X178152793Y-98937062D01*
X177941335Y-98895000D01*
X177658665Y-98895000D01*
X177381426Y-98950147D01*
X177120273Y-99058320D01*
X176885241Y-99215363D01*
X176685363Y-99415241D01*
X176530000Y-99647759D01*
X176374637Y-99415241D01*
X176174759Y-99215363D01*
X175939727Y-99058320D01*
X175678574Y-98950147D01*
X175401335Y-98895000D01*
X175118665Y-98895000D01*
X174841426Y-98950147D01*
X174580273Y-99058320D01*
X174345241Y-99215363D01*
X174145363Y-99415241D01*
X173990000Y-99647759D01*
X173834637Y-99415241D01*
X173634759Y-99215363D01*
X173399727Y-99058320D01*
X173138574Y-98950147D01*
X172861335Y-98895000D01*
X172578665Y-98895000D01*
X172301426Y-98950147D01*
X172040273Y-99058320D01*
X171805241Y-99215363D01*
X171605363Y-99415241D01*
X171450000Y-99647759D01*
X171294637Y-99415241D01*
X171097099Y-99217703D01*
X172759803Y-97555000D01*
X172821939Y-97555000D01*
X173021898Y-97515226D01*
X173210256Y-97437205D01*
X173379774Y-97323937D01*
X173523937Y-97179774D01*
X173637205Y-97010256D01*
X173715226Y-96821898D01*
X173755000Y-96621939D01*
X173755000Y-96418061D01*
X173715226Y-96218102D01*
X173637205Y-96029744D01*
X173523937Y-95860226D01*
X173379774Y-95716063D01*
X173210256Y-95602795D01*
X173021898Y-95524774D01*
X172821939Y-95485000D01*
X172684804Y-95485000D01*
X174345204Y-93824600D01*
X174345241Y-93824637D01*
X174580273Y-93981680D01*
X174841426Y-94089853D01*
X175118665Y-94145000D01*
X175401335Y-94145000D01*
X175678574Y-94089853D01*
X175939727Y-93981680D01*
X176174759Y-93824637D01*
X176374637Y-93624759D01*
X176530000Y-93392241D01*
X176685363Y-93624759D01*
X176885241Y-93824637D01*
X177120273Y-93981680D01*
X177381426Y-94089853D01*
X177658665Y-94145000D01*
X177941335Y-94145000D01*
X178218574Y-94089853D01*
X178479727Y-93981680D01*
X178714759Y-93824637D01*
X178914637Y-93624759D01*
X179071680Y-93389727D01*
X179179853Y-93128574D01*
X179235000Y-92851335D01*
X179235000Y-92568665D01*
X179179853Y-92291426D01*
X179071680Y-92030273D01*
X178914637Y-91795241D01*
X178714759Y-91595363D01*
X178479727Y-91438320D01*
X178218574Y-91330147D01*
X177941335Y-91275000D01*
X177658665Y-91275000D01*
X177381426Y-91330147D01*
X177120273Y-91438320D01*
X176885241Y-91595363D01*
X176685363Y-91795241D01*
X176530000Y-92027759D01*
X176374637Y-91795241D01*
X176174759Y-91595363D01*
X175939727Y-91438320D01*
X175678574Y-91330147D01*
X175401335Y-91275000D01*
X175118665Y-91275000D01*
X174841426Y-91330147D01*
X174580273Y-91438320D01*
X174345241Y-91595363D01*
X174145363Y-91795241D01*
X173990000Y-92027759D01*
X173834637Y-91795241D01*
X173634759Y-91595363D01*
X173399727Y-91438320D01*
X173138574Y-91330147D01*
X172861335Y-91275000D01*
X172578665Y-91275000D01*
X172301426Y-91330147D01*
X172040273Y-91438320D01*
X171805241Y-91595363D01*
X171805204Y-91595400D01*
X170383785Y-90173982D01*
X170359982Y-90144978D01*
X170244257Y-90050005D01*
X170112228Y-89979433D01*
X169968967Y-89935976D01*
X169857314Y-89924979D01*
X169857303Y-89924979D01*
X169819981Y-89921303D01*
X169782659Y-89924979D01*
X164424013Y-89924979D01*
X163667106Y-89168072D01*
X164730000Y-89168072D01*
X164854482Y-89155812D01*
X164974180Y-89119502D01*
X165084494Y-89060537D01*
X165181185Y-88981185D01*
X165260537Y-88884494D01*
X165319502Y-88774180D01*
X165325056Y-88755873D01*
X165391495Y-88822312D01*
X165642905Y-88990299D01*
X165922257Y-89106011D01*
X166218816Y-89165000D01*
X166521184Y-89165000D01*
X166817743Y-89106011D01*
X167097095Y-88990299D01*
X167348505Y-88822312D01*
X167562312Y-88608505D01*
X167730299Y-88357095D01*
X167846011Y-88077743D01*
X167905000Y-87781184D01*
X167905000Y-87478816D01*
X167846011Y-87182257D01*
X167730299Y-86902905D01*
X167562312Y-86651495D01*
X167520817Y-86610000D01*
X170315479Y-86610000D01*
X170335363Y-86639759D01*
X170535241Y-86839637D01*
X170770273Y-86996680D01*
X171031426Y-87104853D01*
X171308665Y-87160000D01*
X171591335Y-87160000D01*
X171868574Y-87104853D01*
X172129727Y-86996680D01*
X172364759Y-86839637D01*
X172564637Y-86639759D01*
X172721680Y-86404727D01*
X172829853Y-86143574D01*
X172885000Y-85866335D01*
X172885000Y-85583665D01*
X172829853Y-85306426D01*
X172721680Y-85045273D01*
X172564637Y-84810241D01*
X172364759Y-84610363D01*
X172129727Y-84453320D01*
X171868574Y-84345147D01*
X171591335Y-84290000D01*
X171308665Y-84290000D01*
X171031426Y-84345147D01*
X170770273Y-84453320D01*
X170535241Y-84610363D01*
X170335363Y-84810241D01*
X170315479Y-84840000D01*
X167161998Y-84840000D01*
X167161998Y-83644580D01*
X167411165Y-83395413D01*
X171054192Y-83395413D01*
X171149956Y-83659814D01*
X171439571Y-83800704D01*
X171751108Y-83882384D01*
X172072595Y-83901718D01*
X172391675Y-83857961D01*
X172696088Y-83752795D01*
X172870044Y-83659814D01*
X172965808Y-83395413D01*
X172010000Y-82439605D01*
X171054192Y-83395413D01*
X167411165Y-83395413D01*
X168483983Y-82322595D01*
X170368282Y-82322595D01*
X170412039Y-82641675D01*
X170517205Y-82946088D01*
X170610186Y-83120044D01*
X170874587Y-83215808D01*
X171830395Y-82260000D01*
X172189605Y-82260000D01*
X173145413Y-83215808D01*
X173409814Y-83120044D01*
X173550704Y-82830429D01*
X173632384Y-82518892D01*
X173644189Y-82322595D01*
X176868282Y-82322595D01*
X176912039Y-82641675D01*
X177017205Y-82946088D01*
X177110186Y-83120044D01*
X177374587Y-83215808D01*
X178330395Y-82260000D01*
X177374587Y-81304192D01*
X177110186Y-81399956D01*
X176969296Y-81689571D01*
X176887616Y-82001108D01*
X176868282Y-82322595D01*
X173644189Y-82322595D01*
X173651718Y-82197405D01*
X173607961Y-81878325D01*
X173502795Y-81573912D01*
X173409814Y-81399956D01*
X173145413Y-81304192D01*
X172189605Y-82260000D01*
X171830395Y-82260000D01*
X170874587Y-81304192D01*
X170610186Y-81399956D01*
X170469296Y-81689571D01*
X170387616Y-82001108D01*
X170368282Y-82322595D01*
X168483983Y-82322595D01*
X168870050Y-81936529D01*
X168903817Y-81908817D01*
X169014411Y-81774059D01*
X169045445Y-81715998D01*
X169096589Y-81620314D01*
X169147195Y-81453490D01*
X169148471Y-81440537D01*
X169160000Y-81323477D01*
X169160000Y-81323469D01*
X169164281Y-81280000D01*
X169160000Y-81236531D01*
X169160000Y-81124587D01*
X171054192Y-81124587D01*
X172010000Y-82080395D01*
X172965808Y-81124587D01*
X172870044Y-80860186D01*
X172580429Y-80719296D01*
X172268892Y-80637616D01*
X171947405Y-80618282D01*
X171628325Y-80662039D01*
X171323912Y-80767205D01*
X171149956Y-80860186D01*
X171054192Y-81124587D01*
X169160000Y-81124587D01*
X169160000Y-77598967D01*
X170375000Y-77598967D01*
X170375000Y-77921033D01*
X170437832Y-78236912D01*
X170561082Y-78534463D01*
X170740013Y-78802252D01*
X170967748Y-79029987D01*
X171235537Y-79208918D01*
X171533088Y-79332168D01*
X171848967Y-79395000D01*
X172171033Y-79395000D01*
X172486912Y-79332168D01*
X172784463Y-79208918D01*
X173052252Y-79029987D01*
X173279987Y-78802252D01*
X173458918Y-78534463D01*
X173582168Y-78236912D01*
X173645000Y-77921033D01*
X173645000Y-77598967D01*
X173582168Y-77283088D01*
X173458918Y-76985537D01*
X173279987Y-76717748D01*
X173052252Y-76490013D01*
X172784463Y-76311082D01*
X172486912Y-76187832D01*
X172171033Y-76125000D01*
X171848967Y-76125000D01*
X171533088Y-76187832D01*
X171235537Y-76311082D01*
X170967748Y-76490013D01*
X170740013Y-76717748D01*
X170561082Y-76985537D01*
X170437832Y-77283088D01*
X170375000Y-77598967D01*
X169160000Y-77598967D01*
X169160000Y-74153665D01*
X170015000Y-74153665D01*
X170015000Y-74436335D01*
X170070147Y-74713574D01*
X170178320Y-74974727D01*
X170335363Y-75209759D01*
X170535241Y-75409637D01*
X170770273Y-75566680D01*
X171031426Y-75674853D01*
X171308665Y-75730000D01*
X171591335Y-75730000D01*
X171868574Y-75674853D01*
X172129727Y-75566680D01*
X172364759Y-75409637D01*
X172564637Y-75209759D01*
X172721680Y-74974727D01*
X172829853Y-74713574D01*
X172885000Y-74436335D01*
X172885000Y-74153665D01*
X172829853Y-73876426D01*
X172721680Y-73615273D01*
X172564637Y-73380241D01*
X172364759Y-73180363D01*
X172129727Y-73023320D01*
X171868574Y-72915147D01*
X171591335Y-72860000D01*
X171308665Y-72860000D01*
X171031426Y-72915147D01*
X170770273Y-73023320D01*
X170535241Y-73180363D01*
X170335363Y-73380241D01*
X170178320Y-73615273D01*
X170070147Y-73876426D01*
X170015000Y-74153665D01*
X169160000Y-74153665D01*
X169160000Y-71965413D01*
X171054192Y-71965413D01*
X171149956Y-72229814D01*
X171439571Y-72370704D01*
X171751108Y-72452384D01*
X172072595Y-72471718D01*
X172391675Y-72427961D01*
X172696088Y-72322795D01*
X172870044Y-72229814D01*
X172965808Y-71965413D01*
X172010000Y-71009605D01*
X171054192Y-71965413D01*
X169160000Y-71965413D01*
X169160000Y-70892595D01*
X170368282Y-70892595D01*
X170412039Y-71211675D01*
X170517205Y-71516088D01*
X170610186Y-71690044D01*
X170874587Y-71785808D01*
X171830395Y-70830000D01*
X172189605Y-70830000D01*
X173145413Y-71785808D01*
X173409814Y-71690044D01*
X173550704Y-71400429D01*
X173632384Y-71088892D01*
X173644189Y-70892595D01*
X176868282Y-70892595D01*
X176912039Y-71211675D01*
X177017205Y-71516088D01*
X177110186Y-71690044D01*
X177374587Y-71785808D01*
X178330395Y-70830000D01*
X177374587Y-69874192D01*
X177110186Y-69969956D01*
X176969296Y-70259571D01*
X176887616Y-70571108D01*
X176868282Y-70892595D01*
X173644189Y-70892595D01*
X173651718Y-70767405D01*
X173607961Y-70448325D01*
X173502795Y-70143912D01*
X173409814Y-69969956D01*
X173145413Y-69874192D01*
X172189605Y-70830000D01*
X171830395Y-70830000D01*
X170874587Y-69874192D01*
X170610186Y-69969956D01*
X170469296Y-70259571D01*
X170387616Y-70571108D01*
X170368282Y-70892595D01*
X169160000Y-70892595D01*
X169160000Y-69694587D01*
X171054192Y-69694587D01*
X172010000Y-70650395D01*
X172965808Y-69694587D01*
X172870044Y-69430186D01*
X172580429Y-69289296D01*
X172268892Y-69207616D01*
X171947405Y-69188282D01*
X171628325Y-69232039D01*
X171323912Y-69337205D01*
X171149956Y-69430186D01*
X171054192Y-69694587D01*
X169160000Y-69694587D01*
X169160000Y-66168967D01*
X170375000Y-66168967D01*
X170375000Y-66491033D01*
X170437832Y-66806912D01*
X170561082Y-67104463D01*
X170740013Y-67372252D01*
X170967748Y-67599987D01*
X171235537Y-67778918D01*
X171533088Y-67902168D01*
X171848967Y-67965000D01*
X172171033Y-67965000D01*
X172486912Y-67902168D01*
X172784463Y-67778918D01*
X173052252Y-67599987D01*
X173279987Y-67372252D01*
X173458918Y-67104463D01*
X173582168Y-66806912D01*
X173645000Y-66491033D01*
X173645000Y-66168967D01*
X173582168Y-65853088D01*
X173458918Y-65555537D01*
X173279987Y-65287748D01*
X173052252Y-65060013D01*
X172784463Y-64881082D01*
X172486912Y-64757832D01*
X172171033Y-64695000D01*
X171848967Y-64695000D01*
X171533088Y-64757832D01*
X171235537Y-64881082D01*
X170967748Y-65060013D01*
X170740013Y-65287748D01*
X170561082Y-65555537D01*
X170437832Y-65853088D01*
X170375000Y-66168967D01*
X169160000Y-66168967D01*
X169160000Y-62723665D01*
X170015000Y-62723665D01*
X170015000Y-63006335D01*
X170070147Y-63283574D01*
X170178320Y-63544727D01*
X170335363Y-63779759D01*
X170535241Y-63979637D01*
X170770273Y-64136680D01*
X171031426Y-64244853D01*
X171308665Y-64300000D01*
X171591335Y-64300000D01*
X171868574Y-64244853D01*
X172129727Y-64136680D01*
X172364759Y-63979637D01*
X172564637Y-63779759D01*
X172721680Y-63544727D01*
X172829853Y-63283574D01*
X172885000Y-63006335D01*
X172885000Y-62723665D01*
X172829853Y-62446426D01*
X172721680Y-62185273D01*
X172564637Y-61950241D01*
X172364759Y-61750363D01*
X172129727Y-61593320D01*
X171868574Y-61485147D01*
X171591335Y-61430000D01*
X171308665Y-61430000D01*
X171031426Y-61485147D01*
X170770273Y-61593320D01*
X170535241Y-61750363D01*
X170335363Y-61950241D01*
X170178320Y-62185273D01*
X170070147Y-62446426D01*
X170015000Y-62723665D01*
X169160000Y-62723665D01*
X169160000Y-60535413D01*
X171054192Y-60535413D01*
X171149956Y-60799814D01*
X171439571Y-60940704D01*
X171751108Y-61022384D01*
X172072595Y-61041718D01*
X172391675Y-60997961D01*
X172696088Y-60892795D01*
X172870044Y-60799814D01*
X172965808Y-60535413D01*
X172010000Y-59579605D01*
X171054192Y-60535413D01*
X169160000Y-60535413D01*
X169160000Y-59462595D01*
X170368282Y-59462595D01*
X170412039Y-59781675D01*
X170517205Y-60086088D01*
X170610186Y-60260044D01*
X170874587Y-60355808D01*
X171830395Y-59400000D01*
X172189605Y-59400000D01*
X173145413Y-60355808D01*
X173409814Y-60260044D01*
X173550704Y-59970429D01*
X173632384Y-59658892D01*
X173651718Y-59337405D01*
X173607961Y-59018325D01*
X173502795Y-58713912D01*
X173409814Y-58539956D01*
X173145413Y-58444192D01*
X172189605Y-59400000D01*
X171830395Y-59400000D01*
X170874587Y-58444192D01*
X170610186Y-58539956D01*
X170469296Y-58829571D01*
X170387616Y-59141108D01*
X170368282Y-59462595D01*
X169160000Y-59462595D01*
X169160000Y-58264587D01*
X171054192Y-58264587D01*
X172010000Y-59220395D01*
X172965808Y-58264587D01*
X172870044Y-58000186D01*
X172580429Y-57859296D01*
X172268892Y-57777616D01*
X171947405Y-57758282D01*
X171628325Y-57802039D01*
X171323912Y-57907205D01*
X171149956Y-58000186D01*
X171054192Y-58264587D01*
X169160000Y-58264587D01*
X169160000Y-55288469D01*
X169164281Y-55245000D01*
X169160000Y-55201531D01*
X169160000Y-55201523D01*
X169147195Y-55071510D01*
X169096589Y-54904687D01*
X169014411Y-54750941D01*
X168903817Y-54616183D01*
X168870049Y-54588470D01*
X162576577Y-48294999D01*
X174855198Y-48294999D01*
X179580001Y-53019803D01*
G37*
%TD.AperFunction*%
D20*
X161888165Y-91447965D02*
X161822580Y-91478963D01*
X161596586Y-91646481D01*
X161407615Y-91854869D01*
X161262930Y-92096119D01*
X161168091Y-92360960D01*
X161289376Y-92583000D01*
X162433000Y-92583000D01*
X162433000Y-92563000D01*
X162687000Y-92563000D01*
X162687000Y-92583000D01*
X162707000Y-92583000D01*
X162707000Y-92837000D01*
X162687000Y-92837000D01*
X162687000Y-93979915D01*
X162909039Y-94101904D01*
X163043087Y-94061246D01*
X163297420Y-93941037D01*
X163523414Y-93773519D01*
X163712385Y-93565131D01*
X163823933Y-93379135D01*
X163828320Y-93389727D01*
X163985363Y-93624759D01*
X164185241Y-93824637D01*
X164420273Y-93981680D01*
X164681426Y-94089853D01*
X164958665Y-94145000D01*
X165241335Y-94145000D01*
X165518574Y-94089853D01*
X165779727Y-93981680D01*
X166014759Y-93824637D01*
X166214637Y-93624759D01*
X166370000Y-93392241D01*
X166525363Y-93624759D01*
X166725241Y-93824637D01*
X166960273Y-93981680D01*
X167221426Y-94089853D01*
X167498665Y-94145000D01*
X167781335Y-94145000D01*
X168058574Y-94089853D01*
X168319727Y-93981680D01*
X168554759Y-93824637D01*
X168754637Y-93624759D01*
X168910000Y-93392241D01*
X169065363Y-93624759D01*
X169265241Y-93824637D01*
X169500273Y-93981680D01*
X169761426Y-94089853D01*
X170038665Y-94145000D01*
X170321335Y-94145000D01*
X170598574Y-94089853D01*
X170859727Y-93981680D01*
X171094759Y-93824637D01*
X171294637Y-93624759D01*
X171450000Y-93392241D01*
X171605363Y-93624759D01*
X171805241Y-93824637D01*
X172039222Y-93980978D01*
X168845202Y-97174999D01*
X156851744Y-97174999D01*
X156951514Y-97121671D01*
X157023097Y-96877702D01*
X156210000Y-96064605D01*
X155396903Y-96877702D01*
X155468486Y-97121671D01*
X155581189Y-97174999D01*
X151845501Y-97174999D01*
X151889727Y-97156680D01*
X152124759Y-96999637D01*
X152324637Y-96799759D01*
X152481680Y-96564727D01*
X152589853Y-96303574D01*
X152645000Y-96026335D01*
X152645000Y-95955512D01*
X154769783Y-95955512D01*
X154811213Y-96235130D01*
X154906397Y-96501292D01*
X154973329Y-96626514D01*
X155217298Y-96698097D01*
X156030395Y-95885000D01*
X156389605Y-95885000D01*
X157202702Y-96698097D01*
X157446671Y-96626514D01*
X157567571Y-96371004D01*
X157636300Y-96096816D01*
X157650217Y-95814488D01*
X157608787Y-95534870D01*
X157561293Y-95402061D01*
X157715000Y-95402061D01*
X157715000Y-95605939D01*
X157754774Y-95805898D01*
X157832795Y-95994256D01*
X157946063Y-96163774D01*
X158090226Y-96307937D01*
X158259744Y-96421205D01*
X158448102Y-96499226D01*
X158648061Y-96539000D01*
X158851939Y-96539000D01*
X159051898Y-96499226D01*
X159240256Y-96421205D01*
X159409774Y-96307937D01*
X159553937Y-96163774D01*
X159667205Y-95994256D01*
X159745226Y-95805898D01*
X159756535Y-95749043D01*
X160615050Y-94890529D01*
X160648817Y-94862817D01*
X160759411Y-94728059D01*
X160841589Y-94574313D01*
X160892195Y-94407490D01*
X160905000Y-94277477D01*
X160905000Y-94277467D01*
X160909281Y-94234001D01*
X160905000Y-94190535D01*
X160905000Y-93059040D01*
X161168091Y-93059040D01*
X161262930Y-93323881D01*
X161407615Y-93565131D01*
X161596586Y-93773519D01*
X161822580Y-93941037D01*
X162076913Y-94061246D01*
X162210961Y-94101904D01*
X162433000Y-93979915D01*
X162433000Y-92837000D01*
X161289376Y-92837000D01*
X161168091Y-93059040D01*
X160905000Y-93059040D01*
X160905000Y-91978496D01*
X160937205Y-91930298D01*
X161015226Y-91741940D01*
X161055000Y-91541981D01*
X161055000Y-91338103D01*
X161015226Y-91138144D01*
X160937205Y-90949786D01*
X160823937Y-90780268D01*
X160679774Y-90636105D01*
X160510256Y-90522837D01*
X160321898Y-90444816D01*
X160121939Y-90405042D01*
X159918061Y-90405042D01*
X159718102Y-90444816D01*
X159529744Y-90522837D01*
X159360226Y-90636105D01*
X159216063Y-90780268D01*
X159102795Y-90949786D01*
X159024774Y-91138144D01*
X158985000Y-91338103D01*
X158985000Y-91541981D01*
X159024774Y-91741940D01*
X159102795Y-91930298D01*
X159135001Y-91978498D01*
X159135000Y-93867421D01*
X158504957Y-94497465D01*
X158448102Y-94508774D01*
X158259744Y-94586795D01*
X158090226Y-94700063D01*
X157946063Y-94844226D01*
X157832795Y-95013744D01*
X157754774Y-95202102D01*
X157715000Y-95402061D01*
X157561293Y-95402061D01*
X157513603Y-95268708D01*
X157446671Y-95143486D01*
X157202702Y-95071903D01*
X156389605Y-95885000D01*
X156030395Y-95885000D01*
X155217298Y-95071903D01*
X154973329Y-95143486D01*
X154852429Y-95398996D01*
X154783700Y-95673184D01*
X154769783Y-95955512D01*
X152645000Y-95955512D01*
X152645000Y-95743665D01*
X152589853Y-95466426D01*
X152481680Y-95205273D01*
X152324637Y-94970241D01*
X152246694Y-94892298D01*
X155396903Y-94892298D01*
X156210000Y-95705395D01*
X157023097Y-94892298D01*
X156951514Y-94648329D01*
X156696004Y-94527429D01*
X156421816Y-94458700D01*
X156139488Y-94444783D01*
X155859870Y-94486213D01*
X155593708Y-94581397D01*
X155468486Y-94648329D01*
X155396903Y-94892298D01*
X152246694Y-94892298D01*
X152124759Y-94770363D01*
X151889727Y-94613320D01*
X151628574Y-94505147D01*
X151351335Y-94450000D01*
X151068665Y-94450000D01*
X150791426Y-94505147D01*
X150530273Y-94613320D01*
X150295241Y-94770363D01*
X150095363Y-94970241D01*
X149938320Y-95205273D01*
X149830147Y-95466426D01*
X149775000Y-95743665D01*
X149775000Y-96026335D01*
X149830147Y-96303574D01*
X149938320Y-96564727D01*
X150095363Y-96799759D01*
X150295241Y-96999637D01*
X150530273Y-97156680D01*
X150574499Y-97174999D01*
X149244323Y-97174999D01*
X149207000Y-97171323D01*
X149169678Y-97174999D01*
X149169668Y-97174999D01*
X149168501Y-97175114D01*
X149167334Y-97174999D01*
X149167323Y-97174999D01*
X149130001Y-97171323D01*
X149092679Y-97174999D01*
X142132324Y-97174999D01*
X142095001Y-97171323D01*
X142057678Y-97174999D01*
X142057668Y-97174999D01*
X141946015Y-97185996D01*
X141802754Y-97229453D01*
X141670724Y-97300025D01*
X141640028Y-97325217D01*
X141555000Y-97394998D01*
X141531202Y-97423996D01*
X140460000Y-98495198D01*
X140460000Y-97432331D01*
X140463677Y-97394998D01*
X140449003Y-97246012D01*
X140405546Y-97102751D01*
X140334974Y-96970722D01*
X140263799Y-96883995D01*
X140240001Y-96854997D01*
X140211003Y-96831199D01*
X137448383Y-94068579D01*
X137509039Y-94101904D01*
X137643087Y-94061246D01*
X137897420Y-93941037D01*
X138123414Y-93773519D01*
X138312385Y-93565131D01*
X138423933Y-93379135D01*
X138428320Y-93389727D01*
X138585363Y-93624759D01*
X138785241Y-93824637D01*
X139020273Y-93981680D01*
X139281426Y-94089853D01*
X139558665Y-94145000D01*
X139841335Y-94145000D01*
X140118574Y-94089853D01*
X140379727Y-93981680D01*
X140614759Y-93824637D01*
X140814637Y-93624759D01*
X140970000Y-93392241D01*
X141125363Y-93624759D01*
X141325241Y-93824637D01*
X141560273Y-93981680D01*
X141821426Y-94089853D01*
X142098665Y-94145000D01*
X142381335Y-94145000D01*
X142658574Y-94089853D01*
X142919727Y-93981680D01*
X143154759Y-93824637D01*
X143353357Y-93626039D01*
X143354188Y-93634482D01*
X143390498Y-93754180D01*
X143449463Y-93864494D01*
X143528815Y-93961185D01*
X143625506Y-94040537D01*
X143735820Y-94099502D01*
X143855518Y-94135812D01*
X143980000Y-94148072D01*
X145580000Y-94148072D01*
X145704482Y-94135812D01*
X145824180Y-94099502D01*
X145934494Y-94040537D01*
X146031185Y-93961185D01*
X146110537Y-93864494D01*
X146169502Y-93754180D01*
X146205812Y-93634482D01*
X146218072Y-93510000D01*
X146218072Y-92568665D01*
X149775000Y-92568665D01*
X149775000Y-92851335D01*
X149830147Y-93128574D01*
X149938320Y-93389727D01*
X150095363Y-93624759D01*
X150295241Y-93824637D01*
X150530273Y-93981680D01*
X150791426Y-94089853D01*
X151068665Y-94145000D01*
X151351335Y-94145000D01*
X151628574Y-94089853D01*
X151889727Y-93981680D01*
X152124759Y-93824637D01*
X152246694Y-93702702D01*
X155396903Y-93702702D01*
X155468486Y-93946671D01*
X155723996Y-94067571D01*
X155998184Y-94136300D01*
X156280512Y-94150217D01*
X156560130Y-94108787D01*
X156826292Y-94013603D01*
X156951514Y-93946671D01*
X157023097Y-93702702D01*
X156210000Y-92889605D01*
X155396903Y-93702702D01*
X152246694Y-93702702D01*
X152324637Y-93624759D01*
X152481680Y-93389727D01*
X152589853Y-93128574D01*
X152645000Y-92851335D01*
X152645000Y-92780512D01*
X154769783Y-92780512D01*
X154811213Y-93060130D01*
X154906397Y-93326292D01*
X154973329Y-93451514D01*
X155217298Y-93523097D01*
X156030395Y-92710000D01*
X156389605Y-92710000D01*
X157202702Y-93523097D01*
X157446671Y-93451514D01*
X157567571Y-93196004D01*
X157636300Y-92921816D01*
X157650217Y-92639488D01*
X157608787Y-92359870D01*
X157513603Y-92093708D01*
X157446671Y-91968486D01*
X157202702Y-91896903D01*
X156389605Y-92710000D01*
X156030395Y-92710000D01*
X155217298Y-91896903D01*
X154973329Y-91968486D01*
X154852429Y-92223996D01*
X154783700Y-92498184D01*
X154769783Y-92780512D01*
X152645000Y-92780512D01*
X152645000Y-92568665D01*
X152589853Y-92291426D01*
X152481680Y-92030273D01*
X152324637Y-91795241D01*
X152246694Y-91717298D01*
X155396903Y-91717298D01*
X156210000Y-92530395D01*
X157023097Y-91717298D01*
X156951514Y-91473329D01*
X156696004Y-91352429D01*
X156421816Y-91283700D01*
X156139488Y-91269783D01*
X155859870Y-91311213D01*
X155593708Y-91406397D01*
X155468486Y-91473329D01*
X155396903Y-91717298D01*
X152246694Y-91717298D01*
X152124759Y-91595363D01*
X151889727Y-91438320D01*
X151628574Y-91330147D01*
X151351335Y-91275000D01*
X151068665Y-91275000D01*
X150791426Y-91330147D01*
X150530273Y-91438320D01*
X150295241Y-91595363D01*
X150095363Y-91795241D01*
X149938320Y-92030273D01*
X149830147Y-92291426D01*
X149775000Y-92568665D01*
X146218072Y-92568665D01*
X146218072Y-92346730D01*
X146999003Y-91565799D01*
X147028000Y-91542002D01*
X147122973Y-91426277D01*
X147193545Y-91294248D01*
X147237002Y-91150987D01*
X147247999Y-91039334D01*
X147247999Y-91039325D01*
X147251675Y-91002002D01*
X147247999Y-90964679D01*
X147247999Y-90035000D01*
X147431788Y-90035000D01*
X147651067Y-89991383D01*
X147857624Y-89905824D01*
X148043520Y-89781612D01*
X148201612Y-89623520D01*
X148325824Y-89437624D01*
X148411383Y-89231067D01*
X148455000Y-89011788D01*
X148455000Y-88788212D01*
X148411383Y-88568933D01*
X148325824Y-88362376D01*
X148201612Y-88176480D01*
X148043520Y-88018388D01*
X147857624Y-87894176D01*
X147651067Y-87808617D01*
X147431788Y-87765000D01*
X147254999Y-87765000D01*
X147254999Y-87499802D01*
X147259801Y-87495000D01*
X147431788Y-87495000D01*
X147651067Y-87451383D01*
X147857624Y-87365824D01*
X148043520Y-87241612D01*
X148201612Y-87083520D01*
X148325824Y-86897624D01*
X148411383Y-86691067D01*
X148455000Y-86471788D01*
X148455000Y-86248212D01*
X148411383Y-86028933D01*
X148337266Y-85850000D01*
X156290201Y-85850000D01*
X161888165Y-91447965D01*
%TA.AperFunction,Conductor*%
D21*
G36*
X161888165Y-91447965D02*
G01*
X161822580Y-91478963D01*
X161596586Y-91646481D01*
X161407615Y-91854869D01*
X161262930Y-92096119D01*
X161168091Y-92360960D01*
X161289376Y-92583000D01*
X162433000Y-92583000D01*
X162433000Y-92563000D01*
X162687000Y-92563000D01*
X162687000Y-92583000D01*
X162707000Y-92583000D01*
X162707000Y-92837000D01*
X162687000Y-92837000D01*
X162687000Y-93979915D01*
X162909039Y-94101904D01*
X163043087Y-94061246D01*
X163297420Y-93941037D01*
X163523414Y-93773519D01*
X163712385Y-93565131D01*
X163823933Y-93379135D01*
X163828320Y-93389727D01*
X163985363Y-93624759D01*
X164185241Y-93824637D01*
X164420273Y-93981680D01*
X164681426Y-94089853D01*
X164958665Y-94145000D01*
X165241335Y-94145000D01*
X165518574Y-94089853D01*
X165779727Y-93981680D01*
X166014759Y-93824637D01*
X166214637Y-93624759D01*
X166370000Y-93392241D01*
X166525363Y-93624759D01*
X166725241Y-93824637D01*
X166960273Y-93981680D01*
X167221426Y-94089853D01*
X167498665Y-94145000D01*
X167781335Y-94145000D01*
X168058574Y-94089853D01*
X168319727Y-93981680D01*
X168554759Y-93824637D01*
X168754637Y-93624759D01*
X168910000Y-93392241D01*
X169065363Y-93624759D01*
X169265241Y-93824637D01*
X169500273Y-93981680D01*
X169761426Y-94089853D01*
X170038665Y-94145000D01*
X170321335Y-94145000D01*
X170598574Y-94089853D01*
X170859727Y-93981680D01*
X171094759Y-93824637D01*
X171294637Y-93624759D01*
X171450000Y-93392241D01*
X171605363Y-93624759D01*
X171805241Y-93824637D01*
X172039222Y-93980978D01*
X168845202Y-97174999D01*
X156851744Y-97174999D01*
X156951514Y-97121671D01*
X157023097Y-96877702D01*
X156210000Y-96064605D01*
X155396903Y-96877702D01*
X155468486Y-97121671D01*
X155581189Y-97174999D01*
X151845501Y-97174999D01*
X151889727Y-97156680D01*
X152124759Y-96999637D01*
X152324637Y-96799759D01*
X152481680Y-96564727D01*
X152589853Y-96303574D01*
X152645000Y-96026335D01*
X152645000Y-95955512D01*
X154769783Y-95955512D01*
X154811213Y-96235130D01*
X154906397Y-96501292D01*
X154973329Y-96626514D01*
X155217298Y-96698097D01*
X156030395Y-95885000D01*
X156389605Y-95885000D01*
X157202702Y-96698097D01*
X157446671Y-96626514D01*
X157567571Y-96371004D01*
X157636300Y-96096816D01*
X157650217Y-95814488D01*
X157608787Y-95534870D01*
X157561293Y-95402061D01*
X157715000Y-95402061D01*
X157715000Y-95605939D01*
X157754774Y-95805898D01*
X157832795Y-95994256D01*
X157946063Y-96163774D01*
X158090226Y-96307937D01*
X158259744Y-96421205D01*
X158448102Y-96499226D01*
X158648061Y-96539000D01*
X158851939Y-96539000D01*
X159051898Y-96499226D01*
X159240256Y-96421205D01*
X159409774Y-96307937D01*
X159553937Y-96163774D01*
X159667205Y-95994256D01*
X159745226Y-95805898D01*
X159756535Y-95749043D01*
X160615050Y-94890529D01*
X160648817Y-94862817D01*
X160759411Y-94728059D01*
X160841589Y-94574313D01*
X160892195Y-94407490D01*
X160905000Y-94277477D01*
X160905000Y-94277467D01*
X160909281Y-94234001D01*
X160905000Y-94190535D01*
X160905000Y-93059040D01*
X161168091Y-93059040D01*
X161262930Y-93323881D01*
X161407615Y-93565131D01*
X161596586Y-93773519D01*
X161822580Y-93941037D01*
X162076913Y-94061246D01*
X162210961Y-94101904D01*
X162433000Y-93979915D01*
X162433000Y-92837000D01*
X161289376Y-92837000D01*
X161168091Y-93059040D01*
X160905000Y-93059040D01*
X160905000Y-91978496D01*
X160937205Y-91930298D01*
X161015226Y-91741940D01*
X161055000Y-91541981D01*
X161055000Y-91338103D01*
X161015226Y-91138144D01*
X160937205Y-90949786D01*
X160823937Y-90780268D01*
X160679774Y-90636105D01*
X160510256Y-90522837D01*
X160321898Y-90444816D01*
X160121939Y-90405042D01*
X159918061Y-90405042D01*
X159718102Y-90444816D01*
X159529744Y-90522837D01*
X159360226Y-90636105D01*
X159216063Y-90780268D01*
X159102795Y-90949786D01*
X159024774Y-91138144D01*
X158985000Y-91338103D01*
X158985000Y-91541981D01*
X159024774Y-91741940D01*
X159102795Y-91930298D01*
X159135001Y-91978498D01*
X159135000Y-93867421D01*
X158504957Y-94497465D01*
X158448102Y-94508774D01*
X158259744Y-94586795D01*
X158090226Y-94700063D01*
X157946063Y-94844226D01*
X157832795Y-95013744D01*
X157754774Y-95202102D01*
X157715000Y-95402061D01*
X157561293Y-95402061D01*
X157513603Y-95268708D01*
X157446671Y-95143486D01*
X157202702Y-95071903D01*
X156389605Y-95885000D01*
X156030395Y-95885000D01*
X155217298Y-95071903D01*
X154973329Y-95143486D01*
X154852429Y-95398996D01*
X154783700Y-95673184D01*
X154769783Y-95955512D01*
X152645000Y-95955512D01*
X152645000Y-95743665D01*
X152589853Y-95466426D01*
X152481680Y-95205273D01*
X152324637Y-94970241D01*
X152246694Y-94892298D01*
X155396903Y-94892298D01*
X156210000Y-95705395D01*
X157023097Y-94892298D01*
X156951514Y-94648329D01*
X156696004Y-94527429D01*
X156421816Y-94458700D01*
X156139488Y-94444783D01*
X155859870Y-94486213D01*
X155593708Y-94581397D01*
X155468486Y-94648329D01*
X155396903Y-94892298D01*
X152246694Y-94892298D01*
X152124759Y-94770363D01*
X151889727Y-94613320D01*
X151628574Y-94505147D01*
X151351335Y-94450000D01*
X151068665Y-94450000D01*
X150791426Y-94505147D01*
X150530273Y-94613320D01*
X150295241Y-94770363D01*
X150095363Y-94970241D01*
X149938320Y-95205273D01*
X149830147Y-95466426D01*
X149775000Y-95743665D01*
X149775000Y-96026335D01*
X149830147Y-96303574D01*
X149938320Y-96564727D01*
X150095363Y-96799759D01*
X150295241Y-96999637D01*
X150530273Y-97156680D01*
X150574499Y-97174999D01*
X149244323Y-97174999D01*
X149207000Y-97171323D01*
X149169678Y-97174999D01*
X149169668Y-97174999D01*
X149168501Y-97175114D01*
X149167334Y-97174999D01*
X149167323Y-97174999D01*
X149130001Y-97171323D01*
X149092679Y-97174999D01*
X142132324Y-97174999D01*
X142095001Y-97171323D01*
X142057678Y-97174999D01*
X142057668Y-97174999D01*
X141946015Y-97185996D01*
X141802754Y-97229453D01*
X141670724Y-97300025D01*
X141640028Y-97325217D01*
X141555000Y-97394998D01*
X141531202Y-97423996D01*
X140460000Y-98495198D01*
X140460000Y-97432331D01*
X140463677Y-97394998D01*
X140449003Y-97246012D01*
X140405546Y-97102751D01*
X140334974Y-96970722D01*
X140263799Y-96883995D01*
X140240001Y-96854997D01*
X140211003Y-96831199D01*
X137448383Y-94068579D01*
X137509039Y-94101904D01*
X137643087Y-94061246D01*
X137897420Y-93941037D01*
X138123414Y-93773519D01*
X138312385Y-93565131D01*
X138423933Y-93379135D01*
X138428320Y-93389727D01*
X138585363Y-93624759D01*
X138785241Y-93824637D01*
X139020273Y-93981680D01*
X139281426Y-94089853D01*
X139558665Y-94145000D01*
X139841335Y-94145000D01*
X140118574Y-94089853D01*
X140379727Y-93981680D01*
X140614759Y-93824637D01*
X140814637Y-93624759D01*
X140970000Y-93392241D01*
X141125363Y-93624759D01*
X141325241Y-93824637D01*
X141560273Y-93981680D01*
X141821426Y-94089853D01*
X142098665Y-94145000D01*
X142381335Y-94145000D01*
X142658574Y-94089853D01*
X142919727Y-93981680D01*
X143154759Y-93824637D01*
X143353357Y-93626039D01*
X143354188Y-93634482D01*
X143390498Y-93754180D01*
X143449463Y-93864494D01*
X143528815Y-93961185D01*
X143625506Y-94040537D01*
X143735820Y-94099502D01*
X143855518Y-94135812D01*
X143980000Y-94148072D01*
X145580000Y-94148072D01*
X145704482Y-94135812D01*
X145824180Y-94099502D01*
X145934494Y-94040537D01*
X146031185Y-93961185D01*
X146110537Y-93864494D01*
X146169502Y-93754180D01*
X146205812Y-93634482D01*
X146218072Y-93510000D01*
X146218072Y-92568665D01*
X149775000Y-92568665D01*
X149775000Y-92851335D01*
X149830147Y-93128574D01*
X149938320Y-93389727D01*
X150095363Y-93624759D01*
X150295241Y-93824637D01*
X150530273Y-93981680D01*
X150791426Y-94089853D01*
X151068665Y-94145000D01*
X151351335Y-94145000D01*
X151628574Y-94089853D01*
X151889727Y-93981680D01*
X152124759Y-93824637D01*
X152246694Y-93702702D01*
X155396903Y-93702702D01*
X155468486Y-93946671D01*
X155723996Y-94067571D01*
X155998184Y-94136300D01*
X156280512Y-94150217D01*
X156560130Y-94108787D01*
X156826292Y-94013603D01*
X156951514Y-93946671D01*
X157023097Y-93702702D01*
X156210000Y-92889605D01*
X155396903Y-93702702D01*
X152246694Y-93702702D01*
X152324637Y-93624759D01*
X152481680Y-93389727D01*
X152589853Y-93128574D01*
X152645000Y-92851335D01*
X152645000Y-92780512D01*
X154769783Y-92780512D01*
X154811213Y-93060130D01*
X154906397Y-93326292D01*
X154973329Y-93451514D01*
X155217298Y-93523097D01*
X156030395Y-92710000D01*
X156389605Y-92710000D01*
X157202702Y-93523097D01*
X157446671Y-93451514D01*
X157567571Y-93196004D01*
X157636300Y-92921816D01*
X157650217Y-92639488D01*
X157608787Y-92359870D01*
X157513603Y-92093708D01*
X157446671Y-91968486D01*
X157202702Y-91896903D01*
X156389605Y-92710000D01*
X156030395Y-92710000D01*
X155217298Y-91896903D01*
X154973329Y-91968486D01*
X154852429Y-92223996D01*
X154783700Y-92498184D01*
X154769783Y-92780512D01*
X152645000Y-92780512D01*
X152645000Y-92568665D01*
X152589853Y-92291426D01*
X152481680Y-92030273D01*
X152324637Y-91795241D01*
X152246694Y-91717298D01*
X155396903Y-91717298D01*
X156210000Y-92530395D01*
X157023097Y-91717298D01*
X156951514Y-91473329D01*
X156696004Y-91352429D01*
X156421816Y-91283700D01*
X156139488Y-91269783D01*
X155859870Y-91311213D01*
X155593708Y-91406397D01*
X155468486Y-91473329D01*
X155396903Y-91717298D01*
X152246694Y-91717298D01*
X152124759Y-91595363D01*
X151889727Y-91438320D01*
X151628574Y-91330147D01*
X151351335Y-91275000D01*
X151068665Y-91275000D01*
X150791426Y-91330147D01*
X150530273Y-91438320D01*
X150295241Y-91595363D01*
X150095363Y-91795241D01*
X149938320Y-92030273D01*
X149830147Y-92291426D01*
X149775000Y-92568665D01*
X146218072Y-92568665D01*
X146218072Y-92346730D01*
X146999003Y-91565799D01*
X147028000Y-91542002D01*
X147122973Y-91426277D01*
X147193545Y-91294248D01*
X147237002Y-91150987D01*
X147247999Y-91039334D01*
X147247999Y-91039325D01*
X147251675Y-91002002D01*
X147247999Y-90964679D01*
X147247999Y-90035000D01*
X147431788Y-90035000D01*
X147651067Y-89991383D01*
X147857624Y-89905824D01*
X148043520Y-89781612D01*
X148201612Y-89623520D01*
X148325824Y-89437624D01*
X148411383Y-89231067D01*
X148455000Y-89011788D01*
X148455000Y-88788212D01*
X148411383Y-88568933D01*
X148325824Y-88362376D01*
X148201612Y-88176480D01*
X148043520Y-88018388D01*
X147857624Y-87894176D01*
X147651067Y-87808617D01*
X147431788Y-87765000D01*
X147254999Y-87765000D01*
X147254999Y-87499802D01*
X147259801Y-87495000D01*
X147431788Y-87495000D01*
X147651067Y-87451383D01*
X147857624Y-87365824D01*
X148043520Y-87241612D01*
X148201612Y-87083520D01*
X148325824Y-86897624D01*
X148411383Y-86691067D01*
X148455000Y-86471788D01*
X148455000Y-86248212D01*
X148411383Y-86028933D01*
X148337266Y-85850000D01*
X156290201Y-85850000D01*
X161888165Y-91447965D01*
G37*
%TD.AperFunction*%
D20*
X137287000Y-92583000D02*
X137307000Y-92583000D01*
X137307000Y-92837000D01*
X137287000Y-92837000D01*
X137287000Y-92857000D01*
X137033000Y-92857000D01*
X137033000Y-92837000D01*
X137013000Y-92837000D01*
X137013000Y-92583000D01*
X137033000Y-92583000D01*
X137033000Y-92563000D01*
X137287000Y-92563000D01*
X137287000Y-92583000D01*
%TA.AperFunction,Conductor*%
D21*
G36*
X137287000Y-92583000D02*
G01*
X137307000Y-92583000D01*
X137307000Y-92837000D01*
X137287000Y-92837000D01*
X137287000Y-92857000D01*
X137033000Y-92857000D01*
X137033000Y-92837000D01*
X137013000Y-92837000D01*
X137013000Y-92583000D01*
X137033000Y-92583000D01*
X137033000Y-92563000D01*
X137287000Y-92563000D01*
X137287000Y-92583000D01*
G37*
%TD.AperFunction*%
D20*
X143342429Y-85873996D02*
X143273700Y-86148184D01*
X143259783Y-86430512D01*
X143301213Y-86710130D01*
X143396397Y-86976292D01*
X143463329Y-87101514D01*
X143707298Y-87173097D01*
X144520395Y-86360000D01*
X144506253Y-86345858D01*
X144685858Y-86166253D01*
X144700000Y-86180395D01*
X144714143Y-86166253D01*
X144893748Y-86345858D01*
X144879605Y-86360000D01*
X145692702Y-87173097D01*
X145733680Y-87161074D01*
X145731323Y-87185001D01*
X145734999Y-87222323D01*
X145734999Y-87501480D01*
X145706606Y-87514666D01*
X145667702Y-87543099D01*
X145659911Y-87547994D01*
X145617398Y-87570718D01*
X145567779Y-87611440D01*
X145517038Y-87650752D01*
X145485427Y-87687138D01*
X145478907Y-87693658D01*
X145442521Y-87725269D01*
X145403209Y-87776009D01*
X145362486Y-87825630D01*
X145339764Y-87868139D01*
X145339258Y-87868945D01*
X145186004Y-87796429D01*
X145041145Y-87760118D01*
X145050130Y-87758787D01*
X145316292Y-87663603D01*
X145441514Y-87596671D01*
X145513097Y-87352702D01*
X144700000Y-86539605D01*
X143886903Y-87352702D01*
X143958486Y-87596671D01*
X144213996Y-87717571D01*
X144358855Y-87753882D01*
X144349870Y-87755213D01*
X144083708Y-87850397D01*
X143958486Y-87917329D01*
X143886903Y-88161298D01*
X144700000Y-88974395D01*
X144714143Y-88960253D01*
X144893748Y-89139858D01*
X144879605Y-89154000D01*
X145692702Y-89967097D01*
X145728000Y-89956740D01*
X145727999Y-90687199D01*
X145143270Y-91271928D01*
X144416730Y-91271928D01*
X143291504Y-90146702D01*
X143886903Y-90146702D01*
X143958486Y-90390671D01*
X144213996Y-90511571D01*
X144488184Y-90580300D01*
X144770512Y-90594217D01*
X145050130Y-90552787D01*
X145316292Y-90457603D01*
X145441514Y-90390671D01*
X145513097Y-90146702D01*
X144700000Y-89333605D01*
X143886903Y-90146702D01*
X143291504Y-90146702D01*
X142369314Y-89224512D01*
X143259783Y-89224512D01*
X143301213Y-89504130D01*
X143396397Y-89770292D01*
X143463329Y-89895514D01*
X143707298Y-89967097D01*
X144520395Y-89154000D01*
X143707298Y-88340903D01*
X143463329Y-88412486D01*
X143342429Y-88667996D01*
X143273700Y-88942184D01*
X143259783Y-89224512D01*
X142369314Y-89224512D01*
X141787804Y-88643003D01*
X141764001Y-88613999D01*
X141648276Y-88519026D01*
X141516247Y-88448454D01*
X141372986Y-88404997D01*
X141261333Y-88394000D01*
X141261322Y-88394000D01*
X141224000Y-88390324D01*
X141186678Y-88394000D01*
X140918043Y-88394000D01*
X140814637Y-88239241D01*
X140614759Y-88039363D01*
X140379727Y-87882320D01*
X140118574Y-87774147D01*
X140032371Y-87757000D01*
X140118574Y-87739853D01*
X140379727Y-87631680D01*
X140614759Y-87474637D01*
X140814637Y-87274759D01*
X140971680Y-87039727D01*
X141079853Y-86778574D01*
X141135000Y-86501335D01*
X141135000Y-86218665D01*
X141079853Y-85941426D01*
X141041983Y-85850000D01*
X143353783Y-85850000D01*
X143342429Y-85873996D01*
%TA.AperFunction,Conductor*%
D21*
G36*
X143342429Y-85873996D02*
G01*
X143273700Y-86148184D01*
X143259783Y-86430512D01*
X143301213Y-86710130D01*
X143396397Y-86976292D01*
X143463329Y-87101514D01*
X143707298Y-87173097D01*
X144520395Y-86360000D01*
X144506253Y-86345858D01*
X144685858Y-86166253D01*
X144700000Y-86180395D01*
X144714143Y-86166253D01*
X144893748Y-86345858D01*
X144879605Y-86360000D01*
X145692702Y-87173097D01*
X145733680Y-87161074D01*
X145731323Y-87185001D01*
X145734999Y-87222323D01*
X145734999Y-87501480D01*
X145706606Y-87514666D01*
X145667702Y-87543099D01*
X145659911Y-87547994D01*
X145617398Y-87570718D01*
X145567779Y-87611440D01*
X145517038Y-87650752D01*
X145485427Y-87687138D01*
X145478907Y-87693658D01*
X145442521Y-87725269D01*
X145403209Y-87776009D01*
X145362486Y-87825630D01*
X145339764Y-87868139D01*
X145339258Y-87868945D01*
X145186004Y-87796429D01*
X145041145Y-87760118D01*
X145050130Y-87758787D01*
X145316292Y-87663603D01*
X145441514Y-87596671D01*
X145513097Y-87352702D01*
X144700000Y-86539605D01*
X143886903Y-87352702D01*
X143958486Y-87596671D01*
X144213996Y-87717571D01*
X144358855Y-87753882D01*
X144349870Y-87755213D01*
X144083708Y-87850397D01*
X143958486Y-87917329D01*
X143886903Y-88161298D01*
X144700000Y-88974395D01*
X144714143Y-88960253D01*
X144893748Y-89139858D01*
X144879605Y-89154000D01*
X145692702Y-89967097D01*
X145728000Y-89956740D01*
X145727999Y-90687199D01*
X145143270Y-91271928D01*
X144416730Y-91271928D01*
X143291504Y-90146702D01*
X143886903Y-90146702D01*
X143958486Y-90390671D01*
X144213996Y-90511571D01*
X144488184Y-90580300D01*
X144770512Y-90594217D01*
X145050130Y-90552787D01*
X145316292Y-90457603D01*
X145441514Y-90390671D01*
X145513097Y-90146702D01*
X144700000Y-89333605D01*
X143886903Y-90146702D01*
X143291504Y-90146702D01*
X142369314Y-89224512D01*
X143259783Y-89224512D01*
X143301213Y-89504130D01*
X143396397Y-89770292D01*
X143463329Y-89895514D01*
X143707298Y-89967097D01*
X144520395Y-89154000D01*
X143707298Y-88340903D01*
X143463329Y-88412486D01*
X143342429Y-88667996D01*
X143273700Y-88942184D01*
X143259783Y-89224512D01*
X142369314Y-89224512D01*
X141787804Y-88643003D01*
X141764001Y-88613999D01*
X141648276Y-88519026D01*
X141516247Y-88448454D01*
X141372986Y-88404997D01*
X141261333Y-88394000D01*
X141261322Y-88394000D01*
X141224000Y-88390324D01*
X141186678Y-88394000D01*
X140918043Y-88394000D01*
X140814637Y-88239241D01*
X140614759Y-88039363D01*
X140379727Y-87882320D01*
X140118574Y-87774147D01*
X140032371Y-87757000D01*
X140118574Y-87739853D01*
X140379727Y-87631680D01*
X140614759Y-87474637D01*
X140814637Y-87274759D01*
X140971680Y-87039727D01*
X141079853Y-86778574D01*
X141135000Y-86501335D01*
X141135000Y-86218665D01*
X141079853Y-85941426D01*
X141041983Y-85850000D01*
X143353783Y-85850000D01*
X143342429Y-85873996D01*
G37*
%TD.AperFunction*%
D20*
X178703748Y-59385858D02*
X178689605Y-59400000D01*
X178703748Y-59414143D01*
X178524143Y-59593748D01*
X178510000Y-59579605D01*
X178495858Y-59593748D01*
X178316253Y-59414143D01*
X178330395Y-59400000D01*
X178316253Y-59385858D01*
X178495858Y-59206253D01*
X178510000Y-59220395D01*
X178524143Y-59206253D01*
X178703748Y-59385858D01*
%TA.AperFunction,Conductor*%
D21*
G36*
X178703748Y-59385858D02*
G01*
X178689605Y-59400000D01*
X178703748Y-59414143D01*
X178524143Y-59593748D01*
X178510000Y-59579605D01*
X178495858Y-59593748D01*
X178316253Y-59414143D01*
X178330395Y-59400000D01*
X178316253Y-59385858D01*
X178495858Y-59206253D01*
X178510000Y-59220395D01*
X178524143Y-59206253D01*
X178703748Y-59385858D01*
G37*
%TD.AperFunction*%
M02*
