%TF.GenerationSoftware,KiCad,Pcbnew,5.1.8-5.1.8*%
%TF.CreationDate,2022-01-13T22:28:20+01:00*%
%TF.ProjectId,usb_binary_clk,7573625f-6269-46e6-9172-795f636c6b2e,rev?*%
%TF.SameCoordinates,Original*%
%TF.FileFunction,Soldermask,Top*%
%TF.FilePolarity,Negative*%
%FSLAX46Y46*%
G04 Gerber Fmt 4.6, Leading zero omitted, Abs format (unit mm)*
G04 Created by KiCad (PCBNEW 5.1.8-5.1.8) date 2022-01-13 22:28:20*
%MOMM*%
%LPD*%
G01*
G04 APERTURE LIST*
%ADD10C,2.000000*%
%ADD11C,1.800000*%
%ADD12R,1.800000X1.800000*%
%ADD13O,1.600000X1.600000*%
%ADD14C,1.600000*%
%ADD15C,1.000000*%
%ADD16R,1.600000X1.600000*%
G04 APERTURE END LIST*
D10*
X172010000Y-59400000D03*
X172010000Y-54900000D03*
X178510000Y-59400000D03*
X178510000Y-54900000D03*
X172010000Y-70830000D03*
X172010000Y-66330000D03*
X178510000Y-70830000D03*
X178510000Y-66330000D03*
X172010000Y-82260000D03*
X172010000Y-77760000D03*
X178510000Y-82260000D03*
X178510000Y-77760000D03*
D11*
X166370000Y-87630000D03*
D12*
X163830000Y-87630000D03*
D13*
X132080000Y-91440000D03*
D14*
X132080000Y-101600000D03*
D13*
X148590000Y-99060000D03*
D14*
X158750000Y-99060000D03*
D13*
X179070000Y-62865000D03*
D14*
X171450000Y-62865000D03*
D13*
X179070000Y-74295000D03*
D14*
X171450000Y-74295000D03*
D13*
X137160000Y-80010000D03*
D14*
X129540000Y-80010000D03*
D13*
X179070000Y-85725000D03*
D14*
X171450000Y-85725000D03*
D13*
X137160000Y-72390000D03*
D14*
X129540000Y-72390000D03*
D13*
X137160000Y-87630000D03*
D14*
X129540000Y-87630000D03*
D13*
X137160000Y-64770000D03*
D14*
X129540000Y-64770000D03*
D13*
X137160000Y-57150000D03*
D14*
X129540000Y-57150000D03*
D11*
X143510000Y-72390000D03*
D12*
X140970000Y-72390000D03*
D11*
X166370000Y-80010000D03*
D12*
X163830000Y-80010000D03*
D11*
X158750000Y-80010000D03*
D12*
X156210000Y-80010000D03*
D11*
X151130000Y-80010000D03*
D12*
X148590000Y-80010000D03*
D11*
X143510000Y-80010000D03*
D12*
X140970000Y-80010000D03*
D11*
X166370000Y-72390000D03*
D12*
X163830000Y-72390000D03*
D11*
X158750000Y-72390000D03*
D12*
X156210000Y-72390000D03*
D11*
X151130000Y-72390000D03*
D12*
X148590000Y-72390000D03*
D11*
X166370000Y-64770000D03*
D12*
X163830000Y-64770000D03*
D11*
X158750000Y-64770000D03*
D12*
X156210000Y-64770000D03*
D11*
X151130000Y-64770000D03*
D12*
X148590000Y-64770000D03*
D11*
X143510000Y-64770000D03*
D12*
X140970000Y-64770000D03*
D11*
X166370000Y-57150000D03*
D12*
X163830000Y-57150000D03*
D11*
X158750000Y-57150000D03*
D12*
X156210000Y-57150000D03*
D11*
X151130000Y-57150000D03*
D12*
X148590000Y-57150000D03*
D11*
X143510000Y-57150000D03*
D12*
X140970000Y-57150000D03*
D15*
X147320000Y-88900000D03*
X147320000Y-86360000D03*
D14*
X162560000Y-100330000D03*
D13*
X177800000Y-92710000D03*
X165100000Y-100330000D03*
X175260000Y-92710000D03*
X167640000Y-100330000D03*
X172720000Y-92710000D03*
X170180000Y-100330000D03*
X170180000Y-92710000D03*
X172720000Y-100330000D03*
X167640000Y-92710000D03*
X175260000Y-100330000D03*
X165100000Y-92710000D03*
X177800000Y-100330000D03*
X162560000Y-92710000D03*
D16*
X144780000Y-92710000D03*
D13*
X137160000Y-100330000D03*
X142240000Y-92710000D03*
X139700000Y-100330000D03*
X139700000Y-92710000D03*
X142240000Y-100330000D03*
X137160000Y-92710000D03*
X144780000Y-100330000D03*
D14*
X151210000Y-95885000D03*
X156210000Y-95885000D03*
X144700000Y-86360000D03*
X139700000Y-86360000D03*
X139700000Y-89154000D03*
X144700000Y-89154000D03*
X151210000Y-92710000D03*
X156210000Y-92710000D03*
M02*
